<?xml version="1.0" encoding="iso-8859-1"?>
<!-- Generator: Adobe Illustrator 19.0.0, SVG Export Plug-In . SVG Version: 6.00 Build 0)  -->
<svg version="1.1" id="Layer_1" xmlns="http://www.w3.org/2000/svg" xmlns:xlink="http://www.w3.org/1999/xlink" x="0px" y="0px"
	 viewBox="0 0 511.998 511.998" style="enable-background:new 0 0 511.998 511.998;" xml:space="preserve">
<path style="fill:#B1DBF2;" d="M503.982,215.82c0,8.707-7.056,15.764-15.763,15.764H358.468c-8.705,0-15.763-7.058-15.763-15.764
	v-71.817c0-8.706,7.058-15.764,15.763-15.764h129.751c8.708,0,15.763,7.059,15.763,15.764V215.82z"/>
<g>
	<path style="fill:#90C8EC;" d="M169.296,215.82c0,8.707-7.056,15.764-15.763,15.764H23.781c-8.707,0-15.763-7.058-15.763-15.764
		v-71.817c0-8.706,7.056-15.764,15.763-15.764h129.751c8.708,0,15.763,7.059,15.763,15.764v71.817H169.296z"/>
	<path style="fill:#90C8EC;" d="M488.219,128.239h-64.877v103.344h64.877c8.708,0,15.763-7.058,15.763-15.764v-71.817
		C503.982,135.298,496.927,128.239,488.219,128.239z"/>
</g>
<path style="fill:#B1DBF2;" d="M88.658,128.239H23.781c-8.707,0-15.763,7.059-15.763,15.764v71.817
	c0,8.707,7.056,15.764,15.763,15.764h64.877C88.658,231.584,88.658,128.239,88.658,128.239z"/>
<path style="fill:#578CAD;" d="M325.372,364.198h70.541c8.704,0,15.763-7.058,15.763-15.764V324.32
	c0-19.979-16.195-36.173-36.174-36.173H136.498c-19.977,0-36.172,16.194-36.172,36.173v24.115c0,8.706,7.058,15.764,15.765,15.764
	h182.553"/>
<g>
	<path style="fill:#3A5D74;" d="M155.502,364.198v11.458c0,8.708,7.058,15.765,15.765,15.765h169.469
		c8.706,0,15.765-7.058,15.765-15.765v-11.458"/>
	<path style="fill:#3A5D74;" d="M316.243,253.99H195.759c-8.708,0-15.765,7.058-15.765,15.764v18.393h152.011v-18.393
		C332.005,261.047,324.947,253.99,316.243,253.99z"/>
</g>
<path style="fill:#B1DBF2;" d="M312.928,253.99V128.242c0-31.441-25.485-56.931-56.927-56.931c-31.44,0-56.93,25.489-56.93,56.931
	V253.99H312.928z"/>
<circle style="fill:#578CAD;" cx="255.996" cy="196.113" r="25.399"/>
<g style="opacity:0.2;">
	<path style="fill:#231F20;" d="M33.677,215.82v-71.817c0-8.706,7.056-15.764,15.763-15.764H23.781
		c-8.707,0-15.763,7.059-15.763,15.764v71.817c0,8.707,7.056,15.764,15.763,15.764h25.658
		C40.733,231.584,33.677,224.526,33.677,215.82z"/>
</g>
<g style="opacity:0.2;">
	<path style="fill:#231F20;" d="M125.985,348.434V324.32c0-19.979,16.195-36.173,36.172-36.173h-25.658
		c-19.977,0-36.172,16.194-36.172,36.173v24.115c0,8.706,7.058,15.764,15.765,15.764h25.658
		C133.042,364.198,125.985,357.14,125.985,348.434z"/>
</g>
<g style="opacity:0.2;">
	<path style="fill:#231F20;" d="M181.16,375.655v-11.458h-25.658v11.458c0,8.708,7.058,15.765,15.765,15.765h25.658
		C188.218,391.421,181.16,384.362,181.16,375.655z"/>
</g>
<g style="opacity:0.2;">
	<path style="fill:#231F20;" d="M221.418,253.99h-25.658c-8.708,0-15.765,7.058-15.765,15.764v18.393h25.658v-18.393
		C205.653,261.047,212.711,253.99,221.418,253.99z"/>
</g>
<g style="opacity:0.2;">
	<path style="fill:#231F20;" d="M268.83,72.78c-4.125-0.95-8.415-1.469-12.829-1.469c-31.44,0-56.93,25.489-56.93,56.931V253.99
		h25.658V128.242C224.73,101.214,243.571,78.601,268.83,72.78z"/>
</g>
<g style="opacity:0.2;">
	<path style="fill:#231F20;" d="M256.26,196.115c0-9.346,5.051-17.506,12.569-21.917c-3.766-2.209-8.147-3.481-12.828-3.481
		c-14.028,0-25.4,11.37-25.4,25.398c0,14.026,11.372,25.398,25.4,25.398c4.682,0,9.063-1.272,12.828-3.482
		C261.311,213.621,256.26,205.46,256.26,196.115z"/>
</g>
<g>
	<path style="fill:#231F20;" d="M130.405,326.171c0,4.429,3.589,8.018,8.018,8.018h235.154c4.429,0,8.018-3.589,8.018-8.018
		s-3.589-8.018-8.018-8.018H138.424C133.994,318.153,130.405,321.743,130.405,326.171z"/>
	<path style="fill:#231F20;" d="M256.001,229.531c18.425,0,33.416-14.99,33.416-33.416s-14.99-33.416-33.416-33.416
		c-18.426,0-33.418,14.99-33.418,33.416S237.575,229.531,256.001,229.531z M256.001,178.736c9.583,0,17.379,7.796,17.379,17.379
		c0,9.583-7.796,17.379-17.379,17.379c-9.584,0-17.381-7.796-17.381-17.379C238.62,186.532,246.417,178.736,256.001,178.736z"/>
	<path style="fill:#231F20;" d="M488.219,120.221h-64.877h-64.875c-13.114,0-23.781,10.669-23.781,23.782v5.12h-13.74v-20.882
		c0-35.813-29.134-64.949-64.946-64.949c-35.813,0-64.948,29.136-64.948,64.949v20.882h-13.74v-5.12
		c0-13.114-10.669-23.782-23.781-23.782H88.658H23.781C10.669,120.221,0,130.89,0,144.003v71.817
		c0,13.114,10.669,23.782,23.781,23.782h64.877h64.875c12.477,0,22.733-9.661,23.7-21.894h13.821v28.734
		c-10.867,2.191-19.077,11.81-19.077,23.313v10.375h-35.479c-24.367,0-44.19,19.824-44.19,44.191v24.115
		c0,13.114,10.669,23.782,23.783,23.782h31.392v3.439c0,9.321,5.394,17.404,13.222,21.301l-28.157,39.037
		c-2.59,3.591-1.779,8.604,1.812,11.195c1.419,1.023,3.059,1.516,4.685,1.516c2.489,0,4.942-1.156,6.51-3.328l33.132-45.937h69.295
		v41.246c0,4.429,3.589,8.018,8.018,8.018c4.429,0,8.018-3.589,8.018-8.018V399.44h69.295l33.132,45.937
		c1.567,2.172,4.021,3.328,6.51,3.328c1.626,0,3.266-0.493,4.685-1.516c3.591-2.59,4.403-7.602,1.812-11.195l-28.157-39.037
		c7.828-3.897,13.222-11.979,13.222-21.301v-3.439h31.394c13.114,0,23.781-10.669,23.781-23.782V324.32
		c0-24.367-19.824-44.191-44.192-44.191H340.02v-10.375c0-11.502-8.21-21.123-19.077-23.313v-28.733h13.821
		c0.966,12.233,11.222,21.894,23.7,21.894h64.875h64.877c13.114,0,23.781-10.669,23.781-23.782v-71.817
		C512,130.89,501.333,120.221,488.219,120.221z M207.09,128.242c0-26.971,21.941-48.912,48.911-48.912
		c26.969,0,48.909,21.941,48.909,48.912v28.9v52.547v36.283h-97.82v-36.283v-52.547V128.242z M23.781,223.566
		c-4.27,0-7.745-3.475-7.745-7.746v-71.817c0-4.271,3.475-7.746,7.745-7.746H80.64v87.308H23.781z M161.278,215.82
		c0,4.271-3.475,7.746-7.745,7.746H96.676v-87.308h56.857c4.27,0,7.745,3.475,7.745,7.746v13.138v52.547V215.82z M177.314,201.671
		V165.16h13.74v36.511H177.314z M403.658,324.32v24.115c0,4.271-3.475,7.746-7.745,7.746h-70.541c-4.429,0-8.018,3.589-8.018,8.018
		c0,4.429,3.589,8.018,8.018,8.018h23.111v3.439c0,4.271-3.476,7.747-7.747,7.747H171.266c-4.271,0-7.747-3.476-7.747-7.747v-3.439
		h135.124c4.429,0,8.018-3.589,8.018-8.018c0-4.429-3.589-8.018-8.018-8.018H116.091c-4.271,0-7.747-3.475-7.747-7.746V324.32
		c0-15.524,12.629-28.155,28.154-28.155h43.497h152.011h43.497C391.027,296.165,403.658,308.794,403.658,324.32z M323.987,269.754
		v10.375H188.013v-10.375c0-4.271,3.476-7.746,7.747-7.746h3.312h113.857h3.314C320.513,262.008,323.987,265.483,323.987,269.754z
		 M320.947,165.16h13.74v36.511h-13.74V165.16z M350.723,215.82v-6.13v-52.547v-13.138c0-4.271,3.475-7.746,7.745-7.746h56.857
		v87.308h-56.857C354.198,223.566,350.723,220.091,350.723,215.82z M495.964,215.82c0,4.271-3.475,7.746-7.745,7.746H431.36v-87.308
		h56.859c4.27,0,7.745,3.475,7.745,7.746V215.82z"/>
</g>
<g>
</g>
<g>
</g>
<g>
</g>
<g>
</g>
<g>
</g>
<g>
</g>
<g>
</g>
<g>
</g>
<g>
</g>
<g>
</g>
<g>
</g>
<g>
</g>
<g>
</g>
<g>
</g>
<g>
</g>
</svg>
