<?xml version="1.0" encoding="iso-8859-1"?>
<!-- Generator: Adobe Illustrator 19.0.0, SVG Export Plug-In . SVG Version: 6.00 Build 0)  -->
<svg version="1.1" id="Layer_1" xmlns="http://www.w3.org/2000/svg" xmlns:xlink="http://www.w3.org/1999/xlink" x="0px" y="0px"
	 viewBox="0 0 511.999 511.999" style="enable-background:new 0 0 511.999 511.999;" xml:space="preserve">
<path style="fill:#90C8EC;" d="M273.071,143.379h-34.143c-33.945,0-61.462,27.518-61.462,61.458V402.41h157.065V204.837
	C334.531,170.897,307.016,143.379,273.071,143.379z"/>
<g>
	<path style="fill:#C1E7F7;" d="M238.928,143.379h34.143c10.014,0,19.459,2.41,27.815,6.659V77.611
		c0-30.936-18.423-57.553-44.887-69.527c-26.463,11.974-44.889,38.592-44.889,69.527v72.427
		C219.467,145.789,228.913,143.379,238.928,143.379z"/>
	<rect x="177.464" y="352.796" style="fill:#C1E7F7;" width="157.071" height="49.615"/>
</g>
<g>
	<circle style="fill:#578CAD;" cx="255.999" cy="224.332" r="24.685"/>
	<path style="fill:#578CAD;" d="M390.836,295.096v-46.445c0-15.549-12.603-28.151-28.154-28.151
		c-15.548,0-28.15,12.603-28.15,28.151v153.758h35.775c11.337,0,20.53-9.19,20.53-20.527v-59.831"/>
	<path style="fill:#578CAD;" d="M149.315,220.499c15.549,0,28.151,12.603,28.151,28.151v153.758h-35.774
		c-11.338,0-20.53-9.19-20.53-20.527V248.651C121.162,233.102,133.765,220.499,149.315,220.499z"/>
</g>
<g style="opacity:0.2;">
	<path style="fill:#231F20;" d="M236.873,72.11c0-24.078,10.228-45.648,26.381-60.26c-2.342-1.379-4.763-2.637-7.255-3.765
		c-26.463,11.974-44.889,38.592-44.889,69.527v72.427c7.781-3.957,16.512-6.292,25.762-6.599V72.11H236.873z"/>
</g>
<g style="opacity:0.2;">
	<path style="fill:#231F20;" d="M257.075,224.327c0-8.912,4.725-16.719,11.805-21.059c-3.751-2.298-8.16-3.625-12.881-3.625
		c-13.633,0-24.686,11.053-24.686,24.684c0,13.632,11.053,24.684,24.686,24.684c4.721,0,9.131-1.326,12.881-3.625
		C261.801,241.045,257.075,233.238,257.075,224.327z"/>
</g>
<g>
	<path style="fill:#3A5D74;" d="M121.162,352.798v29.084c0,11.337,9.191,20.527,20.53,20.527h35.774v-49.611H121.162z"/>
	<path style="fill:#3A5D74;" d="M334.531,352.798v49.611h35.775c11.337,0,20.53-9.19,20.53-20.527v-29.084H334.531z"/>
</g>
<polygon style="fill:#FFD960;" points="351.639,503.915 160.359,503.915 194.574,402.41 317.423,402.41 "/>
<g style="opacity:0.2;">
	<polygon style="fill:#231F20;" points="194.574,402.41 160.359,503.915 188.277,503.915 222.493,402.41 	"/>
</g>
<polygon style="fill:#FF9737;" points="292.06,503.915 219.936,503.915 232.836,402.41 279.157,402.41 "/>
<g>
	<path style="fill:#231F20;" d="M390.836,303.18c4.466,0,8.084-3.618,8.084-8.084v-46.445c0-19.98-16.256-36.236-36.238-36.236
		c-7.417,0-14.318,2.243-20.066,6.083v-13.66c0-25.22-13.497-47.344-33.646-59.538V77.611c0-33.066-19.484-63.248-49.638-76.893
		c-2.118-0.958-4.548-0.958-6.666,0c-30.155,13.645-49.64,43.827-49.64,76.893V145.3c-20.148,12.194-33.644,34.318-33.644,59.536
		v13.66c-5.749-3.839-12.65-6.083-20.067-6.083c-19.981,0-36.237,16.256-36.237,36.236v104.147v29.084
		c0,15.777,12.836,28.612,28.614,28.612h35.774h5.852l-30.621,90.84c-0.831,2.467-0.425,5.184,1.095,7.298s3.963,3.368,6.567,3.368
		h59.576h72.124h0.022h59.558c0.007,0,0.016,0,0.022,0c4.466,0,8.084-3.618,8.084-8.084c0-1.117-0.225-2.18-0.635-3.147
		l-30.43-90.275h5.852h35.774c15.778,0,28.614-12.835,28.614-28.612v-29.084v-30.746c0-4.466-3.618-8.084-8.084-8.084
		s-8.084,3.618-8.084,8.084v22.662h-40.135V248.65c0-11.066,9.003-20.067,20.066-20.067c11.067,0,20.069,9.003,20.069,20.067v46.445
		C382.752,299.562,386.371,303.18,390.836,303.18z M219.195,138.136V77.612c0-25.49,14.328-48.863,36.805-60.543
		c22.475,11.68,36.803,35.052,36.803,60.543v60.524c-1.878-0.558-3.779-1.024-5.698-1.417c-0.028-0.006-0.057-0.011-0.086-0.017
		c-1.115-0.227-2.234-0.43-3.362-0.603c-0.004-0.001-0.008-0.001-0.012-0.002c-1.135-0.172-2.277-0.319-3.423-0.437
		c-0.065-0.006-0.13-0.011-0.196-0.017c-0.987-0.097-1.979-0.171-2.975-0.226c-0.247-0.014-0.495-0.028-0.743-0.04
		c-1.075-0.048-2.153-0.082-3.237-0.082h-34.143c-1.084,0-2.162,0.033-3.237,0.082c-0.248,0.011-0.495,0.025-0.742,0.04
		c-0.997,0.056-1.991,0.129-2.979,0.227c-0.064,0.006-0.127,0.011-0.191,0.017c-2.296,0.233-4.567,0.584-6.813,1.043
		c-0.02,0.004-0.04,0.008-0.06,0.012C222.982,137.11,221.077,137.577,219.195,138.136z M185.55,204.837
		c0-20.925,12.11-39.065,29.684-47.809c0.572-0.285,1.149-0.554,1.728-0.817c0.312-0.141,0.621-0.288,0.936-0.424
		c0.648-0.279,1.301-0.537,1.956-0.789c0.493-0.19,0.988-0.371,1.488-0.545c0.608-0.213,1.217-0.425,1.831-0.615
		c0.51-0.157,1.027-0.296,1.544-0.439c0.395-0.11,0.789-0.222,1.187-0.321c0.535-0.135,1.075-0.255,1.616-0.374
		c0.397-0.086,0.793-0.17,1.191-0.248c0.528-0.102,1.06-0.198,1.593-0.286c0.444-0.072,0.889-0.135,1.336-0.196
		c0.492-0.068,0.983-0.135,1.479-0.189c0.555-0.059,1.113-0.103,1.673-0.146c0.399-0.031,0.796-0.069,1.196-0.092
		c0.975-0.053,1.954-0.084,2.939-0.084h34.143c0.985,0,1.964,0.032,2.939,0.084c0.4,0.022,0.796,0.06,1.193,0.091
		c0.56,0.043,1.12,0.086,1.677,0.147c0.494,0.054,0.984,0.121,1.475,0.188c0.448,0.061,0.896,0.124,1.341,0.197
		c0.532,0.087,1.061,0.182,1.588,0.285c0.401,0.078,0.8,0.163,1.199,0.249c0.539,0.117,1.076,0.238,1.608,0.372
		c0.402,0.101,0.801,0.215,1.2,0.326c0.512,0.141,1.025,0.279,1.53,0.435c0.623,0.193,1.242,0.407,1.859,0.624
		c0.487,0.17,0.971,0.348,1.452,0.532c0.66,0.254,1.318,0.513,1.97,0.794c0.313,0.135,0.62,0.28,0.93,0.421
		c0.58,0.263,1.158,0.534,1.731,0.818c17.575,8.744,29.686,26.885,29.686,47.81v43.813v96.063h-62.365v-46.091
		c0-4.466-3.618-8.084-8.084-8.084c-4.466,0-8.084,3.618-8.084,8.084v46.091h-62.364v-96.063v-43.813H185.55z M317.423,394.326
		h-38.266h-46.32h-38.262h-9.024v-33.443h62.365v9.592c0,4.466,3.618,8.084,8.084,8.084c4.466,0,8.084-3.618,8.084-8.084v-9.592
		h62.364v33.443H317.423z M149.315,228.583c11.066,0,20.067,9.003,20.067,20.067v96.063h-40.135v-96.063
		C129.246,237.586,138.25,228.583,149.315,228.583z M129.246,381.883v-21h40.135v33.443h-27.69
		C134.83,394.326,129.246,388.744,129.246,381.883z M200.381,410.494h23.279l-10.847,85.338h-41.199L200.381,410.494z
		 M229.112,495.832l10.847-85.338h32.076l10.848,85.338H229.112z M340.383,495.832h-41.201l-10.848-85.338h23.283L340.383,495.832z
		 M382.752,381.883c0,6.861-5.583,12.443-12.445,12.443h-27.69v-33.443h40.135L382.752,381.883L382.752,381.883z"/>
	<path style="fill:#231F20;" d="M255.999,257.095c18.069,0,32.768-14.7,32.768-32.768s-14.7-32.768-32.768-32.768
		c-18.07,0-32.77,14.7-32.77,32.768S237.929,257.095,255.999,257.095z M255.999,207.726c9.153,0,16.6,7.446,16.6,16.6
		c0,9.153-7.446,16.6-16.6,16.6c-9.155,0-16.602-7.446-16.602-16.6C239.398,215.172,246.845,207.726,255.999,207.726z"/>
</g>
<g style="opacity:0.2;">
	<path style="fill:#231F20;" d="M264.689,143.379h-25.762c-33.945,0-61.462,27.518-61.462,61.458V402.41h25.762V204.837
		C203.229,170.897,230.744,143.379,264.689,143.379z"/>
</g>
<g style="opacity:0.2;">
	<path style="fill:#231F20;" d="M375.565,223.621c-3.861-1.992-8.238-3.122-12.882-3.122c-15.548,0-28.15,12.603-28.15,28.151
		v153.758h25.762V248.651C360.294,237.746,366.496,228.297,375.565,223.621z"/>
</g>
<g style="opacity:0.2;">
	<path style="fill:#231F20;" d="M146.924,381.883V248.651c0-10.905,6.204-20.354,15.272-25.03
		c-3.861-1.992-8.238-3.122-12.881-3.122c-15.55,0-28.152,12.603-28.152,28.151v133.232c0,11.337,9.191,20.527,20.53,20.527h25.762
		C156.116,402.41,146.924,393.219,146.924,381.883z"/>
</g>
<g>
</g>
<g>
</g>
<g>
</g>
<g>
</g>
<g>
</g>
<g>
</g>
<g>
</g>
<g>
</g>
<g>
</g>
<g>
</g>
<g>
</g>
<g>
</g>
<g>
</g>
<g>
</g>
<g>
</g>
</svg>
