<?xml version="1.0" encoding="iso-8859-1"?>
<!-- Generator: Adobe Illustrator 19.0.0, SVG Export Plug-In . SVG Version: 6.00 Build 0)  -->
<svg version="1.1" id="Layer_1" xmlns="http://www.w3.org/2000/svg" xmlns:xlink="http://www.w3.org/1999/xlink" x="0px" y="0px"
	 viewBox="0 0 512.002 512.002" style="enable-background:new 0 0 512.002 512.002;" xml:space="preserve">
<path style="fill:#FF9737;" d="M461.495,394.501c-44.592,65.95-120.066,109.388-205.494,109.388
	c-136.686,0-247.888-111.202-247.888-247.887S119.315,8.113,256.001,8.113s247.888,111.203,247.888,247.888
	c0,41.88-10.44,81.369-28.856,116 M256.001,50.854c-113.118,0-205.147,92.029-205.147,205.147s92.029,205.147,205.147,205.147
	S461.15,369.119,461.15,256.001S369.119,50.854,256.001,50.854z"/>
<g style="opacity:0.1;">
	<path style="fill:#231F20;" d="M34,256.001C34,123.657,138.251,15.205,268.944,8.449c-4.288-0.221-8.602-0.336-12.944-0.336
		C119.315,8.113,8.112,119.315,8.112,256.001s111.203,247.888,247.888,247.888c4.332,0,8.637-0.117,12.915-0.339
		C138.236,496.78,34,388.335,34,256.001z"/>
</g>
<path style="fill:#FF4D30;" d="M256.001,50.854c-113.118,0-205.147,92.029-205.147,205.147s92.029,205.147,205.147,205.147
	S461.15,369.119,461.15,256.001S369.119,50.854,256.001,50.854z"/>
<g style="opacity:0.1;">
	<path style="fill:#231F20;" d="M76.739,256.001c0-108.769,85.094-198.024,192.204-204.726c-4.282-0.268-8.596-0.421-12.944-0.421
		c-113.117,0-205.146,92.029-205.146,205.147s92.029,205.147,205.147,205.147c4.348,0,8.662-0.152,12.944-0.421
		C161.833,454.026,76.739,364.77,76.739,256.001z"/>
</g>
<g>
	<path style="fill:#231F20;" d="M256.001,42.742c-117.592,0-213.259,95.667-213.259,213.259S138.409,469.26,256.001,469.26
		c117.593,0,213.261-95.667,213.261-213.259S373.592,42.742,256.001,42.742z M199.582,273.319h252.684
		c-1.978,22.6-7.775,44.124-16.762,63.906H309.312c-4.481,0-8.112,3.631-8.112,8.112c0,4.481,3.631,8.112,8.112,8.112h117.889
		c-33.965,59.436-97.98,99.586-171.201,99.586c-108.645,0-197.035-88.39-197.035-197.035c0-21.953,3.613-43.076,10.267-62.812
		h283.648c4.481,0,8.112-3.631,8.112-8.112c0-4.481-3.631-8.112-8.112-8.112H75.532c30.515-69.404,99.918-117.997,180.469-117.997
		c108.647,0,197.037,88.39,197.037,197.035c0,0.366-0.012,0.729-0.014,1.095H199.582c-4.481,0-8.112,3.631-8.112,8.112
		C191.47,269.688,195.102,273.319,199.582,273.319z"/>
	<path style="fill:#231F20;" d="M256.001,0.001C114.841,0.001,0,114.842,0,256.001s114.841,256.001,256.001,256.001
		c85.059,0,164.39-42.227,212.214-112.956c2.509-3.712,1.535-8.755-2.176-11.264c-3.713-2.51-8.756-1.535-11.264,2.176
		c-44.802,66.261-119.11,105.819-198.774,105.819C123.787,495.776,16.224,388.213,16.224,256.001S123.787,16.225,256.001,16.225
		s239.776,107.563,239.776,239.776c0,39.065-9.65,77.86-27.906,112.191c-2.103,3.956-0.602,8.867,3.354,10.972
		c3.959,2.105,8.868,0.602,10.972-3.354c19.498-36.667,29.805-78.096,29.805-119.809C512,114.842,397.159,0.001,256.001,0.001z"/>
	<path style="fill:#231F20;" d="M265.403,353.449h16.484c4.481,0,8.112-3.631,8.112-8.112c0-4.481-3.631-8.112-8.112-8.112h-16.484
		c-4.481,0-8.112,3.631-8.112,8.112C257.291,349.818,260.922,353.449,265.403,353.449z"/>
</g>
<g>
</g>
<g>
</g>
<g>
</g>
<g>
</g>
<g>
</g>
<g>
</g>
<g>
</g>
<g>
</g>
<g>
</g>
<g>
</g>
<g>
</g>
<g>
</g>
<g>
</g>
<g>
</g>
<g>
</g>
</svg>
