<?xml version="1.0" encoding="iso-8859-1"?>
<!-- Generator: Adobe Illustrator 19.0.0, SVG Export Plug-In . SVG Version: 6.00 Build 0)  -->
<svg version="1.1" id="Layer_1" xmlns="http://www.w3.org/2000/svg" xmlns:xlink="http://www.w3.org/1999/xlink" x="0px" y="0px"
	 viewBox="0 0 512 512" style="enable-background:new 0 0 512 512;" xml:space="preserve">
<g>
	<circle style="fill:#90C8EC;" cx="41.212" cy="112.006" r="33.141"/>
	<circle style="fill:#90C8EC;" cx="200.172" cy="125.499" r="33.141"/>
	<circle style="fill:#90C8EC;" cx="262.699" cy="241.914" r="33.141"/>
	<circle style="fill:#90C8EC;" cx="274.826" cy="391.039" r="33.141"/>
	<circle style="fill:#90C8EC;" cx="440.275" cy="399.497" r="33.142"/>
	<circle style="fill:#90C8EC;" cx="470.791" cy="241.613" r="33.141"/>
</g>
<g style="opacity:0.2;">
	<path style="fill:#231F20;" d="M33.618,112.002c0-13.774,8.406-25.586,20.368-30.587c-3.932-1.644-8.246-2.556-12.773-2.556
		C22.907,78.86,8.07,93.7,8.07,112.002c0,18.304,14.837,33.141,33.142,33.141c4.528,0,8.842-0.911,12.773-2.554
		C42.024,137.587,33.618,125.778,33.618,112.002z"/>
</g>
<g style="opacity:0.2;">
	<path style="fill:#231F20;" d="M192.584,125.503c0-13.774,8.406-25.586,20.367-30.587c-3.931-1.644-8.246-2.556-12.775-2.556
		c-18.303,0-33.14,14.84-33.14,33.142c0,18.304,14.837,33.142,33.14,33.142c4.529,0,8.844-0.91,12.775-2.554
		C200.989,151.089,192.584,139.279,192.584,125.503z"/>
</g>
<g style="opacity:0.2;">
	<path style="fill:#231F20;" d="M255.103,241.914c0-13.775,8.407-25.586,20.368-30.588c-3.931-1.644-8.246-2.554-12.773-2.554
		c-18.305,0-33.142,14.839-33.142,33.142s14.837,33.141,33.142,33.141c4.528,0,8.843-0.91,12.773-2.554
		C263.51,267.5,255.103,255.69,255.103,241.914z"/>
</g>
<g style="opacity:0.2;">
	<path style="fill:#231F20;" d="M267.234,391.037c0-13.775,8.406-25.586,20.367-30.588c-3.931-1.643-8.246-2.554-12.774-2.554
		c-18.303,0-33.14,14.839-33.14,33.142c0,18.304,14.837,33.142,33.14,33.142c4.529,0,8.844-0.911,12.774-2.554
		C275.639,416.624,267.234,404.813,267.234,391.037z"/>
</g>
<g style="opacity:0.2;">
	<path style="fill:#231F20;" d="M432.679,399.502c0-13.775,8.407-25.586,20.371-30.587c-3.932-1.644-8.247-2.556-12.773-2.556
		c-18.305,0-33.146,14.84-33.146,33.142c0,18.304,14.84,33.142,33.146,33.142c4.527,0,8.842-0.911,12.773-2.554
		C441.087,425.089,432.679,413.278,432.679,399.502z"/>
</g>
<g style="opacity:0.2;">
	<path style="fill:#231F20;" d="M463.196,241.611c0-13.775,8.406-25.586,20.368-30.588c-3.932-1.643-8.247-2.554-12.775-2.554
		c-18.304,0-33.141,14.839-33.141,33.142c0,18.304,14.837,33.142,33.141,33.142c4.528,0,8.843-0.911,12.775-2.554
		C471.601,267.197,463.196,255.388,463.196,241.611z"/>
</g>
<g>
	<path style="fill:#231F20;" d="M512,242.329c0-22.724-18.488-41.213-41.212-41.213c-19.929,0-36.596,14.221-40.396,33.048
		l-71.241-0.109c-0.004,0-0.009,0-0.013,0c-4.452,0-8.064,3.606-8.07,8.058c-0.006,4.457,3.601,8.076,8.057,8.082l71.232,0.109
		c2.698,13.701,12.205,24.982,24.84,30.165l-15.18,78.545c-19.12,0.118-35.19,13.317-39.695,31.081l-84.726-4.335
		c-2.685-18.336-17.485-32.781-35.987-34.931l-5.608-69.292c14.701-4.201,26.069-16.369,29.102-31.522l28.006,0.115
		c0.012,0,0.023,0,0.034,0c4.441,0,8.051-3.592,8.069-8.037c0.018-4.457-3.58-8.085-8.037-8.104l-28.063-0.115
		c-3.751-18.888-20.444-33.173-40.417-33.173c-4.177,0-8.21,0.629-12.013,1.79l-24.285-45.221
		c9.148-7.565,14.988-18.997,14.988-31.768c0-22.724-18.488-41.213-41.213-41.213c-18.746,0-34.599,12.588-39.577,29.752
		l-78.442-6.663c-2.303-20.556-19.782-36.59-40.942-36.59C18.488,70.79,0,89.277,0,112.002s18.488,41.212,41.213,41.212
		c18.746,0,34.598-12.587,39.577-29.751l78.442,6.663c2.306,20.556,19.784,36.59,40.945,36.59c4.178,0,8.211-0.629,12.014-1.792
		l24.285,45.22c-9.149,7.565-14.989,18.998-14.989,31.769c0,21.106,15.951,38.546,36.43,40.925l5.608,69.291
		c-17.243,4.927-29.907,20.819-29.907,39.623c0,22.724,18.487,41.213,41.21,41.213c19.232,0,35.426-13.243,39.95-31.087
		l84.726,4.335c2.913,19.893,20.084,35.218,40.775,35.218c22.722,0,41.209-18.488,41.209-41.213
		c0-17.21-10.606-31.981-25.622-38.142l15.179-78.544C493.65,283.397,512,264.968,512,242.329z M41.213,137.074
		c-13.825,0-25.072-11.248-25.072-25.071c0-13.825,11.248-25.072,25.072-25.072c13.824,0,25.07,11.248,25.07,25.072
		C66.283,125.826,55.035,137.074,41.213,137.074z M175.105,125.503c0-13.825,11.247-25.072,25.07-25.072
		c13.825,0,25.072,11.248,25.072,25.072S214,150.575,200.175,150.575C186.353,150.575,175.105,139.327,175.105,125.503z
		 M237.625,241.914c0-13.825,11.248-25.072,25.072-25.072c13.824,0,25.07,11.248,25.07,25.072c0,13.825-11.247,25.071-25.07,25.071
		C248.872,266.986,237.625,255.739,237.625,241.914z M274.826,416.826c-13.824,0-25.07-11.248-25.07-25.072
		s11.247-25.072,25.07-25.072c13.825,0,25.072,11.248,25.072,25.072S288.651,416.826,274.826,416.826z M445.718,242.329
		c0-13.825,11.247-25.072,25.071-25.072c13.825,0,25.071,11.248,25.071,25.072s-11.247,25.072-25.071,25.072
		C456.965,267.401,445.718,256.154,445.718,242.329z M465.346,400.22c0,13.825-11.245,25.072-25.069,25.072
		c-13.827,0-25.076-11.248-25.076-25.072c0-13.825,11.249-25.072,25.076-25.072C454.1,375.148,465.346,386.395,465.346,400.22z"/>
	<circle style="fill:#231F20;" cx="106.042" cy="225.763" r="16.571"/>
	<path style="fill:#231F20;" d="M340.101,162.15c9.149,0,16.569-7.42,16.569-16.572c0-9.152-7.42-16.571-16.569-16.571
		c-9.156,0-16.573,7.42-16.573,16.571C323.528,154.729,330.945,162.15,340.101,162.15z"/>
	<circle style="fill:#231F20;" cx="170.549" cy="306.841" r="8.285"/>
	<circle style="fill:#231F20;" cx="285.457" cy="78.854" r="8.285"/>
</g>
<g>
</g>
<g>
</g>
<g>
</g>
<g>
</g>
<g>
</g>
<g>
</g>
<g>
</g>
<g>
</g>
<g>
</g>
<g>
</g>
<g>
</g>
<g>
</g>
<g>
</g>
<g>
</g>
<g>
</g>
</svg>
