<?xml version="1.0" encoding="iso-8859-1"?>
<!-- Generator: Adobe Illustrator 19.0.0, SVG Export Plug-In . SVG Version: 6.00 Build 0)  -->
<svg version="1.1" id="Layer_1" xmlns="http://www.w3.org/2000/svg" xmlns:xlink="http://www.w3.org/1999/xlink" x="0px" y="0px"
	 viewBox="0 0 512 512" style="enable-background:new 0 0 512 512;" xml:space="preserve">
<path style="fill:#CAE9F7;" d="M337.832,303.955v-5.608v-39.845v-85.103v-45.453c0-54.538-33.933-101.116-81.829-119.861
	c-47.894,18.746-81.831,65.324-81.831,119.861v45.453v85.103v39.845v5.608v23.482v101.467v29.089
	c0,9.037,7.326,16.364,16.364,16.364h130.934c9.038,0,16.364-7.326,16.364-16.364v-29.089v-98.406"/>
<g>
	<path style="fill:#578CAD;" d="M256.002,90.488c-18.172,0-32.906,14.733-32.906,32.905h65.811
		C288.906,105.221,274.175,90.488,256.002,90.488z"/>
	<polyline style="fill:#578CAD;" points="337.832,426.432 459.804,426.432 423.716,381.168 423.716,291.804 337.832,215.207 	"/>
	<polygon style="fill:#578CAD;" points="88.287,381.168 88.287,291.804 174.172,215.207 174.172,426.432 52.198,426.432 	"/>
</g>
<path style="fill:#90C8EC;" d="M174.172,428.553v0.349v29.089c0,9.037,7.326,16.364,16.364,16.364h130.934
	c9.038,0,16.364-7.326,16.364-16.364v-29.089v-0.349H174.172z"/>
<g>
	<path style="fill:#231F20;" d="M256.002,82.404c-22.602,0-40.99,18.388-40.99,40.989c0,4.465,3.618,8.084,8.084,8.084h65.811
		c4.466,0,8.084-3.62,8.084-8.084C296.99,100.792,278.603,82.404,256.002,82.404z M232.532,115.309
		c3.361-9.729,12.612-16.736,23.47-16.736c10.857,0,20.107,7.007,23.468,16.736H232.532z"/>
	<path style="fill:#231F20;" d="M466.126,421.392L431.8,378.341v-86.536c0-2.305-0.983-4.499-2.703-6.033l-83.181-74.187v-83.639
		c0-28.057-8.438-55.018-24.401-77.968c-15.589-22.413-37.224-39.502-62.566-49.42c-1.895-0.743-3.998-0.743-5.893,0
		c-25.342,9.919-46.977,27.008-62.566,49.42c-15.965,22.952-24.402,49.913-24.402,77.968v83.639l-83.181,74.187
		c-1.72,1.534-2.703,3.728-2.703,6.033v86.536l-34.327,43.051c-1.936,2.427-2.31,5.751-0.963,8.548
		c1.347,2.798,4.178,4.577,7.283,4.577h113.889v23.477c0,13.48,10.968,24.448,24.448,24.448h57.383v21.475
		c0,4.465,3.618,8.084,8.084,8.084c4.466,0,8.084-3.62,8.084-8.084V482.44h57.382c13.48,0,24.448-10.967,24.448-24.448v-23.477
		h113.888c3.105,0,5.936-1.779,7.283-4.577C468.435,427.142,468.062,423.82,466.126,421.392z M94.609,386.208
		c1.141-1.433,1.763-3.209,1.763-5.04v-85.742l69.716-62.177v185.098H68.983L94.609,386.208z M190.535,466.272
		c-4.565,0-8.279-3.713-8.279-8.279v-21.355h65.662v29.633h-57.383V466.272z M329.747,457.993c0,4.565-3.713,8.279-8.279,8.279
		h-57.382v-29.633h65.661V457.993z M345.916,418.348v-87.851c0-4.465-3.618-8.084-8.084-8.084c-4.466,0-8.084,3.62-8.084,8.084
		v89.973h-65.661v-71.524c0-4.465-3.618-8.084-8.084-8.084s-8.084,3.62-8.084,8.084v71.523h-65.662V215.206v-87.26
		c0-48.943,28.838-92.223,73.746-111.136c44.907,18.913,73.745,62.192,73.745,111.136v176.009c0,4.465,3.618,8.084,8.084,8.084
		c4.466,0,8.084-3.62,8.084-8.084V233.25l69.716,62.177v85.742c0,1.831,0.622,3.608,1.763,5.04l25.624,32.139L345.916,418.348
		L345.916,418.348z"/>
</g>
<g style="opacity:0.2;">
	<path style="fill:#231F20;" d="M215.109,470.045c-9.037,0-16.364-7.326-16.364-16.363v-29.089V323.126v-23.482v-5.608V254.19
		v-85.103v-45.453c0-48.058,26.36-89.924,65.393-112.023c-2.666-1.262-5.374-2.446-8.136-3.526
		c-47.894,18.746-81.831,65.324-81.831,119.861v45.453v85.103v39.845v5.608v23.482v101.467v29.089
		c0,9.037,7.326,16.364,16.364,16.364h130.934c4.261,0,8.129-1.643,11.042-4.312H215.109z"/>
</g>
<g style="opacity:0.2;">
	<polygon style="fill:#231F20;" points="112.861,390.869 112.861,301.505 174.172,246.825 174.172,215.207 88.287,291.804 
		88.287,381.168 52.198,426.432 84.507,426.432 	"/>
</g>
<g>
</g>
<g>
</g>
<g>
</g>
<g>
</g>
<g>
</g>
<g>
</g>
<g>
</g>
<g>
</g>
<g>
</g>
<g>
</g>
<g>
</g>
<g>
</g>
<g>
</g>
<g>
</g>
<g>
</g>
</svg>
