<?xml version="1.0" encoding="iso-8859-1"?>
<!-- Generator: Adobe Illustrator 19.0.0, SVG Export Plug-In . SVG Version: 6.00 Build 0)  -->
<svg version="1.1" id="Layer_1" xmlns="http://www.w3.org/2000/svg" xmlns:xlink="http://www.w3.org/1999/xlink" x="0px" y="0px"
	 viewBox="0 0 511.999 511.999" style="enable-background:new 0 0 511.999 511.999;" xml:space="preserve">
<polygon style="fill:#90C8EC;" points="313.247,121.904 198.753,121.904 162.681,207.379 162.681,392.966 198.753,392.966 
	226.986,392.966 285.016,392.966 313.247,392.966 349.32,392.966 349.32,207.379 "/>
<g>
	<path style="fill:#578CAD;" d="M273.464,332.784c-5.191,2.82-11.14,4.421-17.463,4.421c-20.235,0-36.637-16.402-36.637-36.636
		s16.402-36.636,36.637-36.636c20.234,0,36.636,16.402,36.636,36.636c0,4.548-0.829,8.902-2.343,12.92"/>
	<path style="fill:#578CAD;" d="M187.246,392.966v26.528c0,10.763,8.726,19.489,19.489,19.489h98.531
		c10.763,0,19.491-8.725,19.491-19.489v-26.528H187.246z"/>
	<path style="fill:#578CAD;" d="M303.1,121.904V92.506c0-10.762-8.725-19.489-19.489-19.489H228.39
		c-10.761,0-19.489,8.726-19.489,19.489v29.399H303.1V121.904z"/>
</g>
<path style="fill:#B1DBF2;" d="M162.681,244.985H27.544c-10.765,0-19.49,8.725-19.49,19.489v72.19
	c0,10.762,8.725,19.489,19.49,19.489h135.137V244.985z"/>
<g style="opacity:0.2;">
	<polygon style="fill:#231F20;" points="189.169,209.527 225.243,124.052 314.153,124.052 313.247,121.904 198.753,121.904 
		162.681,207.379 162.681,392.966 189.169,392.966 	"/>
</g>
<g style="opacity:0.2;">
	<path style="fill:#231F20;" d="M245.851,300.569c0-15.561,9.708-28.847,23.393-34.159c-4.109-1.594-8.572-2.479-13.244-2.479
		c-20.235,0-36.637,16.402-36.637,36.636s16.402,36.636,36.637,36.636c4.673,0,9.141-0.879,13.252-2.476
		C255.562,329.421,245.851,316.134,245.851,300.569z"/>
</g>
<g style="opacity:0.2;">
	<path style="fill:#231F20;" d="M213.734,419.494v-26.528h-26.488v26.528c0,10.763,8.726,19.489,19.489,19.489h26.488
		C222.461,438.983,213.734,430.257,213.734,419.494z"/>
</g>
<g style="opacity:0.2;">
	<path style="fill:#231F20;" d="M254.879,73.016H228.39c-10.761,0-19.489,8.726-19.489,19.489v29.399h26.489V92.506
		C235.39,81.743,244.117,73.016,254.879,73.016z"/>
</g>
<g style="opacity:0.2;">
	<path style="fill:#231F20;" d="M34.542,336.664v-72.19c0-10.763,8.725-19.489,19.491-19.489H27.544
		c-10.765,0-19.49,8.725-19.49,19.489v72.19c0,10.762,8.725,19.489,19.49,19.489h26.489
		C43.267,356.153,34.542,347.426,34.542,336.664z"/>
</g>
<path style="fill:#90C8EC;" d="M484.457,244.985H349.32v111.168h135.137c10.764,0,19.489-8.726,19.489-19.489v-72.19
	C503.946,253.71,495.222,244.985,484.457,244.985z"/>
<rect x="349.32" y="244.982" style="fill:#B1DBF2;" width="77.312" height="111.167"/>
<rect x="85.373" y="244.982" style="fill:#90C8EC;" width="77.313" height="111.167"/>
<g>
	<path style="fill:#231F20;" d="M256.002,255.878c-24.643,0-44.691,20.048-44.691,44.69s20.048,44.69,44.691,44.69
		c7.439,0,14.807-1.866,21.308-5.397c3.909-2.124,5.355-7.013,3.233-10.922c-2.123-3.907-7.011-5.355-10.922-3.233
		c-4.148,2.254-8.857,3.445-13.619,3.445c-15.761,0-28.583-12.822-28.583-28.582c0-15.76,12.822-28.582,28.583-28.582
		c15.76,0,28.582,12.822,28.582,28.582c0,3.475-0.614,6.866-1.825,10.079c-1.569,4.162,0.533,8.808,4.695,10.377
		c4.159,1.573,8.809-0.53,10.377-4.695c1.899-5.035,2.861-10.338,2.861-15.761C300.692,275.926,280.644,255.878,256.002,255.878z"/>
	<path style="fill:#231F20;" d="M484.457,236.931h-57.825h-69.258v-29.552c0-1.076-0.215-2.14-0.634-3.131l-36.074-85.475
		c-1.26-2.983-4.183-4.923-7.42-4.923h-2.093V92.506c0-15.188-12.356-27.543-27.543-27.543H228.39
		c-15.188,0-27.543,12.356-27.543,27.543v21.345h-2.093c-3.239,0-6.161,1.939-7.42,4.923l-36.072,85.475
		c-0.419,0.991-0.634,2.055-0.634,3.131v29.552h-69.26H27.544C12.356,236.931,0,249.287,0,264.474v72.19
		c0,15.188,12.356,27.543,27.544,27.543h57.824h69.259v28.758c0,4.449,3.605,8.054,8.054,8.054h16.511v18.474
		c0,15.188,12.356,27.543,27.543,27.543h98.531c15.189,0,27.544-12.356,27.544-27.543v-18.474h16.51
		c4.449,0,8.054-3.605,8.054-8.054v-28.758h69.258h57.825c15.188,0,27.543-12.356,27.543-27.543v-72.19
		C512,249.287,499.644,236.931,484.457,236.931z M216.955,92.506c0-6.305,5.13-11.435,11.435-11.435h55.221
		c6.305,0,11.435,5.13,11.435,11.435v21.345h-78.09V92.506z M16.108,336.664v-72.19c0-6.305,5.13-11.435,11.436-11.435h49.77v95.06
		h-49.77C21.238,348.099,16.108,342.97,16.108,336.664z M93.422,348.099v-95.06h61.205v95.06H93.422z M316.702,419.494
		c0,6.306-5.13,11.435-11.436,11.435h-98.531c-6.306,0-11.435-5.129-11.435-11.435V401.02h121.402v18.474H316.702z M341.266,384.912
		h-16.51H187.246h-16.511v-28.758V244.985v-35.976l33.361-79.05h4.805H303.1h4.805l33.362,79.05v35.976v111.168L341.266,384.912
		L341.266,384.912z M357.374,348.099v-95.06h61.204v95.06H357.374z M495.892,336.664c0,6.306-5.129,11.435-11.435,11.435h-49.771
		v-95.06h49.771c6.306,0,11.435,5.13,11.435,11.435V336.664z"/>
</g>
<g>
</g>
<g>
</g>
<g>
</g>
<g>
</g>
<g>
</g>
<g>
</g>
<g>
</g>
<g>
</g>
<g>
</g>
<g>
</g>
<g>
</g>
<g>
</g>
<g>
</g>
<g>
</g>
<g>
</g>
</svg>
