<?xml version="1.0" encoding="iso-8859-1"?>
<!-- Generator: Adobe Illustrator 19.0.0, SVG Export Plug-In . SVG Version: 6.00 Build 0)  -->
<svg version="1.1" id="Layer_1" xmlns="http://www.w3.org/2000/svg" xmlns:xlink="http://www.w3.org/1999/xlink" x="0px" y="0px"
	 viewBox="0 0 512.001 512.001" style="enable-background:new 0 0 512.001 512.001;" xml:space="preserve">
<path style="fill:#90C8EC;" d="M256.001,49.725c-113.74,0-206.275,92.535-206.275,206.275s92.535,206.275,206.275,206.275
	s206.275-92.535,206.275-206.275C462.276,142.259,369.741,49.725,256.001,49.725z"/>
<g style="opacity:0.2;">
	<path style="fill:#231F20;" d="M76.021,256.001c0-109.324,85.491-199.039,193.127-205.843c-4.35-0.276-8.731-0.431-13.147-0.431
		c-113.74,0-206.275,92.535-206.275,206.275s92.535,206.275,206.275,206.275c4.417,0,8.798-0.156,13.147-0.431
		C161.511,455.04,76.021,365.324,76.021,256.001z"/>
</g>
<path style="fill:#FF9737;" d="M436.332,425.883c-45.229,47.984-109.344,77.983-180.332,77.983
	C119.328,503.865,8.135,392.673,8.135,256.001S119.328,8.135,256.001,8.135s247.865,111.192,247.865,247.865
	c0,55.985-18.657,107.693-50.081,149.236 M256.001,49.725c-113.74,0-206.275,92.535-206.275,206.275s92.535,206.275,206.275,206.275
	s206.275-92.535,206.275-206.275C462.276,142.259,369.741,49.725,256.001,49.725z"/>
<g style="opacity:0.2;">
	<path style="fill:#231F20;" d="M33.719,256.001c0-132.383,104.322-240.859,235.074-247.539c-4.237-0.216-8.502-0.326-12.792-0.326
		C119.328,8.135,8.135,119.328,8.135,256.001s111.192,247.865,247.865,247.865c4.275,0,8.523-0.114,12.746-0.33
		C138.016,496.834,33.719,388.367,33.719,256.001z"/>
</g>
<g>
	<path style="fill:#231F20;" d="M256.001,0C114.841,0,0,114.841,0,256.001s114.841,256.001,256.001,256.001
		c35.838,0,70.53-7.298,103.113-21.691c31.46-13.897,59.432-33.696,83.139-58.846c3.082-3.27,2.929-8.418-0.339-11.501
		c-3.269-3.079-8.417-2.929-11.501,0.339c-45.848,48.641-107.788,75.427-174.411,75.427c-132.188,0-239.73-107.541-239.73-239.729
		S123.813,16.27,256.001,16.27s239.73,107.543,239.73,239.73c0,52.533-16.748,102.439-48.434,144.329
		c-2.711,3.584-2.003,8.685,1.58,11.396c3.583,2.712,8.686,2.004,11.396-1.58c33.84-44.737,51.728-98.04,51.728-154.143
		C512,114.841,397.159,0,256.001,0z"/>
	<path style="fill:#231F20;" d="M256.001,41.59c-118.226,0-214.41,96.185-214.41,214.41s96.185,214.41,214.41,214.41
		s214.41-96.185,214.41-214.41S374.226,41.59,256.001,41.59z M344.315,264.136H453.96c-0.755,18.586-4.079,36.519-9.632,53.455
		H327.087c-4.494,0-8.135,3.641-8.135,8.135s3.641,8.135,8.135,8.135H438.19c-8.509,19.837-20.17,38.01-34.344,53.897H108.154
		c-29.575-33.151-48.191-76.27-50.114-123.623h199.303c4.494,0,8.135-3.641,8.135-8.135s-3.641-8.135-8.135-8.135H58.041
		c0.761-18.747,4.136-36.829,9.775-53.895H181.11c4.494,0,8.135-3.641,8.135-8.135c0-4.494-3.641-8.135-8.135-8.135H74.003
		c8.493-19.665,20.082-37.689,34.151-53.458h295.691c29.575,33.151,48.191,76.27,50.114,123.623H344.315
		c-4.494,0-8.135,3.641-8.135,8.135S339.821,264.136,344.315,264.136z M387.553,107.972H124.447
		c35.016-31.153,81.109-50.112,131.552-50.112S352.537,76.819,387.553,107.972z M124.447,404.028h263.105
		c-35.016,31.153-81.109,50.112-131.552,50.112S159.463,435.181,124.447,404.028z"/>
	<path style="fill:#231F20;" d="M314.277,247.865h-27.382c-4.494,0-8.135,3.641-8.135,8.135c0,4.494,3.641,8.135,8.135,8.135h27.382
		c4.494,0,8.135-3.641,8.135-8.135C322.412,251.507,318.77,247.865,314.277,247.865z"/>
</g>
<g>
</g>
<g>
</g>
<g>
</g>
<g>
</g>
<g>
</g>
<g>
</g>
<g>
</g>
<g>
</g>
<g>
</g>
<g>
</g>
<g>
</g>
<g>
</g>
<g>
</g>
<g>
</g>
<g>
</g>
</svg>
