<?xml version="1.0" encoding="iso-8859-1"?>
<!-- Generator: Adobe Illustrator 19.0.0, SVG Export Plug-In . SVG Version: 6.00 Build 0)  -->
<svg version="1.1" id="Layer_1" xmlns="http://www.w3.org/2000/svg" xmlns:xlink="http://www.w3.org/1999/xlink" x="0px" y="0px"
	 viewBox="0 0 512 512" style="enable-background:new 0 0 512 512;" xml:space="preserve">
<path style="fill:#90C8EC;" d="M273.9,200.445v-92.049c0-8.679-7.038-15.716-15.716-15.716h-4.368
	c-8.679,0-15.716,7.036-15.716,15.716v226.017c1.514-0.486,3.126-0.753,4.802-0.753h26.194c1.676,0,3.289,0.268,4.803,0.753V226.853
	"/>
<path style="fill:#427C99;" d="M269.096,333.659h-26.193c-8.679,0-15.716,7.035-15.716,15.716v20.082v71.595v20.081
	c0,8.679,7.036,15.716,15.716,15.716h26.194c8.68,0,15.716-7.036,15.716-15.716v-20.081v-71.595v-20.082
	C284.812,340.694,277.777,333.659,269.096,333.659z"/>
<path style="fill:#578CAD;" d="M269.096,333.659h-26.193c-8.679,0-15.716,7.035-15.716,15.716v19.209h57.625v-19.209
	C284.812,340.694,277.777,333.659,269.096,333.659z"/>
<g>
	<path style="fill:#231F20;" d="M281.984,329.382v-102.53c0-4.465-3.618-8.084-8.084-8.084s-8.084,3.62-8.084,8.084v98.723h-19.631
		V108.396c0-4.208,3.423-7.631,7.632-7.631h4.368c4.208,0,7.632,3.423,7.632,7.631v92.049c0,4.465,3.618,8.084,8.084,8.084
		s8.084-3.62,8.084-8.084v-92.049c0-13.123-10.677-23.8-23.8-23.8h-4.368c-13.123,0-23.8,10.677-23.8,23.8v220.986
		c-6.56,4.243-10.914,11.616-10.914,19.994v19.209v92.55c0,13.123,10.677,23.8,23.8,23.8h26.194c13.123,0,23.8-10.677,23.8-23.8
		v-92.55v-19.209C292.896,340.998,288.544,333.625,281.984,329.382z M269.096,341.743c0.358,0,0.714,0.033,1.068,0.084
		c0.069,0.01,0.138,0.02,0.207,0.031c0.354,0.06,0.705,0.14,1.051,0.25c3.074,0.986,5.306,3.87,5.306,7.266V360.5h-41.457v-11.125
		c0-3.396,2.231-6.279,5.304-7.265c0.347-0.111,0.7-0.191,1.055-0.251c0.068-0.012,0.136-0.022,0.205-0.031
		c0.355-0.051,0.71-0.084,1.068-0.084H269.096z M269.096,468.766h-26.193c-4.208,0-7.632-3.423-7.632-7.631v-84.466h41.457v84.466
		C276.728,465.341,273.306,468.766,269.096,468.766z"/>
	<path style="fill:#231F20;" d="M273.9,495.832H238.1c-4.465,0-8.084,3.62-8.084,8.084S233.636,512,238.1,512H273.9
		c4.466,0,8.084-3.62,8.084-8.084S278.365,495.832,273.9,495.832z"/>
	<path style="fill:#231F20;" d="M392.205,132.963h-41.752c-4.466,0-8.084,3.62-8.084,8.084s3.618,8.084,8.084,8.084h41.752
		c4.466,0,8.084-3.62,8.084-8.084C400.289,136.582,396.671,132.963,392.205,132.963z"/>
	<path style="fill:#231F20;" d="M169.633,147.535c0-4.465-3.62-8.084-8.084-8.084h-41.753c-4.465,0-8.084,3.62-8.084,8.084
		c0,4.465,3.62,8.084,8.084,8.084h41.753C166.013,155.619,169.633,151.999,169.633,147.535z"/>
	<path style="fill:#231F20;" d="M326.211,80.925L355.735,51.4c3.157-3.157,3.157-8.276,0-11.432c-3.158-3.157-8.276-3.157-11.433,0
		l-29.526,29.524c-3.157,3.157-3.157,8.276,0,11.432c1.579,1.578,3.649,2.368,5.717,2.368
		C322.562,83.292,324.632,82.503,326.211,80.925z"/>
	<path style="fill:#231F20;" d="M185.79,207.655l-29.525,29.524c-3.157,3.157-3.157,8.276,0,11.432
		c1.578,1.579,3.648,2.368,5.716,2.368c2.068,0,4.138-0.789,5.716-2.368l29.525-29.524c3.157-3.157,3.157-8.276,0-11.432
		C194.066,204.498,188.947,204.498,185.79,207.655z"/>
	<path style="fill:#231F20;" d="M252.756,57.922c4.466,0,8.084-3.62,8.084-8.084V8.084c0-4.465-3.618-8.084-8.084-8.084
		c-4.465,0-8.084,3.62-8.084,8.084v41.753C244.671,54.302,248.291,57.922,252.756,57.922z"/>
	<path style="fill:#231F20;" d="M181.202,85.513c1.578,1.579,3.648,2.368,5.716,2.368c2.068,0,4.138-0.789,5.716-2.368
		c3.157-3.157,3.157-8.275,0-11.432L163.11,44.556c-3.156-3.158-8.275-3.157-11.432,0c-3.157,3.157-3.157,8.275,0,11.432
		L181.202,85.513z"/>
	<path style="fill:#231F20;" d="M330.799,203.067c-3.158-3.157-8.277-3.157-11.432,0c-3.158,3.157-3.158,8.275-0.001,11.432
		l29.524,29.525c1.579,1.579,3.648,2.368,5.717,2.368c2.068,0,4.138-0.789,5.716-2.368c3.158-3.157,3.158-8.275,0.001-11.432
		L330.799,203.067z"/>
	<g style="opacity:0.2;">
		<path style="fill:#231F20;" d="M263.669,108.396c0-4.589,1.979-8.705,5.115-11.578c-2.796-2.562-6.509-4.138-10.6-4.138h-4.368
			c-8.679,0-15.716,7.036-15.716,15.716v226.017c1.514-0.486,3.126-0.753,4.802-0.753h20.767V108.396z"/>
		<path style="fill:#231F20;" d="M269.096,333.659c1.676,0,3.289,0.268,4.803,0.753v-0.753H269.096z"/>
	</g>
</g>
<g style="opacity:0.2;">
	<path style="fill:#231F20;" d="M252.756,461.134v-20.081v-71.595v-20.082c0-8.68,7.036-15.716,15.716-15.716h-25.568
		c-8.679,0-15.716,7.035-15.716,15.716v20.082v71.595v20.081c0,8.679,7.036,15.716,15.716,15.716h25.569
		C259.793,476.85,252.756,469.813,252.756,461.134z"/>
</g>
<g>
</g>
<g>
</g>
<g>
</g>
<g>
</g>
<g>
</g>
<g>
</g>
<g>
</g>
<g>
</g>
<g>
</g>
<g>
</g>
<g>
</g>
<g>
</g>
<g>
</g>
<g>
</g>
<g>
</g>
</svg>
