<?xml version="1.0" encoding="iso-8859-1"?>
<!-- Generator: Adobe Illustrator 19.0.0, SVG Export Plug-In . SVG Version: 6.00 Build 0)  -->
<svg version="1.1" id="Layer_1" xmlns="http://www.w3.org/2000/svg" xmlns:xlink="http://www.w3.org/1999/xlink" x="0px" y="0px"
	 viewBox="0 0 512 512" style="enable-background:new 0 0 512 512;" xml:space="preserve">
<path style="fill:#578CAD;" d="M461.505,153.612c26.204,26.204,42.411,62.404,42.411,102.388c0,79.969-64.829,144.799-144.8,144.799
	c-79.97,0-144.799-64.83-144.799-144.799c0-79.97,64.829-144.799,144.799-144.799c29.989,0,57.848,9.117,80.959,24.729"/>
<g>
	<path style="fill:#90C8EC;" d="M494.043,308.644c-9.09-8.025-21.02-12.905-34.098-12.905c-28.47,0-51.551,23.081-51.551,51.551
		c0,14.914,6.341,28.341,16.464,37.754C456.303,368.995,481.101,341.789,494.043,308.644z"/>
	<circle style="fill:#90C8EC;" cx="422.039" cy="236.49" r="19.51"/>
</g>
<path style="fill:#FF9737;" d="M214.317,256c0-46.551,21.973-87.964,56.105-114.454c-14.573-6.027-30.538-9.371-47.287-9.371
	c-68.386,0-123.823,55.439-123.823,123.825s55.437,123.824,123.823,123.824c16.749,0,32.715-3.345,47.287-9.371
	C236.29,343.964,214.317,302.55,214.317,256z"/>
<g style="opacity:0.2;">
	<path style="fill:#231F20;" d="M238.819,256c0-75.83,58.291-138.036,132.509-144.275c-4.027-0.336-8.098-0.524-12.213-0.524
		c-79.97,0-144.799,64.829-144.799,144.799c0,79.969,64.829,144.799,144.799,144.799c4.127,0,8.211-0.182,12.251-0.521
		C297.132,394.057,238.819,331.842,238.819,256z"/>
</g>
<g style="opacity:0.2;">
	<path style="fill:#231F20;" d="M123.815,256c0-64.25,48.936-117.068,111.571-123.222c-4.029-0.398-8.115-0.604-12.25-0.604
		c-68.386,0-123.823,55.439-123.823,123.825s55.437,123.824,123.823,123.824c4.135,0,8.221-0.206,12.25-0.604
		C172.752,373.068,123.815,320.25,123.815,256z"/>
</g>
<circle style="fill:#90C8EC;" cx="300.743" cy="272.276" r="25.376"/>
<g>
	<path style="fill:#231F20;" d="M512,256c0-40.836-15.902-79.228-44.778-108.104c-3.157-3.157-8.275-3.158-11.433,0
		c-3.157,3.157-3.157,8.276,0,11.432c25.822,25.823,40.043,60.155,40.043,96.672c0,13.825-2.071,27.175-5.905,39.764
		c-9.047-5.271-19.371-8.107-29.982-8.107c-32.883,0-59.636,26.752-59.636,59.636c0,12.587,4.049,24.826,11.334,34.923
		c-16.18,6.759-33.925,10.5-52.528,10.5c-69.47,0-127.004-52.084-135.605-119.254c-0.005-0.044-0.012-0.088-0.017-0.133
		c-0.126-0.991-0.237-1.987-0.342-2.984c-0.032-0.307-0.063-0.614-0.092-0.923c-0.081-0.82-0.154-1.643-0.22-2.467
		c-0.04-0.507-0.074-1.015-0.109-1.524c-0.046-0.675-0.093-1.351-0.129-2.029c-0.038-0.716-0.065-1.434-0.092-2.151
		c-0.019-0.503-0.044-1.005-0.057-1.509c-0.033-1.245-0.053-2.492-0.053-3.742c0-1.25,0.02-2.497,0.053-3.742
		c0.014-0.504,0.039-1.006,0.057-1.509c0.027-0.718,0.054-1.436,0.092-2.151c0.037-0.678,0.083-1.353,0.129-2.029
		c0.034-0.508,0.068-1.016,0.109-1.524c0.066-0.825,0.139-1.647,0.22-2.467c0.03-0.308,0.06-0.615,0.092-0.923
		c0.105-0.997,0.217-1.993,0.342-2.984c0.005-0.044,0.012-0.088,0.017-0.133c8.601-67.17,66.133-119.254,135.605-119.254
		c27.397,0,53.828,8.072,76.434,23.344c3.699,2.5,8.724,1.526,11.224-2.174c2.499-3.699,1.526-8.724-2.174-11.224
		c-25.29-17.085-54.85-26.115-85.485-26.115c-33.565,0-64.631,10.88-89.875,29.289c-14.751-5.513-30.236-8.315-46.106-8.315
		c-72.734,0-131.907,59.174-131.907,131.908S150.4,387.904,223.134,387.904c15.87,0,31.356-2.801,46.106-8.315
		c25.244,18.407,56.31,29.289,89.875,29.289c24.634,0,47.922-5.865,68.553-16.258c0.293-0.109,0.582-0.234,0.866-0.378
		c33.459-17.079,59.397-45.725,73.04-80.662c0.06-0.154,0.092-0.313,0.142-0.469C508.351,294.009,512,275.424,512,256z
		 M223.135,371.74c-63.819,0-115.739-51.921-115.739-115.74s51.92-115.74,115.739-115.74c10.684,0,21.17,1.441,31.314,4.295
		c-29.857,27.956-47.129,66.271-48.166,107.501c-0.033,1.311-0.051,2.626-0.051,3.945s0.017,2.634,0.051,3.945
		c1.037,41.229,18.308,79.544,48.166,107.501C244.304,370.3,233.819,371.74,223.135,371.74z M416.478,347.292
		c0-23.968,19.499-43.467,43.467-43.467c8.677,0,17.096,2.596,24.227,7.39c-11.932,26.92-32.307,49.295-57.749,63.747
		C419.974,367.203,416.478,357.566,416.478,347.292z"/>
	<path style="fill:#231F20;" d="M223.135,98.914c4.466,0,8.084-3.62,8.084-8.084V40.95c0-4.465-3.618-8.084-8.084-8.084
		c-4.466,0-8.084,3.62-8.084,8.084v49.88C215.051,95.295,218.669,98.914,223.135,98.914z"/>
	<path style="fill:#231F20;" d="M223.135,413.086c-4.466,0-8.084,3.62-8.084,8.084v49.88c0,4.465,3.618,8.084,8.084,8.084
		c4.466,0,8.084-3.62,8.084-8.084v-49.88C231.219,416.705,227.6,413.086,223.135,413.086z"/>
	<path style="fill:#231F20;" d="M100.625,144.923c1.579,1.579,3.648,2.368,5.717,2.368c2.068,0,4.138-0.789,5.716-2.368
		c3.158-3.157,3.158-8.275,0.001-11.432L76.788,98.22c-3.158-3.157-8.277-3.158-11.432,0c-3.158,3.157-3.158,8.275-0.001,11.432
		L100.625,144.923z"/>
	<path style="fill:#231F20;" d="M66.048,256c0-4.465-3.618-8.084-8.084-8.084H8.084C3.618,247.916,0,251.535,0,256
		c0,4.465,3.618,8.084,8.084,8.084h49.88C62.43,264.084,66.048,260.465,66.048,256z"/>
	<path style="fill:#231F20;" d="M100.625,367.077l-35.27,35.271c-3.157,3.157-3.157,8.276,0.001,11.432
		c1.578,1.579,3.648,2.368,5.716,2.368c2.068,0,4.138-0.789,5.717-2.368l35.27-35.271c3.157-3.157,3.157-8.276-0.001-11.432
		C108.901,363.919,103.782,363.92,100.625,367.077z"/>
	<path style="fill:#231F20;" d="M133.548,117c1.497,2.593,4.215,4.043,7.008,4.043c1.371,0,2.763-0.349,4.035-1.084
		c3.866-2.232,5.191-7.177,2.959-11.043l-24.939-43.198c-2.231-3.866-7.179-5.191-11.043-2.959
		c-3.866,2.232-5.191,7.177-2.959,11.043L133.548,117z"/>
	<path style="fill:#231F20;" d="M13.32,208.15l48.179,12.91c0.701,0.188,1.406,0.277,2.098,0.277c3.57,0,6.836-2.382,7.803-5.994
		c1.156-4.313-1.403-8.746-5.716-9.902l-48.178-12.909c-4.313-1.152-8.745,1.403-9.902,5.716
		C6.447,202.561,9.007,206.995,13.32,208.15z"/>
	<path style="fill:#231F20;" d="M87.094,334.543c-2.232-3.867-7.178-5.192-11.043-2.959l-43.198,24.94
		c-3.866,2.232-5.191,7.177-2.959,11.043c1.498,2.593,4.215,4.043,7.008,4.043c1.371,0,2.763-0.349,4.035-1.084l43.197-24.94
		C88.001,343.355,89.326,338.409,87.094,334.543z"/>
	<path style="fill:#231F20;" d="M182.478,407.734c-4.314-1.157-8.745,1.403-9.902,5.717l-12.91,48.181
		c-1.156,4.313,1.403,8.745,5.716,9.902c0.701,0.188,1.406,0.277,2.098,0.277c3.57,0,6.836-2.382,7.803-5.994l12.91-48.181
		C189.349,413.322,186.791,408.89,182.478,407.734z"/>
	<path style="fill:#231F20;" d="M263.792,104.266c0.701,0.188,1.406,0.277,2.098,0.277c3.57,0,6.836-2.382,7.803-5.994l12.91-48.18
		c1.155-4.313-1.403-8.745-5.716-9.902c-4.311-1.154-8.746,1.403-9.902,5.717l-12.91,48.18
		C256.921,98.678,259.479,103.11,263.792,104.266z"/>
	<circle style="fill:#231F20;" cx="361.494" cy="340.399" r="7.478"/>
	<path style="fill:#231F20;" d="M422.039,208.905c-15.212,0-27.589,12.376-27.589,27.59c0,15.213,12.375,27.59,27.589,27.59
		c15.213,0,27.591-12.376,27.591-27.59C449.63,221.282,437.252,208.905,422.039,208.905z M422.039,247.916
		c-6.297,0-11.42-5.123-11.42-11.421c0-6.297,5.123-11.421,11.42-11.421c6.298,0,11.422,5.123,11.422,11.421
		C433.461,242.793,428.337,247.916,422.039,247.916z"/>
	<path style="fill:#231F20;" d="M300.742,238.819c-18.449,0-33.46,15.01-33.46,33.46c0,18.45,15.011,33.46,33.46,33.46
		c18.449,0,33.459-15.01,33.459-33.46C334.201,253.829,319.192,238.819,300.742,238.819z M300.742,289.57
		c-9.535,0-17.292-7.757-17.292-17.292c0-9.534,7.757-17.292,17.292-17.292c9.534,0,17.29,7.757,17.29,17.292
		C318.033,281.813,310.276,289.57,300.742,289.57z"/>
	<circle style="fill:#231F20;" cx="329.243" cy="199.917" r="16.371"/>
</g>
<g>
</g>
<g>
</g>
<g>
</g>
<g>
</g>
<g>
</g>
<g>
</g>
<g>
</g>
<g>
</g>
<g>
</g>
<g>
</g>
<g>
</g>
<g>
</g>
<g>
</g>
<g>
</g>
<g>
</g>
</svg>
