<?xml version="1.0" encoding="iso-8859-1"?>
<!-- Generator: Adobe Illustrator 19.0.0, SVG Export Plug-In . SVG Version: 6.00 Build 0)  -->
<svg version="1.1" id="Layer_1" xmlns="http://www.w3.org/2000/svg" xmlns:xlink="http://www.w3.org/1999/xlink" x="0px" y="0px"
	 viewBox="0 0 512 512" style="enable-background:new 0 0 512 512;" xml:space="preserve">
<path style="fill:#578CAD;" d="M150.41,164.601H94.341c-11.356,0-20.564-9.206-20.564-20.564v-4.569
	c0-11.356,9.208-20.564,20.564-20.564h323.317c11.359,0,20.564,9.208,20.564,20.564v4.569c0,11.358-9.205,20.564-20.564,20.564
	h-29.974"/>
<g>
	<path style="fill:#90C8EC;" d="M387.682,118.903C376.837,55.972,322.028,8.084,255.999,8.084S135.163,55.972,124.317,118.903
		H387.682z"/>
	<path style="fill:#90C8EC;" d="M325.021,164.601H124.316c10.847,62.931,65.653,110.821,131.684,110.821
		s120.837-47.891,131.685-110.821h-35.719"/>
</g>
<path style="fill:#B1DBF2;" d="M338.581,118.903c-10.004-36.224-43.174-62.835-82.581-62.835s-72.576,26.611-82.578,62.835H338.581z
	"/>
<g style="opacity:0.1;">
	<path style="fill:#231F20;" d="M99.647,144.037v-4.569c0-11.356,9.208-20.564,20.564-20.564H94.341
		c-11.356,0-20.564,9.208-20.564,20.564v4.569c0,11.358,9.208,20.564,20.564,20.564h25.869
		C108.855,164.601,99.647,155.394,99.647,144.037z"/>
</g>
<g style="opacity:0.2;">
	<path style="fill:#231F20;" d="M268.934,8.708c-4.257-0.409-8.57-0.624-12.935-0.624c-66.028,0-120.836,47.888-131.683,110.819
		h25.869C160.316,60.131,208.79,14.486,268.934,8.708z"/>
</g>
<g style="opacity:0.2;">
	<path style="fill:#231F20;" d="M150.185,164.601h-25.869c10.847,62.931,65.653,110.821,131.684,110.821
		c4.364,0,8.678-0.215,12.935-0.624C208.788,269.019,160.316,223.372,150.185,164.601z"/>
</g>
<g style="opacity:0.2;">
	<path style="fill:#231F20;" d="M271.09,57.058c-4.22-0.64-8.536-0.99-12.935-0.99c-39.408,0-72.576,26.611-82.578,62.835h25.869
		C210.332,86.723,237.507,62.147,271.09,57.058z"/>
</g>
<path style="fill:#231F20;" d="M488.732,495.831h-18.346L413.81,172.685h3.849c15.797,0,28.648-12.852,28.648-28.648v-4.569
	c0-15.797-12.852-28.648-28.648-28.648h-23.342c-6.672-29.9-23.026-57.068-46.542-77.081C322.209,11.982,289.617,0,255.999,0
	s-66.21,11.982-91.775,33.738c-23.516,20.013-39.87,47.182-46.542,77.081H94.341c-15.797,0-28.648,12.852-28.648,28.648v4.569
	c0,15.797,12.852,28.648,28.648,28.648h3.849L41.614,495.831H23.268c-4.466,0-8.084,3.618-8.084,8.084
	c0,4.466,3.618,8.084,8.084,8.084h25.124c0.008,0,0.015,0.001,0.023,0.001s0.015-0.001,0.023-0.001h35.384
	c4.466,0,8.084-3.618,8.084-8.084c0-4.466-3.618-8.084-8.084-8.084H58.028l56.576-323.146h3.077
	c6.673,29.9,23.026,57.068,46.543,77.082c23.509,20.008,52.963,31.741,83.691,33.499v212.565h-22.192
	c-4.466,0-8.084,3.618-8.084,8.084c0,4.466,3.618,8.084,8.084,8.084h60.552c4.466,0,8.084-3.618,8.084-8.084
	c0-4.466-3.618-8.084-8.084-8.084h-22.193V283.266c30.727-1.759,60.182-13.492,83.692-33.499
	c23.516-20.014,39.87-47.183,46.543-77.082h3.076l56.575,323.146h-25.792c-4.466,0-8.084,3.618-8.084,8.084
	c0,4.466,3.618,8.084,8.084,8.084h35.383c0.008,0,0.015,0.001,0.023,0.001s0.015-0.001,0.023-0.001h25.125
	c4.466,0,8.084-3.618,8.084-8.084C496.816,499.449,493.196,495.831,488.732,495.831z M255.999,16.168
	c58.039,0,107.773,39.26,121.715,94.651h-33.215c-13.031-37.288-48.559-62.835-88.499-62.835s-75.469,25.547-88.498,62.835h-33.216
	C148.226,55.428,197.961,16.168,255.999,16.168z M327.169,110.819H184.833c12.156-27.937,40.05-46.666,71.167-46.666
	C287.118,64.153,315.012,82.882,327.169,110.819z M134.285,172.685h16.126h97.504v94.368
	C193.392,263.599,147.574,225.484,134.285,172.685z M264.084,267.053v-94.368h60.936c4.466,0,8.084-3.618,8.084-8.084
	s-3.618-8.084-8.084-8.084H150.411h-26.095H94.341c-6.881,0-12.48-5.599-12.48-12.48v-4.569c0-6.881,5.599-12.48,12.48-12.48h29.976
	h49.104h165.16h49.102h29.976c6.881,0,12.48,5.599,12.48,12.48v4.569c0,6.881-5.599,12.48-12.48,12.48h-29.974h-35.719
	c-4.466,0-8.084,3.618-8.084,8.084s3.618,8.084,8.084,8.084h25.751C364.425,225.484,318.607,263.599,264.084,267.053z"/>
<g>
</g>
<g>
</g>
<g>
</g>
<g>
</g>
<g>
</g>
<g>
</g>
<g>
</g>
<g>
</g>
<g>
</g>
<g>
</g>
<g>
</g>
<g>
</g>
<g>
</g>
<g>
</g>
<g>
</g>
</svg>
