<?xml version="1.0" encoding="iso-8859-1"?>
<!-- Generator: Adobe Illustrator 19.0.0, SVG Export Plug-In . SVG Version: 6.00 Build 0)  -->
<svg version="1.1" id="Layer_1" xmlns="http://www.w3.org/2000/svg" xmlns:xlink="http://www.w3.org/1999/xlink" x="0px" y="0px"
	 viewBox="0 0 511.999 511.999" style="enable-background:new 0 0 511.999 511.999;" xml:space="preserve">
<path style="fill:#90C8EC;" d="M318.431,467.685h29.759c9.341,0,16.917-7.574,16.917-16.917v-28.196l-44.174-122.181h-64.229h-1.41
	h-64.229l-44.174,122.181v28.196c0,9.342,7.575,16.917,16.917,16.917h127.519"/>
<g>
	<circle style="fill:#578CAD;" cx="255.994" cy="376.636" r="30.54"/>
	<path style="fill:#578CAD;" d="M172.12,467.685v19.266c0,9.342,7.574,16.917,16.917,16.917h133.927
		c9.342,0,16.916-7.575,16.916-16.917v-19.266"/>
</g>
<path style="fill:#3A5D74;" d="M409.662,166.598c0,8.494-6.884,15.378-15.378,15.378h-276.57c-8.495,0-15.378-6.884-15.378-15.378
	l0,0c0-8.492,6.883-15.377,15.378-15.377h276.57C402.778,151.22,409.662,158.106,409.662,166.598L409.662,166.598z"/>
<path style="fill:#FF4D30;" d="M255.999,8.131c-79.025,0-143.089,64.062-143.089,143.089h286.18
	C399.089,72.193,335.025,8.131,255.999,8.131z"/>
<g style="opacity:0.2;">
	<path style="fill:#231F20;" d="M170.742,450.769v-28.196l44.174-122.181h-23.851l-44.174,122.181v28.196
		c0,9.342,7.575,16.917,16.917,16.917h23.851C178.316,467.685,170.742,460.111,170.742,450.769z"/>
</g>
<g style="opacity:0.2;">
	<path style="fill:#231F20;" d="M249.306,376.639c0-12.639,7.675-23.483,18.619-28.13c-3.664-1.555-7.694-2.415-11.925-2.415
		c-16.87,0-30.544,13.676-30.544,30.546c0,16.869,13.673,30.544,30.544,30.544c4.231,0,8.261-0.862,11.925-2.417
		C256.981,400.121,249.306,389.276,249.306,376.639z"/>
</g>
<g style="opacity:0.2;">
	<path style="fill:#231F20;" d="M195.97,486.951v-19.266H172.12v19.266c0,9.342,7.574,16.917,16.917,16.917h23.851
		C203.544,503.869,195.97,496.293,195.97,486.951z"/>
</g>
<g style="opacity:0.2;">
	<path style="fill:#231F20;" d="M126.187,166.598c0-8.492,6.883-15.377,15.377-15.377h-23.851c-8.495,0-15.378,6.885-15.378,15.377
		c0,8.494,6.883,15.378,15.378,15.378h23.851C133.069,181.976,126.187,175.092,126.187,166.598z"/>
</g>
<g style="opacity:0.2;">
	<path style="fill:#231F20;" d="M267.925,8.63c-3.933-0.325-7.909-0.499-11.925-0.499c-79.025,0-143.089,64.062-143.089,143.089
		h23.851C136.76,76.21,194.48,14.69,267.925,8.63z"/>
</g>
<g>
	<path style="fill:#231F20;" d="M407.156,146.941C404.881,65.529,337.951,0,255.999,0S107.116,65.529,104.842,146.941
		c-6.401,4.205-10.637,11.444-10.637,19.656c0,12.963,10.545,23.509,23.508,23.509h14.977l103.773,72.889
		c-6.825,4.48-11.343,12.195-11.343,20.951v8.314h-34.055c-3.425,0-6.482,2.145-7.646,5.366l-44.174,122.181
		c-0.321,0.886-0.485,1.822-0.485,2.764v28.196c0,13.811,11.236,25.048,25.048,25.048h0.18v11.135
		c0,13.812,11.236,25.048,25.048,25.048h133.927c13.811,0,25.048-11.236,25.048-25.048v-11.135h0.18
		c13.812,0,25.048-11.236,25.048-25.048v-28.196c0-0.942-0.164-1.878-0.485-2.764l-44.174-122.181
		c-1.163-3.221-4.222-5.366-7.646-5.366h-34.055v-8.314c0-8.755-4.519-16.472-11.343-20.951l103.773-72.889h14.977
		c12.963,0,23.509-10.546,23.509-23.509C417.793,158.384,413.556,151.146,407.156,146.941z M255.999,16.262
		c71.687,0,130.498,56.182,134.717,126.828H121.283C125.501,72.443,184.313,16.262,255.999,16.262z M356.976,423.998v26.77
		c0,4.845-3.942,8.786-8.786,8.786h-29.759c-4.492,0-8.131,3.639-8.131,8.131s3.639,8.131,8.131,8.131h13.317v11.135
		c0,4.845-3.941,8.786-8.786,8.786H189.035c-4.845,0-8.786-3.942-8.786-8.786v-11.135h111.077c4.492,0,8.131-3.639,8.131-8.131
		s-3.639-8.131-8.131-8.131H163.809c-4.845,0-8.786-3.941-8.786-8.786v-26.77l41.75-115.476h36.479h45.497h36.479L356.976,423.998z
		 M241.381,292.261v-8.314c0-4.845,3.942-8.786,8.786-8.786h11.663c4.845,0,8.787,3.942,8.787,8.786v8.314H241.381z
		 M255.999,256.845l-95.016-66.739h190.031L255.999,256.845z M394.284,173.844h-17.548H135.261h-17.548
		c-3.995,0-7.246-3.251-7.246-7.247s3.251-7.246,7.246-7.246h276.57c3.995,0,7.247,3.25,7.247,7.246S398.28,173.844,394.284,173.844
		z"/>
	<path style="fill:#231F20;" d="M217.324,376.639c0,21.326,17.349,38.675,38.675,38.675c21.326,0,38.675-17.349,38.675-38.675
		c0-21.327-17.349-38.677-38.675-38.677C234.674,337.962,217.324,355.312,217.324,376.639z M278.413,376.639
		c0,12.358-10.054,22.413-22.413,22.413c-12.359,0-22.413-10.054-22.413-22.413s10.054-22.415,22.413-22.415
		C268.358,354.224,278.413,364.28,278.413,376.639z"/>
</g>
<g>
</g>
<g>
</g>
<g>
</g>
<g>
</g>
<g>
</g>
<g>
</g>
<g>
</g>
<g>
</g>
<g>
</g>
<g>
</g>
<g>
</g>
<g>
</g>
<g>
</g>
<g>
</g>
<g>
</g>
</svg>
