<?xml version="1.0" encoding="iso-8859-1"?>
<!-- Generator: Adobe Illustrator 19.0.0, SVG Export Plug-In . SVG Version: 6.00 Build 0)  -->
<svg version="1.1" id="Layer_1" xmlns="http://www.w3.org/2000/svg" xmlns:xlink="http://www.w3.org/1999/xlink" x="0px" y="0px"
	 viewBox="0 0 512 512" style="enable-background:new 0 0 512 512;" xml:space="preserve">
<path style="fill:#59C384;" d="M404.997,63.944C365.152,29.178,313.035,8.118,255.999,8.118
	c-125.22,0-226.732,101.51-226.732,226.732c0,89.025,51.319,166.051,125.977,203.151c17,38.779,55.704,65.88,100.755,65.88
	c45.053,0,83.757-27.101,100.755-65.88c74.66-37.099,125.977-114.126,125.977-203.151c0-58.402-22.08-111.646-58.347-151.84"/>
<g style="opacity:0.2;">
	<path style="fill:#231F20;" d="M276.706,488.727c-44.013,0-81.954-25.872-99.533-63.222c-0.025-0.045-0.048-0.073-0.074-0.126
		c-1.367-2.81-3.763-3.852-3.763-3.852l0.006-0.004C100.101,383.937,49.974,307.678,49.974,219.696
		c0-70.555,32.228-133.58,82.765-175.164C70.467,84.947,29.268,155.083,29.268,234.85c0,89.025,51.319,166.051,125.977,203.151
		c17,38.779,55.704,65.88,100.755,65.88c28.86,0,55.103-11.134,74.716-29.321C314.765,483.577,296.338,488.727,276.706,488.727z"/>
</g>
<g>
	
		<ellipse transform="matrix(-0.7886 -0.6149 0.6149 -0.7886 482.6884 667.2133)" style="fill:#3A5D74;" cx="356.035" cy="250.635" rx="53.031" ry="70.446"/>
	
		<ellipse transform="matrix(-0.7886 0.6149 -0.6149 -0.7886 433.0858 352.4117)" style="fill:#3A5D74;" cx="155.965" cy="250.651" rx="53.031" ry="70.457"/>
	<path style="fill:#3A5D74;" d="M204.333,381.89c3.006,25.877,24.983,45.966,51.665,45.966c26.685,0,48.662-20.09,51.668-45.966
		H204.333z"/>
</g>
<g style="opacity:0.2;">
	<path style="fill:#231F20;" d="M338.291,306.202c-23.095-18.01-22.425-57.484,1.501-88.167
		c12.479-16.005,28.818-26.441,44.875-30.223c-22.465-6.053-51.099,5.404-70.45,30.223c-23.927,30.684-24.597,70.158-1.501,88.167
		c11.051,8.617,25.539,10.744,40.267,7.275C347.673,312.046,342.707,309.645,338.291,306.202z"/>
</g>
<g style="opacity:0.2;">
	<path style="fill:#231F20;" d="M139.718,283.255c-23.928-30.683-24.599-70.158-1.504-88.169c4.416-3.443,9.384-5.843,14.693-7.274
		c-14.727-3.469-29.218-1.341-40.268,7.274c-23.095,18.011-22.425,57.486,1.504,88.169c19.351,24.817,47.985,36.276,70.449,30.222
		C168.536,309.694,152.197,299.258,139.718,283.255z"/>
</g>
<g style="opacity:0.2;">
	<path style="fill:#231F20;" d="M229.908,381.89h-25.575c3.006,25.877,24.983,45.966,51.665,45.966
		c4.414,0,8.695-0.561,12.788-1.596C248.144,421.042,232.418,403.487,229.908,381.89z"/>
</g>
<g>
	<path style="fill:#231F20;" d="M255.999,512c-45.894,0-87.557-26.61-106.966-68.04c-37.442-19.188-69.082-48.083-91.634-83.721
		c-23.714-37.477-36.249-80.835-36.249-125.389c0-62.73,24.429-121.708,68.787-166.064C134.293,24.429,193.269,0,255.999,0
		c56.787,0,111.598,20.537,154.335,57.827c3.378,2.949,3.727,8.076,0.78,11.455c-2.948,3.379-8.076,3.727-11.454,0.78
		c-39.78-34.71-90.8-53.825-143.661-53.825c-120.544,0-218.613,98.07-218.613,218.613c0,83.591,46.545,158.647,121.472,195.881
		c1.705,0.848,3.058,2.267,3.822,4.01c16.251,37.07,52.88,61.022,93.319,61.022c40.44,0,77.071-23.951,93.319-61.02
		c0.764-1.744,2.117-3.164,3.822-4.012c74.926-37.231,121.472-112.288,121.472-195.881c0-54.203-19.979-106.195-56.257-146.402
		c-3.004-3.33-2.74-8.463,0.589-11.466c3.33-3.004,8.463-2.741,11.466,0.589c38.975,43.194,60.439,99.05,60.439,157.278
		c0,44.554-12.535,87.914-36.249,125.389c-22.552,35.639-54.192,64.535-91.634,83.721C343.558,485.391,301.895,512,255.999,512z"/>
	<path style="fill:#231F20;" d="M339.793,323.194h-0.004c-12.093-0.001-23.182-3.663-32.065-10.591
		c-26.588-20.734-26.547-65.397,0.092-99.561c17.062-21.884,41.161-34.948,64.47-34.948c12.093,0,23.181,3.662,32.065,10.59
		c13.232,10.317,20.337,26.608,20.009,45.872c-0.313,18.403-7.452,37.471-20.1,53.691
		C387.197,310.13,363.097,323.194,339.793,323.194z M372.284,194.331c-18.068,0-37.865,10.996-51.665,28.695
		c-21.135,27.105-22.44,61.545-2.911,76.773c6.004,4.683,13.64,7.157,22.081,7.158c18.066,0.001,37.863-10.994,51.664-28.695
		c10.497-13.46,16.418-29.08,16.67-43.983c0.239-14.042-4.647-25.688-13.759-32.792
		C388.362,196.805,380.725,194.331,372.284,194.331z"/>
	<path style="fill:#231F20;" d="M172.211,323.194h-0.002c-23.306-0.001-47.407-13.065-64.47-34.948
		c-26.64-34.163-26.682-78.826-0.093-99.563c8.887-6.928,19.974-10.59,32.068-10.59c23.307,0,47.409,13.064,64.472,34.949
		c26.637,34.164,26.678,78.827,0.091,99.561C195.392,319.531,184.302,323.194,172.211,323.194z M139.715,194.331
		c-8.441,0-16.078,2.474-22.083,7.157c-19.53,15.229-18.223,49.671,2.913,76.774c13.8,17.7,33.597,28.695,51.665,28.696h0.001
		c8.44,0,16.076-2.476,22.081-7.158c19.527-15.228,18.222-49.668-2.912-76.773C177.581,205.326,157.783,194.331,139.715,194.331z"/>
	<path style="fill:#231F20;" d="M255.999,435.976c-30.532,0-56.211-22.848-59.731-53.148c-0.267-2.301,0.461-4.607,2.003-6.336
		c1.54-1.73,3.746-2.719,6.063-2.719h103.334c2.316,0,4.522,0.989,6.063,2.719c1.541,1.73,2.27,4.034,2.003,6.336
		C312.211,413.127,286.532,435.976,255.999,435.976z M214.432,390.009c5.928,17.453,22.442,29.73,41.566,29.73
		c19.125,0,35.642-12.277,41.568-29.73H214.432z"/>
</g>
<g>
</g>
<g>
</g>
<g>
</g>
<g>
</g>
<g>
</g>
<g>
</g>
<g>
</g>
<g>
</g>
<g>
</g>
<g>
</g>
<g>
</g>
<g>
</g>
<g>
</g>
<g>
</g>
<g>
</g>
</svg>
