<?xml version="1.0" encoding="iso-8859-1"?>
<!-- Generator: Adobe Illustrator 19.0.0, SVG Export Plug-In . SVG Version: 6.00 Build 0)  -->
<svg version="1.1" id="Layer_1" xmlns="http://www.w3.org/2000/svg" xmlns:xlink="http://www.w3.org/1999/xlink" x="0px" y="0px"
	 viewBox="0 0 512.001 512.001" style="enable-background:new 0 0 512.001 512.001;" xml:space="preserve">
<path style="fill:#578CAD;" d="M256.001,135.927c-66.209,0-120.073,53.866-120.073,120.073c0,66.209,53.864,120.073,120.073,120.073
	s120.073-53.864,120.073-120.073C376.073,189.793,322.21,135.927,256.001,135.927z"/>
<g style="opacity:0.2;">
	<path style="fill:#231F20;" d="M161.051,256.001c0-61.965,47.184-113.117,107.511-119.417c-4.13-0.432-8.319-0.655-12.561-0.655
		c-66.209,0-120.073,53.866-120.073,120.073c0,66.209,53.864,120.073,120.073,120.073c4.242,0,8.431-0.224,12.561-0.655
		C208.234,369.118,161.051,317.968,161.051,256.001z"/>
</g>
<path style="fill:#90C8EC;" d="M397.589,341.465c-29.013,47.887-81.627,79.956-141.588,79.956
	c-91.213,0-165.421-74.207-165.421-165.421s74.208-165.42,165.421-165.42s165.421,74.207,165.421,165.421
	c0,21.784-4.232,42.598-11.918,61.662 M256.001,135.927c-66.209,0-120.073,53.866-120.073,120.073
	c0,66.209,53.864,120.073,120.073,120.073s120.073-53.864,120.073-120.073C376.073,189.793,322.21,135.927,256.001,135.927z"/>
<g>
	<circle style="fill:#578CAD;" cx="71.874" cy="90.575" r="33.552"/>
	<circle style="fill:#578CAD;" cx="439.561" cy="90.575" r="33.552"/>
	<circle style="fill:#578CAD;" cx="71.874" cy="422.276" r="33.552"/>
	<circle style="fill:#578CAD;" cx="439.561" cy="422.276" r="33.552"/>
</g>
<g style="opacity:0.2;">
	<path style="fill:#231F20;" d="M116.178,256.001c0-86.907,67.367-158.374,152.621-164.929c-4.224-0.324-8.493-0.491-12.799-0.491
		c-91.213,0-165.421,74.207-165.421,165.421S164.786,421.423,256,421.423c4.271,0,8.502-0.181,12.694-0.501
		C183.489,414.314,116.178,342.871,116.178,256.001z"/>
</g>
<g style="opacity:0.2;">
	<path style="fill:#231F20;" d="M63.914,90.579c0-13.997,8.577-25.991,20.758-31.024c-3.946-1.63-8.266-2.534-12.799-2.534
		c-18.531,0-33.557,15.027-33.557,33.557c0,18.534,15.027,33.557,33.557,33.557c4.533,0,8.853-0.904,12.799-2.534
		C72.491,116.571,63.914,104.58,63.914,90.579z"/>
</g>
<g style="opacity:0.2;">
	<path style="fill:#231F20;" d="M431.601,90.579c0-13.997,8.576-25.991,20.758-31.024c-3.945-1.63-8.266-2.534-12.799-2.534
		c-18.534,0-33.557,15.027-33.557,33.557c0,18.534,15.025,33.557,33.557,33.557c4.533,0,8.854-0.904,12.799-2.534
		C440.178,116.572,431.601,104.58,431.601,90.579z"/>
</g>
<g style="opacity:0.2;">
	<path style="fill:#231F20;" d="M63.914,422.276c0-13.999,8.577-25.991,20.758-31.024c-3.946-1.63-8.266-2.534-12.799-2.534
		c-18.531,0-33.557,15.025-33.557,33.557c0,18.531,15.027,33.557,33.557,33.557c4.533,0,8.853-0.904,12.799-2.534
		C72.491,448.268,63.914,436.275,63.914,422.276z"/>
</g>
<g style="opacity:0.2;">
	<path style="fill:#231F20;" d="M431.601,422.276c0-13.999,8.576-25.992,20.758-31.024c-3.945-1.63-8.266-2.534-12.799-2.534
		c-18.534,0-33.557,15.025-33.557,33.557c0,18.531,15.025,33.557,33.557,33.557c4.533,0,8.854-0.904,12.799-2.534
		C440.178,448.268,431.601,436.275,431.601,422.276z"/>
</g>
<g>
	<path style="fill:#231F20;" d="M256.001,127.815c-70.682,0-128.185,57.503-128.185,128.185s57.503,128.185,128.185,128.185
		c61.602,0,113.186-43.68,125.425-101.693c0.008-0.037,0.016-0.072,0.024-0.108c1.789-8.518,2.736-17.342,2.736-26.383
		c0-17.08-3.366-33.385-9.457-48.301c-0.007-0.016-0.013-0.034-0.021-0.05C355.584,160.866,309.584,127.815,256.001,127.815z
		 M256.001,367.96c-61.735,0-111.961-50.225-111.961-111.961c0-2.573,0.095-5.125,0.267-7.656h40.828
		c4.481,0,8.112-3.631,8.112-8.112s-3.631-8.112-8.112-8.112h-38.523c10.972-50.3,55.847-88.081,109.389-88.081
		c42.457,0,79.471,23.756,98.447,58.674h-69.545c-4.481,0-8.112,3.631-8.112,8.112s3.631,8.112,8.112,8.112h76.745
		c4.083,11.606,6.313,24.078,6.313,37.063c0,5.667-0.427,11.234-1.243,16.676H235.925c-4.481,0-8.112,3.631-8.112,8.112
		s3.631,8.112,8.112,8.112h127.1C348.938,334.63,306.29,367.96,256.001,367.96z"/>
	<path style="fill:#231F20;" d="M401.793,334.527c-3.83-2.321-8.82-1.098-11.142,2.733c-28.851,47.618-79.188,76.048-134.65,76.048
		c-86.74,0-157.309-70.568-157.309-157.309S169.26,98.692,256.001,98.692S413.31,169.26,413.31,256.001
		c0,20.256-3.812,39.98-11.33,58.629c-1.675,4.155,0.336,8.881,4.491,10.557c4.156,1.673,8.882-0.337,10.557-4.491
		c8.298-20.584,12.507-42.351,12.507-64.695c0-95.687-77.847-173.533-173.533-173.533S82.468,160.314,82.468,256.001
		s77.847,173.533,173.533,173.533c30.354,0,60.249-7.99,86.453-23.105c25.404-14.655,46.87-35.665,62.073-60.759
		C406.848,341.837,405.624,336.849,401.793,334.527z"/>
	<path style="fill:#231F20;" d="M471.48,394.277c26.509-41.23,40.521-89.046,40.521-138.278c0-49.374-14.063-97.204-40.675-138.492
		c6.172-7.269,9.907-16.668,9.907-26.928c0-22.977-18.693-41.67-41.669-41.67c-8.719,0-16.818,2.696-23.516,7.292
		C370.834,19.953,314.081,0,256.001,0C197.76,0,140.971,20.02,95.692,56.416c-6.756-4.725-14.965-7.508-23.817-7.508
		c-22.977,0-41.67,18.693-41.67,41.67c0,10.438,3.866,19.983,10.23,27.301C13.983,159.081,0.001,206.8,0.001,256.001
		c0,48.984,13.883,96.598,40.145,137.689c0.198,0.309,0.414,0.6,0.645,0.873c-6.578,7.37-10.587,17.081-10.587,27.714
		c0,22.977,18.693,41.669,41.67,41.669c9.101,0,17.522-2.941,24.383-7.91C141.429,492.14,198.023,512.001,256,512.001
		c58.463,0,113.503-19.188,159.175-55.49c0.105-0.083,0.199-0.175,0.299-0.263c6.807,4.84,15.117,7.699,24.088,7.699
		c22.977,0,41.669-18.693,41.669-41.669c0-10.448-3.874-20.002-10.249-27.324C471.155,394.736,471.327,394.516,471.48,394.277z
		 M439.562,65.134c14.031,0,25.445,11.415,25.445,25.445c0,14.031-11.415,25.445-25.445,25.445s-25.445-11.415-25.445-25.445
		C414.116,76.549,425.531,65.134,439.562,65.134z M71.873,65.134c14.031,0,25.445,11.415,25.445,25.445
		c0,14.031-11.415,25.445-25.445,25.445S46.428,104.61,46.428,90.579S57.844,65.134,71.873,65.134z M71.873,447.722
		c-14.031,0-25.445-11.415-25.445-25.445c0-14.031,11.415-25.445,25.445-25.445s25.445,11.415,25.445,25.445
		C97.32,436.307,85.904,447.722,71.873,447.722z M107.336,444.126c3.932-6.358,6.207-13.842,6.207-21.85
		c0-22.977-18.693-41.669-41.67-41.669c-6.508,0-12.671,1.502-18.165,4.174c-24.523-38.439-37.485-82.965-37.485-128.78
		c0-45.598,12.817-89.832,37.081-128.131c5.595,2.797,11.898,4.381,18.567,4.381c22.977,0,41.67-18.693,41.67-41.67
		c0-8.251-2.42-15.941-6.573-22.42c42.221-33.521,94.96-51.936,149.031-51.936c53.868,0,106.514,18.323,148.651,51.644
		c-4.268,6.538-6.76,14.337-6.76,22.711c0,22.977,18.693,41.67,41.669,41.67c6.841,0,13.296-1.668,18.998-4.601
		c24.358,38.351,37.216,82.644,37.216,128.353c0,45.914-13.012,90.504-37.625,128.999c-5.601-2.805-11.912-4.392-18.59-4.392
		c-22.977,0-41.669,18.693-41.669,41.669c0,8.135,2.351,15.727,6.399,22.147c-42.616,33.594-93.867,51.352-148.289,51.352
		C202.105,495.776,149.484,477.458,107.336,444.126z M439.562,447.722c-14.031,0-25.445-11.415-25.445-25.445
		c0-14.031,11.415-25.445,25.445-25.445s25.445,11.415,25.445,25.445C465.007,436.307,453.592,447.722,439.562,447.722z"/>
</g>
<g>
</g>
<g>
</g>
<g>
</g>
<g>
</g>
<g>
</g>
<g>
</g>
<g>
</g>
<g>
</g>
<g>
</g>
<g>
</g>
<g>
</g>
<g>
</g>
<g>
</g>
<g>
</g>
<g>
</g>
</svg>
