<?xml version="1.0" encoding="iso-8859-1"?>
<!-- Generator: Adobe Illustrator 19.0.0, SVG Export Plug-In . SVG Version: 6.00 Build 0)  -->
<svg version="1.1" id="Layer_1" xmlns="http://www.w3.org/2000/svg" xmlns:xlink="http://www.w3.org/1999/xlink" x="0px" y="0px"
	 viewBox="0 0 512.001 512.001" style="enable-background:new 0 0 512.001 512.001;" xml:space="preserve">
<path style="fill:#FF4D30;" d="M262.803,144.936H28.953c-11.486,0-20.798,9.311-20.798,20.799v71.637
	c0,11.486,9.312,20.798,20.798,20.798H332.84V144.936h-42.845"/>
<path style="fill:#D33F2F;" d="M202.273,258.17L143.344,390.01c0,0-16.753,31.197-59.072,31.197c-38.131,0-21.809,0-21.809,0
	s-26.574,2.31-26.574-26.576v-22.095c0,0,84.779-69.706,27.583-114.364"/>
<g style="opacity:0.2;">
	<path style="fill:#231F20;" d="M43.459,396.701c0,0,97.994-71.634,54.069-138.531H63.47
		c57.196,44.657-27.583,114.364-27.583,114.364v22.095c0,14.681,6.865,21.296,13.615,24.26L43.459,396.701z"/>
</g>
<path style="fill:#90C8EC;" d="M365.768,111.43h-1.733c-17.228,0-31.196,13.967-31.196,31.196v-0.001v110.925v1.732
	c0,17.23,13.968,31.197,31.196,31.197h1.733c17.23,0,31.199-13.967,31.199-31.197v-1.732V142.624v0.001
	C396.967,125.397,382.999,111.43,365.768,111.43z"/>
<path style="fill:#6EB4DB;" d="M429.896,111.43h-1.732c-17.23,0-31.197,13.967-31.197,31.196v-0.001v110.925v1.732
	c0,17.23,13.966,31.197,31.197,31.197h1.732c17.228,0,31.197-13.967,31.197-31.197v-1.732V142.624v0.001
	C461.093,125.397,447.123,111.43,429.896,111.43z"/>
<g>
	<path style="fill:#3A5D74;" d="M483.047,158.225h-21.954v1.732v83.192v1.733h21.954c11.486,0,20.798-9.311,20.798-20.798v-45.062
		C503.845,167.536,494.534,158.225,483.047,158.225z"/>
	<path style="fill:#3A5D74;" d="M86.726,90.746h-9.243c-11.487,0-20.8,9.311-20.8,20.798v33.391h50.843v-33.391
		C107.527,100.058,98.211,90.746,86.726,90.746z"/>
</g>
<g style="opacity:0.2;">
	<path style="fill:#231F20;" d="M32.986,237.372v-71.637c0-11.488,9.311-20.799,20.798-20.799H28.953
		c-11.486,0-20.798,9.311-20.798,20.799v71.637c0,11.486,9.312,20.798,20.798,20.798h24.831
		C42.298,258.17,32.986,248.859,32.986,237.372z"/>
</g>
<g style="opacity:0.2;">
	<path style="fill:#231F20;" d="M357.671,255.281v-1.732V142.625c0-13.147,8.138-24.388,19.648-28.978
		c-3.574-1.426-7.468-2.217-11.55-2.217h-1.733c-17.228,0-31.196,13.967-31.196,31.196v110.924v1.732
		c0,17.23,13.968,31.197,31.196,31.197h1.733c4.082,0,7.976-0.793,11.55-2.217C365.809,279.67,357.671,268.43,357.671,255.281z"/>
</g>
<g style="opacity:0.2;">
	<path style="fill:#231F20;" d="M421.798,255.281v-1.732V142.625c0-13.147,8.136-24.388,19.646-28.978
		c-3.573-1.426-7.468-2.217-11.549-2.217h-1.732c-17.23,0-31.197,13.967-31.197,31.196v110.924v1.732
		c0,17.23,13.966,31.197,31.197,31.197h1.732c4.081,0,7.976-0.793,11.549-2.218C429.935,279.67,421.798,268.43,421.798,255.281z"/>
</g>
<g style="opacity:0.1;">
	<path style="fill:#231F20;" d="M485.924,243.149v-83.192v-1.51c-0.943-0.13-1.899-0.222-2.876-0.222h-21.954v1.732v83.192v1.733
		h21.954c0.978,0,1.933-0.091,2.876-0.222V243.149z"/>
</g>
<g style="opacity:0.2;">
	<path style="fill:#231F20;" d="M94.52,92.27c-2.409-0.974-5.036-1.523-7.793-1.523h-9.243c-11.487,0-20.8,9.311-20.8,20.798v33.391
		h24.831v-33.392C81.515,102.816,86.897,95.356,94.52,92.27z"/>
</g>
<g>
	<path style="fill:#231F20;" d="M483.047,150.07h-13.799v-7.444c0-21.698-17.653-39.351-39.352-39.351h-1.732
		c-12.694,0-23.996,6.048-31.197,15.406c-7.202-9.359-18.505-15.406-31.199-15.406h-1.733c-19.713,0-36.083,14.571-38.915,33.506
		h-35.125c-4.505,0-8.155,3.651-8.155,8.155c0,4.504,3.65,8.155,8.155,8.155h34.689v96.924H28.953
		c-6.971,0-12.643-5.672-12.643-12.643v-71.637c0-6.972,5.672-12.644,12.643-12.644h233.85c4.505,0,8.155-3.651,8.155-8.155
		c0-4.504-3.65-8.155-8.155-8.155H115.682v-25.237c0-15.965-12.989-28.953-28.956-28.953h-9.243
		c-15.967,0-28.956,12.989-28.956,28.953v25.237H28.953C12.988,136.781,0,149.771,0,165.735v71.637
		c0,15.965,12.988,28.953,28.953,28.953h31.612c9.649,8.224,14.422,17.535,14.566,28.392c0.453,34.119-43.98,71.15-44.424,71.516
		c-1.883,1.549-2.975,3.86-2.975,6.299v22.095c0,11.297,3.424,20.164,10.177,26.356c6.6,6.051,14.595,7.821,19.828,8.28
		c0.409,0.063,0.826,0.096,1.252,0.096H59.1c0.706,0.037,1.34,0.05,1.89,0.05c0.762,0,1.36-0.026,1.758-0.05H84.27
		c46.66,0,65.479-34.044,66.258-35.494c0.094-0.174,0.181-0.35,0.26-0.531l31.8-71.144h52.902c15.966,0,28.954-12.989,28.954-28.953
		v-26.915h61.829c4.787,16.338,19.899,28.307,37.763,28.307h1.733c12.695,0,23.997-6.048,31.199-15.406
		c7.201,9.359,18.503,15.406,31.197,15.406h1.732c21.698,0,39.352-17.653,39.352-39.352v-2.243h13.799
		c15.966,0,28.953-12.989,28.953-28.953v-45.062C512,163.057,499.012,150.07,483.047,150.07z M64.839,111.544
		c0-6.971,5.673-12.643,12.645-12.643h9.243c6.972,0,12.645,5.672,12.645,12.643v25.236H64.839V111.544z M136.052,386.337
		c-1.609,2.775-16.528,26.714-51.782,26.714H59.756c-2.651-0.172-7.394-0.942-10.826-4.087c-3.244-2.975-4.889-7.798-4.889-14.334
		v-18.359c10.979-9.747,47.861-45.241,47.4-81.733c-0.13-10.304-3.138-19.738-8.959-28.212h107.212L136.052,386.337z
		 M248.132,293.24c0,6.971-5.672,12.643-12.644,12.643h-45.611l17.681-39.557h40.573v26.915H248.132z M365.768,278.323h-1.733
		c-12.705,0-23.04-10.337-23.04-23.041V144.936v-2.312c0-12.705,10.337-23.039,23.04-23.039h1.733
		c12.707,0,23.044,10.335,23.044,23.04v112.656C388.812,267.986,378.474,278.323,365.768,278.323z M452.937,255.281
		c0,12.706-10.337,23.041-23.041,23.041h-1.732c-12.705,0-23.04-10.337-23.04-23.041V142.625v-0.001
		c0-12.705,10.337-23.039,23.04-23.039h1.732c12.706,0,23.041,10.335,23.041,23.04v15.599v86.657V255.281z M495.689,224.084
		c0,6.971-5.672,12.643-12.643,12.643h-13.799V166.38h13.799c6.971,0,12.643,5.671,12.643,12.642V224.084z"/>
	<path style="fill:#231F20;" d="M56.684,193.398c-4.505,0-8.155,3.651-8.155,8.155c0,4.504,3.65,8.155,8.155,8.155h145.589
		c4.505,0,8.155-3.651,8.155-8.155c0-4.504-3.65-8.155-8.155-8.155H56.684z"/>
</g>
<g>
</g>
<g>
</g>
<g>
</g>
<g>
</g>
<g>
</g>
<g>
</g>
<g>
</g>
<g>
</g>
<g>
</g>
<g>
</g>
<g>
</g>
<g>
</g>
<g>
</g>
<g>
</g>
<g>
</g>
</svg>
