<?xml version="1.0" encoding="iso-8859-1"?>
<!-- Generator: Adobe Illustrator 19.0.0, SVG Export Plug-In . SVG Version: 6.00 Build 0)  -->
<svg version="1.1" id="Layer_1" xmlns="http://www.w3.org/2000/svg" xmlns:xlink="http://www.w3.org/1999/xlink" x="0px" y="0px"
	 viewBox="0 0 512.002 512.002" style="enable-background:new 0 0 512.002 512.002;" xml:space="preserve">
<path style="fill:#CAE9F7;" d="M332.515,238.464V84.6c0-42.26-34.255-76.515-76.514-76.515S179.486,42.34,179.486,84.6v296.428
	c0,11.525,9.343,20.868,20.867,20.868h111.296c11.525,0,20.867-9.343,20.867-20.868V264.333"/>
<path style="fill:#3A5D74;" d="M256.001,50.259c-20.889,0-37.823,16.934-37.823,37.823h75.647
	C293.824,67.193,276.89,50.259,256.001,50.259z"/>
<path style="fill:#FF9737;" d="M202.761,401.895c-2.497,7.789-3.861,16.085-3.861,24.704c0,36.39,24.04,67.163,57.101,77.316
	c33.06-10.154,57.101-40.927,57.101-77.316c0-8.619-1.362-16.915-3.86-24.704H202.761z"/>
<g>
	<path style="fill:#3A5D74;" d="M332.515,175.828l70.72,54.488c0,0,26.663,20.144,26.663,45.299c0,23.101,0,85.704,0,85.704h-97.383
		"/>
	<path style="fill:#3A5D74;" d="M179.486,175.828l-70.719,54.488c0,0-26.663,20.144-26.663,45.299c0,23.101,0,85.704,0,85.704
		h97.382V175.828H179.486z"/>
</g>
<g style="opacity:0.2;">
	<path style="fill:#231F20;" d="M224.41,431.63c0-8.619,1.364-16.915,3.861-24.704h82.393c-0.427-1.697-0.894-3.377-1.423-5.031
		H202.761c-2.497,7.789-3.861,16.085-3.861,24.704c0,36.39,24.04,67.163,57.101,77.316c2.663-0.818,5.259-1.783,7.797-2.861
		C240.208,486.929,224.41,461.127,224.41,431.63z"/>
</g>
<g style="opacity:0.2;">
	<path style="fill:#231F20;" d="M107.614,283.376c0-21.918,19.445-35.412,19.445-35.412l52.427-40.307v-31.83l-70.719,54.488
		c0,0-26.663,20.144-26.663,45.299c0,23.101,0,85.704,0,85.704h25.511C107.614,340.877,107.614,300.313,107.614,283.376z"/>
</g>
<path style="fill:#90C8EC;" d="M179.486,361.32v19.708c0,11.525,9.343,20.868,20.867,20.868h111.296
	c11.525,0,20.867-9.343,20.867-20.868V361.32L179.486,361.32L179.486,361.32z"/>
<g>
	<path style="fill:#231F20;" d="M256.001,42.175c-25.313,0-45.908,20.593-45.908,45.908c0,4.465,3.618,8.084,8.084,8.084h75.647
		c4.466,0,8.084-3.62,8.084-8.084C301.909,62.768,281.314,42.175,256.001,42.175z M227.379,79.998
		c3.53-12.482,15.025-21.655,28.622-21.655c13.598,0,25.091,9.173,28.622,21.655H227.379z"/>
	<path style="fill:#231F20;" d="M408.17,223.912l-67.57-52.061V84.6c0-46.649-37.95-84.6-84.599-84.6s-84.6,37.951-84.6,84.6v87.252
		l-67.507,52.015c-1.22,0.921-29.875,22.9-29.875,51.749v85.704c0,4.465,3.618,8.084,8.084,8.084h89.298v11.624
		c0,13.277,8.987,24.489,21.196,27.888c-1.177,5.808-1.781,11.724-1.781,17.684c0,19.414,6.145,37.862,17.771,53.35
		c11.237,14.969,27.233,26.225,45.04,31.694c0.774,0.237,1.574,0.357,2.374,0.357c0.8,0,1.6-0.119,2.374-0.357
		c17.808-5.469,33.802-16.726,45.04-31.694c11.626-15.487,17.771-33.935,17.771-53.35c0-5.961-0.603-11.877-1.78-17.684
		c12.207-3.401,21.194-14.611,21.194-27.888v-11.624h89.299c4.466,0,8.084-3.62,8.084-8.084v-85.704
		C437.983,246.767,409.328,224.787,408.17,223.912z M90.187,275.614c0-20.751,23.23-38.678,23.512-38.895l57.701-44.458v160.973
		H90.187V275.614z M187.57,381.027v-11.624h60.347v24.408h-45.156h-2.408C193.304,393.811,187.57,388.077,187.57,381.027z
		 M256.001,495.415c-29.424-10.122-49.017-37.469-49.017-68.816c0-5.614,0.645-11.183,1.919-16.62h39.014V427.4
		c0,4.465,3.618,8.084,8.084,8.084c4.466,0,8.084-3.62,8.084-8.084v-17.421H303.1c1.274,5.436,1.918,11.004,1.918,16.62
		C305.018,457.947,285.425,485.293,256.001,495.415z M324.431,381.027c0,7.049-5.734,12.784-12.783,12.784h-2.406h-45.157v-24.408
		h60.346V381.027z M421.815,353.235H340.6v-88.901c0-4.465-3.618-8.084-8.084-8.084s-8.084,3.62-8.084,8.084v88.901h-60.346v-37.129
		c0-4.465-3.618-8.084-8.084-8.084c-4.466,0-8.084,3.62-8.084,8.084v37.129H187.57V175.828V84.6
		c0-37.734,30.697-68.431,68.431-68.431c37.733,0,68.43,30.697,68.43,68.431v153.865c0,4.465,3.618,8.084,8.084,8.084
		s8.084-3.62,8.084-8.084v-46.202l57.763,44.504c0.234,0.178,23.452,18.292,23.452,38.848L421.815,353.235L421.815,353.235z"/>
</g>
<g style="opacity:0.2;">
	<path style="fill:#231F20;" d="M204.996,381.027V84.6c0-37.911,27.576-69.363,63.761-75.436c-4.151-0.696-8.408-1.078-12.756-1.078
		c-42.259,0-76.515,34.255-76.515,76.515v296.427c0,11.525,9.343,20.868,20.867,20.868h25.511
		C214.339,401.895,204.996,392.552,204.996,381.027z"/>
</g>
<g>
</g>
<g>
</g>
<g>
</g>
<g>
</g>
<g>
</g>
<g>
</g>
<g>
</g>
<g>
</g>
<g>
</g>
<g>
</g>
<g>
</g>
<g>
</g>
<g>
</g>
<g>
</g>
<g>
</g>
</svg>
