<?xml version="1.0" encoding="iso-8859-1"?>
<!-- Generator: Adobe Illustrator 19.0.0, SVG Export Plug-In . SVG Version: 6.00 Build 0)  -->
<svg version="1.1" id="Layer_1" xmlns="http://www.w3.org/2000/svg" xmlns:xlink="http://www.w3.org/1999/xlink" x="0px" y="0px"
	 viewBox="0 0 512.001 512.001" style="enable-background:new 0 0 512.001 512.001;" xml:space="preserve">
<path style="fill:#90C8EC;" d="M310.221,185.824v-24.78v-43.851c0-29.945-24.275-54.22-54.221-54.22s-54.222,24.274-54.222,54.22
	v43.851v75.084v71.432v26.513v98.28c0,11.408,9.248,20.655,20.656,20.655h67.131c11.405,0,20.655-9.247,20.655-20.655v-98.28V307.56
	v-71.432V211.32"/>
<g>
	<path style="fill:#578CAD;" d="M275.794,118.442c0,10.933-8.863,19.794-19.794,19.794l0,0c-10.932,0-19.795-8.861-19.795-19.794
		l0,0c0-10.932,8.863-19.794,19.795-19.794l0,0C266.931,98.648,275.794,107.51,275.794,118.442L275.794,118.442z"/>
	<polygon style="fill:#578CAD;" points="310.221,314.238 310.221,436.448 503.863,436.448 503.863,368.458 	"/>
	<polygon style="fill:#578CAD;" points="201.779,314.238 201.779,436.448 8.137,436.448 8.137,368.458 	"/>
</g>
<g style="opacity:0.2;">
	<path style="fill:#231F20;" d="M227.596,432.352v-98.28V307.56v-71.432v-75.084v-43.851c0-25.495,17.603-46.868,41.313-52.661
		c-4.138-1.011-8.458-1.559-12.908-1.559c-29.945,0-54.222,24.274-54.222,54.22v43.851v75.084v71.432v26.513v98.28
		c0,11.408,9.248,20.655,20.656,20.655h25.817C236.845,453.007,227.596,443.76,227.596,432.352z"/>
</g>
<g style="opacity:0.2;">
	<polygon style="fill:#231F20;" points="33.954,367.116 201.779,320.124 201.779,314.238 8.137,368.458 8.137,436.448 
		33.954,436.448 	"/>
</g>
<g style="opacity:0.2;">
	<path style="fill:#231F20;" d="M275.794,118.442c0,10.933-8.863,19.794-19.794,19.794l0,0c-10.932,0-19.795-8.861-19.795-19.794
		l0,0c0-10.932,8.863-19.794,19.795-19.794l0,0C266.931,98.648,275.794,107.51,275.794,118.442L275.794,118.442z"/>
</g>
<g>
	<path style="fill:#231F20;" d="M310.221,485.973H201.779c-4.495,0-8.137,3.643-8.137,8.137s3.642,8.137,8.137,8.137h108.442
		c4.495,0,8.137-3.643,8.137-8.137S314.715,485.973,310.221,485.973z"/>
	<path style="fill:#231F20;" d="M506.058,360.621l-19.876-5.565V221.003c0-4.494-3.642-8.137-8.137-8.137s-8.137,3.643-8.137,8.137
		v129.496l-70.938-19.863V221.003c0-4.494-3.642-8.137-8.137-8.137c-4.495,0-8.137,3.643-8.137,8.137v105.076l-64.336-18.014V211.32
		c0-4.494-3.642-8.137-8.137-8.137c-4.495,0-8.137,3.643-8.137,8.137v102.918v118.115c0,6.903-5.616,12.517-12.517,12.517h-67.131
		c-6.903,0-12.518-5.615-12.518-12.517V314.238V117.194c0-25.409,20.673-46.082,46.085-46.082c25.41,0,46.083,20.672,46.083,46.082
		v68.63c0,4.494,3.642,8.137,8.137,8.137c4.495,0,8.137-3.643,8.137-8.137v-68.63c0-31.624-23.67-57.807-54.221-61.808V17.891
		c0-4.494-3.642-8.137-8.137-8.137c-4.495,0-8.137,3.643-8.137,8.137v37.494c-30.551,4.001-54.222,30.184-54.222,61.808v190.872
		l-64.336,18.014V221.002c0-4.494-3.642-8.137-8.137-8.137s-8.137,3.643-8.137,8.137v109.633l-70.939,19.863V221.003
		c0-4.494-3.642-8.137-8.137-8.137s-8.137,3.643-8.137,8.137v134.053l-19.874,5.565C2.429,361.605,0,364.808,0,368.458v67.991
		c0,4.494,3.642,8.137,8.137,8.137h188.24c4.608,9.776,14.554,16.559,26.058,16.559h67.131c11.504,0,21.449-6.783,26.057-16.559
		h188.241c4.495,0,8.137-3.643,8.137-8.137v-67.991C512,364.808,509.571,361.605,506.058,360.621z M16.275,374.629l104.566-29.278
		c0.11,0.004,0.217,0.016,0.328,0.016c1.675,0,3.232-0.508,4.527-1.376l67.947-19.025v103.344H16.275V374.629z M495.725,428.311
		H318.358V324.966l67.947,19.025c1.294,0.868,2.851,1.376,4.527,1.376c0.111,0,0.218-0.012,0.328-0.016l104.567,29.278v53.682
		H495.725z"/>
	<path style="fill:#231F20;" d="M247.863,305.631v107.58c0,4.494,3.642,8.137,8.137,8.137c4.495,0,8.137-3.643,8.137-8.137v-107.58
		c0-4.494-3.642-8.137-8.137-8.137C251.505,297.493,247.863,301.137,247.863,305.631z"/>
	<path style="fill:#231F20;" d="M283.932,118.442c0-15.401-12.53-27.932-27.932-27.932c-15.402,0-27.933,12.529-27.933,27.932
		s12.53,27.932,27.933,27.932C271.402,146.374,283.932,133.844,283.932,118.442z M256,130.099c-6.428,0-11.658-5.23-11.658-11.657
		c0-6.427,5.23-11.657,11.658-11.657c6.428,0,11.657,5.23,11.657,11.657C267.657,124.87,262.428,130.099,256,130.099z"/>
</g>
<g>
</g>
<g>
</g>
<g>
</g>
<g>
</g>
<g>
</g>
<g>
</g>
<g>
</g>
<g>
</g>
<g>
</g>
<g>
</g>
<g>
</g>
<g>
</g>
<g>
</g>
<g>
</g>
<g>
</g>
</svg>
