<?xml version="1.0" encoding="iso-8859-1"?>
<!-- Generator: Adobe Illustrator 19.0.0, SVG Export Plug-In . SVG Version: 6.00 Build 0)  -->
<svg version="1.1" id="Layer_1" xmlns="http://www.w3.org/2000/svg" xmlns:xlink="http://www.w3.org/1999/xlink" x="0px" y="0px"
	 viewBox="0 0 512 512" style="enable-background:new 0 0 512 512;" xml:space="preserve">
<g>
	<circle style="fill:#90C8EC;" cx="256" cy="256" r="135.836"/>
	<circle style="fill:#90C8EC;" cx="428.83" cy="79.365" r="37.004"/>
</g>
<path style="fill:#578CAD;" d="M328.06,298.384c-14.534,24.659-41.365,41.205-72.062,41.205c-46.165,0-83.589-37.423-83.589-83.589
	s37.423-83.589,83.589-83.589s83.589,37.423,83.589,83.589c0,5.237-0.482,10.362-1.403,15.333"/>
<g style="opacity:0.2;">
	<path style="fill:#231F20;" d="M146.278,256c0-70.613,53.884-128.633,122.776-135.204c-4.296-0.41-8.65-0.627-13.054-0.627
		c-75.017,0-135.831,60.814-135.831,135.831S180.983,391.832,256,391.832c4.404,0,8.758-0.218,13.054-0.627
		C200.162,384.634,146.278,326.613,146.278,256z"/>
</g>
<g style="opacity:0.2;">
	<path style="fill:#231F20;" d="M417.939,79.368c0-15.839,9.955-29.347,23.948-34.625c-4.06-1.532-8.458-2.377-13.054-2.377
		c-20.434,0-37.001,16.566-37.001,37.001c0,20.436,16.567,37.002,37.001,37.002c4.597,0,8.995-0.844,13.054-2.376
		C427.895,108.715,417.939,95.207,417.939,79.368z"/>
</g>
<g style="opacity:0.2;">
	<path style="fill:#231F20;" d="M198.52,256c0-41.723,30.57-76.299,70.534-82.568c-4.254-0.667-8.612-1.021-13.054-1.021
		c-46.165,0-83.589,37.423-83.589,83.589s37.423,83.589,83.589,83.589c4.438,0,8.792-0.357,13.045-1.023
		C229.086,332.293,198.52,297.72,198.52,256z"/>
</g>
<g>
	<path style="fill:#231F20;" d="M256,164.327c-50.549,0-91.673,41.124-91.673,91.673s41.124,91.673,91.673,91.673
		c32.316,0,62.598-17.314,79.025-45.184c2.268-3.846,0.987-8.802-2.859-11.069c-3.845-2.267-8.801-0.988-11.069,2.86
		c-13.534,22.961-38.478,37.225-65.097,37.225c-41.633,0-75.504-33.871-75.504-75.504s33.872-75.504,75.504-75.504
		s75.504,33.871,75.504,75.504c0,4.657-0.427,9.319-1.268,13.86c-0.814,4.39,2.086,8.608,6.476,9.422
		c4.379,0.807,8.607-2.085,9.421-6.476c1.021-5.509,1.539-11.164,1.539-16.805C347.673,205.451,306.548,164.327,256,164.327z"/>
	<path style="fill:#231F20;" d="M256,112.085c-79.355,0-143.915,64.561-143.915,143.915c0,79.356,64.561,143.916,143.915,143.916
		S399.915,335.356,399.915,256C399.915,176.645,335.355,112.085,256,112.085z M256,383.748c-70.44,0-127.747-57.307-127.747-127.748
		c0-70.439,57.306-127.747,127.747-127.747S383.747,185.561,383.747,256C383.747,326.44,326.44,383.748,256,383.748z"/>
	<path style="fill:#231F20;" d="M464.293,107.16c6.02-7.665,9.625-17.313,9.625-27.792c0-24.859-20.226-45.085-45.086-45.085
		c-10.869,0-20.853,3.866-28.647,10.296c-0.322-0.306-0.666-0.596-1.047-0.853C356.795,15.121,307.299,0,256,0
		C187.619,0,123.333,26.629,74.982,74.982C26.628,123.333,0,187.622,0,256.002c0,68.379,26.628,132.666,74.982,181.017
		C123.333,485.372,187.619,512,256,512s132.667-26.628,181.019-74.981C485.372,388.668,512,324.382,512,256.002
		C512,202.162,495.505,150.75,464.293,107.16z M428.832,50.451c15.945,0,28.918,12.972,28.918,28.917
		c0,15.945-12.972,28.918-28.918,28.918c-15.945,0-28.917-12.972-28.917-28.918C399.915,63.423,412.887,50.451,428.832,50.451z
		 M256,495.832c-132.244,0-239.832-107.587-239.832-239.829C16.168,123.757,123.756,16.168,256,16.168
		c47.931,0,94.175,14.088,133.763,40.741c-3.819,6.618-6.017,14.284-6.017,22.458c0,24.861,20.226,45.086,45.085,45.086
		c8.521,0,16.496-2.377,23.301-6.502c28.598,40.532,43.699,88.178,43.699,138.05C495.832,388.245,388.243,495.832,256,495.832z"/>
</g>
<g>
</g>
<g>
</g>
<g>
</g>
<g>
</g>
<g>
</g>
<g>
</g>
<g>
</g>
<g>
</g>
<g>
</g>
<g>
</g>
<g>
</g>
<g>
</g>
<g>
</g>
<g>
</g>
<g>
</g>
</svg>
