<?xml version="1.0" encoding="iso-8859-1"?>
<!-- Generator: Adobe Illustrator 19.0.0, SVG Export Plug-In . SVG Version: 6.00 Build 0)  -->
<svg version="1.1" id="Layer_1" xmlns="http://www.w3.org/2000/svg" xmlns:xlink="http://www.w3.org/1999/xlink" x="0px" y="0px"
	 viewBox="0 0 512 512" style="enable-background:new 0 0 512 512;" xml:space="preserve">
<path style="fill:#FFD960;" d="M240.169,330.25l-5.967-34.787l64.62-62.988c2.742-2.674,3.729-6.672,2.545-10.31
	c-1.183-3.642-4.329-6.296-8.118-6.846l-89.3-12.977l-39.94-80.92c-1.694-3.435-5.19-5.608-9.018-5.608
	c-3.829,0-7.325,2.173-9.021,5.608l-39.937,80.92L16.73,215.319c-3.787,0.55-6.935,3.204-8.118,6.846
	c-1.183,3.639-0.195,7.636,2.546,10.31l64.622,62.988l-15.257,88.941c-0.649,3.773,0.903,7.587,4.001,9.838
	c3.098,2.251,7.206,2.548,10.592,0.765l79.875-41.992l79.872,41.992c1.474,0.773,3.081,1.154,4.683,1.154
	c2.083,0,4.161-0.646,5.912-1.92c3.097-2.251,4.648-6.064,4.003-9.838l-4.823-28.114"/>
<g style="opacity:0.2;">
	<path style="fill:#231F20;" d="M89.385,386.136c-3.098-2.251-4.649-6.064-4.001-9.838l15.257-88.941l-64.622-62.988
		c-2.739-2.674-3.727-6.672-2.545-10.31c0.139-0.43,0.311-0.844,0.504-1.244l-17.248,2.506c-3.787,0.55-6.935,3.204-8.118,6.846
		c-1.183,3.639-0.195,7.636,2.546,10.31l64.622,62.988l-15.257,88.941c-0.649,3.773,0.903,7.587,4.001,9.838
		c3.098,2.251,7.206,2.548,10.592,0.765l15.462-8.129C90.168,386.661,89.769,386.414,89.385,386.136z"/>
</g>
<path style="fill:#FF9737;" d="M213.359,251.56c-0.47-1.452-1.725-2.51-3.239-2.728l-35.608-5.175l-15.925-32.268
	c-0.676-1.371-2.071-2.237-3.596-2.237c-1.526,0-2.921,0.867-3.596,2.237l-15.926,32.268l-35.609,5.175
	c-1.509,0.218-2.765,1.278-3.235,2.728c-0.475,1.452-0.078,3.045,1.014,4.112l25.769,25.116l-6.085,35.467
	c-0.257,1.505,0.36,3.023,1.597,3.922c1.233,0.897,2.871,1.016,4.222,0.305l31.852-16.744l31.849,16.744
	c0.587,0.309,1.228,0.462,1.869,0.462c0.83,0,1.658-0.259,2.358-0.765c1.234-0.899,1.852-2.418,1.594-3.922l-6.083-35.467
	l25.768-25.116C213.438,254.604,213.831,253.01,213.359,251.56z"/>
<g>
	<path style="fill:#231F20;" d="M70.42,404.292c-3.75,0-7.475-1.175-10.66-3.489c-5.637-4.095-8.407-10.904-7.227-17.77
		l14.536-84.739L5.498,238.281c-4.988-4.869-6.747-12.003-4.596-18.622c2.15-6.624,7.77-11.362,14.662-12.363l85.085-12.364
		l38.051-77.098c3.084-6.246,9.325-10.126,16.29-10.126c6.966,0,13.208,3.881,16.289,10.129l38.053,77.096l85.082,12.364
		c6.893,1,12.512,5.739,14.664,12.365c2.153,6.617,0.392,13.753-4.597,18.618l-61.568,60.013l5.247,30.586
		c0.758,4.414-2.206,8.604-6.619,9.361c-4.425,0.76-8.606-2.207-9.361-6.62l-5.967-34.787c-0.452-2.63,0.421-5.313,2.331-7.176
		l64.62-62.989c0.528-0.515,0.722-1.298,0.495-1.995c-0.232-0.717-0.835-1.225-1.573-1.332l-89.301-12.977
		c-2.641-0.384-4.924-2.042-6.105-4.435l-39.94-80.917c-0.332-0.671-1.001-1.089-1.748-1.089c-0.748,0-1.419,0.417-1.75,1.089
		l-39.937,80.92c-1.181,2.392-3.463,4.051-6.104,4.435l-89.302,12.977c-0.729,0.106-1.345,0.627-1.572,1.326
		c-0.228,0.702-0.032,1.488,0.497,2.005l64.618,62.984c1.911,1.862,2.782,4.547,2.331,7.177l-15.257,88.941
		c-0.126,0.738,0.171,1.468,0.776,1.908c0.597,0.433,1.403,0.492,2.05,0.15l79.88-41.995c2.363-1.242,5.184-1.241,7.545,0
		l79.872,41.992c0.28,0.147,0.589,0.224,0.91,0.224c0.29,0,0.724-0.065,1.145-0.37c0.599-0.435,0.904-1.186,0.779-1.913
		l-4.822-28.108c-0.758-4.412,2.206-8.604,6.619-9.361c4.423-0.759,8.606,2.207,9.361,6.62l4.823,28.114
		c1.175,6.867-1.596,13.674-7.227,17.767c-3.122,2.269-6.814,3.468-10.678,3.468c-2.928,0-5.85-0.72-8.447-2.082l-76.107-40.013
		l-76.105,40.008C76.209,403.595,73.307,404.292,70.42,404.292z"/>
	<path style="fill:#231F20;" d="M121.272,329.051c-2.579,0-5.044-0.802-7.129-2.32c-3.752-2.728-5.598-7.268-4.815-11.844
		l5.365-31.268l-22.717-22.141c-3.335-3.26-4.504-8.023-3.059-12.439c1.406-4.336,5.247-7.574,9.778-8.23l31.388-4.562l14.04-28.445
		c2.054-4.166,6.219-6.756,10.867-6.756s8.812,2.59,10.868,6.758l14.037,28.443l31.39,4.562c4.601,0.664,8.354,3.828,9.787,8.255
		c1.432,4.406,0.259,9.165-3.063,12.408l-22.721,22.147l5.363,31.266c0.78,4.579-1.064,9.115-4.812,11.846
		c-2.101,1.522-4.562,2.32-7.131,2.32c-1.962,0-3.914-0.483-5.648-1.397l-28.07-14.757l-28.079,14.762
		C125.184,328.567,123.232,329.051,121.272,329.051z M154.991,295.629c1.296,0,2.592,0.31,3.773,0.931l24.503,12.883l-4.679-27.286
		c-0.451-2.63,0.422-5.313,2.332-7.175l19.824-19.322l-27.396-3.981c-2.641-0.384-4.924-2.042-6.105-4.435l-12.252-24.824
		l-12.253,24.824c-1.181,2.392-3.463,4.05-6.104,4.435l-27.394,3.981l19.825,19.323c1.911,1.862,2.782,4.547,2.331,7.177
		l-4.681,27.283l24.503-12.882C152.399,295.94,153.695,295.629,154.991,295.629z"/>
	<path style="fill:#231F20;" d="M401.078,123.922H206.319c-4.478,0-8.107-3.63-8.107-8.107s3.629-8.107,8.107-8.107h194.759
		c4.477,0,8.107,3.63,8.107,8.107S405.555,123.922,401.078,123.922z"/>
	<path style="fill:#231F20;" d="M408.779,402.35H287.846c-4.478,0-8.107-3.63-8.107-8.107c0-4.477,3.629-8.107,8.107-8.107h120.932
		c4.478,0,8.107,3.63,8.107,8.107C416.886,398.721,413.256,402.35,408.779,402.35z"/>
	<path style="fill:#231F20;" d="M367.561,332.743h-88.773c-4.478,0-8.107-3.63-8.107-8.107c0-4.477,3.629-8.107,8.107-8.107h88.773
		c4.478,0,8.107,3.63,8.107,8.107C375.668,329.113,372.039,332.743,367.561,332.743z"/>
	<path style="fill:#231F20;" d="M411.042,332.743h-4.528c-4.478,0-8.107-3.63-8.107-8.107c0-4.477,3.629-8.107,8.107-8.107h4.528
		c4.478,0,8.107,3.63,8.107,8.107C419.149,329.113,415.519,332.743,411.042,332.743z"/>
	<path style="fill:#231F20;" d="M502.534,193.529h-4.528c-4.478,0-8.107-3.63-8.107-8.107c0-4.477,3.629-8.107,8.107-8.107h4.528
		c4.478,0,8.107,3.63,8.107,8.107C510.641,189.9,507.012,193.529,502.534,193.529z"/>
	<path style="fill:#231F20;" d="M503.892,263.136H341.291c-4.478,0-8.107-3.63-8.107-8.107c0-4.477,3.629-8.107,8.107-8.107h162.601
		c4.478,0,8.107,3.63,8.107,8.107C512,259.506,508.371,263.136,503.892,263.136z"/>
	<path style="fill:#231F20;" d="M460.864,193.529H323.175c-4.478,0-8.107-3.63-8.107-8.107c0-4.477,3.629-8.107,8.107-8.107h137.688
		c4.477,0,8.107,3.63,8.107,8.107C468.971,189.9,465.342,193.529,460.864,193.529z"/>
</g>
<g>
</g>
<g>
</g>
<g>
</g>
<g>
</g>
<g>
</g>
<g>
</g>
<g>
</g>
<g>
</g>
<g>
</g>
<g>
</g>
<g>
</g>
<g>
</g>
<g>
</g>
<g>
</g>
<g>
</g>
</svg>
