<?xml version="1.0" encoding="iso-8859-1"?>
<!-- Generator: Adobe Illustrator 19.0.0, SVG Export Plug-In . SVG Version: 6.00 Build 0)  -->
<svg version="1.1" id="Layer_1" xmlns="http://www.w3.org/2000/svg" xmlns:xlink="http://www.w3.org/1999/xlink" x="0px" y="0px"
	 viewBox="0 0 512 512" style="enable-background:new 0 0 512 512;" xml:space="preserve">
<path style="fill:#427C99;" d="M348.922,487.021c0-9.331-7.565-16.895-16.895-16.895H179.972c-9.331,0-16.895,7.564-16.895,16.895
	c0,9.331,7.565,16.895,16.895,16.895h152.054C341.357,503.916,348.922,496.352,348.922,487.021z"/>
<g>
	<circle style="fill:#90C8EC;" cx="255.999" cy="33.794" r="25.71"/>
	<path style="fill:#90C8EC;" d="M72.359,208.62c0,87.702,61.483,161.033,143.694,179.271v-0.153
		c0-22.062,17.884-39.947,39.947-39.947c22.062,0,39.947,17.884,39.947,39.947v0.153c82.212-18.239,143.694-91.57,143.694-179.271"
		/>
</g>
<g>
	<path style="fill:#578CAD;" d="M135.307,208.62H61.339c-9.33,0-16.895-7.564-16.895-16.895l0,0c0-9.33,7.565-16.895,16.895-16.895
		h389.319c9.33,0,16.896,7.565,16.896,16.895l0,0c0,9.331-7.565,16.895-16.896,16.895H161.176"/>
	<path style="fill:#578CAD;" d="M255.999,347.792c-22.062,0-39.947,17.884-39.947,39.947v82.387h79.892v-82.387
		C295.946,365.677,278.062,347.792,255.999,347.792z"/>
</g>
<g style="opacity:0.2;">
	<path style="fill:#231F20;" d="M188.601,487.021c0-9.331,7.564-16.895,16.895-16.895h-25.525c-9.331,0-16.895,7.564-16.895,16.895
		c0,9.331,7.565,16.895,16.895,16.895h25.525C196.166,503.916,188.601,496.352,188.601,487.021z"/>
</g>
<g style="opacity:0.2;">
	<path style="fill:#231F20;" d="M255.814,33.794c0-9.553,5.214-17.882,12.948-22.316c-3.762-2.156-8.115-3.394-12.762-3.394
		c-14.199,0-25.71,11.511-25.71,25.71s11.511,25.71,25.71,25.71c4.647,0,9-1.238,12.762-3.394
		C261.028,51.676,255.814,43.346,255.814,33.794z"/>
</g>
<g style="opacity:0.2;">
	<path style="fill:#231F20;" d="M97.883,208.62H72.359c0,87.702,61.483,161.033,143.694,179.271v-0.153
		c0-2.48,0.238-4.904,0.67-7.261C147.282,354.284,97.883,287.229,97.883,208.62z"/>
</g>
<g style="opacity:0.2;">
	<path style="fill:#231F20;" d="M69.969,191.725c0-9.33,7.565-16.895,16.895-16.895H61.339c-9.33,0-16.895,7.565-16.895,16.895
		c0,9.331,7.565,16.895,16.895,16.895h25.525C77.534,208.62,69.969,201.056,69.969,191.725z"/>
</g>
<g style="opacity:0.2;">
	<path style="fill:#231F20;" d="M268.762,349.887c-4.009-1.351-8.297-2.094-12.762-2.094c-22.062,0-39.947,17.884-39.947,39.947
		v82.387h25.525v-82.387C241.577,370.142,252.961,355.213,268.762,349.887z"/>
</g>
<g>
	<path style="fill:#231F20;" d="M450.659,166.746h-57.964L272.644,63.186c10.229-5.816,17.148-16.808,17.148-29.392
		C289.794,15.16,274.633,0,255.999,0c-18.635,0-33.794,15.16-33.794,33.794c0,12.584,6.919,23.577,17.148,29.392l-120.051,103.56
		H61.339c-13.773,0-24.979,11.206-24.979,24.979c0,13.773,11.206,24.979,24.979,24.979h3.109
		c1.746,41.044,16.734,80.787,42.654,112.697c25.839,31.813,61.464,54.662,100.867,64.852v67.789h-27.997
		c-13.773,0-24.979,11.206-24.979,24.979c0,13.773,11.205,24.979,24.979,24.979h152.054c13.773,0,24.979-11.206,24.979-24.979
		c0-13.773-11.206-24.979-24.979-24.979H304.03v-67.79c39.404-10.189,75.028-33.039,100.868-64.852
		c25.918-31.91,40.907-71.653,42.653-112.697h3.108c13.773,0,24.98-11.206,24.98-24.979
		C475.639,177.952,464.432,166.746,450.659,166.746z M367.942,166.746H264.084V77.155L367.942,166.746z M255.999,16.168
		c9.719,0,17.626,7.906,17.626,17.626s-7.906,17.626-17.626,17.626c-9.719,0-17.626-7.906-17.626-17.626
		S246.28,16.168,255.999,16.168z M247.915,77.155v89.592H144.057L247.915,77.155z M340.837,487.021c0,4.858-3.953,8.811-8.811,8.811
		H179.972c-4.858,0-8.811-3.953-8.811-8.811s3.953-8.811,8.811-8.811h36.081h79.892h36.081
		C336.885,478.21,340.837,482.163,340.837,487.021z M224.137,462.042v-74.151v-0.153c0-17.57,14.293-31.864,31.863-31.864
		c17.569,0,31.863,14.294,31.863,31.864v0.153v74.151H224.137z M450.659,200.536H161.176c-4.465,0-8.084,3.62-8.084,8.084
		s3.62,8.084,8.084,8.084h270.185c-3.524,75.264-55.931,140.973-128.364,161.098c-0.144-0.684-0.304-1.365-0.477-2.038
		c-0.016-0.063-0.036-0.124-0.053-0.186c-0.172-0.658-0.358-1.31-0.557-1.956c-0.074-0.24-0.157-0.478-0.235-0.717
		c-0.152-0.466-0.306-0.931-0.472-1.39c-0.097-0.271-0.202-0.538-0.303-0.806c-0.162-0.424-0.327-0.846-0.499-1.263
		c-0.113-0.275-0.23-0.546-0.348-0.818c-0.178-0.41-0.362-0.816-0.552-1.219c-0.124-0.265-0.249-0.529-0.378-0.792
		c-0.203-0.413-0.414-0.82-0.628-1.226c-0.127-0.241-0.252-0.485-0.384-0.723c-0.251-0.457-0.514-0.906-0.78-1.355
		c-0.106-0.179-0.207-0.36-0.315-0.538c-0.378-0.619-0.77-1.23-1.174-1.829c-0.083-0.124-0.172-0.243-0.258-0.365
		c-0.328-0.475-0.66-0.946-1.004-1.41c-0.154-0.208-0.316-0.411-0.473-0.617c-0.285-0.371-0.571-0.739-0.866-1.102
		c-0.181-0.223-0.368-0.441-0.553-0.661c-0.285-0.337-0.573-0.672-0.867-1c-0.196-0.22-0.395-0.438-0.595-0.653
		c-0.299-0.322-0.603-0.639-0.909-0.954c-0.203-0.207-0.405-0.415-0.611-0.619c-0.327-0.322-0.661-0.637-0.996-0.95
		c-0.195-0.182-0.387-0.366-0.585-0.545c-0.406-0.366-0.822-0.723-1.241-1.076c-0.135-0.113-0.265-0.232-0.402-0.344
		c-0.557-0.459-1.124-0.904-1.702-1.338c-0.157-0.117-0.319-0.229-0.478-0.345c-0.427-0.313-0.856-0.622-1.293-0.921
		c-0.223-0.153-0.452-0.299-0.678-0.447c-0.383-0.252-0.766-0.501-1.157-0.742c-0.249-0.154-0.5-0.303-0.751-0.452
		c-0.379-0.224-0.761-0.445-1.146-0.66c-0.26-0.144-0.521-0.287-0.784-0.427c-0.393-0.209-0.79-0.412-1.19-0.61
		c-0.259-0.128-0.516-0.258-0.777-0.382c-0.43-0.205-0.867-0.399-1.303-0.591c-0.236-0.103-0.469-0.211-0.707-0.31
		c-0.567-0.238-1.14-0.462-1.719-0.679c-0.112-0.042-0.222-0.089-0.334-0.13c-0.691-0.253-1.388-0.488-2.093-0.71
		c-0.213-0.067-0.43-0.125-0.645-0.19c-0.497-0.149-0.996-0.294-1.499-0.427c-0.272-0.071-0.546-0.136-0.819-0.203
		c-0.454-0.111-0.91-0.219-1.368-0.317c-0.294-0.063-0.59-0.121-0.885-0.178c-0.449-0.087-0.901-0.168-1.355-0.243
		c-0.3-0.05-0.599-0.097-0.901-0.14c-0.464-0.067-0.93-0.125-1.398-0.178c-0.293-0.033-0.585-0.069-0.88-0.098
		c-0.512-0.05-1.027-0.085-1.544-0.117c-0.252-0.016-0.502-0.038-0.756-0.051c-0.77-0.037-1.544-0.059-2.323-0.059
		c-0.779,0-1.552,0.023-2.323,0.059c-0.253,0.012-0.502,0.035-0.755,0.051c-0.516,0.032-1.032,0.069-1.544,0.117
		c-0.294,0.028-0.585,0.064-0.878,0.097c-0.469,0.054-0.936,0.111-1.399,0.179c-0.301,0.043-0.6,0.091-0.9,0.14
		c-0.455,0.074-0.907,0.155-1.357,0.243c-0.295,0.057-0.59,0.115-0.884,0.178c-0.46,0.098-0.916,0.206-1.371,0.317
		c-0.273,0.067-0.546,0.13-0.817,0.202c-0.507,0.134-1.007,0.279-1.507,0.429c-0.212,0.064-0.427,0.121-0.638,0.188
		c-0.706,0.222-1.406,0.458-2.097,0.71c-0.107,0.039-0.211,0.084-0.318,0.124c-0.583,0.219-1.163,0.445-1.735,0.686
		c-0.235,0.099-0.466,0.206-0.7,0.308c-0.44,0.193-0.878,0.388-1.311,0.594c-0.259,0.123-0.514,0.251-0.771,0.379
		c-0.402,0.199-0.802,0.403-1.198,0.614c-0.261,0.139-0.52,0.28-0.776,0.424c-0.388,0.217-0.773,0.438-1.154,0.664
		c-0.249,0.148-0.498,0.295-0.744,0.447c-0.393,0.243-0.78,0.495-1.166,0.748c-0.223,0.147-0.448,0.291-0.668,0.441
		c-0.443,0.303-0.878,0.616-1.311,0.932c-0.153,0.112-0.309,0.219-0.461,0.332c-0.579,0.434-1.148,0.882-1.705,1.341
		c-0.132,0.109-0.259,0.223-0.389,0.333c-0.424,0.357-0.843,0.717-1.255,1.087c-0.195,0.176-0.385,0.358-0.578,0.538
		c-0.338,0.316-0.676,0.633-1.005,0.958c-0.204,0.202-0.404,0.406-0.605,0.612c-0.309,0.316-0.614,0.635-0.915,0.959
		c-0.199,0.216-0.397,0.432-0.592,0.65c-0.295,0.33-0.584,0.666-0.87,1.005c-0.184,0.218-0.369,0.435-0.55,0.656
		c-0.295,0.363-0.583,0.733-0.869,1.105c-0.157,0.205-0.318,0.406-0.472,0.614c-0.345,0.465-0.679,0.939-1.008,1.416
		c-0.083,0.121-0.17,0.237-0.252,0.358c-0.405,0.6-0.797,1.212-1.175,1.831c-0.107,0.175-0.206,0.354-0.31,0.529
		c-0.267,0.451-0.531,0.903-0.785,1.364c-0.13,0.237-0.254,0.48-0.382,0.719c-0.215,0.406-0.427,0.815-0.631,1.229
		c-0.129,0.263-0.254,0.528-0.378,0.793c-0.19,0.403-0.373,0.808-0.552,1.218c-0.119,0.272-0.235,0.543-0.348,0.817
		c-0.174,0.418-0.338,0.842-0.5,1.265c-0.102,0.268-0.206,0.535-0.303,0.805c-0.165,0.459-0.319,0.923-0.47,1.387
		c-0.079,0.24-0.162,0.479-0.236,0.721c-0.197,0.64-0.38,1.287-0.552,1.939c-0.018,0.068-0.04,0.135-0.057,0.204
		c-0.174,0.674-0.333,1.353-0.478,2.036c-72.428-20.122-124.835-85.831-128.358-161.096h54.668c4.465,0,8.084-3.62,8.084-8.084
		s-3.62-8.084-8.084-8.084H61.339c-4.858,0-8.811-3.953-8.811-8.811c0-4.858,3.953-8.811,8.811-8.811h389.319
		c4.859,0,8.812,3.953,8.812,8.811C459.47,196.583,455.518,200.536,450.659,200.536z"/>
	<path style="fill:#231F20;" d="M354.282,327.949c1.903,0,3.813-0.668,5.351-2.026c22.584-19.963,38.834-45.758,46.998-74.599
		c1.216-4.296-1.282-8.764-5.578-9.98c-4.291-1.213-8.764,1.281-9.98,5.577c-7.317,25.853-21.891,48.983-42.148,66.888
		c-3.346,2.958-3.659,8.066-0.703,11.412C349.819,327.028,352.044,327.949,354.282,327.949z"/>
	<path style="fill:#231F20;" d="M332.286,344.067c1.415,0,2.85-0.372,4.152-1.152c0.911-0.546,1.815-1.102,2.714-1.666
		c3.782-2.374,4.923-7.364,2.548-11.145c-2.372-3.781-7.364-4.923-11.144-2.548c-0.806,0.507-1.618,1.005-2.436,1.495
		c-3.829,2.297-5.07,7.263-2.773,11.092C326.862,342.667,329.541,344.067,332.286,344.067z"/>
	<circle style="fill:#231F20;" cx="255.999" cy="388.419" r="13.387"/>
</g>
<g>
</g>
<g>
</g>
<g>
</g>
<g>
</g>
<g>
</g>
<g>
</g>
<g>
</g>
<g>
</g>
<g>
</g>
<g>
</g>
<g>
</g>
<g>
</g>
<g>
</g>
<g>
</g>
<g>
</g>
</svg>
