<?xml version="1.0" encoding="iso-8859-1"?>
<!-- Generator: Adobe Illustrator 19.0.0, SVG Export Plug-In . SVG Version: 6.00 Build 0)  -->
<svg version="1.1" id="Layer_1" xmlns="http://www.w3.org/2000/svg" xmlns:xlink="http://www.w3.org/1999/xlink" x="0px" y="0px"
	 viewBox="0 0 512 512" style="enable-background:new 0 0 512 512;" xml:space="preserve">
<path style="fill:#76B9DD;" d="M96.087,132.727H47.954c-10.542,0-19.086,8.546-19.086,19.088v10.603
	c0,10.543,8.546,19.088,19.086,19.088h48.134V132.727z"/>
<path style="fill:#90C8EC;" d="M155.824,110.459h-40.649c-10.544,0-19.086,8.548-19.086,19.088v55.14
	c0,10.541,8.544,19.088,19.086,19.088h95.875c11.195-8.408,25.109-13.393,40.187-13.393c15.08,0,28.994,4.985,40.188,13.393h106.876
	v-93.316H183.467"/>
<rect x="355.885" y="110.458" style="fill:#76B9DD;" width="42.42" height="93.318"/>
<path style="fill:#90C8EC;" d="M251.238,8.131c-14.495,0-26.244,11.752-26.244,26.245h52.489
	C277.483,19.882,265.733,8.131,251.238,8.131z"/>
<circle style="fill:#578CAD;" cx="251.238" cy="257.374" r="66.991"/>
<g>
	<circle style="fill:#3A5D74;" cx="251.238" cy="257.374" r="22.196"/>
	<path style="fill:#3A5D74;" d="M291.426,203.775c13.305,9.992,22.753,24.828,25.762,41.886h9.174
		c10.542,0,19.088-8.546,19.088-19.088v-22.797h-54.023V203.775z"/>
	<path style="fill:#3A5D74;" d="M211.049,203.775h-54.883v22.797c0,10.543,8.546,19.088,19.086,19.088h10.034
		C188.296,228.603,197.744,213.767,211.049,203.775z"/>
	<rect x="229.372" y="81.298" style="fill:#3A5D74;" width="43.743" height="29.16"/>
</g>
<g>
	<path style="fill:#578CAD;" d="M483.134,208.016c0,10.541-8.546,19.088-19.086,19.088H417.39c-10.544,0-19.088-8.548-19.088-19.088
		V106.218c0-10.543,8.545-19.085,19.088-19.085h46.657c10.542,0,19.086,8.544,19.086,19.085V208.016z"/>
	<path style="fill:#578CAD;" d="M326.791,62.21c0,10.543-8.546,19.088-19.086,19.088H194.771c-10.541,0-19.086-8.546-19.086-19.088
		v-8.746c0-10.545,8.547-19.088,19.086-19.088h112.934c10.542,0,19.086,8.544,19.086,19.088V62.21z"/>
</g>
<g style="opacity:0.2;">
	<path style="fill:#231F20;" d="M54.614,162.418v-10.603c0-10.543,8.546-19.088,19.086-19.088H47.954
		c-10.542,0-19.086,8.546-19.086,19.088v10.603c0,10.543,8.546,19.088,19.086,19.088h25.747
		C63.159,181.507,54.614,172.961,54.614,162.418z"/>
</g>
<g style="opacity:0.2;">
	<path style="fill:#231F20;" d="M121.834,184.686v-55.14c0-10.541,8.544-19.088,19.086-19.088h-25.747
		c-10.544,0-19.086,8.548-19.086,19.088v55.14c0,10.541,8.544,19.088,19.086,19.088h25.747
		C130.378,203.775,121.834,195.227,121.834,184.686z"/>
</g>
<g style="opacity:0.2;">
	<path style="fill:#231F20;" d="M264.111,11.508c-3.804-2.146-8.195-3.377-12.874-3.377c-14.495,0-26.244,11.752-26.244,26.245
		h25.747C250.741,24.561,256.131,16.01,264.111,11.508z"/>
</g>
<g style="opacity:0.2;">
	<path style="fill:#231F20;" d="M209.993,257.371c0-32.591,23.283-59.735,54.118-65.74c-4.167-0.812-8.469-1.249-12.874-1.249
		c-36.996,0-66.991,29.992-66.991,66.989c0,37.001,29.996,66.991,66.991,66.991c4.405,0,8.706-0.437,12.874-1.249
		C233.275,317.11,209.993,289.968,209.993,257.371z"/>
</g>
<g style="opacity:0.2;">
	<path style="fill:#231F20;" d="M424.049,208.016V106.218c0-10.543,8.545-19.085,19.088-19.085h-25.747
		c-10.544,0-19.088,8.544-19.088,19.085v101.798c0,10.541,8.545,19.088,19.088,19.088h25.747
		C432.594,227.104,424.049,218.557,424.049,208.016z"/>
</g>
<g style="opacity:0.2;">
	<path style="fill:#231F20;" d="M201.43,62.21v-8.746c0-10.545,8.547-19.088,19.086-19.088H194.77
		c-10.541,0-19.086,8.544-19.086,19.088v8.746c0,10.543,8.547,19.088,19.086,19.088h25.747
		C209.977,81.298,201.43,72.752,201.43,62.21z"/>
</g>
<g>
	<path style="fill:#231F20;" d="M251.238,227.047c-16.722,0-30.326,13.604-30.326,30.325c0,16.724,13.604,30.33,30.326,30.33
		s30.326-13.605,30.326-30.33C281.563,240.65,267.959,227.047,251.238,227.047z M251.238,271.44c-7.754,0-14.065-6.31-14.065-14.068
		c0-7.754,6.309-14.064,14.065-14.064c7.754,0,14.065,6.308,14.065,14.064C265.301,265.129,258.992,271.44,251.238,271.44z"/>
	<path style="fill:#231F20;" d="M464.046,79.001h-46.657c-13.688,0-25.042,10.157-26.936,23.327h-34.568H281.24v-12.9h26.465
		c15.008,0,27.217-12.21,27.217-27.218v-8.746c0-15.009-12.21-27.218-27.217-27.218h-23.07C280.971,11.203,267.392,0,251.238,0
		c-16.153,0-29.731,11.203-33.394,26.245h-23.073c-15.008,0-27.217,12.21-27.217,27.218v8.746c0,15.009,12.21,27.218,27.217,27.218
		h26.466v12.898h-37.77c-4.491,0-8.131,3.639-8.131,8.131s3.639,8.131,8.131,8.131h45.9h43.742h74.645v77.055h-2.306h-51.392
		c-10.446-7.27-22.367-11.679-34.948-12.979c-0.19-0.02-0.382-0.036-0.571-0.054c-0.966-0.092-1.935-0.166-2.908-0.222
		c-0.292-0.017-0.582-0.036-0.875-0.049c-1.168-0.053-2.339-0.089-3.517-0.089c-1.177,0-2.348,0.036-3.517,0.089
		c-0.293,0.014-0.583,0.033-0.874,0.049c-0.972,0.055-1.942,0.129-2.908,0.222c-0.191,0.018-0.382,0.034-0.572,0.054
		c-12.581,1.3-24.499,5.709-34.947,12.979h-52.253h-40.993c-6.041,0-10.957-4.915-10.957-10.957v-3.181v-48.78v-3.181
		c0-6.042,4.915-10.957,10.957-10.957h40.649c4.491,0,8.131-3.639,8.131-8.131s-3.639-8.131-8.131-8.131h-40.649
		c-13.317,0-24.423,9.616-26.759,22.268H47.954c-15.008,0-27.217,12.21-27.217,27.218v10.603c0,15.009,12.21,27.218,27.217,27.218
		h40.463c2.335,12.652,13.442,22.268,26.759,22.268h32.862v14.667c0,15.009,12.21,27.218,27.217,27.218h0.953
		c-0.056,1.187-0.091,2.38-0.091,3.581c0,24.151,11.469,45.663,29.232,59.415L99.601,499.801c-2.246,3.888-0.916,8.861,2.973,11.108
		c1.281,0.74,2.68,1.092,4.06,1.092c2.809,0,5.541-1.457,7.048-4.064l105.525-182.631c7.389,3.498,15.435,5.826,23.9,6.741v171.823
		c0,4.491,3.639,8.131,8.131,8.131c4.491,0,8.131-3.639,8.131-8.131V332.047c8.466-0.915,16.511-3.244,23.901-6.742l105.524,182.631
		c1.507,2.607,4.239,4.064,7.048,4.064c1.38,0,2.779-0.351,4.06-1.092c3.889-2.246,5.219-7.22,2.973-11.108L297.127,316.786
		c17.764-13.752,29.232-35.263,29.232-59.415c0-1.201-0.035-2.394-0.091-3.581h0.092c15.008,0,27.218-12.21,27.218-27.218v-14.667
		h2.306h34.568c1.894,13.173,13.249,23.33,26.936,23.33h46.657c15.008,0,27.217-12.21,27.217-27.218V106.218
		C491.265,91.211,479.055,79.001,464.046,79.001z M36.998,162.418v-10.603c0-6.042,4.915-10.957,10.956-10.957h40.003v32.518H47.954
		C41.913,173.376,36.998,168.461,36.998,162.418z M251.238,16.261c7.067,0,13.201,4.068,16.185,9.983h-32.369
		C238.038,20.329,244.171,16.261,251.238,16.261z M183.814,62.21v-8.746c0-6.042,4.915-10.957,10.956-10.957h30.223h52.489h30.221
		c6.041,0,10.956,4.915,10.956,10.957v8.746c0,6.042-4.915,10.957-10.956,10.957h-34.595h-43.742H194.77
		C188.729,73.167,183.814,68.252,183.814,62.21z M237.498,102.328v-12.9h27.481v12.898h-27.481V102.328z M178.785,237.53h-3.531
		c-6.041,0-10.956-4.915-10.956-10.957v-14.667h27.125c-3.783,4.968-6.913,10.395-9.347,16.152c-0.07,0.165-0.133,0.333-0.203,0.499
		c-0.368,0.887-0.725,1.778-1.059,2.68c-0.182,0.488-0.347,0.983-0.519,1.475c-0.204,0.589-0.411,1.175-0.601,1.77
		c-0.242,0.752-0.461,1.513-0.68,2.277C178.941,237.018,178.855,237.27,178.785,237.53z M251.238,316.232
		c-32.455,0-58.861-26.404-58.861-58.861c0-3.56,0.335-7.041,0.944-10.429c0.145-0.815,0.309-1.625,0.488-2.431
		c0.035-0.155,0.072-0.31,0.107-0.464c0.165-0.717,0.344-1.428,0.534-2.135c0.077-0.283,0.159-0.563,0.24-0.843
		c0.164-0.57,0.333-1.138,0.513-1.702c0.15-0.465,0.309-0.925,0.469-1.384c0.129-0.373,0.257-0.746,0.394-1.114
		c0.263-0.708,0.541-1.408,0.83-2.103c0.05-0.119,0.096-0.24,0.146-0.359c8.183-19.235,26.32-33.25,47.908-35.553
		c0.198-0.021,0.398-0.041,0.597-0.06c0.724-0.069,1.453-0.124,2.183-0.167c0.237-0.014,0.475-0.031,0.713-0.042
		c0.926-0.043,1.856-0.07,2.792-0.07c0.937,0,1.867,0.027,2.793,0.07c0.237,0.011,0.475,0.028,0.711,0.042
		c0.732,0.043,1.461,0.096,2.186,0.167c0.198,0.018,0.396,0.039,0.594,0.06c21.589,2.302,39.728,16.318,47.91,35.555
		c0.05,0.117,0.095,0.235,0.144,0.352c0.291,0.696,0.568,1.398,0.833,2.109c0.137,0.369,0.263,0.74,0.392,1.111
		c0.162,0.461,0.321,0.923,0.47,1.389c0.18,0.562,0.348,1.129,0.512,1.697c0.081,0.283,0.164,0.565,0.242,0.85
		c0.191,0.706,0.369,1.416,0.533,2.131c0.036,0.156,0.073,0.311,0.108,0.467c0.179,0.805,0.343,1.615,0.488,2.431
		c0.608,3.387,0.944,6.868,0.944,10.428C310.099,289.828,283.693,316.232,251.238,316.232z M337.318,226.572
		c0,6.042-4.915,10.957-10.957,10.957h-2.67c-0.069-0.257-0.155-0.507-0.228-0.762c-0.219-0.766-0.44-1.531-0.682-2.286
		c-0.189-0.592-0.395-1.177-0.597-1.763c-0.172-0.495-0.339-0.992-0.521-1.483c-0.333-0.9-0.689-1.789-1.056-2.673
		c-0.07-0.168-0.134-0.338-0.206-0.505c-2.434-5.757-5.564-11.182-9.347-16.151h26.264V226.572z M364.015,118.59h26.156v77.055
		h-26.156V118.59z M475.003,208.016c0,6.042-4.915,10.957-10.956,10.957H417.39c-6.042,0-10.957-4.915-10.957-10.957v-4.241v-93.316
		v-4.241c0-6.041,4.915-10.955,10.957-10.955h46.657c6.041,0,10.956,4.914,10.956,10.955V208.016z"/>
</g>
<g>
</g>
<g>
</g>
<g>
</g>
<g>
</g>
<g>
</g>
<g>
</g>
<g>
</g>
<g>
</g>
<g>
</g>
<g>
</g>
<g>
</g>
<g>
</g>
<g>
</g>
<g>
</g>
<g>
</g>
</svg>
