<?xml version="1.0" encoding="iso-8859-1"?>
<!-- Generator: Adobe Illustrator 19.0.0, SVG Export Plug-In . SVG Version: 6.00 Build 0)  -->
<svg version="1.1" id="Layer_1" xmlns="http://www.w3.org/2000/svg" xmlns:xlink="http://www.w3.org/1999/xlink" x="0px" y="0px"
	 viewBox="0 0 512 512" style="enable-background:new 0 0 512 512;" xml:space="preserve">
<path style="fill:#FF9737;" d="M390.959,395.897v-18.6c0-27.668-22.43-50.098-50.097-50.098h-8.141h-16.11h-10.665
	c-10.2,16.933-28.734,28.274-49.943,28.274c-21.209,0-39.741-11.342-49.943-28.274h-10.076h-16.111h-11.569
	c-27.667,0-50.095,22.43-50.095,50.098v126.619h272.752v-79.993"/>
<g style="opacity:0.2;">
	<path style="fill:#231F20;" d="M193.483,327.198H179.87h-11.568c-27.667,0-50.095,22.43-50.095,50.098v126.619h25.181V377.297
		C143.389,349.628,165.816,327.198,193.483,327.198z"/>
</g>
<circle style="fill:#FF9737;" cx="254.588" cy="29.835" r="21.752"/>
<path style="fill:#90C8EC;" d="M376.201,212.846c0-66.386-53.815-120.202-120.2-120.202S135.798,146.46,135.798,212.846
	c0,47.197,27.206,88.032,66.787,107.7c9.01,20.559,29.53,34.926,53.415,34.926c23.885,0,44.402-14.367,53.415-34.926
	C348.997,300.879,376.201,260.043,376.201,212.846z"/>
<g>
	<circle style="fill:#FFD960;" cx="205.953" cy="214.285" r="27.732"/>
	<circle style="fill:#FFD960;" cx="303.212" cy="214.285" r="27.731"/>
</g>
<g>
	<path style="fill:#578CAD;" d="M135.799,212.846c0-19.444,4.647-37.793,12.844-54.045c-27.556-27.596-62.408-37.352-79.139-21.653
		c-17.299,16.234-8.67,53.538,19.28,83.319c16.725,17.823,36.573,28.905,53.526,31.458
		C138.1,239.673,135.799,226.529,135.799,212.846z"/>
	<path style="fill:#578CAD;" d="M442.498,137.149c-16.73-15.701-51.583-5.944-79.137,21.653c8.196,16.251,12.84,34.6,12.84,54.045
		c0,13.683-2.299,26.827-6.509,39.08c16.953-2.554,36.803-13.634,53.528-31.458C451.166,190.687,459.797,153.383,442.498,137.149z"
		/>
</g>
<g>
	<path style="fill:#231F20;" d="M241.765,214.289c0-19.748-16.067-35.815-35.817-35.815c-19.748,0-35.815,16.067-35.815,35.815
		s16.066,35.815,35.815,35.815C225.698,250.104,241.765,234.038,241.765,214.289z M205.949,233.935
		c-10.833,0-19.647-8.814-19.647-19.647c0-10.833,8.814-19.647,19.647-19.647c10.834,0,19.649,8.814,19.649,19.647
		C225.598,225.122,216.783,233.935,205.949,233.935z"/>
	<path style="fill:#231F20;" d="M303.216,178.473c-19.748,0-35.815,16.067-35.815,35.815s16.066,35.815,35.815,35.815
		s35.815-16.067,35.815-35.815S322.964,178.473,303.216,178.473z M303.216,233.935c-10.833,0-19.647-8.814-19.647-19.647
		c0-10.833,8.814-19.647,19.647-19.647s19.647,8.814,19.647,19.647C322.863,225.122,314.049,233.935,303.216,233.935z"/>
	<path style="fill:#231F20;" d="M284.714,273.777c-4.386-0.81-8.605,2.099-9.411,6.491c-1.71,9.314-9.827,16.075-19.301,16.075
		c-9.474,0-17.591-6.759-19.301-16.075c-0.806-4.391-5.015-7.302-9.411-6.491c-4.391,0.806-7.298,5.02-6.491,9.411
		c3.121,16.991,17.925,29.323,35.204,29.323c17.279,0,32.085-12.332,35.204-29.323C292.011,278.796,289.105,274.583,284.714,273.777
		z"/>
	<path style="fill:#231F20;" d="M448.03,131.254c-6.756-6.34-15.968-9.691-26.642-9.691c-17.619,0-37.994,8.964-55.991,24.347
		c-21.255-34.611-58.465-58.41-101.311-61.089v-23.45c0-1.083-0.217-2.116-0.604-3.06c12.117-3.795,20.934-15.125,20.934-28.477
		C284.416,13.384,271.033,0,254.582,0s-29.834,13.384-29.834,29.835c0,14.286,10.096,26.253,23.526,29.156
		c-0.232,0.752-0.358,1.552-0.358,2.381v23.45c-42.845,2.677-80.056,26.476-101.311,61.086
		c-17.997-15.383-38.372-24.346-55.99-24.346c-10.672,0-19.886,3.351-26.642,9.691c-10.555,9.905-13.99,25.637-9.673,44.297
		c3.958,17.106,14.112,35.023,28.588,50.449c16.043,17.098,35.249,28.898,53.408,32.992c2.992,7.763,6.731,15.253,11.222,22.35
		c9.52,15.043,22.016,27.874,36.639,37.772h-15.854c-32.08,0-58.179,26.1-58.179,58.183v126.62c0,4.465,3.618,8.084,8.084,8.084
		h272.752c4.466,0,8.084-3.62,8.084-8.084v-79.993c0-4.465-3.618-8.084-8.084-8.084c-4.466,0-8.084,3.62-8.084,8.084v71.909h-42.069
		v-76.703c0-4.465-3.618-8.084-8.084-8.084s-8.084,3.62-8.084,8.084v76.703H187.954v-76.703c0-4.465-3.618-8.084-8.084-8.084
		c-4.466,0-8.084,3.62-8.084,8.084v76.703h-45.495V377.297c0-23.166,18.846-42.014,42.011-42.014h33.352
		c1.479,2.108,3.071,4.119,4.769,6.024c0.108,0.122,0.213,0.246,0.321,0.365c0.142,0.157,0.288,0.312,0.431,0.468
		c11.346,12.407,26.901,20.001,43.916,21.232c0.1,0.008,0.199,0.016,0.3,0.023c0.627,0.042,1.256,0.075,1.886,0.1
		c0.154,0.006,0.307,0.015,0.461,0.021c0.752,0.025,1.506,0.04,2.263,0.04c0.757,0,1.511-0.015,2.262-0.04
		c0.153-0.005,0.305-0.014,0.457-0.021c0.633-0.025,1.263-0.058,1.893-0.101c0.097-0.006,0.194-0.015,0.291-0.022
		c17.077-1.233,32.682-8.875,44.037-21.357c0.088-0.097,0.179-0.192,0.266-0.289c0.191-0.212,0.377-0.43,0.567-0.645
		c1.623-1.839,3.15-3.774,4.571-5.799h30.516c23.166,0,42.013,18.847,42.013,42.014v18.6c0,4.465,3.618,8.084,8.084,8.084
		s8.084-3.62,8.084-8.084v-18.6c0-32.081-26.1-58.183-58.181-58.183h-13.016c14.622-9.896,27.117-22.727,36.637-37.772
		c4.491-7.097,8.23-14.587,11.222-22.35c18.158-4.094,37.364-15.895,53.41-32.992C460.592,192.456,468.9,150.838,448.03,131.254z
		 M240.917,29.835c0-7.536,6.131-13.667,13.666-13.667s13.666,6.131,13.666,13.667s-6.131,13.666-13.666,13.666
		S240.917,37.37,240.917,29.835z M130.687,240.375c-12.291-4.851-25.087-13.8-36.008-25.439
		c-12.555-13.379-21.302-28.66-24.627-43.03c-2.965-12.814-1.194-23.064,4.983-28.862c3.758-3.526,8.999-5.314,15.579-5.314
		c14.486,0,32.579,8.661,48.216,22.879c-0.253,0.566-0.493,1.136-0.737,1.704c-0.115,0.269-0.235,0.537-0.348,0.806
		c-0.334,0.79-0.655,1.582-0.973,2.377c-0.065,0.163-0.132,0.324-0.195,0.487c-0.357,0.904-0.702,1.812-1.037,2.722
		c-0.014,0.039-0.029,0.077-0.043,0.114c-4.787,13.026-7.388,26.652-7.74,40.7c-0.028,1.105-0.043,2.213-0.043,3.324
		c0,1.378,0.029,2.753,0.072,4.126c0.013,0.402,0.032,0.803,0.049,1.204c0.042,1.015,0.095,2.03,0.161,3.042
		c0.026,0.405,0.052,0.811,0.082,1.215c0.091,1.217,0.196,2.431,0.321,3.643c0.015,0.151,0.027,0.303,0.043,0.454
		c0.147,1.376,0.319,2.749,0.51,4.118c0.046,0.336,0.1,0.67,0.15,1.006c0.151,1.026,0.314,2.05,0.49,3.071
		c0.074,0.43,0.15,0.86,0.229,1.289c0.181,0.988,0.375,1.975,0.58,2.959c0.078,0.375,0.15,0.751,0.231,1.125
		C130.65,240.191,130.668,240.283,130.687,240.375z M305.819,313.307c-1.699,0.844-3.046,2.257-3.807,3.994
		c-0.832,1.899-1.78,3.724-2.82,5.479c-0.055,0.084-0.12,0.161-0.172,0.248c-2.213,3.673-4.834,6.982-7.774,9.9
		c-0.206,0.203-0.41,0.407-0.619,0.607c-0.496,0.476-1.006,0.935-1.52,1.388c-6.223,5.454-13.741,9.327-21.902,11.196
		c-0.126,0.028-0.252,0.059-0.378,0.087c-0.561,0.124-1.123,0.239-1.69,0.345c-0.673,0.123-1.348,0.234-2.029,0.329
		c-0.356,0.051-0.714,0.096-1.072,0.139c-0.836,0.099-1.675,0.185-2.521,0.244c-0.19,0.013-0.379,0.02-0.57,0.031
		c-0.977,0.056-1.956,0.095-2.944,0.095c-0.987,0-1.968-0.039-2.945-0.095c-0.19-0.011-0.379-0.018-0.568-0.031
		c-0.847-0.058-1.688-0.144-2.526-0.245c-0.356-0.043-0.71-0.087-1.064-0.138c-0.696-0.098-1.389-0.211-2.077-0.337
		c-0.547-0.101-1.089-0.215-1.63-0.334c-0.143-0.031-0.285-0.066-0.427-0.098c-8.132-1.868-15.625-5.727-21.832-11.156
		c-0.539-0.475-1.073-0.956-1.593-1.455c-0.183-0.175-0.362-0.355-0.542-0.532c-2.957-2.93-5.591-6.252-7.816-9.943
		c-0.053-0.087-0.117-0.164-0.172-0.248c-1.04-1.754-1.987-3.579-2.819-5.477c-0.761-1.736-2.108-3.151-3.806-3.995
		c-26.853-13.343-46.583-36.164-56.042-63.325c-0.057-0.229-0.109-0.457-0.186-0.682c-2.488-7.241-4.213-14.688-5.174-22.26
		c-0.025-0.202-0.05-0.403-0.074-0.605c-0.147-1.208-0.268-2.42-0.375-3.635c-0.031-0.354-0.065-0.706-0.093-1.061
		c-0.088-1.115-0.152-2.232-0.207-3.351c-0.018-0.382-0.045-0.76-0.059-1.143c-0.057-1.464-0.091-2.93-0.091-4.4
		c0-1.028,0.016-2.054,0.044-3.077c0.012-0.454,0.033-0.904,0.052-1.357c0.022-0.548,0.042-1.095,0.071-1.642
		c0.032-0.6,0.072-1.199,0.114-1.797c0.025-0.369,0.051-0.738,0.08-1.107c0.056-0.712,0.12-1.423,0.19-2.131
		c0.022-0.216,0.043-0.431,0.066-0.646c0.087-0.83,0.18-1.659,0.285-2.483c0.002-0.018,0.005-0.038,0.008-0.056
		c1.273-9.955,3.862-19.505,7.578-28.473c0.156-0.377,0.31-0.755,0.471-1.131c0.202-0.471,0.409-0.938,0.615-1.406
		c0.215-0.483,0.431-0.965,0.652-1.444c0.196-0.425,0.393-0.848,0.594-1.271c0.236-0.496,0.479-0.99,0.722-1.483
		c18.316-37.061,56.516-62.615,100.578-62.615c44.208,0,82.516,25.722,100.759,62.984c0.148,0.302,0.296,0.604,0.441,0.907
		c0.271,0.566,0.537,1.135,0.798,1.706c0.146,0.317,0.288,0.634,0.429,0.952c0.271,0.606,0.539,1.212,0.799,1.823
		c0.08,0.189,0.157,0.377,0.236,0.566c4.127,9.853,6.888,20.414,8.04,31.448c0.02,0.201,0.041,0.401,0.061,0.601
		c0.071,0.719,0.135,1.44,0.193,2.162c0.028,0.36,0.053,0.72,0.078,1.081c0.042,0.605,0.083,1.21,0.115,1.817
		c0.029,0.542,0.05,1.087,0.07,1.63c0.017,0.455,0.04,0.909,0.052,1.365c0.027,1.023,0.044,2.049,0.044,3.077
		c0,1.469-0.033,2.934-0.091,4.397c-0.015,0.389-0.042,0.775-0.06,1.163c-0.054,1.109-0.117,2.216-0.205,3.321
		c-0.029,0.368-0.064,0.733-0.096,1.101c-0.106,1.195-0.225,2.389-0.37,3.579c-0.027,0.221-0.054,0.442-0.081,0.663
		c-0.96,7.563-2.684,15-5.167,22.231c-0.075,0.218-0.125,0.441-0.18,0.662C352.41,277.132,332.677,299.961,305.819,313.307z
		 M417.325,214.937c-10.922,11.638-23.72,20.589-36.011,25.439c0.023-0.101,0.04-0.203,0.063-0.303
		c0.074-0.342,0.14-0.684,0.211-1.027c0.211-1.016,0.412-2.036,0.599-3.058c0.075-0.412,0.148-0.825,0.219-1.236
		c0.18-1.041,0.346-2.085,0.499-3.13c0.047-0.32,0.098-0.64,0.143-0.96c0.192-1.374,0.364-2.753,0.511-4.135
		c0.015-0.141,0.026-0.283,0.04-0.425c0.126-1.221,0.233-2.446,0.323-3.672c0.03-0.4,0.055-0.801,0.081-1.201
		c0.066-1.016,0.12-2.034,0.162-3.053c0.016-0.4,0.036-0.8,0.049-1.2c0.044-1.374,0.072-2.75,0.072-4.128
		c0-1.111-0.014-2.219-0.043-3.324c-0.379-15.117-3.359-29.746-8.868-43.662c-0.003-0.008-0.006-0.016-0.01-0.024
		c-0.376-0.949-0.762-1.895-1.161-2.837c-0.028-0.067-0.058-0.134-0.086-0.201c-0.312-0.731-0.621-1.463-0.946-2.19
		c15.637-14.217,33.729-22.879,48.215-22.879c6.579,0,11.821,1.788,15.579,5.314C450.75,155.979,441.754,188.901,417.325,214.937z"
		/>
</g>
<g style="opacity:0.2;">
	<path style="fill:#231F20;" d="M279.355,343.616c-23.884,0-44.404-14.367-53.415-34.926c-39.581-19.668-66.787-60.503-66.787-107.7
		c0-42.138,21.687-79.204,54.503-100.666c-45.49,17.128-77.856,61.041-77.856,112.522c0,47.197,27.206,88.032,66.787,107.7
		c9.01,20.559,29.53,34.926,53.415,34.926c14.225,0,27.256-5.098,37.373-13.564C288.883,343.018,284.191,343.616,279.355,343.616z"
		/>
</g>
<g style="opacity:0.2;">
	<path style="fill:#231F20;" d="M113.215,211.363c-27.95-27.856-36.579-62.749-19.28-77.933c1.372-1.204,2.878-2.232,4.48-3.121
		c-11.585-1.856-21.861,0.222-28.911,6.839c-17.299,16.234-8.67,53.538,19.28,83.319c16.725,17.823,36.573,28.905,53.526,31.458
		c-2.439-7.097-4.213-14.5-5.295-22.126C128.816,225.015,120.704,218.827,113.215,211.363z"/>
</g>
<g style="opacity:0.2;">
	<path style="fill:#231F20;" d="M257.264,29.835c0-7.483,3.781-14.081,9.534-17.994c-3.482-2.368-7.686-3.755-12.216-3.755
		c-12.013,0-21.75,9.738-21.75,21.751c0,12.012,9.737,21.75,21.75,21.75c4.529,0,8.734-1.387,12.216-3.755
		C261.045,43.915,257.264,37.317,257.264,29.835z"/>
</g>
<g>
</g>
<g>
</g>
<g>
</g>
<g>
</g>
<g>
</g>
<g>
</g>
<g>
</g>
<g>
</g>
<g>
</g>
<g>
</g>
<g>
</g>
<g>
</g>
<g>
</g>
<g>
</g>
<g>
</g>
</svg>
