<?xml version="1.0" encoding="iso-8859-1"?>
<!-- Generator: Adobe Illustrator 19.0.0, SVG Export Plug-In . SVG Version: 6.00 Build 0)  -->
<svg version="1.1" id="Layer_1" xmlns="http://www.w3.org/2000/svg" xmlns:xlink="http://www.w3.org/1999/xlink" x="0px" y="0px"
	 viewBox="0 0 512 512" style="enable-background:new 0 0 512 512;" xml:space="preserve">
<path style="fill:#3A5D74;" d="M291.893,292.971c-9.279,9.009-21.937,14.557-35.893,14.557c-28.456,0-51.526-23.07-51.526-51.527
	c0-28.459,23.07-51.526,51.526-51.526c28.458,0,51.526,23.068,51.526,51.526c0,5.178-0.763,10.177-2.184,14.893"/>
<g style="opacity:0.1;">
	<path style="fill:#231F20;" d="M229.822,256.001c0-24.085,16.525-44.303,38.852-49.951c-4.056-1.027-8.3-1.576-12.674-1.576
		c-28.456,0-51.526,23.068-51.526,51.526c0,28.458,23.07,51.527,51.526,51.527c4.377,0,8.625-0.546,12.683-1.574
		C246.351,300.309,229.822,280.087,229.822,256.001z"/>
</g>
<g>
	<path style="fill:#231F20;" d="M195.468,357.783c-52.252,0-101.35-20.321-138.248-57.22C20.32,263.664,0,214.567,0,162.316
		c0-4.471,3.624-8.096,8.096-8.096c4.471,0,8.096,3.625,8.096,8.096c0,98.852,80.423,179.275,179.276,179.275
		c4.472,0,8.096,3.625,8.096,8.096S199.94,357.783,195.468,357.783z"/>
	<path style="fill:#231F20;" d="M503.904,357.783c-4.472,0-8.096-3.625-8.096-8.096c0-98.852-80.423-179.275-179.276-179.275
		c-4.472,0-8.096-3.625-8.096-8.096c0-4.471,3.624-8.096,8.096-8.096c52.252,0,101.35,20.32,138.248,57.22
		C491.68,248.337,512,297.435,512,349.686C512,354.158,508.375,357.783,503.904,357.783z"/>
	<path style="fill:#231F20;" d="M146.952,428.068c-52.183,0-101.268-20.348-138.217-57.296c-3.162-3.162-3.162-8.288,0-11.449
		c3.163-3.162,8.288-3.162,11.45,0c69.897,69.898,183.635,69.899,253.534,0c3.164-3.162,8.289-3.162,11.45,0
		c3.161,3.162,3.162,8.288-0.001,11.449C248.221,407.721,199.135,428.068,146.952,428.068z"/>
	<path style="fill:#231F20;" d="M232.557,155.048c-2.073,0-4.144-0.79-5.726-2.372c-3.162-3.162-3.162-8.288,0-11.449
		c36.948-36.948,86.034-57.296,138.217-57.296s101.268,20.348,138.216,57.296c3.162,3.162,3.162,8.288,0,11.449
		c-3.163,3.162-8.288,3.162-11.45,0c-69.897-69.898-183.632-69.897-253.532,0C236.7,154.257,234.629,155.048,232.557,155.048z"/>
	<path style="fill:#231F20;" d="M162.314,511.998c-4.472,0-8.096-3.625-8.096-8.096c0-4.471,3.624-8.096,8.096-8.096
		c98.852,0,179.276-80.422,179.277-179.275c0-4.471,3.625-8.096,8.096-8.096l0,0c4.472,0,8.096,3.625,8.096,8.096
		c-0.001,52.252-20.321,101.349-57.222,138.247C263.663,491.678,214.566,511.998,162.314,511.998z"/>
	<path style="fill:#231F20;" d="M162.314,203.565L162.314,203.565c-4.472,0-8.096-3.625-8.096-8.096
		c0.001-52.253,20.323-101.35,57.222-138.25c36.897-36.897,85.993-57.217,138.242-57.217c0.004,0,0.003,0,0.007,0
		c4.472,0,8.096,3.625,8.096,8.096s-3.625,8.096-8.096,8.096l0,0c-47.927-0.002-92.958,18.634-126.798,52.475
		c-33.841,33.84-52.477,78.872-52.478,126.799C170.41,199.94,166.785,203.565,162.314,203.565z"/>
	<path style="fill:#231F20;" d="M365.047,505.636c-2.072,0-4.144-0.79-5.726-2.372c-3.162-3.162-3.162-8.288,0-11.449
		c69.899-69.899,69.9-183.635,0.002-253.534c-3.162-3.162-3.162-8.288,0-11.449c3.164-3.162,8.289-3.162,11.451,0
		c36.947,36.948,57.294,86.034,57.293,138.216c0,52.183-20.348,101.269-57.295,138.217
		C369.191,504.845,367.118,505.636,365.047,505.636z"/>
	<path style="fill:#231F20;" d="M146.953,287.541c-2.073,0-4.144-0.79-5.726-2.372c-36.948-36.949-57.295-86.036-57.295-138.218
		S104.281,45.682,141.228,8.734c3.163-3.162,8.288-3.162,11.45,0s3.162,8.288,0,11.45c-69.899,69.899-69.899,183.636,0,253.536
		c3.162,3.162,3.162,8.288,0,11.449C151.098,286.75,149.025,287.541,146.953,287.541z"/>
	<path style="fill:#231F20;" d="M255.999,315.624c-32.876,0-59.623-26.748-59.623-59.624s26.747-59.623,59.623-59.623
		s59.623,26.747,59.623,59.623c0,5.865-0.851,11.662-2.529,17.229c-1.29,4.28-5.809,6.704-10.088,5.416
		c-4.281-1.29-6.706-5.807-5.416-10.089c1.221-4.05,1.839-8.274,1.839-12.556c0-23.947-19.483-43.43-43.43-43.43
		s-43.43,19.483-43.43,43.43c0,23.949,19.483,43.431,43.43,43.431c11.361,0,22.105-4.358,30.253-12.27
		c3.209-3.115,8.335-3.039,11.448,0.168c3.115,3.208,3.039,8.334-0.168,11.448C286.346,309.643,271.596,315.624,255.999,315.624z"/>
</g>
<g>
</g>
<g>
</g>
<g>
</g>
<g>
</g>
<g>
</g>
<g>
</g>
<g>
</g>
<g>
</g>
<g>
</g>
<g>
</g>
<g>
</g>
<g>
</g>
<g>
</g>
<g>
</g>
<g>
</g>
</svg>
