<?xml version="1.0" encoding="iso-8859-1"?>
<!-- Generator: Adobe Illustrator 19.0.0, SVG Export Plug-In . SVG Version: 6.00 Build 0)  -->
<svg version="1.1" id="Layer_1" xmlns="http://www.w3.org/2000/svg" xmlns:xlink="http://www.w3.org/1999/xlink" x="0px" y="0px"
	 viewBox="0 0 512 512" style="enable-background:new 0 0 512 512;" xml:space="preserve">
<path style="fill:#578CAD;" d="M341.469,379.239c0-47.127-38.339-85.471-85.469-85.471c-47.128,0-85.472,38.344-85.472,85.471
	c0,39.257,26.615,72.396,62.741,82.376c7.421,1.455,15.009,2.22,22.732,2.22c7.72,0,15.31-0.765,22.731-2.217
	C314.858,451.635,341.469,418.496,341.469,379.239z"/>
<g>
	<path style="fill:#90C8EC;" d="M350.06,460.991c-22.875,26.284-56.56,42.925-94.06,42.925c-68.747,0-124.676-55.93-124.676-124.677
		c0-68.746,55.929-124.677,124.676-124.677c68.748,0,124.676,55.931,124.676,124.677c0,22.061-5.759,42.802-15.854,60.799
		 M256,293.768c-47.128,0-85.472,38.344-85.472,85.471c0,47.13,38.344,85.471,85.472,85.471c47.131,0,85.469-38.341,85.469-85.471
		C341.469,332.112,303.131,293.768,256,293.768z"/>
	<circle style="fill:#90C8EC;" cx="256" cy="44.679" r="36.592"/>
</g>
<g style="opacity:0.2;">
	<path style="fill:#231F20;" d="M258.6,461.615c-36.126-9.98-62.741-43.119-62.741-82.376c0-42.824,31.664-78.388,72.807-84.526
		c-4.135-0.617-8.362-0.944-12.666-0.944c-47.128,0-85.472,38.344-85.472,85.471c0,39.257,26.615,72.396,62.741,82.376
		c7.421,1.455,15.009,2.22,22.732,2.22c4.265,0,8.488-0.243,12.667-0.696C265.281,462.771,261.923,462.266,258.6,461.615z"/>
</g>
<g style="opacity:0.2;">
	<path style="fill:#231F20;" d="M156.655,379.239c0-64.472,49.19-117.671,112.011-124.038c-4.165-0.423-8.39-0.639-12.665-0.639
		c-68.747,0-124.676,55.931-124.676,124.677c0,68.747,55.929,124.677,124.676,124.677c4.258,0,8.463-0.225,12.611-0.645
		C205.815,496.88,156.655,443.694,156.655,379.239z"/>
</g>
<g style="opacity:0.2;">
	<path style="fill:#231F20;" d="M244.739,44.675c0-15.757,9.959-29.185,23.926-34.337c-3.947-1.457-8.214-2.254-12.665-2.254
		c-20.211,0-36.591,16.382-36.591,36.591c0,20.211,16.381,36.595,36.591,36.595c4.452,0,8.718-0.798,12.665-2.254
		C254.698,73.863,244.739,60.433,244.739,44.675z"/>
</g>
<g>
	<path style="fill:#231F20;" d="M349.554,379.239c0-13.881-3.043-27.064-8.491-38.923c-0.058-0.14-0.126-0.275-0.193-0.412
		c-14.885-31.989-47.327-54.22-84.87-54.22c-51.587,0-93.556,41.969-93.556,93.555c0,1.2,0.03,2.393,0.075,3.581
		c0.008,0.188,0.013,0.376,0.022,0.564c0.053,1.216,0.129,2.425,0.229,3.629c0.002,0.022,0.004,0.043,0.005,0.065
		c3.995,47.932,44.277,85.716,93.225,85.716c48.944,0,89.225-37.782,93.222-85.713c0.002-0.024,0.004-0.047,0.006-0.071
		c0.063-0.751,0.114-1.506,0.158-2.263c0.059-0.393,0.099-0.793,0.099-1.203c0-0.117-0.013-0.232-0.017-0.348
		c0.005-0.125,0.004-0.251,0.01-0.376C349.524,381.632,349.554,380.439,349.554,379.239z M256,301.853
		c26.374,0,49.695,13.271,63.672,33.477H279.88c-4.466,0-8.084,3.618-8.084,8.084s3.618,8.084,8.084,8.084h48.344
		c2.891,7.501,4.66,15.554,5.066,23.962H230.87c-4.466,0-8.084,3.618-8.084,8.084s3.618,8.084,8.084,8.084h101.504
		c-0.011,0.066-0.018,0.133-0.029,0.198c-0.036,0.216-0.079,0.428-0.115,0.643c-3.762,21.523-16.537,40.435-34.762,52.056
		c-0.158,0.101-0.316,0.205-0.475,0.305c-0.731,0.458-1.472,0.902-2.22,1.338c-0.209,0.122-0.419,0.244-0.629,0.362
		c-0.758,0.431-1.523,0.853-2.297,1.259c-0.156,0.082-0.315,0.161-0.472,0.243c-4.542,2.343-9.36,4.261-14.414,5.685
		c-0.033,0.01-0.067,0.019-0.1,0.028c-13.822,2.662-27.93,2.661-41.73-0.004c-5.147-1.443-10.05-3.398-14.668-5.794
		c-0.074-0.039-0.149-0.075-0.223-0.114c-0.839-0.439-1.665-0.894-2.485-1.361c-0.138-0.08-0.277-0.158-0.415-0.239
		c-0.811-0.469-1.613-0.95-2.403-1.447c-0.08-0.05-0.157-0.101-0.237-0.152c-5.714-3.622-10.886-7.967-15.426-12.875h41.006
		c4.466,0,8.084-3.618,8.084-8.084c0-4.466-3.618-8.084-8.084-8.084h-52.537c-3.831-7.164-6.55-14.96-7.978-23.132
		c-0.037-0.209-0.078-0.417-0.112-0.627c-0.12-0.721-0.22-1.449-0.32-2.177c-0.068-0.502-0.135-1.005-0.192-1.509
		c-0.07-0.598-0.134-1.199-0.189-1.8c-0.064-0.7-0.115-1.402-0.161-2.107c-0.03-0.461-0.066-0.923-0.087-1.386
		c-0.055-1.198-0.092-2.4-0.092-3.611C178.613,336.568,213.328,301.853,256,301.853z"/>
	<path style="fill:#231F20;" d="M420.215,254.257c0-49.593-12.217-96.285-35.33-135.03c-21.423-35.911-51.143-62.136-84.208-74.489
		c0-0.02,0.001-0.041,0.001-0.061C300.678,20.041,280.635,0,256,0c-24.634,0-44.675,20.041-44.675,44.675
		c0,0.02,0.001,0.041,0.001,0.061c-33.065,12.353-62.784,38.578-84.209,74.489c-23.113,38.745-35.331,85.438-35.331,135.03
		c0,46.583,10.89,90.895,31.497,128.312C125.055,454.241,183.909,512,256,512c38.375,0,74.881-16.658,100.158-45.702
		c2.932-3.368,2.577-8.474-0.79-11.405c-3.368-2.932-8.474-2.579-11.405,0.79c-22.206,25.515-54.267,40.148-87.963,40.148
		c-63.848,0-115.864-51.59-116.574-115.274c0-0.066,0.014-0.128,0.014-0.193c-0.003-0.244-0.011-0.486-0.019-0.73
		c-0.005-0.132-0.012-0.263-0.012-0.396c0-64.29,52.303-116.593,116.592-116.593s116.592,52.303,116.592,116.593
		c0,0.123-0.006,0.245-0.011,0.366c-0.01,0.267-0.018,0.534-0.021,0.802c0,0.043,0.01,0.084,0.01,0.127
		c-0.218,19.458-5.315,38.639-14.799,55.549c-2.184,3.893-0.798,8.821,3.096,11.005c3.893,2.185,8.821,0.797,11.005-3.096
		c10.503-18.724,16.287-39.884,16.833-61.401C409.32,345.174,420.215,300.855,420.215,254.257z M256,16.168
		c15.72,0,28.509,12.788,28.509,28.507c0,1.56-0.13,3.088-0.373,4.581c-0.117,0.728-0.265,1.445-0.438,2.153
		c-0.025,0.102-0.045,0.206-0.071,0.308c-0.189,0.737-0.41,1.462-0.655,2.174c-0.033,0.096-0.064,0.193-0.098,0.288
		c-0.266,0.747-0.56,1.48-0.887,2.197c-0.012,0.026-0.024,0.053-0.036,0.079c-4.191,9.133-13.1,15.639-23.314,16.606
		c-0.052,0.004-0.105,0.008-0.156,0.012c-0.819,0.073-1.647,0.114-2.481,0.114s-1.662-0.042-2.481-0.114
		c-0.052-0.004-0.105-0.008-0.156-0.012c-10.218-0.967-19.129-7.478-23.317-16.617c-0.009-0.018-0.016-0.037-0.025-0.055
		c-0.33-0.724-0.627-1.466-0.897-2.222c-0.03-0.084-0.057-0.17-0.087-0.255c-0.249-0.723-0.474-1.458-0.665-2.206
		c-0.023-0.087-0.04-0.177-0.061-0.265c-0.179-0.731-0.332-1.471-0.452-2.224c-0.237-1.48-0.365-2.994-0.365-4.54
		C227.493,28.957,240.281,16.168,256,16.168z M252.787,246.519c-0.352,0.009-0.703,0.024-1.054,0.035
		c-0.719,0.023-1.437,0.047-2.154,0.082c-0.409,0.019-0.815,0.044-1.223,0.068c-0.659,0.038-1.315,0.079-1.97,0.125
		c-0.427,0.031-0.852,0.065-1.277,0.099c-0.641,0.052-1.281,0.11-1.92,0.17c-0.419,0.041-0.84,0.081-1.258,0.125
		c-0.66,0.07-1.317,0.147-1.975,0.226c-0.389,0.047-0.78,0.092-1.168,0.142c-0.748,0.097-1.493,0.204-2.238,0.314
		c-0.29,0.043-0.581,0.081-0.87,0.125c-1.027,0.158-2.051,0.328-3.071,0.51c-0.236,0.042-0.47,0.089-0.706,0.134
		c-0.785,0.144-1.568,0.293-2.349,0.452c-0.376,0.077-0.75,0.158-1.125,0.238c-0.639,0.136-1.277,0.273-1.913,0.417
		c-0.407,0.093-0.814,0.19-1.22,0.287c-0.604,0.143-1.206,0.29-1.807,0.442c-0.413,0.105-0.825,0.21-1.236,0.318
		c-0.596,0.157-1.19,0.319-1.783,0.483c-0.403,0.112-0.806,0.224-1.208,0.34c-0.62,0.179-1.236,0.364-1.852,0.552
		c-0.365,0.111-0.733,0.219-1.096,0.334c-0.771,0.241-1.537,0.494-2.301,0.749c-0.203,0.068-0.405,0.13-0.607,0.199
		c-0.953,0.323-1.9,0.659-2.842,1.004c-0.331,0.121-0.659,0.248-0.988,0.372c-0.622,0.233-1.243,0.467-1.859,0.708
		c-0.388,0.152-0.774,0.309-1.161,0.465c-0.556,0.224-1.111,0.449-1.663,0.681c-0.402,0.168-0.803,0.34-1.203,0.512
		c-0.536,0.231-1.07,0.465-1.602,0.702c-0.4,0.179-0.798,0.358-1.195,0.539c-0.536,0.246-1.069,0.496-1.601,0.749
		c-0.383,0.181-0.766,0.362-1.147,0.548c-0.569,0.277-1.135,0.562-1.7,0.846c-0.336,0.169-0.674,0.335-1.009,0.508
		c-0.874,0.449-1.743,0.908-2.605,1.376c-0.227,0.124-0.452,0.253-0.678,0.377c-0.652,0.359-1.303,0.721-1.949,1.091
		c-0.356,0.204-0.707,0.414-1.062,0.621c-0.511,0.3-1.023,0.599-1.53,0.905c-0.38,0.23-0.758,0.462-1.135,0.696
		c-0.477,0.294-0.954,0.592-1.427,0.891c-0.383,0.244-0.763,0.488-1.144,0.735c-0.466,0.303-0.929,0.608-1.39,0.916
		c-0.374,0.25-0.748,0.499-1.12,0.752c-0.471,0.321-0.939,0.648-1.406,0.975c-0.354,0.248-0.708,0.494-1.06,0.745
		c-0.522,0.373-1.037,0.752-1.552,1.133c-0.288,0.212-0.579,0.42-0.864,0.635c-0.773,0.58-1.539,1.167-2.3,1.764
		c-0.303,0.237-0.599,0.481-0.899,0.72c-0.48,0.383-0.959,0.765-1.434,1.155c-0.342,0.28-0.679,0.566-1.018,0.849
		c-0.426,0.357-0.85,0.714-1.272,1.076c-0.348,0.3-0.695,0.603-1.041,0.907c-0.406,0.357-0.812,0.716-1.215,1.078
		c-0.344,0.308-0.686,0.619-1.025,0.93c-0.402,0.37-0.801,0.743-1.2,1.117c-0.33,0.31-0.661,0.62-0.987,0.933
		c-0.413,0.397-0.821,0.798-1.229,1.2c-0.303,0.297-0.607,0.593-0.907,0.894c-0.504,0.507-1.002,1.02-1.498,1.535
		c-0.33,0.342-0.659,0.684-0.985,1.03c-0.527,0.558-1.053,1.119-1.57,1.687c-0.285,0.313-0.564,0.63-0.846,0.944
		c-0.382,0.427-0.764,0.854-1.141,1.286c-0.3,0.344-0.595,0.691-0.891,1.038c-0.354,0.414-0.706,0.829-1.054,1.246
		c-0.296,0.356-0.59,0.712-0.883,1.071c-0.342,0.418-0.681,0.84-1.018,1.262c-0.287,0.361-0.573,0.722-0.857,1.087
		c-0.341,0.438-0.677,0.877-1.012,1.319c-0.268,0.354-0.539,0.707-0.804,1.063c-0.362,0.487-0.718,0.979-1.074,1.47
		c-0.23,0.317-0.462,0.632-0.689,0.951c-0.561,0.79-1.112,1.586-1.657,2.388c-0.19,0.28-0.373,0.564-0.561,0.845
		c-0.368,0.551-0.734,1.103-1.093,1.66c-0.23,0.357-0.455,0.717-0.681,1.076c-0.31,0.492-0.62,0.983-0.924,1.478
		c-0.232,0.377-0.458,0.757-0.686,1.136c-0.291,0.485-0.58,0.972-0.864,1.462c-0.224,0.386-0.447,0.773-0.668,1.161
		c-0.281,0.495-0.559,0.993-0.835,1.492c-0.212,0.384-0.425,0.767-0.633,1.154c-0.285,0.528-0.564,1.061-0.842,1.594
		c-0.188,0.359-0.377,0.716-0.561,1.077c-0.333,0.653-0.659,1.312-0.981,1.971c-0.12,0.246-0.245,0.488-0.363,0.734
		c-0.429,0.891-0.848,1.789-1.259,2.693c-0.143,0.316-0.28,0.635-0.421,0.952c-0.271,0.609-0.541,1.218-0.803,1.832
		c-0.161,0.375-0.315,0.752-0.472,1.13c-0.234,0.562-0.466,1.125-0.692,1.691c-0.158,0.396-0.313,0.792-0.468,1.19
		c-0.218,0.559-0.431,1.12-0.64,1.683c-0.148,0.397-0.295,0.794-0.44,1.193c-0.211,0.583-0.416,1.168-0.62,1.755
		c-0.13,0.378-0.263,0.755-0.39,1.134c-0.221,0.658-0.433,1.318-0.645,1.98c-0.099,0.312-0.203,0.622-0.3,0.935
		c-0.303,0.977-0.596,1.956-0.877,2.943c-0.023,0.081-0.044,0.163-0.067,0.244c-0.257,0.908-0.503,1.817-0.742,2.732
		c-0.084,0.324-0.163,0.65-0.245,0.975c-0.17,0.678-0.338,1.357-0.499,2.038c-0.088,0.374-0.171,0.75-0.257,1.126
		c-0.087,0.388-0.18,0.774-0.264,1.163c-12.005-29.539-18.266-62.548-18.266-96.938c0-90.343,43.339-168.323,106.377-193.37
		c5.968,15.531,20.139,26.504,37.011,28.225c0.085,0.009,0.17,0.016,0.255,0.025c0.597,0.057,1.198,0.103,1.801,0.137
		c0.163,0.01,0.326,0.02,0.488,0.028c0.701,0.032,1.404,0.054,2.113,0.054c0.708,0,1.412-0.022,2.113-0.054
		c0.164-0.008,0.326-0.018,0.489-0.028c0.604-0.034,1.203-0.08,1.8-0.137c0.085-0.009,0.171-0.016,0.258-0.025
		c16.871-1.721,31.043-12.693,37.012-28.225c63.037,25.047,106.375,103.027,106.375,193.37c0,34.392-6.263,67.403-18.266,96.94
		c-0.081-0.375-0.17-0.747-0.254-1.121c-0.089-0.399-0.178-0.798-0.272-1.194c-0.152-0.649-0.313-1.295-0.474-1.939
		c-0.089-0.357-0.176-0.715-0.267-1.07c-0.22-0.846-0.449-1.688-0.686-2.528c-0.042-0.148-0.08-0.297-0.122-0.445
		c-0.277-0.973-0.567-1.94-0.866-2.904c-0.109-0.352-0.225-0.702-0.337-1.053c-0.198-0.62-0.397-1.24-0.604-1.856
		c-0.137-0.409-0.279-0.814-0.42-1.22c-0.193-0.555-0.387-1.109-0.586-1.661c-0.153-0.425-0.31-0.847-0.468-1.27
		c-0.199-0.534-0.402-1.065-0.607-1.595c-0.165-0.424-0.33-0.847-0.499-1.269c-0.212-0.53-0.43-1.058-0.649-1.586
		c-0.17-0.411-0.34-0.822-0.514-1.231c-0.239-0.559-0.485-1.115-0.732-1.671c-0.164-0.37-0.323-0.741-0.49-1.108
		c-0.403-0.886-0.814-1.767-1.235-2.642c-0.16-0.332-0.328-0.661-0.49-0.991c-0.28-0.57-0.562-1.141-0.849-1.707
		c-0.208-0.407-0.423-0.812-0.634-1.217c-0.252-0.483-0.506-0.966-0.763-1.444c-0.229-0.425-0.461-0.846-0.695-1.268
		c-0.252-0.456-0.506-0.911-0.763-1.365c-0.241-0.426-0.486-0.849-0.732-1.272c-0.26-0.445-0.522-0.887-0.787-1.329
		c-0.251-0.419-0.502-0.839-0.759-1.256c-0.272-0.442-0.548-0.881-0.825-1.319c-0.258-0.41-0.514-0.82-0.776-1.227
		c-0.297-0.46-0.601-0.915-0.904-1.372c-0.32-0.482-0.639-0.964-0.965-1.441c-0.459-0.674-0.923-1.345-1.395-2.01
		c-0.278-0.392-0.563-0.778-0.845-1.166c-0.303-0.416-0.604-0.834-0.911-1.247c-0.301-0.404-0.607-0.804-0.911-1.205
		c-0.298-0.39-0.595-0.78-0.896-1.167c-0.315-0.404-0.633-0.805-0.952-1.205c-0.302-0.378-0.605-0.755-0.911-1.13
		c-0.324-0.398-0.649-0.793-0.978-1.187c-0.31-0.372-0.623-0.741-0.938-1.108c-0.332-0.389-0.664-0.779-1-1.165
		c-0.321-0.368-0.647-0.731-0.972-1.095c-0.337-0.377-0.672-0.757-1.012-1.131c-0.36-0.395-0.728-0.784-1.093-1.174
		c-0.595-0.636-1.195-1.265-1.801-1.89c-0.362-0.373-0.723-0.748-1.09-1.116c-0.358-0.36-0.722-0.714-1.084-1.069
		c-0.347-0.341-0.693-0.682-1.043-1.02c-0.37-0.356-0.743-0.706-1.117-1.056c-0.351-0.33-0.704-0.66-1.059-0.986
		c-0.378-0.348-0.759-0.693-1.141-1.036c-0.359-0.322-0.719-0.641-1.081-0.959c-0.385-0.338-0.771-0.676-1.16-1.01
		c-0.371-0.318-0.745-0.632-1.119-0.946c-0.387-0.324-0.772-0.65-1.162-0.97c-0.395-0.324-0.796-0.642-1.194-0.963
		c-0.377-0.303-0.752-0.608-1.133-0.906c-0.739-0.58-1.484-1.151-2.237-1.715c-0.371-0.278-0.747-0.549-1.12-0.822
		c-0.429-0.315-0.858-0.632-1.291-0.942c-0.401-0.287-0.805-0.568-1.209-0.849c-0.415-0.29-0.83-0.58-1.247-0.866
		c-0.411-0.28-0.824-0.556-1.236-0.831c-0.42-0.28-0.842-0.558-1.267-0.834c-0.415-0.269-0.831-0.538-1.249-0.803
		c-0.432-0.274-0.867-0.545-1.303-0.814c-0.415-0.257-0.829-0.513-1.246-0.764c-0.457-0.276-0.917-0.545-1.378-0.815
		c-0.403-0.236-0.803-0.475-1.209-0.707c-0.541-0.31-1.088-0.612-1.634-0.914c-0.48-0.265-0.959-0.53-1.442-0.79
		c-0.696-0.374-1.394-0.746-2.096-1.108c-0.386-0.198-0.776-0.39-1.165-0.585c-0.512-0.258-1.023-0.515-1.538-0.765
		c-0.414-0.202-0.831-0.398-1.247-0.595c-0.498-0.236-0.998-0.471-1.499-0.702c-0.424-0.194-0.849-0.386-1.276-0.576
		c-0.501-0.224-1.006-0.444-1.51-0.662c-0.426-0.183-0.853-0.366-1.281-0.545c-0.523-0.219-1.049-0.432-1.575-0.645
		c-0.413-0.167-0.826-0.335-1.241-0.497c-0.577-0.225-1.157-0.444-1.738-0.662c-0.37-0.139-0.737-0.281-1.108-0.417
		c-0.93-0.34-1.865-0.67-2.805-0.99c-0.259-0.088-0.521-0.169-0.779-0.255c-0.708-0.236-1.417-0.469-2.132-0.693
		c-0.386-0.122-0.774-0.236-1.161-0.354c-0.594-0.18-1.188-0.36-1.785-0.532c-0.416-0.121-0.835-0.236-1.254-0.351
		c-0.578-0.161-1.155-0.318-1.736-0.471c-0.424-0.112-0.848-0.221-1.273-0.328c-0.585-0.148-1.174-0.291-1.762-0.431
		c-0.419-0.1-0.84-0.199-1.26-0.295c-0.62-0.141-1.242-0.275-1.865-0.406c-0.389-0.083-0.778-0.168-1.168-0.248
		c-0.762-0.154-1.526-0.299-2.293-0.44c-0.252-0.046-0.503-0.098-0.757-0.143c-1.016-0.181-2.036-0.35-3.06-0.509
		c-0.301-0.046-0.603-0.086-0.904-0.13c-0.733-0.108-1.468-0.213-2.205-0.309c-0.392-0.051-0.787-0.096-1.18-0.144
		c-0.653-0.079-1.306-0.155-1.963-0.225c-0.42-0.044-0.842-0.085-1.262-0.125c-0.637-0.061-1.276-0.119-1.916-0.17
		c-0.427-0.034-0.854-0.068-1.282-0.099c-0.653-0.046-1.307-0.087-1.963-0.125c-0.41-0.024-0.818-0.049-1.229-0.068
		c-0.716-0.034-1.434-0.059-2.153-0.082c-0.351-0.011-0.702-0.027-1.054-0.034c-1.068-0.026-2.139-0.041-3.213-0.041
		S253.855,246.493,252.787,246.519z"/>
	<path style="fill:#231F20;" d="M243.809,351.498h9.053c4.466,0,8.084-3.618,8.084-8.084s-3.618-8.084-8.084-8.084h-9.053
		c-4.466,0-8.084,3.618-8.084,8.084S239.344,351.498,243.809,351.498z"/>
</g>
<g>
</g>
<g>
</g>
<g>
</g>
<g>
</g>
<g>
</g>
<g>
</g>
<g>
</g>
<g>
</g>
<g>
</g>
<g>
</g>
<g>
</g>
<g>
</g>
<g>
</g>
<g>
</g>
<g>
</g>
</svg>
