<?xml version="1.0" encoding="iso-8859-1"?>
<!-- Generator: Adobe Illustrator 19.0.0, SVG Export Plug-In . SVG Version: 6.00 Build 0)  -->
<svg version="1.1" id="Layer_1" xmlns="http://www.w3.org/2000/svg" xmlns:xlink="http://www.w3.org/1999/xlink" x="0px" y="0px"
	 viewBox="0 0 511.999 511.999" style="enable-background:new 0 0 511.999 511.999;" xml:space="preserve">
<g>
	<path style="fill:#578CAD;" d="M406.976,411.524c-38.197,38.524-91.155,62.389-149.693,62.389s-111.493-23.865-149.692-62.389
		c-3.803,3.465-6.203,8.442-6.203,13.992v59.449c0,10.465,8.482,18.949,18.948,18.949h273.895c10.465,0,18.949-8.484,18.949-18.949
		v-59.449C413.181,419.966,410.779,414.989,406.976,411.524z"/>
	<path style="fill:#578CAD;" d="M46.476,263.107c0-24.346,4.142-47.723,11.736-69.48h-29.6c-10.466,0-18.949,8.484-18.949,18.948
		v44.215v6.316v44.214c0,10.465,8.483,18.948,18.949,18.948h27.496C49.854,306.327,46.476,285.112,46.476,263.107z"/>
	<path style="fill:#578CAD;" d="M483.387,193.627h-27.029c7.593,21.757,11.734,45.134,11.734,69.48
		c0,22.005-3.375,43.221-9.632,63.163h24.927c10.466,0,18.949-8.483,18.949-18.948v-44.214v-6.316v-44.215
		C502.336,202.111,493.853,193.627,483.387,193.627z"/>
	<path style="fill:#578CAD;" d="M257.283,52.299c21.479,0,42.201,3.221,61.723,9.19c-4.349-30.198-30.32-53.405-61.723-53.405
		c-31.401,0-57.371,23.207-61.721,53.405C215.086,55.52,235.808,52.299,257.283,52.299z"/>
</g>
<circle style="fill:#90C8EC;" cx="257.282" cy="263.103" r="210.804"/>
<path style="fill:#CAE9F7;" d="M185.115,162.834h-62.99c-18.75,26.763-29.755,59.346-29.755,94.502
	c0,31.974,9.107,61.817,24.858,87.092h280.116c15.75-25.274,24.859-55.118,24.859-87.092c0-35.157-11.01-67.739-29.756-94.502
	H212.421"/>
<g style="opacity:0.2;">
	<path style="fill:#231F20;" d="M128.337,484.966v-55.108c-7.308-5.66-14.244-11.779-20.744-18.334
		c-3.803,3.465-6.203,8.442-6.203,13.992v59.449c0,10.465,8.482,18.949,18.948,18.949h26.947
		C136.819,503.916,128.337,495.432,128.337,484.966z"/>
</g>
<g style="opacity:0.2;">
	<path style="fill:#231F20;" d="M73.424,263.107c0-111.899,87.19-203.417,197.333-210.367c-4.457-0.281-8.947-0.441-13.474-0.441
		c-116.424,0-210.807,94.382-210.807,210.807s94.384,210.806,210.807,210.806c4.527,0,9.017-0.16,13.474-0.441
		C160.613,466.523,73.424,375.004,73.424,263.107z"/>
</g>
<g style="opacity:0.2;">
	<path style="fill:#231F20;" d="M149.072,162.834h-26.947c-18.75,26.763-29.755,59.346-29.755,94.502
		c0,31.974,9.107,61.817,24.858,87.092h26.947c-15.75-25.274-24.858-55.118-24.858-87.092
		C119.316,222.18,130.322,189.598,149.072,162.834z"/>
</g>
<g>
	<path style="fill:#231F20;" d="M483.387,185.542h-21.422c-23.306-61.298-73.388-109.5-135.891-130.243
		C319.057,23.442,290.356,0,257.283,0c-33.07,0-61.77,23.441-68.788,55.298C125.991,76.041,75.909,124.244,52.602,185.542h-23.99
		c-14.906,0-27.034,12.126-27.034,27.033v94.745c0,14.906,12.127,27.033,27.034,27.033h21.694
		c10.058,29.135,26.106,55.499,46.663,77.621c-2.37,4.083-3.665,8.754-3.665,13.543v59.449c0,14.906,12.126,27.034,27.033,27.034
		h273.895c14.906,0,27.034-12.127,27.034-27.034v-59.449c0-4.789-1.295-9.46-3.667-13.544c20.558-22.123,36.605-48.485,46.662-77.62
		h19.126c14.906,0,27.034-12.126,27.034-27.033v-94.745C510.42,197.669,498.293,185.542,483.387,185.542z M206.994,50.032
		c8.168-19.973,27.939-33.863,50.289-33.863c22.352,0,42.124,13.89,50.291,33.863c-3.251-0.765-6.523-1.433-9.806-2.048
		c-0.655-0.123-1.307-0.255-1.965-0.373c-0.993-0.177-1.989-0.333-2.985-0.496c-0.985-0.162-1.97-0.324-2.96-0.473
		c-0.916-0.137-1.836-0.261-2.754-0.387c-1.078-0.148-2.157-0.291-3.24-0.423c-0.873-0.106-1.746-0.205-2.621-0.301
		c-1.144-0.125-2.289-0.24-3.437-0.347c-0.832-0.078-1.663-0.154-2.496-0.222c-1.215-0.099-2.434-0.183-3.654-0.263
		c-0.776-0.051-1.552-0.106-2.328-0.148c-1.35-0.073-2.704-0.126-4.06-0.175c-0.651-0.024-1.3-0.057-1.952-0.074
		c-2.005-0.055-4.015-0.086-6.033-0.086c-2.018,0-4.028,0.032-6.033,0.086c-0.649,0.017-1.296,0.051-1.943,0.074
		c-1.36,0.049-2.718,0.101-4.072,0.176c-0.77,0.042-1.538,0.097-2.307,0.147c-1.23,0.08-2.459,0.165-3.683,0.265
		c-0.821,0.067-1.642,0.143-2.463,0.219c-1.164,0.109-2.325,0.225-3.484,0.352c-0.858,0.094-1.716,0.191-2.572,0.295
		c-1.105,0.135-2.206,0.28-3.307,0.431c-0.897,0.123-1.794,0.244-2.688,0.377c-1.024,0.153-2.044,0.322-3.062,0.489
		c-0.961,0.157-1.923,0.308-2.882,0.479c-0.743,0.133-1.479,0.281-2.218,0.421C213.363,48.631,210.168,49.285,206.994,50.032z
		 M221.347,63.574c0.074-0.013,0.15-0.027,0.224-0.04c1.583-0.282,3.172-0.546,4.766-0.792c0.055-0.009,0.109-0.017,0.163-0.026
		c1.634-0.25,3.275-0.48,4.922-0.691c0.111-0.014,0.222-0.026,0.333-0.04c1.419-0.179,2.841-0.34,4.268-0.489
		c0.375-0.039,0.75-0.078,1.126-0.114c1.337-0.133,2.676-0.252,4.021-0.358c0.234-0.018,0.467-0.041,0.701-0.058
		c1.541-0.116,3.088-0.213,4.638-0.295c0.382-0.02,0.764-0.034,1.146-0.053c1.204-0.057,2.412-0.102,3.622-0.138
		c0.444-0.013,0.887-0.027,1.332-0.037c1.554-0.036,3.112-0.059,4.674-0.059c1.563,0,3.121,0.024,4.675,0.059
		c0.443,0.01,0.886,0.024,1.329,0.037c1.213,0.036,2.422,0.082,3.628,0.138c0.379,0.017,0.759,0.032,1.138,0.053
		c1.553,0.082,3.103,0.179,4.647,0.295c0.224,0.017,0.449,0.039,0.674,0.056c1.355,0.107,2.707,0.227,4.054,0.361
		c0.366,0.037,0.732,0.073,1.098,0.112c1.445,0.151,2.889,0.315,4.324,0.496c0.093,0.012,0.185,0.022,0.278,0.033
		c1.658,0.212,3.309,0.443,4.954,0.695c0.032,0.005,0.065,0.011,0.097,0.015c1.623,0.249,3.24,0.518,4.851,0.806
		c0.053,0.01,0.105,0.018,0.157,0.028c83.028,14.901,148.677,80.527,163.614,163.544c0.018,0.099,0.036,0.198,0.054,0.298
		c0.278,1.556,0.537,3.12,0.779,4.689c0.013,0.085,0.028,0.17,0.041,0.257c0.503,3.293,0.927,6.613,1.269,9.955
		c0.017,0.167,0.03,0.335,0.047,0.502c0.14,1.4,0.264,2.805,0.375,4.213c0.036,0.456,0.067,0.912,0.1,1.369
		c0.082,1.14,0.155,2.283,0.218,3.429c0.029,0.528,0.057,1.055,0.083,1.583c0.054,1.135,0.095,2.273,0.13,3.413
		c0.015,0.487,0.035,0.974,0.045,1.463c0.038,1.604,0.061,3.211,0.061,4.824c0,1.573-0.024,3.139-0.059,4.703
		c-0.01,0.446-0.025,0.891-0.038,1.338c-0.036,1.203-0.081,2.405-0.137,3.602c-0.018,0.399-0.036,0.798-0.056,1.195
		c-0.169,3.205-0.413,6.39-0.73,9.553c-0.025,0.25-0.052,0.499-0.078,0.748c-0.154,1.481-0.322,2.959-0.508,4.431
		c-0.014,0.108-0.026,0.215-0.04,0.322c-12.518,97.749-94.923,173.946-195.357,176.743c-0.175,0.004-0.349,0.015-0.524,0.019
		c-1.727,0.044-3.459,0.066-5.195,0.066c-1.736,0-3.469-0.023-5.195-0.066c-0.177-0.004-0.354-0.015-0.53-0.019
		c-100.415-2.799-182.804-78.97-195.344-176.693c-0.019-0.156-0.038-0.313-0.057-0.468c-0.179-1.42-0.341-2.843-0.489-4.272
		c-0.029-0.285-0.06-0.569-0.089-0.855c-0.315-3.145-0.557-6.312-0.725-9.498c-0.022-0.409-0.039-0.818-0.058-1.227
		c-0.056-1.189-0.101-2.381-0.136-3.575c-0.013-0.449-0.028-0.899-0.038-1.348c-0.036-1.563-0.059-3.128-0.059-4.7
		c0-1.613,0.024-3.22,0.061-4.823c0.012-0.49,0.031-0.98,0.045-1.469c0.034-1.136,0.077-2.27,0.129-3.401
		c0.025-0.534,0.054-1.066,0.083-1.599c0.063-1.137,0.135-2.271,0.217-3.403c0.033-0.467,0.066-0.933,0.102-1.4
		c0.109-1.382,0.232-2.76,0.369-4.135c0.019-0.194,0.034-0.389,0.055-0.583c0.341-3.322,0.761-6.622,1.261-9.895
		c0.02-0.134,0.043-0.266,0.064-0.4c0.234-1.513,0.484-3.02,0.751-4.523c0.026-0.147,0.053-0.293,0.079-0.44
		C72.738,144.067,138.357,78.482,221.347,63.574z M45.387,318.184H28.612c-5.992,0-10.865-4.873-10.865-10.864v-94.745
		c0-5.991,4.873-10.864,10.865-10.864h18.524c-2.676,9.166-4.735,18.487-6.186,27.919c-0.023,0.143-0.043,0.287-0.065,0.43
		c-0.26,1.711-0.502,3.424-0.722,5.143c-0.004,0.029-0.008,0.058-0.012,0.087c-0.222,1.743-0.42,3.489-0.6,5.239
		c-0.024,0.234-0.045,0.47-0.069,0.704c-0.148,1.483-0.279,2.969-0.397,4.456c-0.025,0.319-0.053,0.638-0.077,0.958
		c-0.125,1.685-0.235,3.373-0.322,5.063c-0.011,0.214-0.018,0.429-0.028,0.643c-0.071,1.467-0.126,2.937-0.168,4.409
		c-0.013,0.437-0.025,0.872-0.034,1.309c-0.038,1.677-0.064,3.355-0.064,5.037c0,2.142,0.039,4.275,0.101,6.403
		c0.019,0.681,0.052,1.361,0.078,2.043c0.056,1.463,0.123,2.922,0.207,4.378c0.045,0.784,0.096,1.567,0.15,2.351
		c0.096,1.393,0.207,2.781,0.33,4.167c0.067,0.764,0.129,1.53,0.205,2.294c0.163,1.656,0.349,3.305,0.55,4.951
		c0.109,0.9,0.226,1.799,0.346,2.697c0.203,1.507,0.413,3.013,0.646,4.51c0.16,1.025,0.336,2.048,0.51,3.071
		c0.166,0.977,0.335,1.952,0.514,2.924c0.212,1.155,0.434,2.31,0.665,3.461c0.151,0.752,0.31,1.5,0.47,2.25
		C43.84,311.811,44.565,315.009,45.387,318.184z M405.097,484.966c0,5.991-4.873,10.865-10.865,10.865H120.338
		c-5.991,0-10.864-4.874-10.864-10.865v-59.449c0-0.313,0.013-0.624,0.039-0.931c36.213,33.22,81.742,52.961,130.533,56.734
		c0.208,0.016,0.416,0.035,0.624,0.051c1.504,0.112,3.012,0.206,4.522,0.288c0.369,0.021,0.735,0.045,1.104,0.064
		c1.414,0.069,2.831,0.12,4.249,0.162c0.427,0.013,0.853,0.033,1.281,0.044c1.816,0.044,3.635,0.069,5.458,0.069
		c1.824,0,3.642-0.025,5.458-0.069c0.427-0.011,0.852-0.031,1.278-0.044c1.42-0.043,2.838-0.093,4.253-0.162
		c0.366-0.018,0.732-0.043,1.098-0.064c1.512-0.082,3.021-0.176,4.528-0.288c0.207-0.015,0.413-0.033,0.619-0.05
		c48.795-3.772,94.327-23.515,130.539-56.736c0.026,0.308,0.039,0.619,0.039,0.932L405.097,484.966L405.097,484.966z
		 M494.252,307.32c0,5.991-4.873,10.864-10.865,10.864H469.18c0.834-3.215,1.567-6.456,2.253-9.705
		c0.144-0.683,0.291-1.366,0.429-2.052c0.24-1.199,0.471-2.399,0.692-3.602c0.168-0.912,0.326-1.827,0.482-2.743
		c0.183-1.074,0.369-2.146,0.536-3.223c0.215-1.383,0.407-2.772,0.596-4.164c0.143-1.061,0.282-2.122,0.411-3.186
		c0.191-1.576,0.37-3.154,0.526-4.74c0.078-0.786,0.141-1.574,0.21-2.361c0.12-1.366,0.23-2.735,0.324-4.107
		c0.055-0.793,0.106-1.586,0.151-2.38c0.084-1.449,0.151-2.901,0.206-4.357c0.026-0.686,0.058-1.37,0.079-2.056
		c0.061-2.127,0.1-4.26,0.1-6.402c0-1.681-0.026-3.36-0.064-5.037c-0.01-0.437-0.023-0.872-0.035-1.309
		c-0.042-1.471-0.097-2.942-0.168-4.41c-0.011-0.213-0.017-0.428-0.028-0.641c-0.087-1.691-0.196-3.379-0.322-5.065
		c-0.024-0.317-0.051-0.634-0.075-0.951c-0.117-1.494-0.25-2.985-0.399-4.474c-0.023-0.229-0.043-0.458-0.067-0.686
		c-0.18-1.754-0.379-3.504-0.601-5.251c-0.003-0.022-0.005-0.042-0.009-0.064c-0.22-1.73-0.465-3.456-0.727-5.178
		c-0.02-0.134-0.04-0.266-0.06-0.4c-1.451-9.436-3.511-18.761-6.187-27.931h15.955c5.992,0,10.865,4.873,10.865,10.864v94.746
		H494.252z"/>
	<path style="fill:#231F20;" d="M110.366,348.704c1.476,2.368,4.069,3.808,6.861,3.808h280.116c2.792,0,5.385-1.44,6.861-3.808
		c17.063-27.381,26.082-58.975,26.082-91.368c0-35.701-10.796-69.983-31.22-99.14c-1.512-2.159-3.984-3.446-6.622-3.446H212.421
		c-4.466,0-8.084,3.62-8.084,8.084c0,4.465,3.618,8.084,8.084,8.084H388.17c16.99,25.663,25.947,55.449,25.947,86.418
		c0,27.874-7.364,55.093-21.337,79.008H121.789c-13.972-23.913-21.336-51.132-21.336-79.008c0-30.972,8.958-60.76,25.945-86.418
		h58.717c4.466,0,8.084-3.62,8.084-8.084c0-4.465-3.618-8.084-8.084-8.084h-62.99c-2.637,0-5.108,1.286-6.622,3.446
		c-20.423,29.153-31.219,63.435-31.219,99.14C84.284,289.731,93.304,321.325,110.366,348.704z"/>
	<path style="fill:#231F20;" d="M370.23,309.769c0.935,0.351,1.895,0.517,2.838,0.517c3.272,0,6.353-2.002,7.57-5.247
		c5.812-15.493,8.758-31.805,8.758-48.486c0-18.261-3.513-36.012-10.442-52.761c-1.706-4.126-6.436-6.09-10.561-4.379
		c-4.125,1.706-6.086,6.435-4.379,10.56c6.114,14.779,9.214,30.451,9.214,46.58c0,14.734-2.6,29.137-7.729,42.806
		C363.932,303.542,366.049,308.201,370.23,309.769z"/>
	<path style="fill:#231F20;" d="M308.109,384.77H201.785c-4.466,0-8.084,3.62-8.084,8.084c0,4.465,3.618,8.084,8.084,8.084h106.325
		c4.466,0,8.084-3.62,8.084-8.084C316.193,388.389,312.574,384.77,308.109,384.77z"/>
</g>
<g>
</g>
<g>
</g>
<g>
</g>
<g>
</g>
<g>
</g>
<g>
</g>
<g>
</g>
<g>
</g>
<g>
</g>
<g>
</g>
<g>
</g>
<g>
</g>
<g>
</g>
<g>
</g>
<g>
</g>
</svg>
