<?xml version="1.0" encoding="iso-8859-1"?>
<!-- Generator: Adobe Illustrator 19.0.0, SVG Export Plug-In . SVG Version: 6.00 Build 0)  -->
<svg version="1.1" id="Layer_1" xmlns="http://www.w3.org/2000/svg" xmlns:xlink="http://www.w3.org/1999/xlink" x="0px" y="0px"
	 viewBox="0 0 512 512" style="enable-background:new 0 0 512 512;" xml:space="preserve">
<path style="fill:#FF4D30;" d="M256,173.914c-45.262,0-82.086,36.824-82.086,82.086c0,45.263,36.824,82.085,82.086,82.085
	c45.263,0,82.086-36.822,82.086-82.085C338.086,210.738,301.263,173.914,256,173.914z"/>
<path style="fill:#90C8EC;" d="M351.254,334.588c-22.678,27.44-56.959,44.955-95.254,44.955
	c-68.121,0-123.543-55.421-123.543-123.543S187.879,132.457,256,132.457c68.122,0,123.543,55.421,123.543,123.543
	c0,20.303-4.924,39.48-13.639,56.398 M256,173.914c-45.262,0-82.086,36.824-82.086,82.086c0,45.263,36.824,82.085,82.086,82.085
	c45.263,0,82.086-36.822,82.086-82.085C338.086,210.738,301.263,173.914,256,173.914z"/>
<g style="opacity:0.2;">
	<path style="fill:#231F20;" d="M199.324,256c0-40.941,30.13-74.974,69.381-81.099c-4.142-0.647-8.384-0.987-12.705-0.987
		c-45.262,0-82.086,36.824-82.086,82.086c0,45.263,36.824,82.085,82.086,82.085c4.321,0,8.563-0.341,12.705-0.987
		C229.455,330.973,199.324,296.942,199.324,256z"/>
</g>
<g style="opacity:0.2;">
	<path style="fill:#231F20;" d="M157.867,256c0-63.833,48.663-116.513,110.838-122.894c-4.178-0.428-8.417-0.65-12.705-0.65
		c-68.121,0-123.543,55.421-123.543,123.543S187.879,379.542,256,379.542c4.273,0,8.492-0.23,12.653-0.655
		C206.503,372.483,157.867,319.815,157.867,256z"/>
</g>
<g>
	<path style="fill:#231F20;" d="M256,165.83c-49.72,0-90.17,40.45-90.17,90.17s40.45,90.169,90.17,90.169S346.17,305.72,346.17,256
		S305.72,165.83,256,165.83z M256,330.001c-40.805,0-74.002-33.197-74.002-74.001c0-40.805,33.197-74.002,74.002-74.002
		c28.108,0,52.602,15.753,65.126,38.893h-58.095c-4.466,0-8.084,3.618-8.084,8.084s3.618,8.084,8.084,8.084h64.503
		c1.603,6.049,2.467,12.395,2.467,18.941c0,4.169-0.364,8.252-1.03,12.236H228.206c-4.466,0-8.084,3.618-8.084,8.084
		c0,4.466,3.618,8.084,8.084,8.084h96.117C313.164,311.15,286.745,330.001,256,330.001z"/>
	<path style="fill:#231F20;" d="M503.916,247.916H387.372c-4.028-66.154-57.134-119.259-123.287-123.287v-19.118
		c0-4.466-3.618-8.084-8.084-8.084s-8.084,3.618-8.084,8.084v19.118c-66.154,4.028-119.259,57.134-123.287,123.287H8.084
		C3.618,247.916,0,251.534,0,256s3.618,8.084,8.084,8.084h116.544c4.028,66.154,57.134,119.259,123.287,123.287v8.755
		c0,4.466,3.618,8.084,8.084,8.084s8.084-3.618,8.084-8.084v-8.754c36.293-2.217,69.979-19.294,93.401-47.633
		c2.845-3.442,2.359-8.538-1.081-11.383c-3.442-2.845-8.538-2.36-11.383,1.081c-22.071,26.705-54.518,42.021-89.022,42.021
		c-63.664,0-115.459-51.795-115.459-115.459c0-63.658,51.785-115.45,115.443-115.459c0.005,0,0.011,0.001,0.016,0.001
		s0.011-0.001,0.016-0.001c63.656,0.009,115.443,51.8,115.443,115.459c0,18.554-4.288,36.283-12.741,52.696
		c-2.045,3.97-0.485,8.844,3.484,10.889s8.844,0.483,10.889-3.484c8.28-16.074,13.158-33.906,14.282-52.016h116.544
		c4.466,0,8.084-3.618,8.084-8.084C512,251.535,508.382,247.916,503.916,247.916z"/>
	<path style="fill:#231F20;" d="M256,414.989c-4.466,0-8.084,3.618-8.084,8.084v26.947c0,4.466,3.618,8.084,8.084,8.084
		s8.084-3.618,8.084-8.084v-26.947C264.084,418.608,260.466,414.989,256,414.989z"/>
	<path style="fill:#231F20;" d="M256,468.884c-4.466,0-8.084,3.618-8.084,8.084v26.947c0,4.466,3.618,8.084,8.084,8.084
		s8.084-3.618,8.084-8.084v-26.947C264.084,472.503,260.466,468.884,256,468.884z"/>
	<path style="fill:#231F20;" d="M256,32.753c4.466,0,8.084-3.618,8.084-8.084V8.084C264.084,3.618,260.466,0,256,0
		s-8.084,3.618-8.084,8.084v16.584C247.916,29.133,251.534,32.753,256,32.753z"/>
	<path style="fill:#231F20;" d="M256,86.648c4.466,0,8.084-3.618,8.084-8.084V51.616c0-4.466-3.618-8.084-8.084-8.084
		s-8.084,3.618-8.084,8.084v26.947C247.916,83.028,251.534,86.648,256,86.648z"/>
</g>
<g>
</g>
<g>
</g>
<g>
</g>
<g>
</g>
<g>
</g>
<g>
</g>
<g>
</g>
<g>
</g>
<g>
</g>
<g>
</g>
<g>
</g>
<g>
</g>
<g>
</g>
<g>
</g>
<g>
</g>
</svg>
