<?xml version="1.0" encoding="iso-8859-1"?>
<!-- Generator: Adobe Illustrator 19.0.0, SVG Export Plug-In . SVG Version: 6.00 Build 0)  -->
<svg version="1.1" id="Layer_1" xmlns="http://www.w3.org/2000/svg" xmlns:xlink="http://www.w3.org/1999/xlink" x="0px" y="0px"
	 viewBox="0 0 512 512" style="enable-background:new 0 0 512 512;" xml:space="preserve">
<path style="fill:#578CAD;" d="M256,134.518c-66.986,0-121.485,54.496-121.485,121.483c0,66.986,54.499,121.485,121.485,121.485
	s121.485-54.499,121.485-121.485C377.485,189.014,322.986,134.518,256,134.518z"/>
<path style="fill:#90C8EC;" d="M413.528,313.993C389.869,378.056,328.181,423.855,256,423.855
	c-92.553,0-167.854-75.3-167.854-167.854S163.445,88.149,256,88.149s167.854,75.296,167.854,167.852
	c0,10.556-0.979,20.889-2.852,30.91 M256,134.518c-66.986,0-121.485,54.496-121.485,121.483
	c0,66.986,54.499,121.485,121.485,121.485s121.485-54.499,121.485-121.485C377.485,189.014,322.986,134.518,256,134.518z"/>
<g>
	<path style="fill:#231F20;" d="M256,80.065c-97.013,0-175.938,78.925-175.938,175.936c0,97.013,78.926,175.938,175.938,175.938
		c36.643,0,71.79-11.204,101.64-32.399c29.185-20.725,51.133-49.337,63.471-82.746c1.548-4.189-0.594-8.838-4.782-10.384
		c-4.191-1.547-8.838,0.595-10.384,4.783c-23.101,62.551-83.359,104.578-149.944,104.578c-88.097,0-159.77-71.672-159.77-159.77
		c0-88.096,71.672-159.768,159.77-159.768s159.77,71.671,159.77,159.768c0,9.89-0.914,19.788-2.714,29.423
		c-0.821,4.389,2.072,8.612,6.46,9.433c4.39,0.816,8.612-2.071,9.433-6.46c1.984-10.613,2.99-21.513,2.99-32.396
		C431.938,158.989,353.013,80.065,256,80.065z"/>
	<path style="fill:#231F20;" d="M256,126.434c-71.445,0-129.569,58.123-129.569,129.567c0,71.445,58.124,129.569,129.569,129.569
		c49.757,0,93.045-28.197,114.746-69.446c0.016-0.03,0.032-0.06,0.049-0.091c9.429-17.958,14.776-38.382,14.776-60.033
		C385.569,184.557,327.445,126.434,256,126.434z M256,369.402c-62.53,0-113.401-50.871-113.401-113.401
		c0-62.529,50.871-113.399,113.401-113.399c40.088,0,75.385,20.91,95.556,52.394h-78.269c-4.466,0-8.084,3.618-8.084,8.084
		s3.618,8.084,8.084,8.084h86.864c5.165,11.953,8.333,24.961,9.076,38.606h-131.18c-4.466,0-8.084,3.618-8.084,8.084
		c0,4.466,3.618,8.084,8.084,8.084H368.96c-1.182,13.557-4.759,26.435-10.307,38.214h-46.416c-4.466,0-8.084,3.618-8.084,8.084
		s3.618,8.084,8.084,8.084h37.102C328.861,349.949,294.662,369.402,256,369.402z"/>
	<path style="fill:#231F20;" d="M277.925,304.154h-6.491c-4.466,0-8.084,3.618-8.084,8.084c0,4.466,3.618,8.084,8.084,8.084h6.491
		c4.466,0,8.084-3.618,8.084-8.084C286.01,307.772,282.39,304.154,277.925,304.154z"/>
	<path style="fill:#231F20;" d="M437.018,74.982C388.667,26.628,324.379,0,256,0S123.333,26.628,74.982,74.982
		C26.628,123.334,0,187.622,0,256.001s26.628,132.667,74.982,181.02C123.333,485.372,187.619,512,256,512
		s132.667-26.628,181.018-74.979C485.372,388.668,512,324.382,512,256.001S485.372,123.334,437.018,74.982z M256,495.832
		c-132.244,0-239.832-107.587-239.832-239.83S123.756,16.168,256,16.168s239.832,107.589,239.832,239.833
		S388.243,495.832,256,495.832z"/>
</g>
<g style="opacity:0.2;">
	<path style="fill:#231F20;" d="M159.655,256.001c0-62.743,47.812-114.526,108.915-120.835c-4.133-0.427-8.326-0.648-12.569-0.648
		c-66.986,0-121.485,54.496-121.485,121.483c0,66.986,54.499,121.485,121.485,121.485c4.245,0,8.437-0.221,12.569-0.648
		C207.468,370.528,159.655,318.743,159.655,256.001z"/>
</g>
<g style="opacity:0.2;">
	<path style="fill:#231F20;" d="M113.287,256.001c0-88.326,68.578-160.933,155.283-167.382c-4.15-0.308-8.341-0.47-12.569-0.47
		c-92.553,0-167.854,75.296-167.854,167.852c0,92.553,75.3,167.854,167.854,167.854c4.222,0,8.406-0.163,12.552-0.471
		C181.855,416.925,113.287,344.322,113.287,256.001z"/>
</g>
<g>
</g>
<g>
</g>
<g>
</g>
<g>
</g>
<g>
</g>
<g>
</g>
<g>
</g>
<g>
</g>
<g>
</g>
<g>
</g>
<g>
</g>
<g>
</g>
<g>
</g>
<g>
</g>
<g>
</g>
</svg>
