<?xml version="1.0" encoding="iso-8859-1"?>
<!-- Generator: Adobe Illustrator 19.0.0, SVG Export Plug-In . SVG Version: 6.00 Build 0)  -->
<svg version="1.1" id="Layer_1" xmlns="http://www.w3.org/2000/svg" xmlns:xlink="http://www.w3.org/1999/xlink" x="0px" y="0px"
	 viewBox="0 0 512 512" style="enable-background:new 0 0 512 512;" xml:space="preserve">
<path style="fill:#8C6E51;" d="M255.999,50.976c-113.05,0-205.022,91.972-205.022,205.024c0,113.051,91.972,205.024,205.022,205.024
	c113.052,0,205.024-91.974,205.024-205.024C461.023,142.948,369.051,50.976,255.999,50.976z"/>
<g style="opacity:0.2;">
	<path style="fill:#231F20;" d="M75.367,256c0-108.956,85.434-198.319,192.828-204.651c-4.037-0.238-8.101-0.373-12.195-0.373
		C142.95,50.976,50.978,142.948,50.978,256c0,113.051,91.972,205.024,205.022,205.024c4.095,0,8.159-0.135,12.195-0.373
		C160.801,454.319,75.367,364.956,75.367,256z"/>
</g>
<path style="fill:#FF4D30;" d="M255.999,503.916C119.299,503.916,8.084,392.702,8.084,256
	c0-136.701,111.215-247.916,247.915-247.916c136.702,0,247.917,111.215,247.917,247.916
	C503.916,392.702,392.701,503.916,255.999,503.916z M255.999,50.976c-113.05,0-205.022,91.972-205.022,205.024
	c0,113.051,91.972,205.024,205.022,205.024c113.052,0,205.024-91.974,205.024-205.024
	C461.023,142.948,369.051,50.976,255.999,50.976z"/>
<g style="opacity:0.2;">
	<path style="fill:#231F20;" d="M32.475,256c0-132.611,104.662-241.234,235.721-247.614c-4.042-0.197-8.107-0.302-12.195-0.302
		C119.299,8.084,8.084,119.299,8.084,256c0,136.702,111.215,247.916,247.915,247.916c4.09,0,8.153-0.106,12.195-0.303
		C137.137,497.234,32.475,388.612,32.475,256z"/>
</g>
<g>
	<path style="fill:#231F20;" d="M255.999,0C114.841,0,0,114.841,0,256s114.841,256,255.999,256
		c44.544,0,88.443-11.67,126.951-33.749c37.333-21.405,68.96-52.122,91.465-88.831c2.333-3.806,1.139-8.784-2.668-11.117
		c-3.807-2.331-8.784-1.14-11.117,2.668c-44.09,71.922-120.588,114.861-204.631,114.861c-132.243,0-239.83-107.588-239.83-239.832
		S123.756,16.168,255.999,16.168c132.244,0,239.833,107.588,239.833,239.832c0,36.109-7.861,70.837-23.366,103.217
		c-1.928,4.027-0.226,8.855,3.8,10.783c4.024,1.925,8.855,0.227,10.783-3.8C503.605,331.622,512,294.546,512,256
		C512,114.841,397.159,0,255.999,0z"/>
	<path style="fill:#231F20;" d="M255.999,42.892c-65.457,0-124.107,29.674-163.229,76.266c-0.02,0.025-0.042,0.049-0.061,0.073
		C61.635,156.27,42.893,203.984,42.893,256c0,117.509,95.598,213.108,213.106,213.108c117.509,0,213.108-95.6,213.108-213.108
		S373.508,42.892,255.999,42.892z M451.851,276.704H366.92c-4.466,0-8.084,3.618-8.084,8.084c0,4.466,3.618,8.084,8.084,8.084
		h82.542c-6.505,34.203-21.88,65.298-43.639,90.794H222.056c-4.466,0-8.084,3.618-8.084,8.084s3.618,8.084,8.084,8.084h168.313
		C355.154,432.754,307.893,452.94,256,452.94c-76.042,0-142.15-43.327-174.952-106.587h83.248c4.466,0,8.084-3.618,8.084-8.084
		s-3.618-8.084-8.084-8.084H75.079c-0.494,0-0.974,0.051-1.443,0.136C64.25,307.375,59.061,282.283,59.061,256
		c0-5.594,0.247-11.131,0.707-16.608h170.691c4.466,0,8.084-3.618,8.084-8.084s-3.618-8.084-8.084-8.084H61.803
		c5.719-33.992,20.173-65.054,40.972-90.793h76.894c4.466,0,8.084-3.618,8.084-8.084c0-4.466-3.618-8.084-8.084-8.084h-62.301
		c35.616-35.337,84.616-57.201,138.631-57.201c77.673,0,144.98,45.205,177.016,110.683H280.391c-4.466,0-8.084,3.618-8.084,8.084
		s3.618,8.084,8.084,8.084h158.413c0.407,0,0.805-0.04,1.198-0.098c8.349,21.814,12.938,45.473,12.938,70.188
		C452.939,262.992,452.566,269.898,451.851,276.704z"/>
	<path style="fill:#231F20;" d="M270.228,223.223H260.22c-4.466,0-8.084,3.618-8.084,8.084s3.618,8.084,8.084,8.084h10.008
		c4.466,0,8.084-3.618,8.084-8.084S274.694,223.223,270.228,223.223z"/>
	<path style="fill:#231F20;" d="M339.646,276.704h-8.93c-4.466,0-8.084,3.618-8.084,8.084c0,4.466,3.618,8.084,8.084,8.084h8.93
		c4.466,0,8.084-3.618,8.084-8.084C347.73,280.323,344.11,276.704,339.646,276.704z"/>
</g>
<g>
</g>
<g>
</g>
<g>
</g>
<g>
</g>
<g>
</g>
<g>
</g>
<g>
</g>
<g>
</g>
<g>
</g>
<g>
</g>
<g>
</g>
<g>
</g>
<g>
</g>
<g>
</g>
<g>
</g>
</svg>
