<?xml version="1.0" encoding="iso-8859-1"?>
<!-- Generator: Adobe Illustrator 19.0.0, SVG Export Plug-In . SVG Version: 6.00 Build 0)  -->
<svg version="1.1" id="Layer_1" xmlns="http://www.w3.org/2000/svg" xmlns:xlink="http://www.w3.org/1999/xlink" x="0px" y="0px"
	 viewBox="0 0 512 512" style="enable-background:new 0 0 512 512;" xml:space="preserve">
<circle style="fill:#FF4D30;" cx="256.005" cy="38.101" r="29.74"/>
<polygon style="fill:#FFD960;" points="331.491,383.536 256,383.536 180.508,383.536 118.741,503.636 256,503.636 393.259,503.636 
	"/>
<g style="opacity:0.2;">
	<polygon style="fill:#231F20;" points="180.508,383.536 118.741,503.636 146.896,503.636 208.664,383.536 	"/>
</g>
<path style="fill:#90C8EC;" d="M110.484,238.613h291.031C388.966,169.62,328.615,117.296,256,117.296
	S123.034,169.62,110.484,238.613z"/>
<g>
	<path style="fill:#3A5D74;" d="M373.419,342.358h31.85c11.37,0,20.587,9.218,20.587,20.589l0,0
		c0,11.369-9.218,20.589-20.587,20.589H106.73c-11.37,0-20.587-9.22-20.587-20.589l0,0c0-11.371,9.218-20.589,20.587-20.589h34.085"
		/>
	<path style="fill:#3A5D74;" d="M330.921,238.613V208.53c0-11.37-9.217-20.589-20.59-20.589H201.671
		c-11.372,0-20.589,9.22-20.589,20.589v30.083H330.921z"/>
</g>
<path style="fill:#578CAD;" d="M363.726,342.358h119.607c11.37,0,20.589-9.221,20.589-20.589v-17.044
	c0-36.512-29.599-66.112-66.113-66.112H74.19c-36.512,0-66.113,29.599-66.113,66.112v17.044c0,11.369,9.218,20.589,20.589,20.589
	h308.678"/>
<g style="opacity:0.2;">
	<path style="fill:#231F20;" d="M252.106,38.103c0-11.793,6.866-21.982,16.818-26.791c-3.908-1.889-8.291-2.948-12.922-2.948
		c-16.423,0-29.741,13.313-29.741,29.738s13.318,29.739,29.741,29.739c4.631,0,9.014-1.059,12.922-2.948
		C258.972,60.086,252.106,49.896,252.106,38.103z"/>
</g>
<g>
	<path style="fill:#231F20;" d="M483.333,350.435H363.726c-4.462,0-8.077-3.615-8.077-8.077c0-4.462,3.615-8.077,8.077-8.077
		h119.607c6.899,0,12.512-5.613,12.512-12.512v-17.044c0-32.001-26.035-58.035-58.036-58.035H74.19
		c-32.002,0-58.036,26.035-58.036,58.035v17.044c0,6.899,5.613,12.512,12.512,12.512h308.678c4.462,0,8.077,3.615,8.077,8.077
		c0,4.462-3.615,8.077-8.077,8.077H28.665C12.858,350.435,0,337.577,0,321.77v-17.044c0-40.908,33.281-74.189,74.19-74.189h363.62
		c40.908,0,74.19,33.28,74.19,74.189v17.044C512,337.577,499.141,350.435,483.333,350.435z"/>
	<path style="fill:#231F20;" d="M405.269,391.613H106.73c-15.806,0-28.664-12.858-28.664-28.665s12.858-28.665,28.664-28.665h34.085
		c4.462,0,8.077,3.615,8.077,8.077c0,4.462-3.615,8.077-8.077,8.077H106.73c-6.898,0-12.511,5.613-12.511,12.512
		c0,6.899,5.613,12.512,12.511,12.512h298.538c6.898,0,12.511-5.613,12.511-12.512c0-6.899-5.613-12.512-12.511-12.512h-31.85
		c-4.462,0-8.077-3.615-8.077-8.077c0-4.462,3.615-8.077,8.077-8.077h31.85c15.806,0,28.664,12.858,28.664,28.665
		C433.933,378.754,421.075,391.613,405.269,391.613z"/>
	<path style="fill:#231F20;" d="M393.259,511.712H118.741c-2.815,0-5.428-1.466-6.894-3.87c-1.466-2.403-1.576-5.398-0.289-7.901
		l61.767-120.1c1.384-2.69,4.156-4.382,7.183-4.382h150.983c3.027,0,5.799,1.692,7.183,4.382l61.767,120.1
		c1.287,2.504,1.178,5.498-0.289,7.901C398.687,510.247,396.074,511.712,393.259,511.712z M131.978,495.559h248.045l-53.459-103.946
		H185.436L131.978,495.559z"/>
	<path style="fill:#231F20;" d="M443.015,298.562H68.985c-4.462,0-8.077-3.615-8.077-8.077c0-4.462,3.615-8.077,8.077-8.077h374.029
		c4.462,0,8.077,3.615,8.077,8.077C451.092,294.947,447.476,298.562,443.015,298.562z"/>
	<path style="fill:#231F20;" d="M330.921,246.69h-149.84c-4.462,0-8.077-3.615-8.077-8.077V208.53
		c0-15.807,12.858-28.665,28.665-28.665h108.661c15.807,0,28.667,12.859,28.667,28.665v30.083
		C338.998,243.075,335.383,246.69,330.921,246.69z M189.158,230.536h133.687V208.53c0-6.899-5.613-12.512-12.513-12.512H201.671
		c-6.899,0-12.512,5.613-12.512,12.512v22.006H189.158z"/>
	<path style="fill:#231F20;" d="M401.516,246.69H110.484c-2.395,0-4.666-1.063-6.201-2.901c-1.536-1.839-2.175-4.265-1.746-6.62
		c13.485-74.139,78.026-127.95,153.462-127.95s139.977,53.81,153.462,127.95c0.429,2.356-0.21,4.78-1.746,6.62
		C406.182,245.627,403.91,246.69,401.516,246.69z M120.504,230.536h270.991C375.857,169.044,320.352,125.373,256,125.373
		S136.143,169.045,120.504,230.536z"/>
	<path style="fill:#231F20;" d="M256,125.373c-4.462,0-8.077-3.616-8.077-8.077V68.984c0-4.461,3.615-8.077,8.077-8.077
		c4.462,0,8.077,3.616,8.077,8.077v48.312C264.077,121.757,260.461,125.373,256,125.373z"/>
</g>
<path id="SVGCleanerId_0" style="fill:#231F20;" d="M256,75.919c-20.852,0-37.817-16.965-37.817-37.816S235.148,0.288,256,0.288
	c20.852,0,37.817,16.964,37.817,37.815S276.852,75.919,256,75.919z M256,16.441c-11.945,0-21.663,9.717-21.663,21.661
	c0,11.945,9.718,21.662,21.663,21.662c11.945,0,21.663-9.718,21.663-21.662S267.945,16.441,256,16.441z"/>
<g style="opacity:0.2;">
	<path style="fill:#231F20;" d="M268.923,117.857c-4.259-0.368-8.568-0.561-12.923-0.561c-72.615,0-132.966,52.324-145.516,121.317
		h25.846C148.127,173.758,202.167,123.637,268.923,117.857z"/>
</g>
<g style="opacity:0.2;">
	<path style="fill:#231F20;" d="M111.989,362.947c0-11.371,9.218-20.589,20.587-20.589H106.73c-11.37,0-20.587,9.218-20.587,20.589
		c0,11.369,9.218,20.589,20.587,20.589h25.846C121.207,383.536,111.989,374.316,111.989,362.947z"/>
</g>
<g style="opacity:0.2;">
	<path style="fill:#231F20;" d="M227.517,187.942H201.67c-11.372,0-20.589,9.22-20.589,20.589v30.083h25.846V208.53
		C206.927,197.161,216.144,187.942,227.517,187.942z"/>
</g>
<g style="opacity:0.2;">
	<path style="fill:#231F20;" d="M33.923,321.77v-17.044c0-36.512,29.6-66.112,66.113-66.112H74.19
		c-36.512,0-66.113,29.599-66.113,66.112v17.044c0,11.369,9.218,20.589,20.589,20.589h25.846
		C43.142,342.358,33.923,333.139,33.923,321.77z"/>
</g>
<g>
	<path id="SVGCleanerId_0_1_" style="fill:#231F20;" d="M256,75.919c-20.852,0-37.817-16.965-37.817-37.816S235.148,0.288,256,0.288
		c20.852,0,37.817,16.964,37.817,37.815S276.852,75.919,256,75.919z M256,16.441c-11.945,0-21.663,9.717-21.663,21.661
		c0,11.945,9.718,21.662,21.663,21.662c11.945,0,21.663-9.718,21.663-21.662S267.945,16.441,256,16.441z"/>
</g>
<g>
</g>
<g>
</g>
<g>
</g>
<g>
</g>
<g>
</g>
<g>
</g>
<g>
</g>
<g>
</g>
<g>
</g>
<g>
</g>
<g>
</g>
<g>
</g>
<g>
</g>
<g>
</g>
<g>
</g>
</svg>
