<?xml version="1.0" encoding="iso-8859-1"?>
<!-- Generator: Adobe Illustrator 19.0.0, SVG Export Plug-In . SVG Version: 6.00 Build 0)  -->
<svg version="1.1" id="Layer_1" xmlns="http://www.w3.org/2000/svg" xmlns:xlink="http://www.w3.org/1999/xlink" x="0px" y="0px"
	 viewBox="0 0 512 512" style="enable-background:new 0 0 512 512;" xml:space="preserve">
<g>
	<path style="fill:#90C8EC;" d="M293.667,321.242c-12.603,7.277-25.235,13.653-37.668,19.113
		c68.768,30.196,131.422,32.209,149.039,1.693c12.253-21.22-0.013-53.44-28.976-86.048
		C355.846,278.759,327.502,301.709,293.667,321.242z"/>
	<path style="fill:#90C8EC;" d="M218.33,190.757c12.603-7.276,25.235-13.652,37.668-19.112
		c-68.767-30.195-131.419-32.208-149.039-1.693c-12.253,21.22,0.013,53.44,28.977,86.048
		C156.151,233.241,184.495,210.29,218.33,190.757z"/>
</g>
<g>
	<path style="fill:#C1E7F7;" d="M376.061,256c28.963-32.609,41.231-64.828,28.978-86.048c-9.597-16.621-32.556-23.592-62.585-21.615
		l-26.151,3.626c-18.784,3.837-39.258,10.441-60.305,19.683c12.433,5.46,25.065,11.836,37.668,19.112
		C327.502,210.29,355.846,233.241,376.061,256z"/>
	<path style="fill:#C1E7F7;" d="M135.937,256c-28.964,32.609-41.231,64.828-28.977,86.048
		c17.616,30.515,80.269,28.503,149.039-1.693c-12.433-5.46-25.065-11.837-37.668-19.113
		C184.495,301.709,156.151,278.759,135.937,256z"/>
</g>
<path style="fill:#578CAD;" d="M376.061,256c-20.215-22.759-48.559-45.71-82.394-65.243c-12.603-7.277-25.235-13.652-37.668-19.112
	c-12.433,5.46-25.065,11.836-37.668,19.112c-33.835,19.534-62.179,42.484-82.393,65.243c20.214,22.759,48.558,45.709,82.393,65.243
	c12.603,7.277,25.235,13.653,37.668,19.113c12.433-5.46,25.065-11.837,37.668-19.113C327.502,301.709,355.846,278.759,376.061,256z"
	/>
<g style="opacity:0.2;">
	<path style="fill:#231F20;" d="M281.895,340.355c-12.433-5.46-25.064-11.837-37.668-19.113
		c-33.835-19.534-62.178-42.483-82.393-65.243c-28.964-32.609-41.231-64.828-28.977-86.048
		c7.082-12.266,21.447-19.272,40.554-21.309c-31.918-2.852-56.447,3.982-66.451,21.309c-12.253,21.22,0.013,53.44,28.977,86.048
		c20.214,22.759,48.558,45.709,82.393,65.243c12.603,7.277,25.235,13.653,37.668,19.113c41.125,18.059,80.058,26.033,108.486,23.003
		C340.189,361.186,311.616,353.406,281.895,340.355z"/>
</g>
<g>
	<path style="fill:#231F20;" d="M386.779,256c2.745-3.292,5.347-6.593,7.781-9.899c23.065-31.333,29.284-59.818,17.511-80.21
		c-10.858-18.807-35.765-27.923-70.149-25.656c-4.475,0.293-7.863,4.16-7.567,8.634c0.293,4.475,4.189,7.877,8.634,7.567
		c27.881-1.824,47.42,4.406,55.022,17.574c8.229,14.253,2.205,37.02-16.526,62.465c-1.788,2.429-3.676,4.858-5.649,7.282
		c-20.707-21.672-47.626-42.432-78.109-60.032c-7.146-4.126-14.337-7.984-21.528-11.576c14.239-5.357,28.254-9.481,41.73-12.234
		c4.394-0.897,7.226-5.186,6.33-9.58c-0.897-4.394-5.191-7.23-9.58-6.33c-16.315,3.333-33.336,8.545-50.565,15.422
		c-0.04-4.45-3.655-8.045-8.115-8.045c-4.454,0-8.066,3.587-8.114,8.031c-31.597-12.629-62.141-19.525-87.984-19.525
		c-29.411,0-50.149,8.992-59.97,26.002c-11.774,20.391-5.556,48.876,17.509,80.209c2.433,3.306,5.036,6.607,7.781,9.899
		c-2.745,3.292-5.346,6.593-7.781,9.899c-23.065,31.333-29.283,59.818-17.509,80.21c9.825,17.022,30.8,26.006,59.955,26.005
		c5.773,0,11.871-0.352,18.262-1.064c21.631-2.411,45.426-8.767,69.737-18.475c0.041,4.449,3.655,8.043,8.114,8.043
		c4.454,0,8.068-3.588,8.114-8.032c31.596,12.629,62.14,19.525,87.984,19.526c0.002,0,0.002,0,0.004,0
		c29.409,0,50.146-8.992,59.966-26.003c11.774-20.391,5.556-48.876-17.509-80.21C392.125,262.593,389.523,259.292,386.779,256z
		 M365.076,256c-19.734,20.911-45.779,41.07-75.469,58.211c-8.457,4.883-16.98,9.388-25.491,13.487v-2.772
		c0-4.485-3.634-8.118-8.118-8.118s-8.118,3.634-8.118,8.118v2.734c-8.544-4.097-17.075-8.59-25.491-13.449
		C192.699,297.07,166.655,276.91,146.921,256c19.734-20.911,45.778-41.071,75.469-58.212c8.46-4.884,16.978-9.378,25.491-13.479
		v2.765c0,4.485,3.634,8.118,8.118,8.118s8.118-3.634,8.118-8.118v-2.734c8.544,4.097,17.075,8.59,25.491,13.449
		C319.298,214.929,345.342,235.089,365.076,256z M130.514,236.476c-18.731-25.445-24.752-48.212-16.524-62.465
		c6.658-11.532,22.963-17.883,45.909-17.883c21.861,0,48.307,5.74,75.816,16.073c-7.171,3.584-14.331,7.419-21.444,11.526
		c-30.483,17.6-57.401,38.36-78.109,60.031C134.19,241.333,132.302,238.905,130.514,236.476z M176.348,354.911
		c-31.4,3.503-54.13-2.668-62.357-16.922c-8.23-14.253-2.207-37.02,16.524-62.465c1.788-2.429,3.676-4.857,5.648-7.282
		c20.707,21.672,47.626,42.432,78.109,60.031c7.15,4.127,14.342,7.988,21.538,11.581
		C215.004,347.693,194.794,352.856,176.348,354.911z M398.005,337.989c-6.658,11.534-22.962,17.885-45.909,17.884
		c-21.86,0-48.303-5.74-75.808-16.072c7.17-3.582,14.331-7.426,21.438-11.529c30.483-17.599,57.401-38.358,78.109-60.03
		c1.972,2.425,3.86,4.853,5.648,7.282C400.212,300.969,406.235,323.737,398.005,337.989z"/>
	<path style="fill:#231F20;" d="M255.998,29.767c4.485,0,8.118-3.634,8.118-8.118V8.118c0-4.485-3.634-8.118-8.118-8.118
		c-4.485,0-8.118,3.634-8.118,8.118v13.531C247.88,26.134,251.514,29.767,255.998,29.767z"/>
	<path style="fill:#231F20;" d="M255.998,140.051c4.485,0,8.118-3.634,8.118-8.118v-27.571c0-4.485-3.634-8.118-8.118-8.118
		c-4.485,0-8.118,3.634-8.118,8.118v27.571C247.88,136.416,251.514,140.051,255.998,140.051z"/>
	<path style="fill:#231F20;" d="M255.998,84.909c4.485,0,8.118-3.634,8.118-8.118V49.22c0-4.485-3.634-8.118-8.118-8.118
		c-4.485,0-8.118,3.634-8.118,8.118v27.571C247.88,81.275,251.514,84.909,255.998,84.909z"/>
	<path style="fill:#231F20;" d="M255.998,261.667c-4.485,0-8.118,3.634-8.118,8.118v27.571c0,4.485,3.634,8.118,8.118,8.118
		c4.485,0,8.118-3.634,8.118-8.118v-27.571C264.117,265.302,260.483,261.667,255.998,261.667z"/>
	<path style="fill:#231F20;" d="M255.998,371.95c-4.485,0-8.118,3.634-8.118,8.118v27.571c0,4.485,3.634,8.118,8.118,8.118
		c4.485,0,8.118-3.634,8.118-8.118v-27.571C264.117,375.585,260.483,371.95,255.998,371.95z"/>
	<path style="fill:#231F20;" d="M255.998,206.525c-4.485,0-8.118,3.634-8.118,8.118v27.571c0,4.485,3.634,8.118,8.118,8.118
		c4.485,0,8.118-3.634,8.118-8.118v-27.571C264.117,210.159,260.483,206.525,255.998,206.525z"/>
	<path style="fill:#231F20;" d="M255.998,427.091c-4.485,0-8.118,3.634-8.118,8.118v27.571c0,4.485,3.634,8.118,8.118,8.118
		c4.485,0,8.118-3.634,8.118-8.118V435.21C264.117,430.725,260.483,427.091,255.998,427.091z"/>
	<path style="fill:#231F20;" d="M255.998,482.233c-4.485,0-8.118,3.634-8.118,8.118v13.531c0,4.485,3.634,8.118,8.118,8.118
		c4.485,0,8.118-3.634,8.118-8.118v-13.531C264.117,485.866,260.483,482.233,255.998,482.233z"/>
</g>
<g>
</g>
<g>
</g>
<g>
</g>
<g>
</g>
<g>
</g>
<g>
</g>
<g>
</g>
<g>
</g>
<g>
</g>
<g>
</g>
<g>
</g>
<g>
</g>
<g>
</g>
<g>
</g>
<g>
</g>
</svg>
