<?xml version="1.0" encoding="iso-8859-1"?>
<!-- Generator: Adobe Illustrator 19.0.0, SVG Export Plug-In . SVG Version: 6.00 Build 0)  -->
<svg version="1.1" id="Layer_1" xmlns="http://www.w3.org/2000/svg" xmlns:xlink="http://www.w3.org/1999/xlink" x="0px" y="0px"
	 viewBox="0 0 512.001 512.001" style="enable-background:new 0 0 512.001 512.001;" xml:space="preserve">
<g>
	<path style="fill:#578CAD;" d="M112.195,440.617v43.284c0,11.033,8.943,19.978,19.978,19.978h14.43
		c11.033,0,19.978-8.945,19.978-19.978v-43.284H112.195z"/>
	<path style="fill:#578CAD;" d="M236.597,483.901c0,11.033,8.943,19.978,19.977,19.978h14.43c11.033,0,19.978-8.945,19.978-19.978
		v-43.284h-54.385v43.284H236.597z"/>
	<path style="fill:#578CAD;" d="M43.27,396.313c-11.492,0-20.809-9.316-20.809-20.809c0-35.19,32.128-66.181,85.944-82.904
		c10.973-3.41,22.636,2.721,26.047,13.696c3.41,10.976-2.722,22.637-13.698,26.049c-33.898,10.533-56.673,27.877-56.673,43.158
		C64.079,386.997,54.762,396.313,43.27,396.313z"/>
	<path style="fill:#578CAD;" d="M353.754,396.313c-11.492,0-20.809-9.316-20.809-20.809c0-14.275-19.784-30.404-50.402-41.092
		c-10.851-3.788-16.575-15.654-12.787-26.505c3.788-10.85,15.653-16.576,26.505-12.789c49.76,17.371,78.301,46.671,78.301,80.386
		C374.563,386.997,365.247,396.313,353.754,396.313z"/>
</g>
<g>
	<circle style="fill:#90C8EC;" cx="201.585" cy="145.742" r="137.62"/>
	<path style="fill:#90C8EC;" d="M282.544,334.412c-10.851-3.788-16.575-15.654-12.787-26.505c1.755-5.034,5.264-8.944,9.591-11.334
		c-7.717-8.131-18.615-13.209-30.71-13.209h-94.099c-11.204,0-21.386,4.358-28.959,11.465c4.09,2.549,7.328,6.507,8.871,11.469
		c3.41,10.976-2.722,22.637-13.698,26.049c-2.941,0.913-5.792,1.882-8.558,2.892v105.379h178.787V337.607
		C288.273,336.497,285.458,335.43,282.544,334.412z"/>
</g>
<path style="fill:#CAE9F7;" d="M229.602,192.012h-98.489c-11.032,0-19.977-8.944-19.977-19.977v-52.162
	c0-11.032,8.944-19.977,19.977-19.977h140.951c11.032,0,19.975,8.944,19.975,19.977v52.162c0,11.033-8.944,19.977-19.975,19.977
	H255.59"/>
<g style="opacity:0.2;">
	<path style="fill:#231F20;" d="M137.778,483.901v-43.284h-25.584v43.284c0,11.033,8.943,19.978,19.978,19.978h14.43
		c1.938,0,3.805-0.289,5.577-0.805C143.862,500.658,137.778,492.996,137.778,483.901z"/>
</g>
<g style="opacity:0.2;">
	<path style="fill:#231F20;" d="M262.181,483.901v-43.284h-25.584v43.284c0,11.033,8.943,19.978,19.977,19.978h14.43
		c1.937,0,3.805-0.289,5.577-0.805C268.264,500.659,262.181,492.996,262.181,483.901z"/>
</g>
<g style="opacity:0.2;">
	<path style="fill:#231F20;" d="M89.551,145.743c0-71.693,54.822-130.57,124.828-137.025c-4.213-0.389-8.478-0.597-12.792-0.597
		c-76.006,0-137.62,61.614-137.62,137.621c0,76.005,61.614,137.621,137.62,137.621c4.314,0,8.578-0.208,12.792-0.597
		C144.373,276.312,89.551,217.433,89.551,145.743z"/>
</g>
<g style="opacity:0.2;">
	<path style="fill:#231F20;" d="M137.778,286.828c-4.529,1.958-8.652,4.673-12.198,8c4.09,2.549,7.328,6.507,8.871,11.469
		c3.41,10.976-2.722,22.637-13.698,26.049c-2.941,0.913-5.792,1.882-8.558,2.892v105.379h25.584V335.238V286.828z"/>
</g>
<g style="opacity:0.2;">
	<path style="fill:#231F20;" d="M136.72,172.035v-52.162c0-11.032,8.944-19.977,19.977-19.977h-25.584
		c-11.032,0-19.977,8.944-19.977,19.977v52.162c0,11.033,8.944,19.977,19.977,19.977h25.584
		C145.664,192.012,136.72,183.069,136.72,172.035z"/>
</g>
<g>
	<path style="fill:#231F20;" d="M237.724,192.012c0-4.485-3.636-8.121-8.121-8.121h-98.489c-6.537,0-11.855-5.318-11.855-11.855
		v-52.162c0-6.537,5.319-11.855,11.855-11.855h140.951c6.536,0,11.854,5.318,11.854,11.855v52.162
		c0,6.537-5.318,11.855-11.854,11.855H255.59c-4.485,0-8.121,3.636-8.121,8.121s3.636,8.121,8.121,8.121h16.475
		c15.493,0,28.097-12.604,28.097-28.098v-52.162c0-15.493-12.604-28.098-28.097-28.098H131.113
		c-15.493,0-28.098,12.604-28.098,28.098v52.162c0,15.493,12.604,28.098,28.098,28.098h98.49
		C234.088,200.133,237.724,196.497,237.724,192.012z"/>
	<path style="fill:#231F20;" d="M223.76,334.724h-49.942c-4.485,0-8.121,3.636-8.121,8.121c0,4.485,3.636,8.121,8.121,8.121h49.942
		c4.485,0,8.121-3.636,8.121-8.121C231.882,338.36,228.246,334.724,223.76,334.724z"/>
	<path style="fill:#231F20;" d="M223.76,373.014h-49.942c-4.485,0-8.121,3.636-8.121,8.121c0,4.485,3.636,8.121,8.121,8.121h49.942
		c4.485,0,8.121-3.636,8.121-8.121C231.882,376.651,228.246,373.014,223.76,373.014z"/>
	<path style="fill:#231F20;" d="M451.51,212.753h-31.578c-16.493,0-29.912-13.417-29.912-29.908v-8.28
		c0-16.492,13.419-29.91,29.912-29.91h65.854c4.486,0,8.121-3.636,8.121-8.121c0-4.485-3.635-8.121-8.121-8.121h-65.854
		c-25.449,0-46.155,20.704-46.155,46.152v8.28c0,25.448,20.705,46.151,46.155,46.151h31.578c16.494,0,29.912,13.418,29.912,29.911
		v8.28c0,16.492-13.419,29.91-29.912,29.91H322.144c-7.164-3.523-14.909-6.747-23.206-9.644c-3.084-1.076-6.292-1.622-9.536-1.622
		c-2.871,0-5.665,0.442-8.322,1.242c-5.139-4.34-10.999-7.565-17.308-9.537c49.345-23.377,83.559-73.66,83.559-131.791
		C347.331,65.38,281.952,0,201.588,0C121.226,0,55.846,65.38,55.846,145.743c0,58.148,34.236,108.445,83.604,131.813
		c-5.39,1.688-10.473,4.279-15.048,7.697c-3.082-1.106-6.387-1.715-9.817-1.715c-2.906,0-5.798,0.44-8.591,1.308
		c-57.391,17.835-91.655,51.726-91.655,90.66c0,15.953,12.978,28.931,28.931,28.931s28.931-12.978,28.931-28.931
		c0-7.461,11.054-18.721,31.873-28.193v93.306v43.284c0,15.495,12.606,28.099,28.099,28.099h14.43
		c15.495,0,28.099-12.605,28.099-28.099V448.74h53.775v35.162c0,15.495,12.604,28.099,28.098,28.099h14.43
		c15.495,0,28.099-12.605,28.099-28.099v-43.284v-90.33c16.948,8.817,25.72,18.577,25.72,25.216
		c0,15.953,12.978,28.931,28.931,28.931s28.931-12.978,28.931-28.931c0-23.491-12.063-44.893-34.232-62.167h103.057
		c25.449,0,46.155-20.704,46.155-46.152v-8.279C497.664,233.457,476.959,212.753,451.51,212.753z M72.089,145.743
		c0-71.407,58.093-129.5,129.499-129.5c71.407,0,129.5,58.093,129.5,129.5s-58.093,129.5-129.5,129.5
		C130.182,275.242,72.089,217.148,72.089,145.743z M55.958,375.504c0,6.995-5.691,12.688-12.688,12.688s-12.688-5.691-12.688-12.688
		c0-31.444,29.993-59.536,80.233-75.148c1.232-0.383,2.5-0.577,3.771-0.577c2.319,0,4.511,0.627,6.405,1.734
		c0.1,0.068,0.192,0.144,0.295,0.208c2.245,1.399,3.985,3.452,4.995,5.855c0.011,0.027,0.025,0.053,0.036,0.08
		c0.141,0.343,0.269,0.693,0.379,1.049c0.519,1.67,0.674,3.369,0.51,5.008c-0.492,4.921-3.852,9.318-8.863,10.875
		c-1.473,0.457-2.915,0.929-4.344,1.409c-0.09,0.03-0.18,0.062-0.271,0.092C77.966,338.139,55.958,356.847,55.958,375.504z
		 M158.459,483.901c0,6.538-5.319,11.856-11.856,11.856h-14.43c-6.537,0-11.856-5.319-11.856-11.856v-35.162h38.142L158.459,483.901
		L158.459,483.901z M282.861,483.901c0,6.538-5.319,11.856-11.856,11.856h-14.43c-6.537,0-11.855-5.319-11.855-11.856v-35.162
		h38.143v35.162H282.861z M282.861,432.496h-46.264H166.58h-46.264v-91.483c0.937-0.309,1.884-0.613,2.847-0.912
		c0.476-0.148,0.945-0.308,1.409-0.478c14.346-5.272,22.219-20.979,17.634-35.737c0,0,0,0,0-0.001c0-0.001,0,0,0-0.001
		c-0.011-0.034-0.025-0.066-0.036-0.1c-0.933-2.966-2.302-5.691-4.023-8.119c4.982-2.728,10.596-4.181,16.391-4.181h94.099
		c6.551,0,12.789,1.816,18.176,5.214c-0.058,0.073-0.107,0.152-0.165,0.224c-0.324,0.414-0.632,0.839-0.935,1.271
		c-0.155,0.221-0.314,0.437-0.463,0.663c-0.284,0.43-0.547,0.874-0.808,1.32c-0.14,0.238-0.287,0.471-0.42,0.714
		c-0.258,0.472-0.492,0.959-0.724,1.448c-0.108,0.227-0.228,0.448-0.331,0.679c-0.321,0.721-0.616,1.458-0.879,2.211
		c-0.985,2.824-1.506,5.7-1.603,8.544c-0.016,0.474-0.021,0.947-0.013,1.419c0.185,11.793,7.628,22.781,19.393,26.888
		c0.972,0.339,1.94,0.689,2.903,1.044c0.03,0.011,0.061,0.023,0.091,0.035v89.339H282.861z M366.441,375.504
		c0,6.995-5.691,12.688-12.688,12.688s-12.688-5.691-12.688-12.688c0-17.483-19.011-34.872-51.122-47.034
		c-0.165-0.063-0.328-0.125-0.494-0.187c-1.389-0.521-2.794-1.037-4.231-1.539c-0.825-0.288-1.603-0.654-2.326-1.085
		c-5.062-3.022-7.487-9.295-5.469-15.077c0.002-0.008,0.007-0.014,0.009-0.022c0.118-0.337,0.252-0.667,0.397-0.991
		c0.043-0.097,0.093-0.189,0.14-0.285c0.115-0.238,0.233-0.475,0.363-0.706c0.049-0.088,0.102-0.172,0.152-0.259
		c0.145-0.245,0.297-0.486,0.458-0.72c0.038-0.056,0.077-0.11,0.116-0.166c1.093-1.532,2.525-2.819,4.216-3.752
		c0.076-0.042,0.144-0.093,0.218-0.136c1.786-0.943,3.802-1.474,5.91-1.474c1.417,0,2.823,0.24,4.182,0.715
		C339.887,318.95,366.441,345.455,366.441,375.504z"/>
</g>
<g>
</g>
<g>
</g>
<g>
</g>
<g>
</g>
<g>
</g>
<g>
</g>
<g>
</g>
<g>
</g>
<g>
</g>
<g>
</g>
<g>
</g>
<g>
</g>
<g>
</g>
<g>
</g>
<g>
</g>
</svg>
