<?xml version="1.0" encoding="iso-8859-1"?>
<!-- Generator: Adobe Illustrator 19.0.0, SVG Export Plug-In . SVG Version: 6.00 Build 0)  -->
<svg version="1.1" id="Layer_1" xmlns="http://www.w3.org/2000/svg" xmlns:xlink="http://www.w3.org/1999/xlink" x="0px" y="0px"
	 viewBox="0 0 512.001 512.001" style="enable-background:new 0 0 512.001 512.001;" xml:space="preserve">
<g>
	<circle style="fill:#90C8EC;" cx="131.158" cy="32.898" r="24.783"/>
	<circle style="fill:#90C8EC;" cx="474.662" cy="168.338" r="24.784"/>
</g>
<path style="fill:#FF4D30;" d="M316.204,314.28c-14.869,18.563-37.724,30.451-63.36,30.451c-44.81,0-81.135-36.325-81.135-81.135
	s36.325-81.135,81.135-81.135c44.809,0,81.136,36.325,81.136,81.135c0,9.673-1.692,18.95-4.799,27.552"/>
<g style="opacity:0.2;">
	<path style="fill:#231F20;" d="M475.128,168.341c0-9.076,4.881-17.008,12.158-21.325c-3.697-2.193-8.013-3.457-12.623-3.457
		c-13.688,0-24.783,11.096-24.783,24.783s11.094,24.784,24.783,24.784c4.611,0,8.926-1.264,12.623-3.457
		C480.009,185.35,475.128,177.417,475.128,168.341z"/>
</g>
<g style="opacity:0.2;">
	<path style="fill:#231F20;" d="M196.958,263.596c0-40.515,29.697-74.088,68.511-80.152c-4.115-0.643-8.33-0.983-12.625-0.983
		c-44.81,0-81.135,36.325-81.135,81.135s36.325,81.135,81.135,81.135c4.294,0,8.506-0.341,12.62-0.984
		C226.654,337.681,196.958,304.108,196.958,263.596z"/>
</g>
<g style="opacity:0.2;">
	<path style="fill:#231F20;" d="M131.627,32.898c0-9.076,4.881-17.009,12.158-21.325c-3.699-2.193-8.012-3.457-12.625-3.457
		c-13.686,0-24.782,11.094-24.782,24.783c0,13.686,11.096,24.784,24.782,24.784c4.613,0,8.926-1.264,12.625-3.457
		C136.507,49.907,131.627,41.974,131.627,32.898z"/>
</g>
<g>
	<path style="fill:#231F20;" d="M252.845,174.344c-49.213,0-89.25,40.038-89.25,89.25s40.038,89.25,89.25,89.25
		c27.242,0,52.644-12.207,69.693-33.492c2.803-3.498,2.238-8.606-1.261-11.407c-3.496-2.803-8.605-2.238-11.407,1.261
		c-13.953,17.418-34.738,27.409-57.025,27.409c-40.263,0-73.019-32.756-73.019-73.019c0-40.263,32.756-73.019,73.019-73.019
		c40.264,0,73.02,32.756,73.02,73.019c0,8.521-1.452,16.863-4.316,24.797c-1.521,4.216,0.661,8.866,4.878,10.389
		c4.212,1.521,8.866-0.661,10.39-4.877c3.504-9.705,5.281-19.903,5.281-30.308C342.097,214.382,302.059,174.344,252.845,174.344z"/>
	<path style="fill:#231F20;" d="M429.834,263.62c14.851-21.071,27.784-42.182,38.551-62.988c2.033,0.395,4.131,0.608,6.278,0.608
		c18.141,0,32.899-14.758,32.899-32.899c0-11.347-5.774-21.37-14.539-27.285c14.122-47.506,10.094-84.101-11.722-105.917
		C454.758,8.594,405.818,8.538,343.5,34.977c-29.208,12.392-59.885,29.943-90.624,51.624
		c-30.148-21.271-60.216-38.526-88.944-50.879c0.08-0.932,0.13-1.873,0.13-2.825C164.06,14.758,149.301,0,131.161,0
		c-12.379,0-23.179,6.877-28.793,17.007c-33.953-5.225-60.863,1.015-77.98,18.131C-2.155,61.681-2.212,110.62,24.228,172.94
		c12.396,29.217,29.954,59.906,51.646,90.655c-21.692,30.75-39.25,61.438-51.646,90.655c-26.44,62.32-26.383,111.258,0.159,137.802
		c13.3,13.3,32.22,19.95,55.63,19.95c23.312,0,51.076-6.595,82.171-19.788c29.218-12.396,59.906-29.954,90.655-51.646
		c30.749,21.692,61.438,39.25,90.655,51.646c31.099,13.194,58.858,19.79,82.172,19.788c23.406-0.001,42.333-6.651,55.63-19.95
		c26.542-26.543,26.599-75.482,0.159-137.802C469.069,325.04,451.517,294.361,429.834,263.62z M474.663,185.01
		c-9.19,0-16.667-7.477-16.667-16.668c0-9.191,7.477-16.667,16.667-16.667c9.191,0,16.668,7.477,16.668,16.667
		C491.332,177.532,483.854,185.01,474.663,185.01z M349.839,49.919c55.012-23.34,98.744-24.545,119.985-3.304
		c16.98,16.979,19.746,48.503,7.895,88.974c-1.007-0.093-2.025-0.147-3.056-0.147c-18.141,0-32.898,14.758-32.898,32.898
		c0,10.184,4.652,19.302,11.942,25.341c-9.495,18.272-20.941,37.072-34.014,55.95c-20.687-27.737-44.623-55.35-71.079-81.806
		c-26.53-26.531-54.145-50.469-81.858-71.14C295.002,77.142,323.083,61.271,349.839,49.919z M409.787,263.519
		c-21.071,28.744-45.686,57.403-72.652,84.368c-27.283,27.283-55.775,51.797-84.291,72.706
		c-28.515-20.91-57.008-45.424-84.29-72.706c-27.283-27.283-51.799-55.776-72.709-84.292c20.91-28.516,45.425-57.009,72.709-84.292
		c27.289-27.289,55.786-51.806,84.307-72.719c28.466,20.881,56.932,45.378,84.274,72.719
		C364.395,206.562,388.889,235.029,409.787,263.519z M131.161,16.231c9.191,0,16.668,7.477,16.668,16.667
		c0,9.191-7.477,16.668-16.668,16.668c-9.19,0-16.666-7.477-16.666-16.668C114.494,23.708,121.97,16.231,131.161,16.231z
		 M39.169,166.6C15.83,111.587,14.625,67.854,35.865,46.615c16.141-16.14,41.969-16.72,62.401-13.804
		c0,0.029-0.002,0.058-0.002,0.089c0,18.141,14.758,32.899,32.897,32.899c11.419,0,21.494-5.851,27.396-14.71
		c25.972,11.261,53.108,26.689,80.417,45.59c-27.767,20.703-55.413,44.664-81.898,71.148c-26.477,26.477-50.431,54.114-71.13,81.874
		C66.398,221.447,50.524,193.362,39.169,166.6z M155.85,477.271c-55.014,23.339-98.745,24.544-119.985,3.304
		s-20.036-64.972,3.305-119.984c11.353-26.761,27.228-54.847,46.777-83.099c20.699,27.759,44.653,55.397,71.13,81.874
		s54.113,50.431,81.873,71.129C210.697,450.043,182.611,465.917,155.85,477.271z M469.825,480.574
		c-21.239,21.24-64.972,20.037-119.985-3.304c-26.761-11.354-54.847-27.228-83.099-46.777
		c27.759-20.699,55.396-44.653,81.873-71.129c26.542-26.542,50.453-54.095,71.143-81.854c19.543,28.245,35.413,56.324,46.764,83.079
		C489.859,415.602,491.065,459.335,469.825,480.574z"/>
</g>
<g>
</g>
<g>
</g>
<g>
</g>
<g>
</g>
<g>
</g>
<g>
</g>
<g>
</g>
<g>
</g>
<g>
</g>
<g>
</g>
<g>
</g>
<g>
</g>
<g>
</g>
<g>
</g>
<g>
</g>
</svg>
