<?xml version="1.0" encoding="iso-8859-1"?>
<!-- Generator: Adobe Illustrator 19.0.0, SVG Export Plug-In . SVG Version: 6.00 Build 0)  -->
<svg version="1.1" id="Layer_1" xmlns="http://www.w3.org/2000/svg" xmlns:xlink="http://www.w3.org/1999/xlink" x="0px" y="0px"
	 viewBox="0 0 511.999 511.999" style="enable-background:new 0 0 511.999 511.999;" xml:space="preserve">
<g>
	<path style="fill:#90C8EC;" d="M485.283,175.778H345.539v160.445h139.745c10.291,0,18.633-8.341,18.633-18.631V194.41
		C503.916,184.119,495.574,175.778,485.283,175.778z"/>
	<path style="fill:#90C8EC;" d="M26.717,175.778H166.46v160.445H26.717c-10.291,0-18.632-8.341-18.632-18.631V194.41
		C8.084,184.119,16.426,175.778,26.717,175.778z"/>
</g>
<g>
	<rect x="345.541" y="175.783" style="fill:#C1E7F7;" width="79.193" height="160.445"/>
	<rect x="87.272" y="175.783" style="fill:#C1E7F7;" width="79.193" height="160.445"/>
</g>
<path style="fill:#3A5D74;" d="M345.539,347.092c0,10.293-8.341,18.634-18.633,18.634H185.094c-10.292,0-18.632-8.341-18.632-18.634
	V164.909c0-10.291,8.341-18.631,18.632-18.631h141.812c10.292,0,18.633,8.341,18.633,18.631V347.092z"/>
<g>
	<path style="fill:#578CAD;" d="M282.469,289.508c-7.276,5.755-16.47,9.19-26.468,9.19c-23.583,0-42.701-19.118-42.701-42.699
		s19.118-42.699,42.701-42.699c23.582,0,42.7,19.118,42.7,42.699c0,3.602-0.446,7.101-1.286,10.443"/>
	<path style="fill:#578CAD;" d="M256.001,146.277c29.728,0,53.826-24.101,53.826-53.829H202.174
		C202.174,122.177,226.272,146.277,256.001,146.277z"/>
	<path style="fill:#578CAD;" d="M256.001,365.726c29.728,0,53.826,24.098,53.826,53.828H202.174
		C202.174,389.824,226.272,365.726,256.001,365.726z"/>
</g>
<g style="opacity:0.2;">
	<path style="fill:#231F20;" d="M33.447,317.591V194.41c0-10.291,8.342-18.631,18.632-18.631H26.717
		c-10.291,0-18.632,8.341-18.632,18.631V317.59c0,10.291,8.342,18.631,18.632,18.631H52.08
		C41.789,336.223,33.447,327.881,33.447,317.591z"/>
</g>
<g style="opacity:0.2;">
	<path style="fill:#231F20;" d="M191.824,347.092V164.909c0-10.291,8.341-18.631,18.632-18.631h-25.363
		c-10.292,0-18.632,8.341-18.632,18.631v182.184c0,10.293,8.341,18.634,18.632,18.634h25.363
		C200.165,365.726,191.824,357.385,191.824,347.092z"/>
</g>
<g style="opacity:0.2;">
	<path style="fill:#231F20;" d="M238.663,255.999c0-19.165,12.629-35.382,30.019-40.783c-4.007-1.245-8.265-1.915-12.681-1.915
		c-23.583,0-42.701,19.118-42.701,42.699c0,23.581,19.118,42.699,42.701,42.699c4.415,0,8.672-0.672,12.678-1.915
		C251.291,291.38,238.663,275.163,238.663,255.999z"/>
</g>
<g style="opacity:0.2;">
	<path style="fill:#231F20;" d="M227.538,92.448h-25.363c0,29.728,24.096,53.829,53.826,53.829c4.371,0,8.613-0.534,12.683-1.517
		C245.076,139.058,227.538,117.806,227.538,92.448z"/>
</g>
<g style="opacity:0.2;">
	<path style="fill:#231F20;" d="M268.684,367.243c-4.068-0.983-8.312-1.517-12.682-1.517c-29.729,0-53.826,24.098-53.826,53.828
		h25.363C227.538,394.195,245.076,372.946,268.684,367.243z"/>
</g>
<g>
	<path style="fill:#231F20;" d="M202.174,65.336h107.653c4.466,0,8.084-3.618,8.084-8.084s-3.618-8.084-8.084-8.084H202.174
		c-4.466,0-8.084,3.618-8.084,8.084S197.71,65.336,202.174,65.336z"/>
	<path style="fill:#231F20;" d="M309.828,446.663H202.175c-4.466,0-8.084,3.618-8.084,8.084s3.618,8.084,8.084,8.084h107.653
		c4.466,0,8.084-3.618,8.084-8.084S314.293,446.663,309.828,446.663z"/>
	<path style="fill:#231F20;" d="M485.283,167.694h-60.556h-71.104v-2.785c0-14.732-11.985-26.716-26.717-26.716h-29.231
		c12.426-11.331,20.236-27.643,20.236-45.745c0-4.466-3.618-8.084-8.084-8.084H202.174c-4.466,0-8.084,3.618-8.084,8.084
		c0,18.102,7.81,34.414,20.236,45.745h-29.234c-14.732,0-26.717,11.984-26.717,26.716v2.785H87.272H26.717
		C11.985,167.694,0,179.678,0,194.41V317.59c0,14.732,11.985,26.716,26.717,26.716h60.555h71.105v2.785
		c0,14.733,11.985,26.718,26.717,26.718h29.232c-12.426,11.331-20.236,27.642-20.236,45.744c0,4.466,3.618,8.084,8.084,8.084
		h107.653c0.008,0,0.015,0,0.021,0c4.466,0,8.084-3.618,8.084-8.084c0-0.215-0.008-0.427-0.024-0.638
		c-0.181-17.849-7.958-33.907-20.241-45.106h29.238c14.732,0,26.717-11.985,26.717-26.718v-2.785h71.104h60.556
		c14.732,0,26.717-11.984,26.717-26.716V194.41C512,179.678,500.015,167.694,485.283,167.694z M210.973,100.533h90.055
		c-3.829,21.382-22.563,37.661-45.027,37.661S214.802,121.914,210.973,100.533z M16.168,317.591V194.41
		c0-5.816,4.732-10.547,10.548-10.547h52.471v144.276H26.717C20.9,328.139,16.168,323.407,16.168,317.591z M95.356,328.139V183.862
		h63.021v144.276H95.356z M301.027,411.469h-90.053c3.828-21.381,22.561-37.659,45.027-37.659S297.2,390.087,301.027,411.469z
		 M337.454,347.092c0,5.816-4.732,10.549-10.548,10.549H185.094c-5.816,0-10.548-4.733-10.548-10.549v-10.869V175.778v-10.869
		c0-5.816,4.732-10.547,10.548-10.547h141.812c5.817,0,10.548,4.732,10.548,10.547v10.869v160.445V347.092z M353.623,328.139
		V183.862h63.02v144.276H353.623z M495.832,317.591c0,5.816-4.732,10.547-10.548,10.547h-52.472V183.862h52.472
		c5.817,0,10.548,4.732,10.548,10.547V317.591z"/>
	<path style="fill:#231F20;" d="M256.001,205.217c-28.003,0-50.785,22.781-50.785,50.783c0,28.002,22.782,50.783,50.785,50.783
		c11.553,0,22.439-3.781,31.482-10.934c3.502-2.77,4.096-7.855,1.327-11.356c-2.769-3.502-7.854-4.095-11.356-1.326
		c-6.16,4.873-13.578,7.447-21.452,7.447c-19.087,0-34.617-15.528-34.617-34.614s15.529-34.614,34.617-34.614
		s34.615,15.528,34.615,34.614c0,2.869-0.35,5.72-1.042,8.472c-1.089,4.331,1.539,8.722,5.869,9.811
		c4.324,1.085,8.722-1.539,9.811-5.869c1.015-4.04,1.531-8.216,1.531-12.414C306.785,227.997,284.003,205.217,256.001,205.217z"/>
</g>
<g>
</g>
<g>
</g>
<g>
</g>
<g>
</g>
<g>
</g>
<g>
</g>
<g>
</g>
<g>
</g>
<g>
</g>
<g>
</g>
<g>
</g>
<g>
</g>
<g>
</g>
<g>
</g>
<g>
</g>
</svg>
