<?xml version="1.0" encoding="iso-8859-1"?>
<!-- Generator: Adobe Illustrator 19.0.0, SVG Export Plug-In . SVG Version: 6.00 Build 0)  -->
<svg version="1.1" id="Layer_1" xmlns="http://www.w3.org/2000/svg" xmlns:xlink="http://www.w3.org/1999/xlink" x="0px" y="0px"
	 viewBox="0 0 512 512" style="enable-background:new 0 0 512 512;" xml:space="preserve">
<polygon style="fill:#FFD960;" points="282.242,8.084 230.835,8.084 106.463,8.084 174.453,147.382 230.835,147.382 
	282.242,147.382 338.625,147.382 406.614,8.084 "/>
<polygon style="fill:#FF9737;" points="264.184,8.084 247.817,8.084 208.22,8.084 229.866,147.382 247.817,147.382 264.184,147.382 
	282.135,147.382 303.78,8.084 "/>
<path style="fill:#3A5D74;" d="M376.582,220.87c0.156,0,0.305,0.019,0.461,0.023v-53.614c0-10.987-8.911-19.897-19.899-19.897
	H155.934c-10.988,0-19.899,8.91-19.899,19.897v53.592H376.582z"/>
<polyline style="fill:#90C8EC;" points="338.403,265.092 364.064,265.092 432.159,265.092 432.159,342.561 364.064,503.916 
	147.936,503.916 79.841,342.561 79.841,265.092 147.936,265.092 201.228,265.092 310.771,265.092 "/>
<g>
	<circle style="fill:#578CAD;" cx="256" cy="394.1" r="32.617"/>
	<path style="fill:#578CAD;" d="M133.286,265.092c-10.99,0-19.901-8.91-19.901-19.899v-4.422c0-10.993,8.911-19.901,19.901-19.901
		h245.427c10.991,0,19.901,8.908,19.901,19.901v4.422c0,10.989-8.91,19.899-19.901,19.899"/>
</g>
<g style="opacity:0.2;">
	<polygon style="fill:#231F20;" points="106.463,8.084 174.453,147.382 201.67,147.382 133.679,8.084 	"/>
</g>
<g style="opacity:0.2;">
	<path style="fill:#231F20;" d="M180.995,147.382h-25.061c-10.988,0-19.899,8.91-19.899,19.897v53.592h25.061v-53.592
		C161.096,156.291,170.007,147.382,180.995,147.382z"/>
	<path style="fill:#231F20;" d="M376.582,220.87c0.156,0,0.305,0.019,0.461,0.023v-0.023H376.582z"/>
</g>
<g style="opacity:0.2;">
	<polygon style="fill:#231F20;" points="172.997,499.604 104.902,338.25 104.902,265.092 79.841,265.092 79.841,342.561 
		147.936,503.916 364.064,503.916 365.883,499.604 	"/>
</g>
<g style="opacity:0.2;">
	<path style="fill:#231F20;" d="M248.447,394.099c0-13.57,8.291-25.201,20.083-30.114c-3.858-1.607-8.09-2.497-12.531-2.497
		c-18.012,0-32.614,14.601-32.614,32.612c0,18.012,14.602,32.616,32.614,32.616c4.441,0,8.673-0.89,12.531-2.499
		C256.739,419.303,248.447,407.671,248.447,394.099z"/>
</g>
<g style="opacity:0.2;">
	<path style="fill:#231F20;" d="M138.446,245.193v-4.422c0-10.993,8.911-19.901,19.901-19.901h-25.061
		c-10.99,0-19.901,8.908-19.901,19.901v4.422c0,10.989,8.911,19.899,19.901,19.899h25.061
		C147.357,265.092,138.446,256.182,138.446,245.193z"/>
</g>
<g>
	<path style="fill:#231F20;" d="M432.159,257.008h-28.086c1.68-3.593,2.625-7.594,2.625-11.815v-4.422
		c0-13.417-9.491-24.653-22.111-27.36v-46.133c0-15.428-12.554-27.981-27.983-27.981h-5.577L413.34,11.63
		c1.223-2.506,1.068-5.465-0.409-7.83C411.455,1.437,408.864,0,406.075,0H303.78h-95.56H105.924c-2.789,0-5.379,1.437-6.856,3.801
		c-1.477,2.364-1.632,5.323-0.409,7.83l62.313,127.667h-5.577c-15.429,0-27.983,12.553-27.983,27.981v46.133
		c-12.62,2.708-22.111,13.944-22.111,27.36v4.422c0,4.221,0.944,8.222,2.625,11.815H79.841c-4.466,0-8.084,3.618-8.084,8.084v77.469
		c0,1.08,0.216,2.148,0.636,3.143l68.095,161.354c1.264,2.994,4.198,4.941,7.448,4.941h216.129c3.251,0,6.184-1.947,7.448-4.941
		l68.095-161.354c0.42-0.995,0.636-2.063,0.636-3.143v-77.469C440.243,260.626,436.624,257.008,432.159,257.008z M333.037,139.297
		h-41.464l19.133-123.129h82.43L333.037,139.297z M294.342,16.168l-19.133,123.129h-38.417L217.658,16.168H294.342z M118.865,16.168
		h82.43l19.134,123.129h-41.466L118.865,16.168z M143.58,167.278c0-6.514,5.3-11.813,11.815-11.813h18.519h55.952h52.268h55.951
		h18.519c6.515,0,11.815,5.299,11.815,11.813v45.508H143.58V167.278z M424.075,340.925l-65.374,154.906H153.299L87.925,340.925
		v-67.75h222.846c4.466,0,8.084-3.618,8.084-8.084s-3.618-8.084-8.084-8.084H133.286c-6.516,0-11.817-5.3-11.817-11.815v-4.422
		c0-6.516,5.301-11.817,11.817-11.817h2.21h240.359c0.142,0.01,0.286,0.016,0.43,0.02c0.073,0.002,0.147,0.003,0.219,0.003
		c0.16,0,0.318-0.014,0.476-0.023h1.733c6.516,0,11.817,5.301,11.817,11.817v4.422c0,6.515-5.301,11.815-11.817,11.815h-40.311
		c-4.465,0-8.084,3.618-8.084,8.084c0,4.466,3.62,8.084,8.084,8.084h85.672v67.749H424.075z"/>
	<path style="fill:#231F20;" d="M256,353.403c-22.441,0-40.698,18.256-40.698,40.696c0,22.442,18.257,40.7,40.698,40.7
		s40.698-18.257,40.698-40.7C296.698,371.659,278.441,353.403,256,353.403z M256,418.631c-13.525,0-24.53-11.005-24.53-24.532
		c0-13.524,11.004-24.527,24.53-24.527s24.53,11.003,24.53,24.527C280.53,407.625,269.525,418.631,256,418.631z"/>
</g>
<g>
</g>
<g>
</g>
<g>
</g>
<g>
</g>
<g>
</g>
<g>
</g>
<g>
</g>
<g>
</g>
<g>
</g>
<g>
</g>
<g>
</g>
<g>
</g>
<g>
</g>
<g>
</g>
<g>
</g>
</svg>
