<?xml version="1.0" encoding="iso-8859-1"?>
<!-- Generator: Adobe Illustrator 19.0.0, SVG Export Plug-In . SVG Version: 6.00 Build 0)  -->
<svg version="1.1" id="Layer_1" xmlns="http://www.w3.org/2000/svg" xmlns:xlink="http://www.w3.org/1999/xlink" x="0px" y="0px"
	 viewBox="0 0 512 512" style="enable-background:new 0 0 512 512;" xml:space="preserve">
<path style="fill:#90C8EC;" d="M256,49.682C142.236,49.682,49.683,142.237,49.683,256S142.236,462.318,256,462.318
	c113.763,0,206.318-92.555,206.318-206.318S369.763,49.682,256,49.682z"/>
<g style="opacity:0.2;">
	<path style="fill:#231F20;" d="M73.627,256c0-109.744,86.132-199.739,194.344-205.962c-3.963-0.227-7.953-0.356-11.971-0.356
		C142.236,49.682,49.683,142.237,49.683,256S142.236,462.318,256,462.318c4.019,0,8.009-0.128,11.971-0.356
		C159.759,455.739,73.627,365.744,73.627,256z"/>
</g>
<path style="fill:#FF4D30;" d="M433.75,428.655c-45.078,46.396-108.106,75.261-177.75,75.261
	C119.298,503.916,8.084,392.702,8.084,256C8.084,119.299,119.298,8.084,256,8.084c136.701,0,247.916,111.215,247.916,247.916
	c0,57.885-19.94,111.202-53.315,153.436 M256,49.682C142.236,49.682,49.683,142.237,49.683,256S142.236,462.318,256,462.318
	c113.763,0,206.318-92.555,206.318-206.318S369.763,49.682,256,49.682z"/>
<g style="opacity:0.2;">
	<path style="fill:#231F20;" d="M34.221,256c0-132.317,104.197-240.752,234.847-247.572C264.74,8.203,260.383,8.084,256,8.084
		C119.298,8.084,8.084,119.299,8.084,256c0,136.702,111.214,247.916,247.916,247.916c4.39,0,8.755-0.116,13.091-0.343
		C138.43,496.765,34.221,388.326,34.221,256z"/>
</g>
<g>
	<path style="fill:#231F20;" d="M256,0C114.841,0,0,114.841,0,256s114.841,256,256,256c35.152,0,69.233-7.03,101.297-20.896
		c30.956-13.387,58.63-32.503,82.252-56.816c3.112-3.202,3.038-8.321-0.164-11.431c-3.205-3.112-8.322-3.035-11.431,0.164
		C382.334,469.974,321.267,495.832,256,495.832C123.756,495.832,16.168,388.244,16.168,256S123.756,16.168,256,16.168
		c132.243,0,239.832,107.588,239.832,239.832c0,54.405-17.834,105.729-51.574,148.423c-2.767,3.503-2.173,8.588,1.33,11.356
		c3.502,2.766,8.585,2.174,11.356-1.33C492.962,368.87,512,314.079,512,256C512,114.841,397.159,0,256,0z"/>
	<path style="fill:#231F20;" d="M106.54,409.559c0.014,0.014,0.026,0.03,0.041,0.044c0.057,0.055,0.115,0.109,0.172,0.164
		c1.103,1.07,2.218,2.129,3.344,3.177c0.174,0.161,0.346,0.323,0.52,0.484c1.046,0.966,2.101,1.921,3.166,2.866
		c0.287,0.254,0.572,0.51,0.86,0.763c0.922,0.81,1.852,1.61,2.787,2.405c0.458,0.389,0.916,0.779,1.376,1.164
		c0.747,0.623,1.499,1.24,2.255,1.853c0.672,0.546,1.345,1.092,2.022,1.63c0.535,0.424,1.073,0.842,1.61,1.26
		c0.917,0.715,1.839,1.424,2.766,2.122c0.295,0.222,0.594,0.442,0.89,0.663c1.179,0.877,2.364,1.745,3.558,2.597
		c0.052,0.037,0.103,0.073,0.155,0.11c24.229,17.258,51.595,29.175,80.578,35.134c0.11,0.023,0.221,0.046,0.331,0.069
		c1.547,0.316,3.099,0.613,4.654,0.895c0.24,0.044,0.481,0.089,0.722,0.133c1.433,0.254,2.869,0.49,4.309,0.716
		c0.355,0.056,0.708,0.114,1.064,0.168c1.334,0.202,2.673,0.386,4.013,0.563c0.453,0.06,0.904,0.124,1.359,0.181
		c1.254,0.157,2.51,0.296,3.768,0.432c0.536,0.057,1.069,0.122,1.605,0.175c1.195,0.12,2.395,0.221,3.595,0.32
		c0.593,0.05,1.184,0.106,1.779,0.151c1.179,0.088,2.361,0.156,3.543,0.225c0.611,0.036,1.22,0.08,1.832,0.111
		c1.235,0.061,2.475,0.101,3.713,0.141c0.558,0.018,1.115,0.046,1.675,0.06c1.795,0.044,3.593,0.068,5.394,0.068
		s3.599-0.024,5.394-0.068c0.561-0.014,1.117-0.042,1.676-0.06c1.238-0.04,2.477-0.08,3.712-0.141
		c0.613-0.03,1.222-0.075,1.833-0.111c1.181-0.069,2.364-0.137,3.542-0.225c0.595-0.044,1.186-0.101,1.78-0.151
		c1.2-0.099,2.398-0.201,3.594-0.32c0.537-0.054,1.071-0.117,1.607-0.176c1.257-0.135,2.514-0.275,3.766-0.431
		c0.455-0.057,0.908-0.122,1.362-0.182c1.339-0.177,2.676-0.361,4.01-0.563c0.357-0.054,0.711-0.113,1.068-0.168
		c1.438-0.224,2.874-0.461,4.304-0.715c0.244-0.043,0.485-0.089,0.729-0.134c1.553-0.281,3.102-0.578,4.647-0.892
		c0.113-0.023,0.226-0.047,0.34-0.071c28.958-5.954,56.302-17.856,80.513-35.092c0.083-0.059,0.167-0.118,0.251-0.178
		c1.161-0.829,2.314-1.672,3.461-2.525c0.331-0.246,0.662-0.489,0.991-0.737c0.894-0.674,1.782-1.357,2.667-2.046
		c0.572-0.444,1.144-0.888,1.712-1.339c0.643-0.511,1.283-1.029,1.921-1.548c0.791-0.641,1.578-1.286,2.359-1.939
		c0.425-0.355,0.846-0.714,1.268-1.073c0.974-0.827,1.942-1.66,2.902-2.504c0.248-0.219,0.495-0.439,0.743-0.659
		c1.105-0.981,2.2-1.971,3.284-2.974c0.134-0.124,0.267-0.249,0.401-0.374c1.167-1.084,2.322-2.182,3.464-3.292
		c0.04-0.038,0.08-0.074,0.12-0.113c0.01-0.01,0.018-0.022,0.028-0.031c40.041-38.975,64.955-93.415,64.955-153.572
		S445.487,141.4,405.448,102.426c-0.01-0.01-0.018-0.022-0.029-0.031c-0.04-0.039-0.082-0.077-0.122-0.115
		c-1.14-1.108-2.294-2.203-3.459-3.287c-0.136-0.126-0.272-0.253-0.407-0.379c-1.081-1-2.174-1.989-3.277-2.966
		c-0.251-0.223-0.501-0.446-0.752-0.668c-0.956-0.841-1.921-1.671-2.891-2.494c-0.425-0.361-0.849-0.722-1.277-1.08
		c-0.779-0.651-1.564-1.293-2.352-1.933c-0.64-0.521-1.282-1.04-1.928-1.553c-0.565-0.448-1.134-0.89-1.704-1.333
		c-0.887-0.69-1.777-1.375-2.673-2.051c-0.327-0.246-0.655-0.488-0.983-0.732c-1.149-0.855-2.305-1.7-3.469-2.531
		c-0.081-0.057-0.162-0.114-0.243-0.172c-24.214-17.237-51.559-29.14-80.519-35.095c-0.113-0.024-0.226-0.047-0.34-0.071
		c-1.545-0.315-3.094-0.611-4.647-0.892c-0.243-0.044-0.485-0.089-0.729-0.134c-1.431-0.253-2.866-0.49-4.304-0.715
		c-0.356-0.056-0.711-0.114-1.068-0.168c-1.333-0.202-2.671-0.386-4.01-0.563c-0.454-0.06-0.908-0.124-1.362-0.182
		c-1.253-0.157-2.509-0.296-3.766-0.431c-0.536-0.058-1.07-0.122-1.607-0.176c-1.195-0.12-2.394-0.221-3.594-0.32
		c-0.594-0.05-1.185-0.106-1.78-0.151c-1.178-0.088-2.359-0.156-3.542-0.225c-0.611-0.036-1.221-0.08-1.833-0.111
		c-1.235-0.061-2.474-0.101-3.712-0.141c-0.559-0.018-1.116-0.046-1.676-0.06c-1.795-0.044-3.593-0.068-5.394-0.068
		s-3.599,0.024-5.394,0.068c-0.559,0.014-1.116,0.042-1.675,0.06c-1.238,0.04-2.478,0.08-3.713,0.141
		c-0.612,0.03-1.221,0.075-1.832,0.111c-1.182,0.069-2.364,0.137-3.543,0.225c-0.594,0.044-1.186,0.101-1.779,0.151
		c-1.2,0.099-2.399,0.2-3.595,0.32c-0.537,0.054-1.07,0.117-1.605,0.175c-1.258,0.135-2.515,0.275-3.768,0.432
		c-0.454,0.057-0.905,0.122-1.359,0.181c-1.34,0.177-2.679,0.361-4.013,0.563c-0.356,0.054-0.709,0.112-1.064,0.168
		c-1.44,0.225-2.877,0.461-4.309,0.716c-0.241,0.043-0.482,0.088-0.722,0.133c-1.555,0.281-3.108,0.579-4.654,0.895
		c-0.111,0.023-0.221,0.046-0.331,0.069c-28.985,5.96-56.352,17.877-80.582,35.137c-0.05,0.034-0.099,0.069-0.148,0.105
		c-1.196,0.854-2.384,1.722-3.566,2.603c-0.294,0.219-0.59,0.437-0.883,0.658c-0.93,0.701-1.853,1.411-2.773,2.128
		c-0.536,0.416-1.071,0.832-1.603,1.254c-0.68,0.54-1.355,1.087-2.03,1.635c-0.752,0.611-1.503,1.226-2.247,1.846
		c-0.463,0.388-0.925,0.78-1.386,1.173c-0.932,0.791-1.858,1.589-2.777,2.396c-0.291,0.257-0.58,0.514-0.87,0.773
		c-1.062,0.943-2.115,1.895-3.157,2.859c-0.176,0.163-0.35,0.327-0.526,0.489c-1.123,1.046-2.237,2.102-3.337,3.171
		c-0.058,0.056-0.117,0.11-0.175,0.166c-0.015,0.014-0.027,0.03-0.041,0.045c-29.315,28.54-50.512,65.372-59.762,106.672
		c-0.941,1.322-1.499,2.933-1.499,4.679c0,0.579,0.064,1.143,0.179,1.687c-2.521,13.127-3.858,26.669-3.858,40.52
		C41.599,316.151,66.508,370.585,106.54,409.559z M125.329,404.931c39.202-24.34,84.16-37.154,130.671-37.154
		s91.469,12.814,130.67,37.154c-1.115,0.981-2.239,1.947-3.372,2.9c-0.028,0.024-0.056,0.047-0.085,0.072
		c-0.986,0.829-1.983,1.643-2.984,2.451c-0.275,0.221-0.548,0.444-0.824,0.664c-0.79,0.632-1.586,1.253-2.384,1.871
		c-0.524,0.405-1.049,0.81-1.577,1.209c-0.587,0.445-1.177,0.886-1.768,1.325c-0.78,0.578-1.564,1.151-2.354,1.718
		c-0.372,0.267-0.744,0.534-1.118,0.799c-1.061,0.75-2.128,1.493-3.205,2.223c-0.128,0.087-0.255,0.175-0.384,0.262
		c-23.639,15.955-50.887,26.951-80.241,31.484c-0.272,0.042-0.545,0.08-0.817,0.121c-1.272,0.191-2.548,0.371-3.828,0.537
		c-0.447,0.058-0.896,0.112-1.343,0.167c-1.115,0.137-2.232,0.266-3.353,0.385c-0.537,0.057-1.074,0.112-1.61,0.164
		c-1.046,0.102-2.093,0.194-3.143,0.28c-0.581,0.047-1.161,0.096-1.743,0.138c-1.03,0.075-2.065,0.138-3.1,0.197
		c-0.584,0.033-1.168,0.071-1.754,0.099c-1.098,0.053-2.201,0.091-3.304,0.126c-0.513,0.016-1.025,0.04-1.539,0.052
		c-1.61,0.039-3.225,0.061-4.845,0.061c-1.62,0-3.235-0.023-4.845-0.061c-0.513-0.012-1.025-0.036-1.538-0.052
		c-1.104-0.036-2.206-0.073-3.305-0.126c-0.585-0.028-1.168-0.066-1.753-0.099c-1.036-0.059-2.071-0.122-3.102-0.197
		c-0.581-0.042-1.16-0.091-1.74-0.137c-1.051-0.086-2.101-0.178-3.146-0.28c-0.536-0.053-1.071-0.107-1.606-0.164
		c-1.123-0.119-2.243-0.247-3.36-0.385c-0.445-0.055-0.891-0.109-1.335-0.166c-1.284-0.167-2.562-0.347-3.838-0.539
		c-0.268-0.04-0.538-0.078-0.806-0.119c-29.366-4.536-56.626-15.538-80.272-31.504c-0.101-0.069-0.203-0.138-0.304-0.207
		c-1.105-0.749-2.2-1.511-3.29-2.282c-0.347-0.246-0.692-0.494-1.037-0.742c-0.818-0.586-1.63-1.181-2.438-1.78
		c-0.565-0.418-1.127-0.84-1.688-1.264c-0.558-0.423-1.111-0.849-1.665-1.277c-0.769-0.595-1.535-1.194-2.296-1.802
		c-0.309-0.247-0.615-0.496-0.924-0.744c-0.967-0.781-1.931-1.569-2.884-2.37c-0.066-0.055-0.132-0.111-0.197-0.166
		C127.521,406.836,126.42,405.891,125.329,404.931z M451.344,289.77H154.715c-4.465,0-8.084,3.618-8.084,8.084
		c0,4.466,3.62,8.084,8.084,8.084h293.144c-8.695,33.382-25.897,63.365-49.139,87.493c-42.584-27.379-91.778-41.823-142.72-41.823
		s-100.134,14.445-142.719,41.822c-34.354-35.663-55.514-84.12-55.514-137.432c0-11.634,1.016-23.034,2.949-34.123h185.818
		c4.465,0,8.084-3.618,8.084-8.084c0-4.466-3.62-8.084-8.084-8.084H64.238c8.724-33.241,25.883-63.097,49.043-87.139
		c42.584,27.377,91.777,41.822,142.719,41.822s100.135-14.445,142.72-41.823c34.355,35.663,55.515,84.12,55.515,137.432
		C454.233,267.511,453.236,278.792,451.344,289.77z M128.829,104.062c0.952-0.8,1.914-1.586,2.879-2.366
		c0.31-0.25,0.619-0.501,0.93-0.75c0.759-0.606,1.523-1.203,2.288-1.797c0.555-0.43,1.112-0.859,1.673-1.283
		c0.558-0.424,1.119-0.842,1.682-1.259c0.812-0.6,1.625-1.196,2.446-1.785c0.343-0.247,0.686-0.492,1.03-0.736
		c1.092-0.773,2.19-1.537,3.298-2.288c0.098-0.067,0.197-0.135,0.295-0.202c23.647-15.967,50.908-26.97,80.275-31.506
		c0.268-0.041,0.538-0.079,0.806-0.119c1.275-0.192,2.555-0.372,3.838-0.539c0.445-0.057,0.89-0.112,1.336-0.166
		c1.117-0.138,2.237-0.266,3.36-0.385c0.535-0.056,1.07-0.111,1.606-0.164c1.047-0.102,2.095-0.194,3.146-0.28
		c0.58-0.047,1.159-0.095,1.74-0.137c1.032-0.075,2.066-0.138,3.102-0.197c0.584-0.033,1.167-0.07,1.753-0.099
		c1.098-0.053,2.201-0.091,3.305-0.126c0.513-0.016,1.024-0.04,1.538-0.052c1.61-0.039,3.225-0.061,4.845-0.061
		c1.62,0,3.235,0.023,4.845,0.061c0.514,0.012,1.026,0.036,1.539,0.052c1.103,0.036,2.205,0.073,3.304,0.126
		c0.585,0.028,1.17,0.066,1.754,0.099c1.035,0.059,2.07,0.122,3.1,0.197c0.582,0.042,1.162,0.091,1.743,0.138
		c1.05,0.086,2.098,0.178,3.143,0.28c0.537,0.053,1.074,0.107,1.61,0.164c1.12,0.119,2.238,0.247,3.353,0.385
		c0.448,0.055,0.896,0.109,1.343,0.167c1.279,0.167,2.556,0.346,3.828,0.537c0.273,0.041,0.545,0.079,0.817,0.121
		c29.355,4.534,56.605,15.529,80.244,31.486c0.125,0.085,0.25,0.17,0.376,0.255c1.079,0.732,2.149,1.477,3.212,2.229
		c0.371,0.263,0.741,0.528,1.11,0.793c0.792,0.568,1.578,1.144,2.362,1.724c0.589,0.437,1.176,0.875,1.761,1.319
		c0.53,0.402,1.057,0.808,1.585,1.215c0.796,0.617,1.59,1.236,2.377,1.866c0.278,0.222,0.554,0.446,0.831,0.669
		c0.998,0.807,1.993,1.619,2.977,2.447c0.03,0.025,0.059,0.051,0.089,0.075c1.132,0.953,2.255,1.918,3.368,2.897
		c-39.201,24.34-84.159,37.154-130.67,37.154s-91.469-12.814-130.671-37.154c1.09-0.959,2.19-1.904,3.298-2.836
		C128.694,104.176,128.761,104.119,128.829,104.062z"/>
	<path style="fill:#231F20;" d="M285.37,205.709h-10.852c-4.466,0-8.084,3.618-8.084,8.084c0,4.466,3.618,8.084,8.084,8.084h10.852
		c4.466,0,8.084-3.618,8.084-8.084C293.455,209.327,289.836,205.709,285.37,205.709z"/>
</g>
<g>
</g>
<g>
</g>
<g>
</g>
<g>
</g>
<g>
</g>
<g>
</g>
<g>
</g>
<g>
</g>
<g>
</g>
<g>
</g>
<g>
</g>
<g>
</g>
<g>
</g>
<g>
</g>
<g>
</g>
</svg>
