<?xml version="1.0" encoding="iso-8859-1"?>
<!-- Generator: Adobe Illustrator 19.0.0, SVG Export Plug-In . SVG Version: 6.00 Build 0)  -->
<svg version="1.1" id="Layer_1" xmlns="http://www.w3.org/2000/svg" xmlns:xlink="http://www.w3.org/1999/xlink" x="0px" y="0px"
	 viewBox="0 0 511.999 511.999" style="enable-background:new 0 0 511.999 511.999;" xml:space="preserve">
<polyline style="fill:#90C8EC;" points="388.867,277.492 388.867,219.059 337.508,97.356 174.491,97.356 123.132,219.059 
	123.132,277.492 "/>
<circle style="fill:#578CAD;" cx="256.002" cy="200.133" r="32.937"/>
<g>
	<path style="fill:#3A5D74;" d="M400.035,399.012c0,11.099-8.998,20.098-20.098,20.098H132.062
		c-11.099,0-20.098-8.999-20.098-20.098v-4.464c0-11.102,8.999-20.1,20.098-20.1h247.873c11.1,0,20.098,8.998,20.098,20.1v4.464
		H400.035z"/>
	<path style="fill:#3A5D74;" d="M309.035,97.356V68.326c0-11.098-8.999-20.099-20.098-20.099h-65.875
		c-11.101,0-20.098,9.001-20.098,20.099v29.031H309.035z"/>
</g>
<path style="fill:#578CAD;" d="M331.794,277.492H54.242c-25.469,0-46.115,20.646-46.115,46.116v30.742
	c0,11.1,8.997,20.098,20.098,20.098h455.552c11.098,0,20.097-8.998,20.097-20.098v-30.742c0-25.47-20.647-46.116-46.116-46.116
	h-99.957"/>
<g style="opacity:0.2;">
	<polygon style="fill:#231F20;" points="148.775,223.393 200.135,101.691 339.336,101.691 337.508,97.356 174.491,97.356 
		123.132,219.059 123.132,277.492 148.775,277.492 	"/>
</g>
<g style="opacity:0.2;">
	<path style="fill:#231F20;" d="M248.707,200.133c0-13.642,8.295-25.348,20.115-30.349c-3.941-1.667-8.273-2.59-12.821-2.59
		c-18.193,0-32.938,14.748-32.938,32.938s14.746,32.936,32.938,32.936c4.548,0,8.88-0.922,12.821-2.589
		C257.001,225.48,248.707,213.775,248.707,200.133z"/>
</g>
<g style="opacity:0.2;">
	<path style="fill:#231F20;" d="M137.609,399.012v-4.464c0-11.102,8.999-20.1,20.098-20.1h-25.644
		c-11.099,0-20.098,8.998-20.098,20.1v4.464c0,11.099,8.999,20.098,20.098,20.098h25.644
		C146.608,419.11,137.609,410.111,137.609,399.012z"/>
</g>
<g style="opacity:0.2;">
	<path style="fill:#231F20;" d="M248.707,48.227h-25.645c-11.101,0-20.098,9.001-20.098,20.099v29.031h25.644V68.326
		C228.609,57.228,237.605,48.227,248.707,48.227z"/>
</g>
<g style="opacity:0.2;">
	<path style="fill:#231F20;" d="M33.771,354.35v-30.742c0-25.47,20.646-46.116,46.115-46.116H54.242
		c-25.469,0-46.115,20.646-46.115,46.116v30.742c0,11.1,8.997,20.098,20.098,20.098h25.645
		C42.768,374.448,33.771,365.45,33.771,354.35z"/>
</g>
<g>
	<path style="fill:#231F20;" d="M457.756,269.365h-60.762v-50.306c0-1.086-0.217-2.16-0.639-3.16l-51.36-121.702
		c-1.271-3.01-4.219-4.967-7.487-4.967h-20.345V68.326c0-15.563-12.661-28.226-28.225-28.226h-65.876
		c-15.563,0-28.225,12.662-28.225,28.226V89.23H174.49c-3.268,0-6.216,1.957-7.487,4.967l-51.359,121.702
		c-0.423,1-0.639,2.074-0.639,3.16v50.306H54.242C24.332,269.365,0,293.699,0,323.608v30.742c0,15.563,12.661,28.225,28.225,28.225
		h78.286c-1.711,3.638-2.673,7.694-2.673,11.973v4.464c0,11.083,6.423,20.688,15.74,25.304l-23.167,34.965
		c-2.479,3.742-1.455,8.784,2.286,11.264c1.382,0.916,2.94,1.353,4.482,1.353c2.634,0,5.218-1.28,6.782-3.639l27.179-41.023h110.732
		v36.534c0,4.489,3.639,8.127,8.127,8.127c4.489,0,8.127-3.638,8.127-8.127v-36.536h110.733l27.177,41.023
		c1.562,2.36,4.147,3.639,6.782,3.639c1.541,0,3.1-0.438,4.482-1.353c3.742-2.478,4.764-7.521,2.285-11.264l-23.164-34.966
		c9.316-4.615,15.74-14.222,15.74-25.304v-4.464c0-4.279-0.962-8.336-2.673-11.973h78.288c15.562,0,28.224-12.661,28.224-28.225
		v-30.742C512,293.699,487.666,269.365,457.756,269.365z M211.092,68.326c0-6.602,5.37-11.972,11.971-11.972h65.875
		c6.601,0,11.971,5.37,11.971,11.972V89.23h-89.817L211.092,68.326L211.092,68.326z M391.908,394.548v4.464
		c0,6.601-5.37,11.971-11.971,11.971h-0.636c-0.008,0-0.015,0-0.023,0H132.724c-0.008,0-0.015,0-0.023,0h-0.638
		c-6.601,0-11.971-5.37-11.971-11.971v-4.464c0-6.602,5.37-11.973,11.971-11.973h247.873
		C386.538,382.575,391.908,387.946,391.908,394.548z M495.747,354.35c0,6.601-5.37,11.971-11.97,11.971h-103.84H132.062H28.225
		c-6.601,0-11.971-5.37-11.971-11.971v-30.742c0-20.947,17.041-37.99,37.989-37.99h277.552c4.489,0,8.127-3.638,8.127-8.127
		s-3.637-8.127-8.127-8.127H131.258v-48.662l48.624-115.22h23.082h106.071h23.081l48.625,115.22v48.662h-22.942
		c-4.488,0-8.127,3.638-8.127,8.127s3.639,8.127,8.127,8.127h99.957c20.947,0,37.99,17.042,37.99,37.99v30.742H495.747z"/>
	<path style="fill:#231F20;" d="M455.303,317.844H56.696c-4.488,0-8.127,3.638-8.127,8.127s3.639,8.127,8.127,8.127h398.606
		c4.489,0,8.127-3.638,8.127-8.127S459.792,317.844,455.303,317.844z"/>
	<path style="fill:#231F20;" d="M256.001,159.067c-22.643,0-41.065,18.422-41.065,41.065c0,22.642,18.422,41.063,41.065,41.063
		c22.643,0,41.064-18.421,41.064-41.063C297.064,177.489,278.643,159.067,256.001,159.067z M256.001,224.942
		c-13.681,0-24.811-11.129-24.811-24.809c0-13.681,11.13-24.811,24.811-24.811c13.68,0,24.81,11.13,24.81,24.811
		C280.81,213.813,269.681,224.942,256.001,224.942z"/>
</g>
<g>
</g>
<g>
</g>
<g>
</g>
<g>
</g>
<g>
</g>
<g>
</g>
<g>
</g>
<g>
</g>
<g>
</g>
<g>
</g>
<g>
</g>
<g>
</g>
<g>
</g>
<g>
</g>
<g>
</g>
</svg>
