<?xml version="1.0" encoding="iso-8859-1"?>
<!-- Generator: Adobe Illustrator 19.0.0, SVG Export Plug-In . SVG Version: 6.00 Build 0)  -->
<svg version="1.1" id="Layer_1" xmlns="http://www.w3.org/2000/svg" xmlns:xlink="http://www.w3.org/1999/xlink" x="0px" y="0px"
	 viewBox="0 0 512 512" style="enable-background:new 0 0 512 512;" xml:space="preserve">
<path style="fill:#578CAD;" d="M367.987,443.389c-23.909,36.453-65.136,60.527-111.988,60.527
	c-73.913,0-133.83-59.917-133.83-133.831c0-73.91,59.917-133.829,133.83-133.829s133.83,59.919,133.83,133.829
	c0,17.533-3.372,34.278-9.503,49.623"/>
<g>
	<circle style="fill:#3A5D74;" cx="318.409" cy="337.661" r="26.815"/>
	<circle style="fill:#3A5D74;" cx="294.512" cy="426.889" r="13.652"/>
	<circle style="fill:#3A5D74;" cx="227.23" cy="313.775" r="13.653"/>
	<path style="fill:#3A5D74;" d="M153.616,364.479c-11.768,0-22.623,3.899-31.351,10.471c1.306,36.543,17.26,69.352,42.173,92.732
		c23.617-4.982,41.346-25.937,41.346-51.036C205.784,387.834,182.428,364.479,153.616,364.479z"/>
</g>
<polygon style="fill:#ED412F;" points="338.883,105.106 338.883,176.286 306.947,176.286 306.947,213.341 389.829,213.341 
	389.829,105.106 "/>
<g style="opacity:0.2;">
	<polygon style="fill:#231F20;" points="364.666,186.348 364.666,110.855 389.829,110.855 389.829,105.106 338.883,105.106 
		338.883,176.286 306.947,176.286 306.947,217.653 337.685,217.653 	"/>
</g>
<rect x="255.999" y="68.047" style="fill:#FF4D30;" width="82.884" height="108.231"/>
<g style="opacity:0.2;">
	<rect x="255.999" y="68.047" style="fill:#231F20;" width="25.171" height="108.231"/>
</g>
<circle style="fill:#FFD960;" cx="255.999" cy="27.829" r="19.745"/>
<g style="opacity:0.2;">
	<circle style="fill:#231F20;" cx="255.999" cy="27.829" r="19.745"/>
</g>
<g>
	<path style="fill:#231F20;" d="M298.874,213.596c0.005,0.153,0.01,0.306,0.023,0.458c0.012,0.129,0.03,0.258,0.047,0.385
		c0.018,0.13,0.036,0.26,0.059,0.389c0.026,0.138,0.057,0.273,0.091,0.409c0.029,0.12,0.057,0.238,0.092,0.356
		c0.039,0.135,0.083,0.266,0.129,0.398c0.041,0.117,0.082,0.235,0.128,0.351c0.05,0.123,0.103,0.244,0.158,0.364
		c0.055,0.121,0.112,0.241,0.174,0.36c0.057,0.11,0.119,0.217,0.181,0.324c0.07,0.122,0.142,0.243,0.219,0.36
		c0.066,0.101,0.136,0.199,0.207,0.298c0.083,0.114,0.165,0.229,0.254,0.341c0.08,0.099,0.165,0.195,0.249,0.291
		c0.088,0.1,0.176,0.2,0.271,0.298c0.101,0.103,0.208,0.202,0.314,0.3c0.068,0.063,0.128,0.129,0.198,0.19
		c0.024,0.02,0.049,0.037,0.072,0.057c0.088,0.074,0.18,0.142,0.272,0.213c0.111,0.085,0.221,0.171,0.335,0.251
		c0.091,0.063,0.185,0.121,0.278,0.18c0.122,0.077,0.243,0.153,0.368,0.223c0.094,0.053,0.191,0.101,0.287,0.151
		c0.129,0.066,0.26,0.13,0.391,0.189c0.098,0.044,0.198,0.084,0.3,0.124c0.135,0.054,0.271,0.103,0.407,0.149
		c0.102,0.034,0.205,0.067,0.309,0.097c0.143,0.042,0.287,0.078,0.431,0.111c0.101,0.024,0.203,0.047,0.305,0.068
		c0.163,0.031,0.327,0.054,0.49,0.074c0.087,0.011,0.174,0.026,0.262,0.035c0.255,0.024,0.511,0.039,0.766,0.039h0.001h0.001h82.884
		c4.466,0,8.084-3.618,8.084-8.084V105.106c0-4.466-3.618-8.084-8.084-8.084h-42.864V68.053c0-4.466-3.618-8.084-8.084-8.084
		h-74.797v-5.51c11.414-3.472,19.745-14.095,19.745-26.629C283.828,12.484,271.344,0,255.999,0S228.17,12.484,228.17,27.829
		c0,12.535,8.331,23.156,19.745,26.629v13.594v108.234v52.119c-74.504,4.205-133.83,66.141-133.83,141.678
		c0,1.719,0.042,3.429,0.102,5.134c0,0.006-0.001,0.013,0,0.02c0.001,0.043,0.004,0.085,0.006,0.128
		c0.04,1.09,0.092,2.177,0.156,3.262c0.008,0.12,0.015,0.238,0.023,0.358c0.064,1.016,0.136,2.032,0.22,3.043
		c0.02,0.241,0.043,0.482,0.065,0.722c0.078,0.874,0.16,1.747,0.253,2.617c0.047,0.447,0.101,0.894,0.154,1.34
		c0.077,0.65,0.152,1.299,0.236,1.946c0.099,0.76,0.208,1.518,0.319,2.274c0.047,0.321,0.092,0.643,0.141,0.965
		c4.783,31.187,19.76,59.737,43.146,81.685c0.249,0.234,0.515,0.443,0.788,0.641c25.32,23.433,59.166,37.78,96.305,37.78
		c47.999,0,92.391-23.992,118.747-64.178c2.449-3.734,1.408-8.745-2.326-11.194c-3.735-2.449-8.746-1.408-11.194,2.326
		c-23.358,35.615-62.696,56.877-105.227,56.877c-28.318,0-54.478-9.413-75.522-25.269c19.988-10.019,33.391-30.789,33.391-53.915
		c0-33.223-27.029-60.251-60.252-60.251c-8.024,0-15.8,1.559-23.029,4.556C135.281,295.864,189.734,244.34,256,244.34
		c69.337,0,125.746,56.409,125.746,125.745c0,16.113-3.003,31.8-8.926,46.623c-1.657,4.147,0.362,8.851,4.508,10.507
		c4.147,1.655,8.85-0.361,10.507-4.508c6.688-16.74,10.08-34.445,10.08-52.623c0-75.538-59.326-137.473-133.83-141.678v-44.035
		h34.779v28.971C298.862,213.427,298.872,213.51,298.874,213.596z M197.7,416.646c0,19.292-12.739,36.346-30.833,42.05
		c-18.311-18.418-30.971-42.458-35.128-69.272c-0.033-0.215-0.065-0.43-0.096-0.645c-0.103-0.694-0.2-1.391-0.293-2.089
		c-0.059-0.453-0.117-0.905-0.171-1.359c-0.054-0.442-0.103-0.885-0.152-1.328c-0.069-0.628-0.136-1.257-0.196-1.887
		c-0.022-0.23-0.041-0.459-0.061-0.689c-0.07-0.79-0.137-1.58-0.193-2.374c6.914-4.259,14.798-6.49,23.039-6.49
		C177.924,372.564,197.7,392.339,197.7,416.646z M315.031,184.371h6.211l-6.211,7.207V184.371z M381.745,113.19v92.067h-57.159
		l20.42-23.692c0.019-0.022,0.035-0.045,0.053-0.068c0.1-0.119,0.192-0.243,0.285-0.366c0.068-0.091,0.14-0.18,0.205-0.273
		c0.082-0.119,0.154-0.244,0.23-0.366c0.064-0.105,0.132-0.207,0.191-0.314c0.061-0.112,0.115-0.231,0.171-0.346
		c0.059-0.122,0.123-0.241,0.176-0.365c0.046-0.108,0.083-0.221,0.125-0.331c0.051-0.136,0.106-0.271,0.15-0.409
		c0.033-0.107,0.058-0.217,0.087-0.326c0.04-0.147,0.082-0.292,0.113-0.44c0.022-0.103,0.035-0.21,0.053-0.315
		c0.027-0.158,0.055-0.316,0.072-0.475c0.011-0.1,0.014-0.203,0.022-0.304c0.012-0.167,0.024-0.333,0.025-0.5
		c0-0.027,0.004-0.053,0.004-0.079V113.19H381.745z M244.338,27.829c0-6.43,5.232-11.661,11.661-11.661
		c6.43,0,11.661,5.232,11.661,11.661c0,6.431-5.232,11.662-11.661,11.662C249.569,39.492,244.338,34.26,244.338,27.829z
		 M264.083,76.137h66.715v28.968v63.097h-23.852h-42.864V76.137z"/>
	<path style="fill:#231F20;" d="M353.304,337.665c0-19.245-15.655-34.9-34.9-34.9c-19.243,0-34.898,15.655-34.898,34.9
		c0,19.244,15.654,34.899,34.898,34.899C337.648,372.564,353.304,356.907,353.304,337.665z M299.675,337.665
		c0-10.328,8.402-18.732,18.729-18.732c10.328,0,18.732,8.403,18.732,18.732c0,10.328-8.403,18.731-18.732,18.731
		C308.076,356.395,299.675,347.993,299.675,337.665z"/>
	<path style="fill:#231F20;" d="M272.78,426.885c0,11.984,9.751,21.735,21.736,21.735c11.984,0,21.735-9.751,21.735-21.735
		c0-11.985-9.751-21.737-21.735-21.737C282.53,405.148,272.78,414.9,272.78,426.885z M300.082,426.885
		c0,3.07-2.496,5.566-5.566,5.566c-3.07,0-5.567-2.496-5.567-5.566c0-3.071,2.497-5.568,5.567-5.568
		C297.585,421.317,300.082,423.815,300.082,426.885z"/>
	<path style="fill:#231F20;" d="M205.497,313.774c0,11.985,9.752,21.736,21.737,21.736c11.985,0,21.737-9.751,21.737-21.736
		c0-11.984-9.752-21.735-21.737-21.735S205.497,301.789,205.497,313.774z M232.803,313.774c0,3.07-2.497,5.567-5.568,5.567
		c-3.071,0-5.568-2.497-5.568-5.567c0-3.07,2.497-5.566,5.568-5.566C230.305,308.208,232.803,310.704,232.803,313.774z"/>
</g>
<g style="opacity:0.2;">
	<path style="fill:#231F20;" d="M147.033,370.084c0-69.718,53.315-126.977,121.398-133.249c-4.095-0.378-8.239-0.58-12.432-0.58
		c-73.913,0-133.83,59.919-133.83,133.829c0,73.914,59.917,133.831,133.83,133.831c4.197,0,8.346-0.201,12.443-0.579
		C200.354,497.069,147.033,439.809,147.033,370.084z"/>
</g>
<g>
</g>
<g>
</g>
<g>
</g>
<g>
</g>
<g>
</g>
<g>
</g>
<g>
</g>
<g>
</g>
<g>
</g>
<g>
</g>
<g>
</g>
<g>
</g>
<g>
</g>
<g>
</g>
<g>
</g>
</svg>
