<?xml version="1.0" encoding="iso-8859-1"?>
<!-- Generator: Adobe Illustrator 19.0.0, SVG Export Plug-In . SVG Version: 6.00 Build 0)  -->
<svg version="1.1" id="Layer_1" xmlns="http://www.w3.org/2000/svg" xmlns:xlink="http://www.w3.org/1999/xlink" x="0px" y="0px"
	 viewBox="0 0 512 512" style="enable-background:new 0 0 512 512;" xml:space="preserve">
<path style="fill:#CAE9F7;" d="M256,8.084c-82.589,0-149.535,66.945-149.535,149.537v277.449c0,11.502,9.325,20.826,20.827,20.826
	h257.417c11.501,0,20.827-9.324,20.827-20.826V157.622C405.536,75.029,338.589,8.084,256,8.084z"/>
<g>
	<path style="fill:#578CAD;" d="M106.465,435.071V218.699H81.862c-11.502,0-20.827,9.324-20.827,20.827v195.544
		c0,11.502,9.325,20.826,20.827,20.826h45.43C115.79,455.897,106.465,446.573,106.465,435.071z"/>
	<path style="fill:#578CAD;" d="M430.138,218.699h-24.602v216.371c0,11.502-9.326,20.826-20.827,20.826h45.429
		c11.504,0,20.827-9.324,20.827-20.826V239.525C450.965,228.023,441.643,218.699,430.138,218.699z"/>
	<path style="fill:#578CAD;" d="M332.367,174.485c0,11.503-9.326,20.827-20.827,20.827H200.461
		c-11.502,0-20.827-9.324-20.827-20.827v-34.711c0-11.502,9.325-20.827,20.827-20.827H311.54c11.501,0,20.827,9.325,20.827,20.827
		V174.485z"/>
</g>
<path style="fill:#90C8EC;" d="M319.627,363.332H106.465v71.738c0,11.502,9.325,20.826,20.827,20.826h257.417
	c11.501,0,20.827-9.324,20.827-20.826v-71.738H348.73"/>
<g>
	<path style="fill:#231F20;" d="M430.138,210.615h-16.518v-52.993C413.621,70.709,342.913,0,256,0
		C169.088,0,98.381,70.709,98.381,157.622v52.993H81.862c-15.942,0-28.911,12.969-28.911,28.911v195.545
		c0,15.942,12.969,28.91,28.911,28.91h45.43h257.417h45.429c15.942,0,28.911-12.969,28.911-28.91V239.525
		C459.049,223.584,446.08,210.615,430.138,210.615z M81.862,447.812c-7.027,0-12.743-5.716-12.743-12.742V239.525
		c0-7.027,5.716-12.743,12.743-12.743h16.519v136.55v71.738c0,0.538,0.017,1.071,0.046,1.602c0.01,0.175,0.027,0.347,0.04,0.521
		c0.026,0.356,0.054,0.711,0.093,1.064c0.023,0.202,0.051,0.401,0.077,0.601c0.042,0.321,0.087,0.641,0.14,0.959
		c0.034,0.208,0.072,0.415,0.111,0.621c0.058,0.309,0.122,0.618,0.19,0.923c0.045,0.204,0.092,0.406,0.141,0.609
		c0.077,0.31,0.16,0.618,0.246,0.924c0.054,0.19,0.105,0.38,0.162,0.569c0.102,0.335,0.213,0.666,0.328,0.997
		c0.053,0.152,0.1,0.307,0.155,0.458c0.172,0.475,0.357,0.946,0.553,1.41c0.032,0.078,0.07,0.152,0.103,0.227
		c0.168,0.388,0.343,0.773,0.528,1.151c0.017,0.035,0.031,0.071,0.049,0.106H81.862z M397.452,218.699v136.55H348.73
		c-4.466,0-8.084,3.62-8.084,8.084s3.618,8.084,8.084,8.084h48.722v63.654c0,7.026-5.717,12.742-12.743,12.742H127.292
		c-7.027,0-12.743-5.716-12.743-12.742v-63.654h205.078c4.466,0,8.084-3.62,8.084-8.084s-3.618-8.084-8.084-8.084H114.549v-136.55
		v-61.077c0-77.999,63.455-141.454,141.451-141.454s141.452,63.456,141.452,141.453L397.452,218.699L397.452,218.699z
		 M442.881,435.071c0,7.026-5.717,12.742-12.743,12.742H410.66c0.017-0.033,0.03-0.069,0.047-0.102
		c0.192-0.393,0.374-0.792,0.549-1.195c0.027-0.061,0.056-0.121,0.082-0.182c0.198-0.467,0.384-0.941,0.557-1.421
		c0.051-0.139,0.095-0.282,0.143-0.423c0.119-0.342,0.234-0.684,0.34-1.033c0.055-0.182,0.105-0.365,0.156-0.549
		c0.088-0.313,0.174-0.627,0.251-0.943c0.048-0.197,0.094-0.397,0.138-0.596c0.069-0.31,0.134-0.622,0.193-0.936
		c0.039-0.204,0.075-0.406,0.11-0.611c0.053-0.321,0.099-0.643,0.141-0.968c0.026-0.198,0.054-0.396,0.075-0.596
		c0.039-0.355,0.068-0.712,0.094-1.071c0.013-0.171,0.03-0.341,0.039-0.513c0.029-0.531,0.046-1.065,0.046-1.603v-71.738V226.784
		h16.517c7.027,0,12.743,5.716,12.743,12.743V435.071z"/>
	<path style="fill:#231F20;" d="M349.457,495.832H162.541c-4.465,0-8.084,3.62-8.084,8.084s3.62,8.084,8.084,8.084h186.916
		c4.466,0,8.084-3.62,8.084-8.084S353.922,495.832,349.457,495.832z"/>
	<path style="fill:#231F20;" d="M311.539,110.863H200.461c-15.942,0-28.911,12.969-28.911,28.911v34.711
		c0,15.942,12.969,28.911,28.911,28.911H311.54c15.942,0,28.911-12.969,28.911-28.911v-34.711
		C340.451,123.832,327.481,110.863,311.539,110.863z M324.282,174.485c0,7.027-5.717,12.743-12.743,12.743H200.461
		c-7.027,0-12.743-5.716-12.743-12.743v-34.711c0-7.027,5.716-12.743,12.743-12.743H311.54c7.026,0,12.743,5.716,12.743,12.743
		V174.485z"/>
</g>
<g style="opacity:0.2;">
	<path style="fill:#231F20;" d="M131.795,435.071V157.622c0-78.325,60.21-142.569,136.87-148.998
		c-4.177-0.35-8.398-0.539-12.665-0.539c-82.589,0-149.535,66.945-149.535,149.537v277.449c0,11.502,9.325,20.826,20.827,20.826
		h25.331C141.12,455.897,131.795,446.573,131.795,435.071z"/>
</g>
<g style="opacity:0.2;">
	<path style="fill:#231F20;" d="M86.365,435.071V239.525c0-11.256,8.937-20.403,20.1-20.79v-0.037H81.862
		c-11.502,0-20.827,9.324-20.827,20.827v195.545c0,11.502,9.325,20.826,20.827,20.826h25.331
		C95.69,455.897,86.365,446.573,86.365,435.071z"/>
</g>
<g style="opacity:0.2;">
	<path style="fill:#231F20;" d="M204.964,174.485v-34.711c0-11.502,9.325-20.827,20.827-20.827H200.46
		c-11.502,0-20.827,9.325-20.827,20.827v34.711c0,11.503,9.325,20.827,20.827,20.827h25.331
		C214.289,195.312,204.964,185.989,204.964,174.485z"/>
</g>
<g>
</g>
<g>
</g>
<g>
</g>
<g>
</g>
<g>
</g>
<g>
</g>
<g>
</g>
<g>
</g>
<g>
</g>
<g>
</g>
<g>
</g>
<g>
</g>
<g>
</g>
<g>
</g>
<g>
</g>
</svg>
