<?xml version="1.0" encoding="iso-8859-1"?>
<!-- Generator: Adobe Illustrator 19.0.0, SVG Export Plug-In . SVG Version: 6.00 Build 0)  -->
<svg version="1.1" id="Layer_1" xmlns="http://www.w3.org/2000/svg" xmlns:xlink="http://www.w3.org/1999/xlink" x="0px" y="0px"
	 viewBox="0 0 511.999 511.999" style="enable-background:new 0 0 511.999 511.999;" xml:space="preserve">
<path style="fill:#3A5D74;" d="M255.999,72.014c6.343,0,12.428,1.088,18.096,3.066V8.127h-36.193v66.954
	C243.569,73.102,249.656,72.014,255.999,72.014z"/>
<circle style="fill:#578CAD;" cx="256.001" cy="126.928" r="54.916"/>
<g style="opacity:0.2;">
	<path style="fill:#231F20;" d="M226.333,126.929c0-25.983,18.049-47.734,42.291-53.439c-4.056-0.955-8.279-1.475-12.625-1.475
		c-30.33,0-54.916,24.585-54.916,54.915c0,30.329,24.585,54.917,54.916,54.917c4.346,0,8.569-0.52,12.625-1.475
		C244.382,174.664,226.333,152.91,226.333,126.929z"/>
</g>
<circle style="fill:#90C8EC;" cx="256.001" cy="126.928" r="18.096"/>
<g style="opacity:0.2;">
	<circle style="fill:#231F20;" cx="256.001" cy="126.928" r="18.096"/>
</g>
<g>
	<path style="fill:#3A5D74;" d="M216.753,165.324l-30.628,67.917l32.994,14.877l30.083-66.708
		C236.546,179.848,225.229,173.986,216.753,165.324z"/>
	<path style="fill:#3A5D74;" d="M295.245,165.324c-8.475,8.662-19.793,14.523-32.449,16.085l30.085,66.709l32.993-14.877
		L295.245,165.324z"/>
</g>
<path style="fill:#90C8EC;" d="M219.394,248.242l-33.54-15.123c-5.357-2.417-11.66-0.033-14.074,5.325l-43.249,95.908l-0.307,0.676
	l-43.249,95.908c-2.415,5.357-0.03,11.657,5.325,14.072l33.541,15.126c5.356,2.415,11.66,0.031,14.073-5.324l43.249-95.911
	l0.306-0.675l43.251-95.908C227.134,256.96,224.749,250.657,219.394,248.242z"/>
<g style="opacity:0.2;">
	<path style="fill:#231F20;" d="M115.034,451.869c-5.355-2.415-7.741-8.715-5.325-14.072l43.249-95.908l0.307-0.676l43.249-95.908
		c1.05-2.326,2.832-4.092,4.952-5.147l-15.614-7.041c-5.357-2.417-11.66-0.033-14.074,5.325l-43.249,95.908l-0.307,0.676
		l-43.249,95.908c-2.415,5.357-0.03,11.657,5.325,14.072l33.542,15.126c3.03,1.366,6.36,1.195,9.121-0.179L115.034,451.869z"/>
</g>
<path style="fill:#90C8EC;" d="M400.924,373.052l26.102,57.881c2.416,5.357,0.033,11.657-5.322,14.072l-33.543,15.126
	c-5.356,2.415-11.658,0.031-14.073-5.324l-43.25-95.911l-0.306-0.675l-43.25-95.908c-2.415-5.356-0.029-11.659,5.328-14.074
	l33.54-15.123c5.356-2.417,11.657-0.033,14.071,5.325l43.251,95.908l0.306,0.676l6.723,14.913"/>
<g style="opacity:0.2;">
	<path style="fill:#231F20;" d="M410.194,446.407c-5.356,2.414-11.659,0.031-14.073-5.324l-43.251-95.911l-0.305-0.675
		l-43.251-95.908c-1.139-2.528-1.197-5.263-0.391-7.704l-16.313,7.355c-5.357,2.416-7.743,8.718-5.328,14.074l43.25,95.908
		l0.306,0.675l43.25,95.911c2.415,5.355,8.717,7.739,14.073,5.324l33.543-15.126c2.827-1.275,4.815-3.638,5.717-6.368
		L410.194,446.407z"/>
</g>
<g>
	<path style="fill:#578CAD;" d="M219.394,248.242l-33.54-15.123c-5.357-2.417-11.66-0.033-14.074,5.325l-12.214,27.086
		l52.938,23.873l12.216-27.086C227.134,256.96,224.749,250.657,219.394,248.242z"/>
	<path style="fill:#578CAD;" d="M292.609,248.242l33.54-15.123c5.356-2.417,11.657-0.033,14.071,5.325l12.216,27.086l-52.94,23.873
		l-12.215-27.086C284.865,256.96,287.251,250.657,292.609,248.242z"/>
</g>
<g>
	<path style="fill:#231F20;" d="M255.999,153.152c14.46,0,26.223-11.763,26.223-26.223c0-14.459-11.763-26.222-26.223-26.222
		s-26.223,11.763-26.223,26.222C229.776,141.388,241.539,153.152,255.999,153.152z M255.999,116.959c5.497,0,9.97,4.472,9.97,9.969
		c0,5.497-4.473,9.97-9.97,9.97c-5.497,0-9.97-4.473-9.97-9.97S250.503,116.959,255.999,116.959z"/>
	<path style="fill:#231F20;" d="M435.471,500.531l-19.793-43.892l9.367-4.224c4.569-2.061,8.062-5.779,9.835-10.466
		s1.614-9.787-0.446-14.355l-26.102-57.881c-1.846-4.093-6.664-5.913-10.749-4.068c-4.091,1.845-5.913,6.658-4.068,10.749
		l26.102,57.883c0.354,0.785,0.229,1.478,0.061,1.922c-0.167,0.443-0.532,1.047-1.315,1.4l-33.541,15.126
		c-1.265,0.567-2.755,0.008-3.325-1.256l-71.251-157.999l38.124-17.192l34.725,77.002c1.844,4.09,6.654,5.914,10.749,4.068
		c4.09-1.844,5.913-6.657,4.068-10.749l-38.051-84.379c-0.004-0.011-0.008-0.022-0.013-0.033l-12.215-27.083
		c-0.227-0.503-0.481-0.988-0.748-1.464c-0.096-0.173-0.199-0.341-0.301-0.51c-0.174-0.289-0.357-0.572-0.545-0.851
		c-0.137-0.203-0.273-0.405-0.417-0.601c-0.161-0.218-0.334-0.427-0.503-0.637c-0.341-0.425-0.7-0.832-1.077-1.224
		c-0.106-0.111-0.209-0.222-0.317-0.329c-0.254-0.251-0.515-0.492-0.781-0.728c-0.105-0.093-0.212-0.182-0.32-0.272
		c-0.831-0.701-1.723-1.33-2.672-1.88c-0.228-0.132-0.456-0.261-0.688-0.384c-0.22-0.116-0.441-0.23-0.666-0.337
		c-0.399-0.191-0.804-0.367-1.217-0.53c-0.072-0.028-0.139-0.065-0.211-0.092c-0.034-0.013-0.069-0.021-0.103-0.034
		c-0.475-0.178-0.96-0.33-1.45-0.47c-0.189-0.053-0.377-0.1-0.566-0.147c-0.346-0.087-0.695-0.163-1.047-0.229
		c-0.208-0.04-0.416-0.082-0.624-0.115c-0.449-0.069-0.902-0.122-1.358-0.159c-0.283-0.023-0.566-0.03-0.849-0.04
		c-0.174-0.006-0.348-0.018-0.523-0.02l-25.831-57.28c8.886-10.868,14.228-24.742,14.228-39.842
		c0-25.406-15.116-47.334-36.818-57.306V16.253h8.031c4.489,0,8.127-3.637,8.127-8.127S294.746,0,290.257,0h-16.161h-36.193h-16.158
		c-4.489,0-8.127,3.637-8.127,8.127s3.637,8.127,8.127,8.127h8.031v53.369c-21.704,9.971-36.818,31.9-36.818,57.306
		c0,15.102,5.342,28.974,14.228,39.842l-25.831,57.28c-6.398,0.043-12.292,3.354-15.683,8.648c-0.488,0.762-0.924,1.564-1.302,2.403
		L77.565,427.593c-4.253,9.431-0.04,20.566,9.392,24.821l9.364,4.223L76.528,500.53c-1.845,4.09-0.024,8.904,4.068,10.749
		c1.085,0.489,2.219,0.721,3.336,0.721c3.097,0,6.057-1.781,7.413-4.788l19.793-43.893l9.362,4.222
		c2.445,1.103,5.036,1.661,7.706,1.661c0.001,0,0.002,0,0.002,0c7.369,0,14.087-4.339,17.113-11.052l86.806-192.494
		c3.103-6.884,1.683-14.663-2.97-20.024l25.12-55.703c0.574,0.015,1.145,0.043,1.723,0.043c0.578,0,1.15-0.028,1.724-0.043
		l25.121,55.702c-4.653,5.361-6.074,13.14-2.971,20.025l86.806,192.494c3.129,6.935,9.977,11.048,17.135,11.048
		c2.575,0,5.19-0.533,7.687-1.658l9.361-4.222l19.793,43.892c1.357,3.007,4.315,4.788,7.413,4.788c1.117,0,2.253-0.232,3.336-0.721
		C435.495,509.433,437.316,504.621,435.471,500.531z M303.563,278.653l-8.874-19.676c-0.569-1.265-0.004-2.757,1.26-3.327
		l33.544-15.124c0.185-0.083,0.365-0.137,0.539-0.172c0.09-0.018,0.182-0.022,0.274-0.03c0.085-0.008,0.171-0.023,0.25-0.021
		c0.029,0,0.06,0.004,0.09,0.005c0.105,0.005,0.204,0.018,0.299,0.036c0.051,0.009,0.101,0.016,0.152,0.028
		c0.047,0.011,0.087,0.025,0.13,0.038c0.221,0.065,0.443,0.165,0.656,0.3c0.072,0.046,0.142,0.091,0.213,0.147
		c0.044,0.036,0.087,0.078,0.129,0.117c0.073,0.066,0.143,0.14,0.211,0.22c0.037,0.043,0.073,0.088,0.107,0.135
		c0.095,0.131,0.185,0.273,0.262,0.44c0.002,0.005,0.005,0.01,0.009,0.015l2.878,6.38l5.996,13.296L303.563,278.653z M246.03,64.677
		V16.253h19.94v48.424c-0.048-0.008-0.096-0.013-0.144-0.021c-0.334-0.052-0.671-0.093-1.006-0.141
		c-0.632-0.089-1.265-0.172-1.899-0.242c-0.358-0.039-0.715-0.074-1.074-0.107c-0.658-0.061-1.318-0.111-1.979-0.151
		c-0.314-0.02-0.626-0.041-0.942-0.056c-0.973-0.046-1.949-0.075-2.927-0.075s-1.954,0.029-2.927,0.075
		c-0.314,0.014-0.627,0.037-0.941,0.056c-0.661,0.04-1.321,0.09-1.981,0.151c-0.358,0.034-0.715,0.067-1.072,0.106
		c-0.636,0.07-1.269,0.153-1.903,0.243c-0.335,0.047-0.671,0.088-1.004,0.14C246.125,64.666,246.077,64.67,246.03,64.677z
		 M241.273,82.529c0.368-0.122,0.737-0.248,1.108-0.361c0.191-0.059,0.385-0.108,0.578-0.165c1.684-0.488,3.392-0.884,5.114-1.178
		c0.052-0.009,0.103-0.018,0.154-0.028c0.588-0.099,1.18-0.184,1.772-0.26c0.08-0.011,0.159-0.021,0.239-0.03
		c0.599-0.074,1.201-0.138,1.803-0.187c0.039-0.003,0.079-0.005,0.118-0.009c2.553-0.208,5.121-0.208,7.674,0
		c0.04,0.003,0.079,0.005,0.119,0.009c0.602,0.051,1.205,0.114,1.805,0.187c0.079,0.01,0.157,0.02,0.235,0.03
		c0.594,0.076,1.186,0.161,1.777,0.26c0.048,0.009,0.096,0.017,0.144,0.026c1.717,0.293,3.42,0.687,5.098,1.172
		c0.203,0.059,0.407,0.112,0.609,0.173c0.363,0.111,0.723,0.233,1.084,0.352c18.614,6.181,32.083,23.745,32.083,44.406
		c0,13.69-5.91,26.023-15.311,34.587c-0.03,0.027-0.061,0.055-0.091,0.082c-0.491,0.445-0.994,0.878-1.502,1.301
		c-0.094,0.078-0.189,0.157-0.283,0.234c-0.437,0.358-0.882,0.704-1.331,1.047c-0.159,0.121-0.319,0.244-0.479,0.363
		c-0.368,0.273-0.744,0.535-1.121,0.797c-0.237,0.165-0.474,0.335-0.714,0.495c-0.231,0.154-0.467,0.299-0.7,0.45
		c-5.858,3.757-12.516,6.202-19.454,7.058c-0.012,0.001-0.024,0.005-0.037,0.006c-1.891,0.234-3.812,0.368-5.765,0.368
		c-1.964,0-3.898-0.135-5.799-0.373l0,0c-6.969-0.861-13.656-3.325-19.533-7.11c-0.203-0.131-0.409-0.257-0.61-0.391
		c-0.257-0.171-0.507-0.351-0.761-0.528c-0.361-0.252-0.723-0.504-1.076-0.766c-0.17-0.126-0.337-0.255-0.506-0.382
		c-0.442-0.337-0.881-0.678-1.31-1.029c-0.099-0.08-0.196-0.161-0.294-0.243c-0.51-0.425-1.014-0.859-1.506-1.306
		c-0.026-0.023-0.051-0.046-0.077-0.069c-9.404-8.564-15.316-20.901-15.316-34.593C209.21,106.274,222.669,88.715,241.273,82.529z
		 M179.187,241.783c0.493-1.094,1.545-1.481,2.295-1.481c0.351,0,0.697,0.075,1.029,0.225l33.539,15.123
		c0.316,0.143,0.588,0.342,0.811,0.583c0.443,0.48,0.685,1.117,0.67,1.771c-0.008,0.326-0.079,0.656-0.221,0.972l-8.874,19.678
		l-38.123-17.192L179.187,241.783z M130.503,451.469c-0.492,1.092-1.544,1.479-2.295,1.479c-0.352,0-0.699-0.075-1.028-0.224
		l-33.54-15.126c-1.263-0.569-1.828-2.06-1.258-3.323l71.25-157.997l38.124,17.192L130.503,451.469z M215.053,237.369l-0.806-0.364
		l-17.372-7.833l22.863-50.697c0.216,0.152,0.438,0.293,0.654,0.44c0.282,0.194,0.566,0.384,0.851,0.573
		c0.437,0.288,0.878,0.57,1.321,0.847c0.406,0.255,0.812,0.509,1.223,0.755c0.246,0.146,0.496,0.286,0.744,0.429
		c4.109,2.377,8.504,4.313,13.127,5.722L215.053,237.369z M287.464,181.523c0.249-0.144,0.501-0.284,0.749-0.431
		c0.411-0.246,0.816-0.5,1.221-0.754c0.444-0.278,0.885-0.56,1.323-0.85c0.284-0.189,0.568-0.378,0.848-0.572
		c0.217-0.148,0.44-0.289,0.654-0.441l22.864,50.697l-18.177,8.196l-22.607-50.128C278.964,185.833,283.356,183.899,287.464,181.523
		z"/>
</g>
<g>
</g>
<g>
</g>
<g>
</g>
<g>
</g>
<g>
</g>
<g>
</g>
<g>
</g>
<g>
</g>
<g>
</g>
<g>
</g>
<g>
</g>
<g>
</g>
<g>
</g>
<g>
</g>
<g>
</g>
</svg>
