<?xml version="1.0" encoding="iso-8859-1"?>
<!-- Generator: Adobe Illustrator 19.0.0, SVG Export Plug-In . SVG Version: 6.00 Build 0)  -->
<svg version="1.1" id="Layer_1" xmlns="http://www.w3.org/2000/svg" xmlns:xlink="http://www.w3.org/1999/xlink" x="0px" y="0px"
	 viewBox="0 0 512 512" style="enable-background:new 0 0 512 512;" xml:space="preserve">
<path style="fill:#578CAD;" d="M256.001,53.155C144.151,53.155,53.155,144.15,53.155,256s90.996,202.845,202.846,202.845
	c111.849,0,202.844-90.995,202.844-202.845S367.85,53.155,256.001,53.155z"/>
<circle style="fill:#3A5D74;" cx="247.73" cy="342.498" r="67.904"/>
<circle style="fill:#90C8EC;" cx="247.741" cy="342.498" r="19.218"/>
<g>
	<path style="fill:#3A5D74;" d="M397.631,276.751c0,10.611-8.606,19.214-19.219,19.214c-10.616,0-19.218-8.604-19.218-19.214
		c0-10.617,8.602-19.221,19.218-19.221C389.025,257.531,397.631,266.134,397.631,276.751z"/>
	<circle style="fill:#3A5D74;" cx="179.834" cy="218.487" r="19.218"/>
	<path style="fill:#3A5D74;" d="M67.202,181.818c8.66,6.038,19.184,9.591,30.544,9.591c29.529,0,53.469-23.941,53.469-53.471
		c0-16.875-7.828-31.917-20.042-41.717C102.876,118.376,80.587,147.871,67.202,181.818z"/>
	<circle style="fill:#3A5D74;" cx="330.997" cy="169.131" r="39.106"/>
</g>
<path style="fill:#90C8EC;" d="M461.516,394.516c-44.596,65.956-120.078,109.4-205.515,109.4C119.299,503.916,8.086,392.7,8.086,256
	c0-136.702,111.213-247.916,247.915-247.916C392.7,8.084,503.914,119.298,503.914,256c0,41.347-10.174,80.361-28.15,114.673
	 M256.001,53.155C144.151,53.155,53.155,144.15,53.155,256s90.996,202.845,202.846,202.845
	c111.849,0,202.844-90.995,202.844-202.845S367.85,53.155,256.001,53.155z"/>
<g>
	<path style="fill:#231F20;" d="M256.001,0C114.842,0,0.002,114.841,0.002,256s114.84,256,255.999,256
		c85.056,0,164.388-42.227,212.212-112.956c2.501-3.699,1.531-8.724-2.169-11.225c-3.7-2.503-8.724-1.53-11.225,2.169
		c-44.813,66.276-119.138,105.844-198.818,105.844C123.757,495.832,16.17,388.245,16.17,256S123.757,16.168,256.001,16.168
		C388.244,16.168,495.83,123.755,495.83,256c0,38.567-9.414,76.922-27.227,110.921c-2.072,3.955-0.545,8.841,3.409,10.913
		c3.953,2.07,8.841,0.545,10.913-3.409c19.02-36.304,29.074-77.254,29.074-118.424C511.998,114.841,397.158,0,256.001,0z"/>
	<path style="fill:#231F20;" d="M256.001,45.071c-48.896,0-93.956,16.728-129.768,44.755c-0.014,0.011-0.03,0.018-0.044,0.029
		c-0.04,0.031-0.078,0.064-0.117,0.095c-1.658,1.3-3.292,2.63-4.91,3.977c-0.426,0.355-0.846,0.716-1.27,1.074
		c-1.246,1.055-2.479,2.125-3.7,3.207c-0.426,0.378-0.855,0.752-1.277,1.134c-1.534,1.383-3.051,2.784-4.544,4.21
		c-0.281,0.269-0.555,0.545-0.835,0.816c-1.23,1.189-2.445,2.392-3.645,3.609c-0.47,0.476-0.938,0.956-1.403,1.437
		c-1.131,1.17-2.248,2.351-3.353,3.546c-0.329,0.357-0.665,0.707-0.992,1.065c-1.364,1.495-2.703,3.013-4.024,4.548
		c-0.406,0.472-0.804,0.95-1.206,1.425c-0.981,1.16-1.949,2.329-2.905,3.51c-0.416,0.514-0.834,1.028-1.246,1.547
		c-1.268,1.596-2.52,3.206-3.742,4.839c-0.135,0.18-0.264,0.364-0.398,0.544c-1.113,1.497-2.203,3.013-3.278,4.54
		c-0.371,0.528-0.737,1.058-1.103,1.59c-0.905,1.314-1.796,2.638-2.672,3.973c-0.29,0.441-0.584,0.878-0.871,1.321
		c-1.123,1.739-2.223,3.495-3.296,5.268c-0.224,0.37-0.439,0.745-0.661,1.117c-0.872,1.462-1.727,2.933-2.563,4.417
		c-0.29,0.514-0.579,1.028-0.864,1.545c-0.904,1.635-1.79,3.281-2.653,4.942c-0.11,0.211-0.225,0.42-0.334,0.633
		c-0.971,1.886-1.909,3.792-2.824,5.711c-0.211,0.443-0.415,0.888-0.623,1.332c-0.723,1.544-1.428,3.097-2.115,4.661
		c-0.206,0.469-0.415,0.938-0.618,1.409c-10.98,25.516-17.075,53.61-17.075,83.103c0,116.306,94.623,210.929,210.93,210.929
		c116.306,0,210.929-94.622,210.929-210.929C466.929,139.694,372.307,45.071,256.001,45.071z M143.13,137.938
		c0,25.026-20.359,45.387-45.384,45.387c-7.156,0-14.102-1.66-20.398-4.84c0.129-0.296,0.259-0.593,0.389-0.889
		c0.5-1.132,1.01-2.258,1.532-3.38c0.23-0.494,0.459-0.988,0.692-1.481c0.576-1.213,1.166-2.417,1.767-3.616
		c0.186-0.372,0.368-0.747,0.556-1.117c1.618-3.18,3.321-6.314,5.109-9.397c0.172-0.298,0.351-0.592,0.526-0.889
		c0.718-1.223,1.448-2.44,2.192-3.648c0.253-0.412,0.511-0.819,0.767-1.229c0.696-1.11,1.402-2.213,2.121-3.309
		c0.266-0.406,0.531-0.812,0.801-1.216c0.776-1.164,1.565-2.32,2.366-3.466c0.207-0.296,0.411-0.596,0.619-0.891
		c2.071-2.933,4.221-5.811,6.451-8.628c0.162-0.204,0.328-0.404,0.489-0.608c0.941-1.179,1.896-2.349,2.865-3.507
		c0.267-0.319,0.537-0.635,0.805-0.953c0.902-1.064,1.815-2.12,2.741-3.166c0.271-0.305,0.54-0.611,0.812-0.915
		c1.021-1.139,2.054-2.267,3.102-3.382c0.161-0.171,0.319-0.346,0.481-0.516c2.516-2.66,5.108-5.253,7.775-7.773
		c0.109-0.102,0.219-0.203,0.329-0.306c1.195-1.125,2.407-2.236,3.632-3.332c0.227-0.204,0.457-0.406,0.686-0.609
		c1.159-1.026,2.329-2.04,3.513-3.041c0.127-0.108,0.253-0.216,0.382-0.322C138.719,115.267,143.13,126.274,143.13,137.938z
		 M256.001,450.76c-107.392,0-194.762-87.369-194.762-194.761c0-21.812,3.604-42.797,10.249-62.393
		c8.165,3.865,17.082,5.886,26.258,5.886c33.94,0,61.553-27.613,61.553-61.555c0-15.302-5.599-29.765-15.617-40.962
		c31.761-22.499,70.523-35.737,112.32-35.737c107.392,0,194.761,87.369,194.761,194.761
		C450.761,363.392,363.393,450.76,256.001,450.76z"/>
	<path style="fill:#231F20;" d="M247.736,266.507c-41.901,0-75.989,34.087-75.989,75.987c0,41.901,34.088,75.989,75.989,75.989
		c41.9,0,75.987-34.088,75.987-75.989C323.722,300.594,289.635,266.507,247.736,266.507z M247.736,402.314
		c-32.985,0-59.82-26.835-59.82-59.821c0-32.984,26.835-59.818,59.82-59.818c32.983,0,59.818,26.835,59.818,59.818
		C307.554,375.479,280.72,402.314,247.736,402.314z"/>
	<path style="fill:#231F20;" d="M247.735,315.191c-15.054,0-27.302,12.248-27.302,27.303s12.248,27.303,27.302,27.303
		s27.303-12.248,27.303-27.303S262.79,315.191,247.735,315.191z M247.735,353.628c-6.139,0-11.133-4.995-11.133-11.135
		s4.995-11.135,11.133-11.135c6.14,0,11.135,4.995,11.135,11.135S253.874,353.628,247.735,353.628z"/>
	<path style="fill:#231F20;" d="M351.11,276.751c0,15.053,12.247,27.299,27.302,27.299s27.303-12.246,27.303-27.299
		c0-15.056-12.248-27.305-27.303-27.305S351.11,261.696,351.11,276.751z M389.547,276.751c0,6.137-4.995,11.13-11.135,11.13
		c-6.139,0-11.133-4.993-11.133-11.13c0-6.141,4.995-11.137,11.133-11.137C384.553,265.615,389.547,270.611,389.547,276.751z"/>
	<path style="fill:#231F20;" d="M207.134,218.486c0-15.053-12.248-27.299-27.303-27.299c-15.054,0-27.302,12.246-27.302,27.299
		c0,15.055,12.247,27.303,27.302,27.303C194.887,245.789,207.134,233.541,207.134,218.486z M168.699,218.486
		c0-6.137,4.994-11.13,11.133-11.13s11.135,4.993,11.135,11.13c0,6.14-4.995,11.135-11.135,11.135
		C173.694,229.621,168.699,224.627,168.699,218.486z"/>
	<path style="fill:#231F20;" d="M378.178,169.135c0-26.02-21.169-47.189-47.187-47.189s-47.183,21.17-47.183,47.189
		c0,26.018,21.166,47.184,47.183,47.184C357.01,216.32,378.178,195.153,378.178,169.135z M330.991,200.152
		c-17.102,0-31.015-13.913-31.015-31.016c0-17.105,13.913-31.02,31.015-31.02c17.104,0,31.018,13.916,31.018,31.02
		C362.01,186.238,348.095,200.152,330.991,200.152z"/>
</g>
<g style="opacity:0.2;">
	<path style="fill:#231F20;" d="M78.832,256c0-107.536,84.117-195.78,190.008-202.427c-4.247-0.266-8.526-0.418-12.839-0.418
		C144.151,53.155,53.155,144.15,53.155,256s90.996,202.845,202.846,202.845c4.313,0,8.592-0.152,12.839-0.418
		C162.949,451.78,78.832,363.536,78.832,256z"/>
</g>
<g>
</g>
<g>
</g>
<g>
</g>
<g>
</g>
<g>
</g>
<g>
</g>
<g>
</g>
<g>
</g>
<g>
</g>
<g>
</g>
<g>
</g>
<g>
</g>
<g>
</g>
<g>
</g>
<g>
</g>
</svg>
