<?xml version="1.0" encoding="iso-8859-1"?>
<!-- Generator: Adobe Illustrator 19.0.0, SVG Export Plug-In . SVG Version: 6.00 Build 0)  -->
<svg version="1.1" id="Layer_1" xmlns="http://www.w3.org/2000/svg" xmlns:xlink="http://www.w3.org/1999/xlink" x="0px" y="0px"
	 viewBox="0 0 512 512" style="enable-background:new 0 0 512 512;" xml:space="preserve">
<path style="fill:#FF9737;" d="M336.065,137.8c37.829,25.674,62.682,69.035,62.682,118.2c0,78.837-63.908,142.747-142.747,142.747
	c-78.839,0-142.75-63.909-142.75-142.747c0-78.838,63.911-142.75,142.75-142.75c21.119,0,41.167,4.586,59.203,12.818"/>
<g style="opacity:0.2;">
	<path style="fill:#231F20;" d="M138.517,256c0-74.584,57.203-135.797,130.128-142.188c-4.167-0.365-8.382-0.562-12.644-0.562
		c-78.839,0-142.75,63.912-142.75,142.75c0,78.837,63.911,142.747,142.75,142.747c4.258,0,8.469-0.197,12.633-0.563
		C195.713,391.788,138.517,330.578,138.517,256z"/>
</g>
<g>
	<path style="fill:#231F20;" d="M256.001,406.831c-83.17,0-150.834-67.662-150.834-150.831c0-83.17,67.664-150.834,150.834-150.834
		c21.813,0,42.862,4.558,62.56,13.548c4.062,1.854,5.852,6.65,3.998,10.711c-1.853,4.062-6.648,5.853-10.712,3.998
		c-17.576-8.021-36.365-12.088-55.846-12.088c-74.255,0-134.666,60.411-134.666,134.666c0,74.253,60.411,134.662,134.666,134.662
		c74.253,0,134.662-60.41,134.662-134.662c0-44.692-22.108-86.377-59.138-111.51c-3.694-2.507-4.657-7.534-2.149-11.23
		c2.508-3.694,7.536-4.657,11.23-2.149c41.469,28.145,66.226,74.833,66.226,124.888
		C406.832,339.168,339.169,406.831,256.001,406.831z"/>
	<path style="fill:#231F20;" d="M328.553,326.01c-1.938,0-3.882-0.693-5.429-2.097c-3.307-3-3.556-8.112-0.556-11.419
		c0.733-0.808,1.451-1.631,2.154-2.467c2.869-3.419,7.97-3.861,11.389-0.99c3.419,2.873,3.862,7.971,0.99,11.39
		c-0.834,0.993-1.694,1.979-2.558,2.931C332.948,325.117,330.754,326.01,328.553,326.01z"/>
	<path style="fill:#231F20;" d="M342.735,303.213c-1.108,0-2.233-0.229-3.309-0.713c-4.072-1.83-5.891-6.615-4.06-10.687
		c5.051-11.238,7.612-23.239,7.612-35.67c0-36.085-21.696-67.925-55.273-81.118c-4.155-1.633-6.2-6.325-4.567-10.48
		c1.634-4.156,6.324-6.2,10.481-4.568c19.1,7.504,35.403,20.415,47.147,37.336c12.025,17.324,18.381,37.668,18.381,58.83
		c0,14.732-3.039,28.962-9.033,42.298C348.767,301.436,345.819,303.213,342.735,303.213z"/>
	<path style="fill:#231F20;" d="M256.001,73.671c-4.465,0-8.084-3.62-8.084-8.084V8.084c0-4.465,3.62-8.084,8.084-8.084
		c4.466,0,8.084,3.62,8.084,8.084v57.502C264.085,70.051,260.467,73.671,256.001,73.671z"/>
	<path style="fill:#231F20;" d="M256.001,512c-4.465,0-8.084-3.62-8.084-8.084v-57.504c0-4.465,3.62-8.084,8.084-8.084
		c4.466,0,8.084,3.62,8.084,8.084v57.504C264.085,508.38,260.467,512,256.001,512z"/>
	<path style="fill:#231F20;" d="M121.357,129.441c-2.068,0-4.138-0.789-5.716-2.367l-40.66-40.66c-3.157-3.157-3.157-8.276,0-11.432
		c3.157-3.157,8.276-3.157,11.432,0l40.66,40.659c3.157,3.157,3.157,8.276,0,11.433
		C125.495,128.651,123.426,129.441,121.357,129.441z"/>
	<path style="fill:#231F20;" d="M431.303,439.387c-2.068,0-4.138-0.789-5.717-2.368l-40.66-40.66c-3.157-3.157-3.157-8.275,0-11.433
		c3.158-3.157,8.276-3.157,11.433,0l40.66,40.66c3.157,3.157,3.157,8.275,0,11.433C435.441,438.596,433.372,439.387,431.303,439.387
		z"/>
	<path style="fill:#231F20;" d="M65.587,264.084H8.084C3.62,264.084,0,260.465,0,256c0-4.465,3.62-8.084,8.084-8.084h57.502
		c4.465,0,8.084,3.62,8.084,8.084C73.671,260.465,70.051,264.084,65.587,264.084z"/>
	<path style="fill:#231F20;" d="M503.916,264.084h-57.504c-4.466,0-8.084-3.62-8.084-8.084c0-4.465,3.618-8.084,8.084-8.084h57.504
		c4.466,0,8.084,3.62,8.084,8.084C512,260.465,508.382,264.084,503.916,264.084z"/>
	<path style="fill:#231F20;" d="M80.697,439.387c-2.068,0-4.138-0.789-5.716-2.368c-3.157-3.157-3.157-8.276,0-11.433l40.661-40.659
		c3.157-3.157,8.276-3.157,11.432,0c3.157,3.157,3.157,8.276,0,11.432l-40.661,40.66C84.835,438.596,82.765,439.387,80.697,439.387z
		"/>
	<path style="fill:#231F20;" d="M390.643,129.441c-2.07,0-4.138-0.789-5.717-2.368c-3.157-3.157-3.157-8.276,0-11.433l40.66-40.659
		c3.159-3.158,8.277-3.157,11.433,0c3.157,3.157,3.157,8.276,0,11.432l-40.66,40.659
		C394.781,128.651,392.712,129.441,390.643,129.441z"/>
	<path style="fill:#231F20;" d="M160.801,99.184c-2.794,0-5.511-1.45-7.008-4.043l-28.752-49.8
		c-2.232-3.866-0.908-8.811,2.959-11.043c3.866-2.231,8.811-0.908,11.043,2.959l28.752,49.8c2.232,3.866,0.908,8.811-2.959,11.043
		C163.563,98.833,162.172,99.184,160.801,99.184z"/>
	<path style="fill:#231F20;" d="M379.964,478.788c-2.794,0-5.511-1.45-7.008-4.043l-28.751-49.799
		c-2.232-3.866-0.908-8.811,2.959-11.043c3.864-2.232,8.812-0.909,11.043,2.959l28.751,49.799c2.232,3.866,0.908,8.811-2.959,11.043
		C382.726,478.438,381.335,478.788,379.964,478.788z"/>
	<path style="fill:#231F20;" d="M72.081,214.804c-0.693,0-1.397-0.089-2.098-0.278l-55.543-14.884
		c-4.313-1.156-6.872-5.589-5.716-9.902c1.156-4.314,5.592-6.872,9.902-5.717l55.543,14.885c4.313,1.156,6.872,5.589,5.716,9.902
		C78.916,212.422,75.65,214.804,72.081,214.804z"/>
	<path style="fill:#231F20;" d="M495.473,328.251c-0.693,0-1.397-0.089-2.098-0.278l-55.543-14.884
		c-4.313-1.155-6.872-5.589-5.716-9.902c1.154-4.313,5.588-6.872,9.9-5.716l55.543,14.884c4.313,1.156,6.872,5.589,5.716,9.902
		C502.309,325.869,499.042,328.251,495.473,328.251z"/>
	<path style="fill:#231F20;" d="M41.306,388.042c-2.794,0-5.511-1.451-7.008-4.044c-2.232-3.866-0.908-8.811,2.959-11.043
		l49.8-28.75c3.865-2.231,8.811-0.908,11.043,2.959c2.232,3.866,0.908,8.811-2.959,11.043l-49.8,28.751
		C44.068,387.693,42.677,388.042,41.306,388.042z"/>
	<path style="fill:#231F20;" d="M420.91,168.879c-2.794,0-5.51-1.45-7.008-4.044c-2.232-3.866-0.908-8.811,2.959-11.043
		l49.798-28.751c3.864-2.232,8.811-0.909,11.043,2.959c2.232,3.866,0.908,8.811-2.959,11.043l-49.798,28.751
		C423.673,168.529,422.282,168.879,420.91,168.879z"/>
	<path style="fill:#231F20;" d="M191.84,503.554c-0.693,0-1.397-0.089-2.098-0.277c-4.313-1.155-6.872-5.589-5.716-9.902
		l14.884-55.543c1.156-4.313,5.592-6.872,9.902-5.716c4.313,1.156,6.872,5.589,5.716,9.902l-14.884,55.542
		C198.675,501.171,195.409,503.554,191.84,503.554z"/>
	<path style="fill:#231F20;" d="M305.29,80.162c-0.693,0-1.397-0.089-2.098-0.277c-4.313-1.156-6.872-5.589-5.716-9.902
		l14.881-55.543c1.154-4.313,5.587-6.873,9.9-5.716c4.313,1.154,6.872,5.588,5.716,9.9l-14.881,55.543
		C312.125,77.779,308.859,80.162,305.29,80.162z"/>
</g>
<g>
</g>
<g>
</g>
<g>
</g>
<g>
</g>
<g>
</g>
<g>
</g>
<g>
</g>
<g>
</g>
<g>
</g>
<g>
</g>
<g>
</g>
<g>
</g>
<g>
</g>
<g>
</g>
<g>
</g>
</svg>
