<?xml version="1.0" encoding="iso-8859-1"?>
<!-- Generator: Adobe Illustrator 19.0.0, SVG Export Plug-In . SVG Version: 6.00 Build 0)  -->
<svg version="1.1" id="Layer_1" xmlns="http://www.w3.org/2000/svg" xmlns:xlink="http://www.w3.org/1999/xlink" x="0px" y="0px"
	 viewBox="0 0 512 512" style="enable-background:new 0 0 512 512;" xml:space="preserve">
<path style="fill:#90C8EC;" d="M255.999,66.408c-107.221,0-194.137,86.918-194.137,194.137v200.852h388.273V260.545
	C450.136,153.325,363.218,66.408,255.999,66.408z"/>
<path style="fill:#3A5D74;" d="M492.244,483.896c0,11.048-8.953,20.001-20.001,20.001H39.756c-11.047,0-20-8.953-20-20.001v-2.497
	c0-11.045,8.953-20.001,20-20.001h432.486c11.048,0,20.001,8.956,20.001,20.001V483.896z"/>
<polyline style="fill:#578CAD;" points="371.171,293.827 61.862,293.827 61.862,253.825 450.136,253.825 450.136,293.827 
	397.102,293.827 "/>
<path style="fill:#CAE9F7;" d="M327.164,79.866c-22.037-8.687-46.042-13.458-71.165-13.458c-25.505,0-49.859,4.927-72.171,13.869
	v173.549h143.337V79.866z"/>
<path style="fill:#578CAD;" d="M307.163,397.163H203.828c-11.044,0-20,8.956-20,20.001v44.232h143.337v-44.234
	C327.164,406.119,318.211,397.163,307.163,397.163z"/>
<g style="opacity:0.2;">
	<path style="fill:#231F20;" d="M269.236,66.867c-4.376-0.295-8.787-0.458-13.237-0.458c-107.221,0-194.137,86.918-194.137,194.137
		v200.851h26.474V260.545C88.336,157.775,168.19,73.672,269.236,66.867z"/>
</g>
<g style="opacity:0.2;">
	<path style="fill:#231F20;" d="M46.23,483.896v-2.497c0-11.045,8.953-20.001,20-20.001H39.756c-11.047,0-20,8.956-20,20.001v2.497
		c0,11.048,8.953,20.001,20,20.001H66.23C55.183,503.896,46.23,494.942,46.23,483.896z"/>
</g>
<g style="opacity:0.2;">
	<path style="fill:#231F20;" d="M269.256,66.861c-4.382-0.296-8.802-0.453-13.258-0.453c-25.505,0-49.859,4.927-72.171,13.869
		v173.549H210.3V80.277C228.727,72.893,248.547,68.255,269.256,66.861z"/>
</g>
<g style="opacity:0.2;">
	<path style="fill:#231F20;" d="M230.301,397.163h-26.474c-11.044,0-20,8.956-20,20.001v44.232h26.474v-44.234
		C210.301,406.119,219.257,397.163,230.301,397.163z"/>
</g>
<path style="fill:#578CAD;" d="M396.021,126.081l43.102-43.102l-40.069-40.071l-48.218,48.216
	C367.591,100.523,382.81,112.328,396.021,126.081z"/>
<path style="fill:#3A5D74;" d="M414.133,9.695l-7.069,7.072l-6.165,6.162l-7.071,7.071c-2.122,2.122-2.122,5.564,0,7.685
	l50.52,50.518c2.119,2.122,5.562,2.12,7.682,0l7.072-7.071l6.161-6.162l7.072-7.071c2.121-2.121,2.123-5.562,0-7.684L421.819,9.697
	C419.697,7.574,416.255,7.574,414.133,9.695z"/>
<path style="fill:#231F20;" d="M472.243,453.292H458.24V293.827v-33.283v-6.719c0-0.594-0.068-1.172-0.189-1.731
	c-1.988-48.125-20.87-91.957-50.864-125.718l31.962-31.963c2.487,2.242,5.663,3.483,9.039,3.483c0,0,0,0,0.001,0
	c3.617,0,7.015-1.408,9.572-3.965l20.307-20.307c2.555-2.557,3.965-5.955,3.965-9.57c0.001-3.618-1.408-7.018-3.965-9.574
	L427.551,3.966C424.994,1.409,421.594,0,417.975,0c-3.616,0-7.015,1.408-9.574,3.966L388.098,24.27
	c-2.557,2.557-3.965,5.957-3.965,9.573c0,3.376,1.239,6.552,3.483,9.041L349.33,81.17c-6.006-3.138-12.184-5.986-18.524-8.519
	c-0.221-0.111-0.437-0.232-0.67-0.324c-15.605-6.152-31.8-10.285-48.376-12.389c-0.024-0.003-0.046-0.006-0.07-0.009
	c-1.567-0.199-3.138-0.378-4.712-0.54c-0.177-0.018-0.353-0.038-0.531-0.056c-1.422-0.143-2.847-0.268-4.274-0.38
	c-0.304-0.024-0.606-0.051-0.911-0.075c-1.315-0.097-2.632-0.178-3.951-0.251c-0.394-0.022-0.787-0.049-1.181-0.068
	c-1.277-0.063-2.557-0.107-3.837-0.146c-0.418-0.013-0.834-0.033-1.253-0.043c-1.678-0.041-3.358-0.064-5.042-0.064
	c-1.693,0-3.383,0.023-5.071,0.065c-0.413,0.01-0.823,0.031-1.235,0.043c-1.291,0.039-2.583,0.084-3.869,0.148
	c-0.391,0.019-0.78,0.048-1.17,0.069c-1.322,0.072-2.642,0.153-3.959,0.252c-0.309,0.023-0.617,0.052-0.925,0.077
	c-1.411,0.112-2.821,0.236-4.227,0.377c-0.203,0.021-0.404,0.043-0.607,0.065c-1.522,0.158-3.043,0.331-4.56,0.523
	c-0.086,0.011-0.173,0.023-0.26,0.033c-16.899,2.158-33.402,6.428-49.299,12.799c-0.222,0.089-0.425,0.205-0.635,0.312
	c-71.58,29.054-122.881,97.953-126.23,179.029c-0.121,0.558-0.189,1.136-0.189,1.731v6.719v33.283v159.46H39.756
	c-15.497,0-28.104,12.608-28.104,28.105v2.497c0,15.497,12.607,28.105,28.104,28.105h432.486c15.497,0,28.105-12.608,28.105-28.105
	v-2.497C500.348,465.9,487.74,453.292,472.243,453.292z M191.932,85.884c14.243-5.241,29.298-8.787,44.92-10.392
	c0.14-0.014,0.282-0.028,0.424-0.042c1.312-0.132,2.628-0.247,3.948-0.351c0.323-0.025,0.647-0.051,0.971-0.075
	c1.149-0.084,2.301-0.156,3.456-0.219c0.414-0.023,0.828-0.048,1.242-0.067c1.115-0.054,2.234-0.094,3.353-0.128
	c0.412-0.013,0.821-0.03,1.233-0.04c1.503-0.036,3.009-0.057,4.521-0.057c1.505,0,3.005,0.022,4.502,0.057
	c0.401,0.01,0.802,0.026,1.203,0.039c1.13,0.035,2.258,0.075,3.383,0.129c0.392,0.018,0.784,0.041,1.176,0.063
	c1.197,0.066,2.391,0.139,3.582,0.228c0.269,0.019,0.537,0.04,0.805,0.061c16.863,1.32,33.1,4.902,48.411,10.436v160.198H191.932
	V85.884z M335.268,92.272c58.805,27.813,100.794,85.556,106.172,153.449H335.268L335.268,92.272L335.268,92.272z M417.975,17.314
	l46.742,46.74l-16.527,16.528l-11.937-11.936l-31.468-31.47c-0.011-0.011-0.023-0.019-0.032-0.029l-3.305-3.305L417.975,17.314z
	 M399.052,54.369l25.571,25.571l3.039,3.039l-31.643,31.644c-9.838-9.442-20.582-17.855-32.091-25.128L399.052,54.369z
	 M175.723,92.742v152.979H70.557C75.904,178.214,117.444,120.736,175.723,92.742z M69.966,301.932h301.204
	c4.476,0,8.104-3.627,8.104-8.104s-3.629-8.104-8.104-8.104H69.966V261.93h372.065v23.794h-44.929c-4.477,0-8.104,3.627-8.104,8.104
	s3.627,8.104,8.104,8.104h44.929v151.361H335.268v-36.129c0-15.497-12.608-28.105-28.105-28.105H203.828
	c-15.497,0-28.104,12.608-28.104,28.105v36.129H69.966V301.932z M319.06,453.292H191.932v-36.129
	c0-6.559,5.337-11.897,11.896-11.897h103.336c6.559,0,11.897,5.338,11.897,11.897L319.06,453.292L319.06,453.292z M484.14,483.896
	c0,6.56-5.337,11.897-11.897,11.897H39.756c-6.56,0-11.896-5.337-11.896-11.897v-2.497c0-6.559,5.336-11.897,11.896-11.897h22.106
	h121.965h143.337h122.971h22.107c6.559,0,11.897,5.337,11.897,11.897L484.14,483.896L484.14,483.896z"/>
<g style="opacity:0.2;">
	
		<rect x="424.159" y="14.822" transform="matrix(-0.7085 0.7057 -0.7057 -0.7085 776.9846 -214.552)" style="fill:#231F20;" width="17.289" height="76.74"/>
</g>
<g>
</g>
<g>
</g>
<g>
</g>
<g>
</g>
<g>
</g>
<g>
</g>
<g>
</g>
<g>
</g>
<g>
</g>
<g>
</g>
<g>
</g>
<g>
</g>
<g>
</g>
<g>
</g>
<g>
</g>
</svg>
