<?xml version="1.0" encoding="iso-8859-1"?>
<!-- Generator: Adobe Illustrator 19.0.0, SVG Export Plug-In . SVG Version: 6.00 Build 0)  -->
<svg version="1.1" id="Layer_1" xmlns="http://www.w3.org/2000/svg" xmlns:xlink="http://www.w3.org/1999/xlink" x="0px" y="0px"
	 viewBox="0 0 511.999 511.999" style="enable-background:new 0 0 511.999 511.999;" xml:space="preserve">
<rect x="249.489" y="41.929" style="fill:#3A5D74;" width="55.925" height="38.356"/>
<g>
	<path style="fill:#578CAD;" d="M336.719,25.03c0,9.334-7.566,16.898-16.898,16.898h-84.744c-9.334,0-16.903-7.564-16.903-16.898
		l0,0c0-9.332,7.567-16.899,16.903-16.899h84.744C329.153,8.131,336.719,15.698,336.719,25.03L336.719,25.03z"/>
	<circle style="fill:#578CAD;" cx="269.123" cy="198.189" r="31.754"/>
</g>
<path style="fill:#73B7DD;" d="M230.597,80.282c-11.225,0-20.323,9.1-20.323,20.321v76.773c0,11.223,9.099,20.321,20.323,20.321
	h6.797c0.268-17.308,14.358-31.26,31.728-31.26s31.461,13.952,31.729,31.26h88.401V80.282H230.597z"/>
<g>
	<rect x="17.216" y="121.487" style="fill:#578CAD;" width="46.288" height="34.996"/>
	<path style="fill:#578CAD;" d="M494.782,198.826c0,11.223-9.098,20.321-20.322,20.321h-64.886
		c-11.224,0-20.322-9.099-20.322-20.321V79.153c0-11.225,9.099-20.322,20.322-20.322h64.886c11.224,0,20.322,9.098,20.322,20.322
		V198.826z"/>
</g>
<path style="fill:#90C8EC;" d="M145.811,94.395H83.826c-11.224,0-20.322,9.099-20.322,20.322v48.545
	c0,11.224,9.099,20.322,20.322,20.322h126.448V94.395h-36.276"/>
<path style="fill:#3A5D74;" d="M202.01,452.073c0,28.607-23.189,51.795-51.793,51.795s-51.79-23.189-51.79-51.795
	c0-28.6,23.186-51.79,51.79-51.79C178.821,400.283,202.01,423.472,202.01,452.073z"/>
<circle style="fill:#90C8EC;" cx="150.216" cy="452.08" r="19.193"/>
<path style="fill:#3A5D74;" d="M389.253,452.073c0,28.607-23.188,51.795-51.792,51.795s-51.792-23.189-51.792-51.795
	c0-28.6,23.189-51.79,51.792-51.79C366.064,400.283,389.253,423.472,389.253,452.073z"/>
<g>
	<circle style="fill:#90C8EC;" cx="337.455" cy="452.08" r="19.194"/>
	<path style="fill:#90C8EC;" d="M429.557,350.464H58.119c-11.225,0-20.322,9.098-20.322,20.321v60.968
		c0,11.224,9.098,20.32,20.322,20.32h40.308c0-28.6,23.186-51.79,51.79-51.79c28.605,0,51.793,23.191,51.793,51.79h83.658
		c0-28.6,23.189-51.79,51.792-51.79c28.605,0,51.792,23.191,51.792,51.79h40.305c11.225,0,20.322-9.097,20.322-20.32v-60.968
		C449.879,359.562,440.782,350.464,429.557,350.464z"/>
</g>
<g style="opacity:0.2;">
	<path style="fill:#231F20;" d="M243.506,25.03c0-9.332,7.567-16.899,16.903-16.899h-25.332c-9.334,0-16.903,7.567-16.903,16.899
		c0,9.334,7.567,16.898,16.903,16.898h25.332C251.074,41.929,243.506,34.365,243.506,25.03z"/>
</g>
<g style="opacity:0.2;">
	<path style="fill:#231F20;" d="M262.703,198.191c0-13.032,7.854-24.227,19.086-29.119c-3.881-1.69-8.162-2.634-12.667-2.634
		c-17.537,0-31.752,14.216-31.752,31.753s14.215,31.753,31.752,31.753c4.503,0,8.786-0.943,12.667-2.634
		C270.557,222.417,262.703,211.223,262.703,198.191z"/>
</g>
<g style="opacity:0.2;">
	<path style="fill:#231F20;" d="M235.606,177.376v-76.773c0-11.222,9.099-20.321,20.323-20.321h-25.332
		c-11.225,0-20.323,9.1-20.323,20.321v76.773c0,11.223,9.099,20.321,20.323,20.321h6.797c0.05-3.217,0.579-6.316,1.516-9.234
		C236.828,185.275,235.606,181.471,235.606,177.376z"/>
</g>
<g style="opacity:0.2;">
	<rect x="17.216" y="121.487" style="fill:#231F20;" width="25.332" height="34.996"/>
</g>
<g style="opacity:0.2;">
	<path style="fill:#231F20;" d="M414.584,198.826V79.153c0-11.225,9.099-20.322,20.322-20.322h-25.332
		c-11.224,0-20.322,9.098-20.322,20.322v119.673c0,11.223,9.099,20.321,20.322,20.321h25.332
		C423.683,219.147,414.584,210.048,414.584,198.826z"/>
</g>
<g style="opacity:0.2;">
	<path style="fill:#231F20;" d="M88.836,163.263v-48.545c0-11.224,9.099-20.322,20.322-20.322H83.826
		c-11.224,0-20.322,9.099-20.322,20.322v48.545c0,11.224,9.099,20.322,20.322,20.322h25.332
		C97.935,183.585,88.836,174.486,88.836,163.263z"/>
</g>
<g style="opacity:0.2;">
	<path style="fill:#231F20;" d="M123.759,452.073c0-24.23,16.645-44.572,39.124-50.223c-4.054-1.019-8.296-1.567-12.667-1.567
		c-28.604,0-51.79,23.191-51.79,51.79c0,28.607,23.186,51.795,51.79,51.795c4.37,0,8.612-0.547,12.667-1.565
		C140.403,496.65,123.759,476.31,123.759,452.073z"/>
</g>
<g style="opacity:0.2;">
	<path style="fill:#231F20;" d="M310.999,452.073c0-24.23,16.647-44.572,39.127-50.223c-4.055-1.019-8.296-1.567-12.667-1.567
		c-28.604,0-51.792,23.191-51.792,51.79c0,28.607,23.189,51.795,51.792,51.795c4.37,0,8.611-0.547,12.667-1.565
		C327.646,496.65,310.999,476.31,310.999,452.073z"/>
</g>
<g style="opacity:0.2;">
	<path style="fill:#231F20;" d="M63.129,431.753v-60.968c0-11.223,9.098-20.321,20.322-20.321H58.119
		c-11.225,0-20.322,9.098-20.322,20.321v60.968c0,11.224,9.098,20.32,20.322,20.32h25.332
		C72.227,452.073,63.129,442.977,63.129,431.753z"/>
</g>
<g>
	<path style="fill:#231F20;" d="M150.217,424.751c-15.065,0-27.322,12.258-27.322,27.325c0,15.065,12.257,27.322,27.322,27.322
		c15.067,0,27.325-12.257,27.325-27.322C177.542,437.009,165.284,424.751,150.217,424.751z M150.217,463.136
		c-6.098,0-11.06-4.961-11.06-11.06c0-6.1,4.962-11.063,11.06-11.063c6.1,0,11.064,4.963,11.064,11.063
		C161.281,458.175,156.317,463.136,150.217,463.136z"/>
	<path style="fill:#231F20;" d="M337.46,424.751c-15.066,0-27.324,12.258-27.324,27.325c0,15.065,12.258,27.322,27.324,27.322
		c15.067,0,27.325-12.257,27.325-27.322C364.785,437.009,352.528,424.751,337.46,424.751z M337.46,463.136
		c-6.1,0-11.062-4.961-11.062-11.06c0-6.1,4.962-11.063,11.062-11.063c6.1,0,11.064,4.963,11.064,11.063
		C348.523,458.175,343.56,463.136,337.46,463.136z"/>
	<path style="fill:#231F20;" d="M474.461,50.7h-64.886c-13.273,0-24.45,9.137-27.579,21.451h-68.455V50.06h6.28
		c13.801,0,25.029-11.227,25.029-25.029S333.622,0,319.821,0h-84.744c-13.803,0-25.034,11.228-25.034,25.03
		s11.229,25.029,25.034,25.029h6.277v22.091h-10.757c-10.463,0-19.618,5.68-24.562,14.114h-32.038c-4.492,0-8.131,3.639-8.131,8.131
		s3.639,8.131,8.131,8.131h28.145v72.928H83.826c-6.722,0-12.191-5.469-12.191-12.191v-6.774v-34.998v-6.774
		c0-6.722,5.469-12.191,12.191-12.191h61.985c4.492,0,8.131-3.639,8.131-8.131s-3.639-8.131-8.131-8.131H83.826
		c-15.234,0-27.707,12.035-28.418,27.096H17.216c-4.492,0-8.131,3.639-8.131,8.131v34.998c0,4.492,3.639,8.131,8.131,8.131h38.192
		c0.711,15.061,13.185,27.096,28.418,27.096h122.21c4.845,8.266,13.739,13.878,23.943,14.097
		c3.055,15.72,15.365,28.172,31.013,31.427v43H84.109c-4.492,0-8.131,3.639-8.131,8.131v53.962H58.119
		c-15.689,0-28.453,12.763-28.453,28.452v60.968c0,15.688,12.763,28.451,28.453,28.451h32.743
		c3.982,29.21,29.072,51.795,59.354,51.795c30.284,0,55.376-22.586,59.358-51.795h68.529c3.982,29.21,29.074,51.795,59.357,51.795
		s55.375-22.586,59.357-51.795h32.74c15.689,0,28.453-12.762,28.453-28.451v-60.968c0-15.688-12.763-28.452-28.453-28.452H92.24
		v-45.831h176.883c4.492,0,8.131-3.639,8.131-8.131v-51.132c15.644-3.253,27.952-15.698,31.013-31.41h73.729
		c3.128,12.313,14.305,21.449,27.579,21.449h64.886c15.689,0,28.453-12.763,28.453-28.452V79.153
		C502.913,63.464,490.149,50.7,474.461,50.7z M25.347,129.621h30.026v18.736H25.347V129.621z M150.217,495.738
		c-24.073,0-43.659-19.588-43.659-43.664c0-24.074,19.585-43.659,43.659-43.659c24.075,0,43.662,19.585,43.662,43.659
		C193.879,476.149,174.292,495.738,150.217,495.738z M337.46,495.738c-24.075,0-43.661-19.588-43.661-43.664
		c0-24.074,19.586-43.659,43.661-43.659c24.075,0,43.661,19.585,43.661,43.659C381.122,476.149,361.535,495.738,337.46,495.738z
		 M441.748,370.785v60.968c0,6.721-5.469,12.189-12.191,12.189h-32.723c-0.024-0.177-0.059-0.349-0.083-0.525
		c-0.06-0.411-0.128-0.819-0.196-1.226c-0.09-0.543-0.185-1.084-0.291-1.622c-0.079-0.408-0.165-0.813-0.253-1.217
		c-0.116-0.532-0.237-1.062-0.367-1.589c-0.099-0.4-0.199-0.798-0.306-1.195c-0.141-0.527-0.292-1.049-0.447-1.57
		c-0.115-0.386-0.23-0.773-0.352-1.156c-0.169-0.529-0.35-1.052-0.533-1.574c-0.128-0.365-0.254-0.732-0.389-1.094
		c-0.203-0.542-0.42-1.079-0.637-1.614c-0.136-0.332-0.265-0.666-0.404-0.994c-0.254-0.592-0.524-1.174-0.796-1.756
		c-0.122-0.262-0.237-0.529-0.363-0.789c-0.815-1.68-1.706-3.319-2.669-4.907c-0.142-0.234-0.294-0.462-0.439-0.694
		c-0.346-0.553-0.693-1.105-1.056-1.646c-0.192-0.286-0.394-0.565-0.591-0.848c-0.332-0.476-0.665-0.952-1.009-1.418
		c-0.221-0.298-0.45-0.59-0.675-0.885c-0.338-0.439-0.678-0.877-1.028-1.306c-0.242-0.297-0.489-0.589-0.736-0.881
		c-0.35-0.414-0.704-0.824-1.065-1.228c-0.259-0.289-0.52-0.575-0.785-0.86c-0.368-0.396-0.739-0.786-1.117-1.171
		c-0.271-0.276-0.543-0.552-0.82-0.823c-0.387-0.381-0.779-0.752-1.177-1.122c-0.281-0.26-0.56-0.521-0.846-0.777
		c-0.412-0.37-0.833-0.729-1.254-1.086c-0.283-0.24-0.564-0.481-0.851-0.717c-0.448-0.365-0.905-0.72-1.364-1.072
		c-0.274-0.21-0.544-0.427-0.822-0.632c-0.517-0.384-1.044-0.752-1.574-1.12c-0.23-0.159-0.455-0.326-0.688-0.484
		c-1.538-1.036-3.127-2.002-4.761-2.895c-0.246-0.136-0.5-0.258-0.748-0.389c-0.572-0.302-1.146-0.603-1.729-0.887
		c-0.318-0.155-0.641-0.297-0.962-0.447c-0.525-0.245-1.051-0.488-1.584-0.718c-0.35-0.151-0.706-0.293-1.06-0.436
		c-0.514-0.209-1.028-0.416-1.549-0.611c-0.372-0.14-0.747-0.271-1.122-0.403c-0.513-0.181-1.028-0.358-1.547-0.525
		c-0.387-0.125-0.776-0.244-1.167-0.361c-0.518-0.155-1.039-0.304-1.561-0.444c-0.397-0.107-0.794-0.211-1.194-0.311
		c-0.53-0.131-1.062-0.253-1.598-0.37c-0.4-0.088-0.799-0.176-1.201-0.255c-0.547-0.107-1.099-0.203-1.652-0.295
		c-0.397-0.067-0.792-0.137-1.191-0.196c-0.579-0.085-1.162-0.154-1.745-0.222c-0.379-0.044-0.757-0.095-1.138-0.133
		c-0.649-0.064-1.304-0.107-1.96-0.15c-0.321-0.022-0.639-0.051-0.962-0.067c-0.98-0.048-1.967-0.075-2.959-0.075
		c-0.992,0-1.979,0.027-2.959,0.075c-0.322,0.016-0.641,0.047-0.962,0.067c-0.655,0.042-1.311,0.086-1.96,0.15
		c-0.382,0.038-0.759,0.089-1.138,0.133c-0.583,0.068-1.167,0.138-1.745,0.222c-0.4,0.059-0.795,0.129-1.191,0.196
		c-0.553,0.092-1.105,0.188-1.652,0.295c-0.402,0.079-0.802,0.167-1.202,0.255c-0.536,0.117-1.068,0.238-1.598,0.37
		c-0.399,0.099-0.797,0.204-1.193,0.31c-0.524,0.141-1.045,0.289-1.563,0.445c-0.39,0.117-0.779,0.236-1.165,0.361
		c-0.519,0.167-1.034,0.344-1.547,0.525c-0.375,0.132-0.75,0.263-1.122,0.403c-0.52,0.195-1.035,0.402-1.549,0.611
		c-0.354,0.144-0.709,0.285-1.06,0.436c-0.533,0.23-1.059,0.473-1.584,0.718c-0.321,0.15-0.644,0.293-0.962,0.447
		c-0.584,0.285-1.159,0.586-1.732,0.889c-0.247,0.131-0.499,0.254-0.745,0.387c-1.635,0.893-3.224,1.86-4.763,2.897
		c-0.229,0.154-0.45,0.318-0.676,0.475c-0.533,0.37-1.065,0.742-1.586,1.129c-0.276,0.205-0.544,0.42-0.816,0.629
		c-0.46,0.353-0.918,0.708-1.367,1.075c-0.287,0.234-0.567,0.476-0.849,0.716c-0.423,0.359-0.843,0.719-1.257,1.088
		c-0.284,0.255-0.564,0.516-0.843,0.775c-0.398,0.371-0.791,0.744-1.18,1.124c-0.275,0.271-0.547,0.544-0.817,0.821
		c-0.378,0.386-0.751,0.777-1.12,1.174c-0.262,0.283-0.524,0.567-0.781,0.855c-0.363,0.407-0.719,0.819-1.07,1.235
		c-0.245,0.291-0.491,0.58-0.731,0.874c-0.352,0.433-0.694,0.873-1.034,1.315c-0.224,0.292-0.451,0.581-0.67,0.877
		c-0.347,0.469-0.682,0.948-1.015,1.426c-0.195,0.281-0.396,0.557-0.585,0.84c-0.366,0.546-0.717,1.103-1.066,1.661
		c-0.142,0.227-0.291,0.449-0.429,0.678c-0.964,1.59-1.855,3.229-2.671,4.91c-0.124,0.256-0.236,0.518-0.357,0.775
		c-0.274,0.586-0.546,1.174-0.802,1.771c-0.139,0.324-0.266,0.654-0.399,0.98c-0.22,0.541-0.439,1.081-0.643,1.628
		c-0.133,0.358-0.258,0.721-0.385,1.083c-0.185,0.526-0.368,1.053-0.538,1.585c-0.121,0.381-0.235,0.763-0.349,1.146
		c-0.156,0.525-0.308,1.051-0.45,1.581c-0.105,0.394-0.206,0.789-0.304,1.185c-0.13,0.531-0.254,1.065-0.371,1.601
		c-0.087,0.401-0.171,0.802-0.25,1.207c-0.106,0.542-0.202,1.086-0.293,1.634c-0.067,0.404-0.136,0.809-0.194,1.215
		c-0.026,0.178-0.061,0.351-0.085,0.529h-68.495c-0.024-0.178-0.059-0.352-0.085-0.529c-0.06-0.407-0.127-0.811-0.194-1.215
		c-0.091-0.546-0.186-1.092-0.293-1.634c-0.079-0.404-0.164-0.806-0.25-1.207c-0.116-0.537-0.24-1.07-0.371-1.601
		c-0.098-0.397-0.197-0.791-0.304-1.185c-0.142-0.53-0.294-1.057-0.45-1.581c-0.114-0.383-0.228-0.765-0.349-1.146
		c-0.17-0.532-0.352-1.06-0.538-1.585c-0.127-0.361-0.25-0.724-0.385-1.083c-0.205-0.547-0.423-1.088-0.643-1.628
		c-0.133-0.326-0.26-0.656-0.399-0.98c-0.257-0.6-0.53-1.189-0.805-1.778c-0.119-0.255-0.231-0.515-0.353-0.768
		c-0.815-1.683-1.707-3.321-2.671-4.912c-0.138-0.228-0.286-0.449-0.427-0.675c-0.349-0.559-0.701-1.118-1.068-1.665
		c-0.19-0.283-0.389-0.558-0.583-0.837c-0.334-0.479-0.669-0.958-1.017-1.428c-0.219-0.296-0.446-0.585-0.67-0.877
		c-0.34-0.442-0.682-0.882-1.034-1.315c-0.24-0.294-0.485-0.583-0.73-0.874c-0.352-0.416-0.708-0.83-1.072-1.237
		c-0.256-0.287-0.516-0.57-0.778-0.852c-0.369-0.398-0.743-0.79-1.122-1.176c-0.27-0.275-0.541-0.549-0.815-0.819
		c-0.388-0.382-0.783-0.756-1.181-1.126c-0.279-0.259-0.557-0.519-0.841-0.773c-0.414-0.371-0.836-0.732-1.26-1.092
		c-0.281-0.239-0.56-0.479-0.846-0.712c-0.45-0.367-0.91-0.723-1.37-1.078c-0.272-0.208-0.54-0.423-0.815-0.628
		c-0.52-0.387-1.053-0.759-1.586-1.129c-0.225-0.157-0.447-0.321-0.675-0.475c-1.538-1.036-3.128-2.003-4.764-2.897
		c-0.245-0.134-0.497-0.257-0.744-0.387c-0.575-0.304-1.149-0.605-1.734-0.889c-0.317-0.154-0.64-0.297-0.959-0.447
		c-0.526-0.245-1.052-0.488-1.585-0.718c-0.35-0.151-0.706-0.292-1.059-0.436c-0.514-0.209-1.029-0.416-1.55-0.611
		c-0.371-0.14-0.746-0.271-1.121-0.403c-0.513-0.181-1.029-0.358-1.548-0.525c-0.387-0.125-0.775-0.244-1.165-0.36
		c-0.518-0.156-1.04-0.304-1.563-0.446c-0.396-0.107-0.792-0.211-1.193-0.31c-0.53-0.131-1.064-0.253-1.599-0.37
		c-0.399-0.088-0.799-0.176-1.201-0.255c-0.547-0.108-1.099-0.203-1.653-0.296c-0.397-0.066-0.791-0.136-1.191-0.195
		c-0.579-0.085-1.162-0.154-1.745-0.222c-0.379-0.044-0.757-0.095-1.138-0.133c-0.649-0.064-1.304-0.107-1.96-0.15
		c-0.321-0.021-0.64-0.051-0.962-0.067c-0.981-0.048-1.967-0.075-2.959-0.075c-0.992,0-1.979,0.027-2.959,0.075
		c-0.322,0.016-0.641,0.046-0.962,0.067c-0.655,0.042-1.311,0.086-1.96,0.15c-0.382,0.038-0.759,0.089-1.138,0.133
		c-0.584,0.068-1.168,0.138-1.745,0.222c-0.399,0.059-0.795,0.129-1.191,0.196c-0.553,0.092-1.105,0.188-1.652,0.295
		c-0.402,0.079-0.802,0.167-1.201,0.255c-0.536,0.117-1.069,0.239-1.598,0.37c-0.399,0.099-0.796,0.204-1.193,0.31
		c-0.524,0.141-1.045,0.289-1.563,0.446c-0.39,0.116-0.778,0.235-1.165,0.36c-0.519,0.168-1.034,0.344-1.548,0.525
		c-0.375,0.132-0.749,0.263-1.12,0.403c-0.521,0.195-1.036,0.403-1.551,0.613c-0.353,0.144-0.708,0.285-1.057,0.435
		c-0.534,0.23-1.061,0.475-1.588,0.72c-0.319,0.149-0.641,0.292-0.956,0.444c-0.587,0.286-1.163,0.588-1.739,0.892
		c-0.245,0.13-0.495,0.251-0.738,0.384c-1.636,0.893-3.225,1.861-4.765,2.898c-0.224,0.151-0.441,0.312-0.663,0.466
		c-0.538,0.373-1.074,0.748-1.599,1.137c-0.272,0.203-0.536,0.413-0.804,0.619c-0.464,0.358-0.927,0.716-1.381,1.085
		c-0.283,0.231-0.559,0.469-0.838,0.706c-0.427,0.361-0.852,0.725-1.268,1.099c-0.281,0.251-0.556,0.508-0.833,0.765
		c-0.402,0.374-0.8,0.751-1.191,1.136c-0.271,0.267-0.54,0.537-0.806,0.809c-0.383,0.39-0.76,0.787-1.132,1.187
		c-0.258,0.279-0.515,0.558-0.769,0.842c-0.368,0.411-0.727,0.829-1.083,1.25c-0.242,0.285-0.484,0.57-0.719,0.86
		c-0.357,0.438-0.703,0.884-1.047,1.332c-0.219,0.286-0.441,0.569-0.656,0.859c-0.353,0.477-0.694,0.964-1.033,1.452
		c-0.19,0.272-0.384,0.54-0.568,0.815c-0.374,0.557-0.732,1.124-1.087,1.694c-0.136,0.217-0.278,0.428-0.41,0.646
		c-0.966,1.594-1.859,3.235-2.676,4.921c-0.117,0.242-0.223,0.489-0.337,0.732c-0.281,0.601-0.559,1.202-0.821,1.813
		c-0.136,0.317-0.26,0.64-0.39,0.959c-0.223,0.547-0.444,1.095-0.653,1.65c-0.131,0.352-0.254,0.709-0.378,1.065
		c-0.188,0.532-0.372,1.065-0.544,1.603c-0.12,0.375-0.232,0.753-0.345,1.132c-0.158,0.529-0.31,1.06-0.454,1.595
		c-0.105,0.39-0.204,0.783-0.3,1.175c-0.131,0.533-0.255,1.068-0.372,1.607c-0.087,0.4-0.171,0.8-0.249,1.203
		c-0.106,0.542-0.202,1.087-0.293,1.635c-0.067,0.405-0.136,0.81-0.194,1.216c-0.026,0.177-0.061,0.351-0.085,0.528H58.119
		c-6.722,0-12.191-5.468-12.191-12.189v-60.968c0-6.722,5.469-12.19,12.191-12.19h371.437
		C436.279,358.595,441.748,364.063,441.748,370.785z M226.305,25.03c0-4.835,3.935-8.768,8.772-8.768h84.744
		c4.834,0,8.767,3.933,8.767,8.768c0,4.834-3.933,8.767-8.767,8.767H305.41h-55.925h-14.408
		C230.241,33.798,226.305,29.864,226.305,25.03z M257.616,50.06h39.663v22.091h-39.663V50.06z M218.405,177.376v-76.773
		c0-6.722,5.469-12.19,12.192-12.19h18.888h55.925h75.712v101.154h-73.064c-3.449-15.576-16.024-27.75-31.811-30.61
		c-0.121-0.023-0.243-0.044-0.364-0.065c-0.42-0.072-0.84-0.138-1.263-0.197c-0.238-0.034-0.479-0.063-0.719-0.091
		c-0.345-0.041-0.689-0.082-1.038-0.115c-0.352-0.034-0.707-0.056-1.061-0.081c-0.26-0.017-0.518-0.039-0.778-0.052
		c-0.63-0.03-1.264-0.048-1.9-0.048c-0.637,0-1.27,0.018-1.9,0.048c-0.26,0.012-0.518,0.035-0.777,0.052
		c-0.354,0.024-0.71,0.048-1.062,0.081c-0.347,0.033-0.692,0.074-1.036,0.115c-0.24,0.029-0.479,0.057-0.718,0.091
		c-0.424,0.059-0.845,0.125-1.264,0.196c-0.121,0.022-0.243,0.043-0.364,0.065c-15.784,2.859-28.357,15.03-31.808,30.602
		C223.656,189.344,218.405,183.962,218.405,177.376z M269.123,221.813c-13.025,0-23.621-10.596-23.621-23.622
		c0-0.007,0-0.012,0-0.018c0.007-0.117,0.021-0.231,0.023-0.349c0.199-12.823,10.784-23.255,23.598-23.255
		c12.814,0,23.4,10.431,23.599,23.255c0.002,0.126,0.016,0.247,0.024,0.371C292.744,211.218,282.147,221.813,269.123,221.813z
		 M486.652,198.825c0,6.722-5.469,12.19-12.191,12.19h-64.886c-6.722,0-12.191-5.468-12.191-12.19v-1.129V80.282v-1.129
		c0-6.722,5.469-12.191,12.191-12.191h64.886c6.722,0,12.191,5.469,12.191,12.191V198.825z"/>
</g>
<g>
</g>
<g>
</g>
<g>
</g>
<g>
</g>
<g>
</g>
<g>
</g>
<g>
</g>
<g>
</g>
<g>
</g>
<g>
</g>
<g>
</g>
<g>
</g>
<g>
</g>
<g>
</g>
<g>
</g>
</svg>
