<?xml version="1.0" encoding="iso-8859-1"?>
<!-- Generator: Adobe Illustrator 19.0.0, SVG Export Plug-In . SVG Version: 6.00 Build 0)  -->
<svg version="1.1" id="Layer_1" xmlns="http://www.w3.org/2000/svg" xmlns:xlink="http://www.w3.org/1999/xlink" x="0px" y="0px"
	 viewBox="0 0 512.001 512.001" style="enable-background:new 0 0 512.001 512.001;" xml:space="preserve">
<path style="fill:#90C8EC;" d="M377.69,70.744c-40.136,4.722-36.988-36.201-36.988-36.201
	c-54.796,17.024-86.313,62.627-101.555,90.812l138.757,112.293c59.693-29.791,69.794-83.041,71.224-126.146l0.111-27.61
	c-0.068-6.271-0.113-12.022,0.064-17.083c1.573-44.857,51.15-57.449,51.15-57.449C397.365-1.657,417.825,66.02,377.69,70.744z"/>
<g style="opacity:0.2;">
	<path style="fill:#231F20;" d="M402.023,81.639c31.478-3.704,25.691-46.129,71.462-58.944c13.239-9.843,26.97-13.333,26.97-13.333
		C397.365-1.657,417.825,66.02,377.69,70.744c-2.079,0.245-4.037,0.361-5.89,0.373C376.998,78.203,386.104,83.512,402.023,81.639z"
		/>
	<path style="fill:#231F20;" d="M263.479,136.251c13.166-24.344,38.486-61.666,80.445-82.36c-3.977-9.484-3.222-19.347-3.222-19.347
		c-54.796,17.024-86.313,62.627-101.555,90.812l138.757,112.293c2.26-1.128,4.441-2.293,6.56-3.486L263.479,136.251z"/>
</g>
<circle style="fill:#578CAD;" cx="284.285" cy="211.376" r="93.251"/>
<circle style="fill:#3A5D74;" cx="284.285" cy="211.376" r="39.44"/>
<g style="opacity:0.2;">
	<path style="fill:#231F20;" d="M228.915,257.893c-25.691-44.638-10.335-101.652,34.3-127.342
		c10.727-6.175,22.171-9.955,33.721-11.552c-19.765-2.72-40.544,0.829-59.173,11.552c-44.636,25.691-59.991,82.704-34.3,127.342
		c19.521,33.909,57.115,50.897,93.627,45.85C269.498,299.944,243.888,283.901,228.915,257.893z"/>
</g>
<g style="opacity:0.2;">
	<path style="fill:#231F20;" d="M275.555,231.044c-10.866-18.875-4.371-42.986,14.506-53.854c2.248-1.294,4.57-2.334,6.935-3.143
		c-10.37-3.528-22.145-2.751-32.387,3.143c-18.877,10.868-25.371,34.979-14.506,53.854c9.573,16.632,29.424,23.643,46.921,17.65
		C288.277,245.719,280.529,239.683,275.555,231.044z"/>
</g>
<path style="fill:#FF4D30;" d="M330.807,292.193c-44.636,25.693-101.649,10.333-127.344-34.3
	c-21.178-36.794-14.444-81.979,13.568-111.119c-8.496-1.232-17.179-1.884-26.014-1.884c-99.121,0-179.471,80.351-179.471,179.471
	c0,99.118,80.35,179.469,179.471,179.469c99.117,0,179.469-80.351,179.469-179.469c0-20.75-3.533-40.676-10.013-59.215
	C352.901,275.888,342.948,285.205,330.807,292.193z"/>
<g style="opacity:0.2;">
	<path style="fill:#231F20;" d="M37.246,324.362c0-94.795,73.493-172.413,166.609-179.007c-4.241-0.303-8.52-0.464-12.837-0.464
		c-99.121,0-179.471,80.351-179.471,179.471c0,99.118,80.35,179.469,179.471,179.469c4.321,0,8.604-0.161,12.849-0.463
		C110.745,496.778,37.246,419.157,37.246,324.362z"/>
</g>
<g>
	<path style="fill:#231F20;" d="M243.023,235.12c8.474,14.722,24.299,23.867,41.299,23.867c8.292,0,16.494-2.198,23.715-6.355
		c11.023-6.343,18.914-16.6,22.222-28.88c3.307-12.28,1.634-25.112-4.71-36.132c-8.473-14.721-24.298-23.867-41.299-23.867
		c-8.292,0-16.494,2.199-23.716,6.355C237.782,183.208,229.926,212.371,243.023,235.12z M268.686,184.272
		c4.746-2.731,10.127-4.176,15.562-4.176c11.172,0,21.57,6.008,27.135,15.677c4.166,7.24,5.266,15.666,3.093,23.729
		c-2.171,8.065-7.354,14.8-14.595,18.966c-4.745,2.732-10.127,4.176-15.561,4.176c-11.172,0-21.569-6.008-27.135-15.678
		C248.586,212.027,253.744,192.875,268.686,184.272z"/>
	<path style="fill:#231F20;" d="M508.605,8.781c-0.282-3.945-3.349-7.123-7.283-7.544c-70.246-7.51-88.419,20.779-101.688,41.434
		c-7.882,12.271-12.48,18.731-22.899,19.958c-9.157,1.074-16.082-0.556-20.592-4.85c-8.206-7.817-7.302-22.494-7.294-22.608
		c0.208-2.7-0.935-5.328-3.053-7.015c-2.116-1.687-4.929-2.218-7.519-1.414c-54.725,17.001-88.022,60.898-106.317,94.728
		c-0.623,1.153-0.933,2.388-0.972,3.615c-6.186,3.818-11.823,8.206-16.885,13.059c-7.671-0.942-15.418-1.424-23.086-1.424
		c-103.466,0-187.642,84.176-187.642,187.642c0,103.465,84.176,187.64,187.642,187.64c103.465,0,187.64-84.175,187.64-187.64
		c0-19.821-3.08-39.316-9.158-58.013c4.194-6.525,7.605-13.486,10.199-20.728c0.63-0.142,1.253-0.358,1.857-0.659
		c65.004-32.442,74.36-91.549,75.742-133.187c0.15-4.511-3.385-8.288-7.896-8.438c-4.466-0.133-8.288,3.384-8.438,7.896
		c-1.259,37.953-9.028,84.303-56.15,113.252c2.805-21.316-1.094-43.678-12.622-63.709c-18.052-31.363-51.769-50.845-87.991-50.845
		c-9.84,0-19.621,1.458-29.016,4.278c16.468-25.778,41.643-53.908,78.066-68.371c1.212,7.35,4.226,16.673,11.52,23.678
		c8.204,7.879,19.591,11.024,33.874,9.344c18.572-2.186,26.791-14.982,34.74-27.355c9.653-15.029,20.325-31.647,54.319-34.689
		c-16.706,12.774-25.872,29.886-26.568,49.709c-0.181,5.149-0.138,10.953-0.069,17.456c0.048,4.483,3.698,8.084,8.169,8.084
		c0.029,0,0.06,0,0.089,0c4.513-0.049,8.132-3.746,8.084-8.258c-0.069-6.3-0.11-11.906,0.059-16.71
		c1.336-38.064,43.233-49.358,44.996-49.814C506.299,16.307,508.886,12.727,508.605,8.781z M357.044,282.062
		c3.502,13.765,5.271,27.938,5.271,42.299c0,94.454-76.843,171.298-171.297,171.298s-171.3-76.843-171.3-171.298
		s76.844-171.3,171.3-171.3c3.35,0,6.718,0.1,10.087,0.299c-4.593,6.608-8.357,13.708-11.247,21.13
		c-0.082,0.209-0.163,0.419-0.244,0.63c-0.222,0.581-0.437,1.164-0.647,1.749c-0.136,0.375-0.275,0.75-0.406,1.127
		c-0.029,0.086-0.058,0.173-0.087,0.259c-2.265,6.525-3.88,13.283-4.772,20.156c-2.208,17.003-0.125,33.892,6.003,49.605
		c0.001,0.003,0.003,0.007,0.004,0.011c0.507,1.298,1.04,2.586,1.602,3.867c0.263,0.602,0.533,1.203,0.808,1.802
		c0.19,0.411,0.375,0.823,0.57,1.231c0.477,1.001,0.975,1.997,1.488,2.989c0.146,0.283,0.295,0.564,0.445,0.847
		c0.569,1.075,1.152,2.147,1.763,3.211c18.054,31.36,51.771,50.842,87.994,50.842c17.658,0,35.122-4.681,50.507-13.537
		c0.914-0.526,1.813-1.069,2.704-1.619c0.296-0.183,0.59-0.369,0.885-0.556c0.603-0.38,1.2-0.766,1.791-1.158
		c0.328-0.217,0.657-0.431,0.982-0.652c0.714-0.484,1.419-0.974,2.116-1.473c0.47-0.336,0.932-0.679,1.396-1.022
		c0.405-0.301,0.811-0.601,1.21-0.906c0.461-0.352,0.918-0.709,1.373-1.069c0.306-0.242,0.608-0.488,0.91-0.733
		c1.632-1.324,3.219-2.695,4.762-4.117c0.234-0.216,0.468-0.431,0.701-0.649c0.473-0.443,0.944-0.89,1.408-1.343
		c0.226-0.22,0.446-0.443,0.668-0.665C356.206,282.896,356.632,282.486,357.044,282.062z M358.026,168.927
		c17.29,30.043,14.121,66.33-5.103,92.68c-0.452,0.618-0.905,1.234-1.371,1.838c-0.433,0.56-0.877,1.113-1.324,1.664
		c-0.47,0.577-0.944,1.148-1.427,1.712c-0.488,0.569-0.983,1.133-1.487,1.69c-0.458,0.506-0.924,1.002-1.392,1.496
		c-0.552,0.581-1.107,1.159-1.678,1.726c-0.447,0.443-0.904,0.876-1.361,1.311c-0.609,0.579-1.217,1.156-1.846,1.718
		c-0.455,0.407-0.925,0.801-1.39,1.198c-0.645,0.552-1.288,1.108-1.952,1.643c-0.507,0.407-1.031,0.797-1.547,1.194
		c-0.643,0.494-1.28,0.995-1.94,1.472c-0.658,0.475-1.337,0.926-2.009,1.383c-0.546,0.372-1.08,0.755-1.636,1.117
		c-1.253,0.811-2.529,1.594-3.832,2.345c-12.91,7.43-27.556,11.358-42.356,11.358c-30.394,0-58.684-16.344-73.83-42.652
		c-0.659-1.145-1.279-2.302-1.878-3.465c-0.247-0.48-0.479-0.965-0.717-1.449c-0.318-0.646-0.63-1.294-0.93-1.945
		c-0.306-0.668-0.606-1.337-0.893-2.01c-0.168-0.389-0.327-0.779-0.488-1.169c-9.084-22.152-8.279-47.124,1.644-68.478
		c0.04-0.086,0.078-0.173,0.119-0.259c0.396-0.842,0.811-1.677,1.234-2.508c0.162-0.317,0.326-0.634,0.492-0.949
		c0.377-0.717,0.763-1.431,1.161-2.138c0.241-0.427,0.49-0.85,0.74-1.274c0.368-0.629,0.736-1.258,1.121-1.878
		c0.336-0.538,0.687-1.068,1.035-1.598c0.55-0.842,1.116-1.676,1.697-2.5c0.454-0.643,0.906-1.287,1.378-1.918
		c0.378-0.504,0.775-0.999,1.165-1.496c0.389-0.496,0.777-0.991,1.178-1.48c0.439-0.534,0.89-1.06,1.343-1.585
		c0.362-0.418,0.727-0.835,1.097-1.246c0.508-0.564,1.021-1.124,1.545-1.677c5.522-5.822,11.949-10.963,19.25-15.165
		c12.912-7.432,27.558-11.36,42.36-11.36C314.593,126.272,342.882,142.617,358.026,168.927z"/>
</g>
<g>
</g>
<g>
</g>
<g>
</g>
<g>
</g>
<g>
</g>
<g>
</g>
<g>
</g>
<g>
</g>
<g>
</g>
<g>
</g>
<g>
</g>
<g>
</g>
<g>
</g>
<g>
</g>
<g>
</g>
</svg>
