<?xml version="1.0" encoding="iso-8859-1"?>
<!-- Generator: Adobe Illustrator 19.0.0, SVG Export Plug-In . SVG Version: 6.00 Build 0)  -->
<svg version="1.1" id="Layer_1" xmlns="http://www.w3.org/2000/svg" xmlns:xlink="http://www.w3.org/1999/xlink" x="0px" y="0px"
	 viewBox="0 0 512 512" style="enable-background:new 0 0 512 512;" xml:space="preserve">
<g>
	<path style="fill:#90C8EC;" d="M141.446,268.342L16.431,393.356c-9.835,9.835-11.028,24.588-2.664,32.948l71.928,71.931
		c8.362,8.364,23.116,7.17,32.952-2.666l125.013-125.013C190.167,364.244,147.755,321.833,141.446,268.342z"/>
	<path style="fill:#90C8EC;" d="M498.237,85.692l-71.93-71.928c-8.362-8.362-23.116-7.17-32.949,2.664L271.33,138.456
		c53.493,6.312,95.899,48.724,102.214,102.217l122.028-122.028C505.407,108.808,506.6,94.056,498.237,85.692z"/>
	<path style="fill:#90C8EC;" d="M241.008,138.796L118.643,16.429c-9.835-9.834-24.585-11.027-32.949-2.664l-71.93,71.927
		c-8.36,8.365-7.17,23.116,2.667,32.953l124.711,124.715C146.242,189.497,187.882,146.298,241.008,138.796z"/>
	<path style="fill:#90C8EC;" d="M495.57,393.356L373.205,270.993c-7.5,53.126-50.701,94.763-104.564,99.863l124.714,124.712
		c9.835,9.836,24.587,11.029,32.947,2.666l71.934-71.931C506.598,417.944,505.407,403.191,495.57,393.356z"/>
</g>
<g>
	<path style="fill:#B1DBF2;" d="M191.305,89.09l-72.662-72.662c-9.835-9.834-24.585-11.027-32.949-2.664l-71.93,71.928
		c-8.36,8.365-7.17,23.116,2.667,32.953l72.662,72.662L191.305,89.09z"/>
	<path style="fill:#B1DBF2;" d="M320.696,422.91l72.66,72.66c9.835,9.836,24.587,11.029,32.952,2.666l71.93-71.929
		c8.36-8.364,7.17-23.115-2.665-32.952l-72.664-72.664L320.696,422.91z"/>
	<path style="fill:#B1DBF2;" d="M320.696,89.09l72.662-72.662c9.833-9.834,24.587-11.027,32.949-2.664l71.93,71.928
		c8.362,8.365,7.17,23.116-2.665,32.953l-72.664,72.662L320.696,89.09z"/>
</g>
<g>
	<path style="fill:#C7E9F9;" d="M145.841,43.627l-27.199-27.198c-9.835-9.834-24.585-11.027-32.949-2.664L13.764,85.692
		c-8.36,8.365-7.17,23.116,2.667,32.953l27.196,27.199L145.841,43.627z"/>
	<path style="fill:#C7E9F9;" d="M366.159,468.372l27.197,27.198c9.835,9.836,24.587,11.029,32.952,2.666l71.93-71.929
		c8.36-8.364,7.17-23.115-2.665-32.952l-27.201-27.197L366.159,468.372z"/>
	<path style="fill:#C7E9F9;" d="M366.16,43.627l27.197-27.198c9.833-9.834,24.587-11.027,32.949-2.664l71.93,71.928
		c8.362,8.365,7.17,23.116-2.665,32.953l-27.199,27.199L366.16,43.627z"/>
	<path style="fill:#C7E9F9;" d="M145.841,468.372l-27.199,27.198c-9.833,9.836-24.585,11.029-32.947,2.666l-71.93-71.929
		c-8.362-8.364-7.17-23.115,2.665-32.952l27.196-27.197L145.841,468.372z"/>
</g>
<path style="fill:#B1DBF2;" d="M191.307,422.91l-72.664,72.66c-9.833,9.836-24.585,11.029-32.947,2.666l-71.93-71.929
	c-8.362-8.364-7.17-23.115,2.665-32.952l72.662-72.664L191.307,422.91z"/>
<path style="fill:#578CAD;" d="M374.387,254.507c0,64.558-52.336,116.892-116.891,116.892c-64.562,0-116.893-52.334-116.893-116.892
	c0-64.557,52.331-116.892,116.893-116.892C322.051,137.614,374.387,189.949,374.387,254.507z"/>
<path style="fill:#3A5D74;" d="M292.827,289.841c-9.042,9.042-21.534,14.636-35.331,14.636c-27.6,0-49.969-22.372-49.969-49.969
	s22.37-49.968,49.969-49.968c27.594,0,49.967,22.372,49.967,49.968c0,4.842-0.688,9.523-1.973,13.951"/>
<g style="opacity:0.2;">
	<path style="fill:#231F20;" d="M166.905,254.507c0-60.11,45.373-109.616,103.742-116.152c-4.318-0.483-8.703-0.741-13.15-0.741
		c-64.562,0-116.893,52.335-116.893,116.892c0,64.558,52.331,116.892,116.893,116.892c4.447,0,8.832-0.257,13.15-0.741
		C212.278,364.122,166.905,314.617,166.905,254.507z"/>
</g>
<g style="opacity:0.2;">
	<path style="fill:#231F20;" d="M233.828,254.507c0-23.043,15.602-42.433,36.817-48.207c-4.191-1.141-8.596-1.761-13.149-1.761
		c-27.6,0-49.969,22.372-49.969,49.968c0,27.598,22.37,49.969,49.969,49.969c4.553,0,8.958-0.619,13.149-1.761
		C249.43,296.941,233.828,277.552,233.828,254.507z"/>
</g>
<g>
	<path style="fill:#231F20;" d="M298.622,295.635c3.2-3.201,3.2-8.389,0-11.589c-3.201-3.199-8.389-3.199-11.589,0
		c-7.89,7.89-18.379,12.236-29.536,12.236c-23.036,0-41.775-18.74-41.775-41.775c0-23.034,18.74-41.774,41.775-41.774
		c23.033,0,41.773,18.74,41.773,41.774c0,3.973-0.555,7.898-1.649,11.667c-1.261,4.347,1.241,8.892,5.586,10.153
		c4.345,1.261,8.891-1.239,10.153-5.586c1.525-5.255,2.298-10.717,2.298-16.233c0-32.071-26.091-58.162-58.161-58.162
		c-32.071,0-58.164,26.091-58.164,58.162s26.093,58.164,58.164,58.164C273.03,312.67,287.635,306.621,298.622,295.635z"/>
	<path style="fill:#231F20;" d="M511.895,409.722c-0.486-6.003-2.643-11.846-6.186-16.957c-0.009-0.013-0.017-0.026-0.026-0.039
		c-0.27-0.388-0.548-0.77-0.835-1.149c-0.058-0.079-0.115-0.157-0.174-0.235c-0.24-0.314-0.489-0.622-0.741-0.93
		c-0.107-0.131-0.21-0.266-0.319-0.396c-0.205-0.246-0.421-0.485-0.634-0.725c-0.16-0.181-0.316-0.365-0.48-0.544
		c-0.144-0.157-0.296-0.308-0.443-0.463c-0.229-0.241-0.454-0.487-0.693-0.724l-72.664-72.664c-0.011-0.011-0.024-0.022-0.036-0.033
		l-46.821-46.819c0.481-4.449,0.735-8.964,0.735-13.539c0-3.641-0.166-7.246-0.472-10.81l92.049-92.049
		c0.003-0.003,0.007-0.005,0.01-0.009l27.199-27.2c13.012-13.013,14.209-32.994,2.664-44.542L432.102,7.969
		c-5.138-5.138-12.182-7.968-19.834-7.968c-1.677,0-3.356,0.137-5.021,0.402c-7.219,1.153-14.192,4.74-19.682,10.23l-72.662,72.662
		l0,0l-46.596,46.596c-3.564-0.307-7.167-0.472-10.809-0.472c-4.575,0-9.091,0.253-13.54,0.735l-46.84-46.841
		c-0.005-0.005-0.011-0.013-0.017-0.019l-45.457-45.457c-0.002-0.002-0.003-0.004-0.005-0.007l-27.201-27.196
		c-6.757-6.757-15.761-10.632-24.702-10.632c-1.435,0-2.847,0.099-4.231,0.295C89.508,1.144,84.074,3.796,79.897,7.97L7.968,79.899
		c-1.803,1.804-3.295,3.814-4.481,5.972c-0.474,0.863-0.899,1.749-1.275,2.656c-0.376,0.907-0.703,1.832-0.981,2.774
		c-0.834,2.826-1.229,5.796-1.192,8.809c0.105,8.536,3.684,17.415,10.597,24.329l16.503,16.503l10.694,10.694
		c0.002,0.002,0.005,0.004,0.008,0.007l94.833,94.835c-0.169,2.655-0.264,5.331-0.264,8.027c0,3.643,0.166,7.247,0.472,10.811
		L83.317,314.88c-0.007,0.005-0.013,0.011-0.019,0.016l-45.177,45.178l-0.284,0.284c-0.001,0.001-0.002,0.002-0.003,0.003
		l-6.939,6.94l-20.259,20.258c-0.402,0.402-0.792,0.812-1.172,1.228c-0.043,0.046-0.082,0.094-0.125,0.14
		c-0.337,0.371-0.666,0.747-0.987,1.13c-0.037,0.045-0.072,0.091-0.109,0.135c-0.326,0.392-0.642,0.789-0.949,1.192
		c-0.008,0.01-0.015,0.021-0.023,0.031c-4.127,5.419-6.636,11.768-7.165,18.305c-0.619,7.66,1.5,14.759,5.993,20.29
		c0.583,0.722,1.204,1.421,1.873,2.09l71.93,71.929c5.138,5.137,12.182,7.968,19.833,7.968c3.352,0,6.712-0.545,9.959-1.581
		c5.418-1.73,10.524-4.827,14.748-9.053l122.243-122.243c3.564,0.307,7.168,0.472,10.811,0.472c2.698,0,5.372-0.096,8.027-0.264
		l122.037,122.036c4.646,4.647,10.354,7.931,16.373,9.529c2.736,0.727,5.537,1.106,8.332,1.106h0.001
		c7.65,0,14.694-2.83,19.834-7.968l71.931-71.93c0.447-0.447,0.869-0.911,1.277-1.383
		C510.207,425.089,512.54,417.71,511.895,409.722z M491.157,400.68c0.304,0.367,0.601,0.739,0.876,1.119
		c0.105,0.146,0.196,0.297,0.296,0.445c0.221,0.323,0.442,0.646,0.641,0.978c0.074,0.122,0.135,0.248,0.207,0.371
		c0.213,0.373,0.424,0.746,0.61,1.128c0.031,0.062,0.056,0.126,0.085,0.189c0.936,1.97,1.519,4.044,1.687,6.134
		c0.191,2.362-0.168,4.558-1.027,6.438c-0.01,0.022-0.022,0.043-0.033,0.064c-0.161,0.344-0.337,0.68-0.53,1.001
		c-0.064,0.106-0.139,0.205-0.208,0.309c-0.156,0.24-0.312,0.481-0.487,0.706c-0.198,0.252-0.416,0.492-0.639,0.729
		c-0.067,0.071-0.125,0.15-0.193,0.219l-71.936,71.932c-2.618,2.618-5.925,3.167-8.24,3.167h-0.001
		c-4.628,0-9.409-2.126-13.116-5.834l-15.971-15.971l-5.432-5.432l90.624-90.625l9.731,9.729l11.674,11.674
		c0.421,0.421,0.819,0.853,1.199,1.299C491.039,400.524,491.094,400.604,491.157,400.68z M456.783,366.158l-90.625,90.626
		l-33.874-33.874l90.622-90.629L456.783,366.158z M366.16,55.215l90.625,90.629l-33.876,33.875l-90.624-90.628L366.16,55.215z
		 M420.514,19.559l71.929,71.927c1.288,1.289,2.181,2.855,2.69,4.582c1.527,5.181-0.387,11.815-5.355,16.783l-21.404,21.404
		L377.75,43.627l21.403-21.405c3.706-3.706,8.486-5.832,13.115-5.832C414.584,16.39,417.894,16.939,420.514,19.559z
		 M320.696,100.678l90.625,90.629l-32.544,32.544c-3.477-13.75-9.239-26.598-16.853-38.122c-0.033-0.049-0.064-0.097-0.096-0.146
		c-0.708-1.069-1.429-2.129-2.169-3.175c-0.11-0.157-0.222-0.314-0.333-0.47c-0.594-0.83-1.199-1.654-1.811-2.469
		c-0.467-0.623-0.942-1.238-1.42-1.851c-0.153-0.197-0.307-0.392-0.462-0.588c-3.015-3.825-6.245-7.492-9.707-10.953
		c-3.475-3.475-7.156-6.717-10.998-9.742c-0.165-0.13-0.33-0.261-0.496-0.39c-0.639-0.498-1.28-0.994-1.929-1.479
		c-0.7-0.527-1.408-1.042-2.118-1.555c-0.302-0.216-0.603-0.434-0.907-0.648c-0.989-0.698-1.991-1.38-3.001-2.05
		c-0.087-0.058-0.176-0.116-0.263-0.174c-11.508-7.595-24.335-13.342-38.062-16.813L320.696,100.678z M55.217,145.843l90.625-90.627
		l33.874,33.875l-90.624,90.627L55.217,145.843z M99.734,16.39c4.627,0,9.407,2.126,13.114,5.833l21.404,21.404l-90.624,90.627
		L22.225,112.85c-4.14-4.14-6.16-9.436-5.834-14.085c0.196-2.789,1.236-5.346,3.167-7.279l71.929-71.928
		C94.106,16.939,97.418,16.39,99.734,16.39z M100.68,191.307l90.624-90.628l33.172,33.172c-13.522,3.705-26.135,9.623-37.426,17.347
		c-0.469,0.319-0.934,0.645-1.398,0.97c-0.409,0.287-0.815,0.579-1.219,0.872c-6.181,4.445-11.982,9.447-17.284,14.984
		c-5.296,5.531-10.036,11.534-14.203,17.894c-0.324,0.493-0.65,0.984-0.967,1.482c-0.243,0.382-0.481,0.767-0.719,1.15
		c-0.54,0.866-1.07,1.74-1.589,2.621c-0.078,0.132-0.157,0.262-0.234,0.394c-6.235,10.664-10.943,22.325-13.808,34.688
		L100.68,191.307z M99.735,495.608c-2.316,0-5.627-0.55-8.246-3.167l-71.93-71.933c-0.174-0.174-0.328-0.365-0.488-0.551
		c-0.11-0.128-0.232-0.25-0.335-0.382c-0.202-0.259-0.383-0.532-0.559-0.81c-0.045-0.07-0.096-0.137-0.139-0.206
		c-0.204-0.339-0.391-0.689-0.557-1.053c-0.002-0.005-0.005-0.01-0.008-0.015c-0.862-1.882-1.223-4.082-1.031-6.448
		c0.168-2.08,0.746-4.144,1.675-6.105c0.035-0.074,0.066-0.15,0.102-0.224c0.176-0.361,0.376-0.713,0.577-1.065
		c0.083-0.145,0.155-0.292,0.241-0.435c0.175-0.29,0.37-0.57,0.56-0.854c0.128-0.189,0.244-0.382,0.379-0.569
		c0.193-0.269,0.41-0.528,0.617-0.79c0.149-0.187,0.286-0.379,0.444-0.564c0.376-0.44,0.771-0.871,1.188-1.287l21.402-21.402
		l90.626,90.625l-21.405,21.404c-2.405,2.406-5.263,4.131-8.237,5.056C103.002,495.333,101.36,495.608,99.735,495.608z
		 M179.289,423.339l-33.447,33.444l-90.626-90.625l33.877-33.877l90.625,90.629L179.289,423.339z M191.307,411.322l-90.625-90.629
		l35.532-35.532c3.467,13.706,9.203,26.516,16.782,38.011c0.08,0.121,0.16,0.241,0.239,0.363c0.632,0.951,1.274,1.893,1.929,2.825
		c0.338,0.482,0.684,0.957,1.028,1.433c0.405,0.558,0.81,1.117,1.224,1.668c0.521,0.697,1.053,1.386,1.59,2.073
		c0.08,0.103,0.16,0.204,0.24,0.306c3.047,3.876,6.314,7.591,9.819,11.095c3.506,3.506,7.223,6.776,11.102,9.824
		c0.098,0.078,0.198,0.155,0.296,0.233c0.688,0.538,1.38,1.072,2.079,1.595c0.538,0.404,1.083,0.799,1.628,1.194
		c0.494,0.357,0.987,0.716,1.486,1.065c0.924,0.651,1.86,1.288,2.802,1.914c0.127,0.083,0.252,0.167,0.379,0.25
		c11.493,7.576,24.301,13.311,38.005,16.776L191.307,411.322z M244.872,362.467c-0.085-0.013-0.166-0.038-0.251-0.048
		c-4.578-0.541-9.062-1.365-13.439-2.443c-0.179-0.045-0.361-0.086-0.54-0.132c-1.095-0.275-2.179-0.579-3.26-0.887
		c-35.76-10.325-63.997-38.558-74.33-74.313c-0.314-1.099-0.622-2.199-0.901-3.313c-0.039-0.156-0.075-0.312-0.115-0.469
		c-1.084-4.391-1.91-8.889-2.452-13.482c-0.011-0.091-0.037-0.176-0.05-0.267c-0.481-4.139-0.735-8.344-0.735-12.609
		c0-3.475,0.17-6.91,0.492-10.303c0.002-0.024,0.01-0.047,0.012-0.072c0.147-1.561,0.329-3.113,0.54-4.653
		c0.002-0.016,0.004-0.033,0.008-0.049c0.205-1.486,0.441-2.96,0.705-4.425c0.038-0.211,0.081-0.42,0.121-0.63
		c0.188-1.01,0.397-2.011,0.612-3.011c0.272-1.249,0.56-2.491,0.875-3.723c0.025-0.099,0.048-0.199,0.074-0.298
		c9.539-36.941,38.066-66.324,74.502-77.092c0.364-0.106,0.723-0.221,1.088-0.323c0.47-0.133,0.944-0.257,1.416-0.385
		c4.205-1.119,8.511-2.009,12.914-2.631c0.061-0.009,0.119-0.028,0.179-0.038c4.957-0.695,10.018-1.063,15.164-1.063
		c4.268,0,8.477,0.256,12.618,0.736c0.086,0.013,0.169,0.038,0.256,0.049c4.587,0.541,9.079,1.367,13.465,2.448
		c0.165,0.042,0.331,0.08,0.496,0.121c1.108,0.279,2.204,0.586,3.297,0.897c35.001,10.114,62.796,37.381,73.641,72.069
		c0.012,0.042,0.026,0.081,0.039,0.122c0.213,0.685,0.416,1.376,0.616,2.067c0.322,1.128,0.639,2.258,0.926,3.402
		c0.032,0.122,0.059,0.247,0.091,0.369c1.091,4.41,1.922,8.928,2.466,13.543c0.011,0.092,0.037,0.179,0.051,0.27
		c0.48,4.136,0.735,8.341,0.735,12.604c0,5.138-0.367,10.191-1.06,15.142c-0.011,0.068-0.033,0.131-0.043,0.199
		c-0.625,4.423-1.52,8.748-2.645,12.971c-0.118,0.439-0.233,0.88-0.357,1.315c-0.187,0.669-0.392,1.33-0.592,1.993
		c-10.964,35.989-40.13,64.121-76.731,73.611c-0.416,0.107-0.835,0.209-1.253,0.31c-0.899,0.222-1.804,0.433-2.712,0.632
		c-1.128,0.244-2.257,0.481-3.398,0.69c-0.11,0.021-0.22,0.044-0.33,0.063c-3.025,0.546-6.094,0.97-9.204,1.264
		c-0.035,0.003-0.068,0.013-0.103,0.017c-3.382,0.319-6.807,0.488-10.271,0.488C253.226,363.204,249.015,362.949,244.872,362.467z
		 M320.518,362.517c0.045-0.026,0.088-0.052,0.132-0.079c0.985-0.579,1.962-1.171,2.93-1.775c0.311-0.193,0.624-0.387,0.934-0.583
		c0.662-0.422,1.317-0.852,1.97-1.286c1.103-0.729,2.194-1.476,3.274-2.241c0.043-0.03,0.085-0.059,0.127-0.09
		c4.956-3.515,9.676-7.384,14.091-11.612c5.486-5.254,10.448-10.996,14.862-17.113c0.365-0.504,0.729-1.011,1.086-1.52
		c0.273-0.391,0.547-0.782,0.816-1.177c7.754-11.313,13.695-23.959,17.41-37.517l33.168,33.168l-90.622,90.628l-34.948-34.947
		C298.141,373.503,309.831,368.778,320.518,362.517z"/>
</g>
<g>
</g>
<g>
</g>
<g>
</g>
<g>
</g>
<g>
</g>
<g>
</g>
<g>
</g>
<g>
</g>
<g>
</g>
<g>
</g>
<g>
</g>
<g>
</g>
<g>
</g>
<g>
</g>
<g>
</g>
</svg>
