<?xml version="1.0" encoding="iso-8859-1"?>
<!-- Generator: Adobe Illustrator 19.0.0, SVG Export Plug-In . SVG Version: 6.00 Build 0)  -->
<svg version="1.1" id="Layer_1" xmlns="http://www.w3.org/2000/svg" xmlns:xlink="http://www.w3.org/1999/xlink" x="0px" y="0px"
	 viewBox="0 0 511.999 511.999" style="enable-background:new 0 0 511.999 511.999;" xml:space="preserve">
<path style="fill:#90C8EC;" d="M348.299,24.718c0-9.187-7.448-16.634-16.634-16.634H180.327c-9.185,0-16.634,7.447-16.634,16.634
	l0,0c0,9.186,7.448,16.633,16.634,16.633h151.338C340.851,41.35,348.299,33.904,348.299,24.718L348.299,24.718z"/>
<g>
	<path style="fill:#578CAD;" d="M322.648,487.679c0,8.967-7.269,16.237-16.237,16.237H205.58c-8.966,0-16.237-7.269-16.237-16.237
		l0,0c0-8.968,7.27-16.237,16.237-16.237h100.831C315.379,471.441,322.648,478.71,322.648,487.679L322.648,487.679z"/>
	<path style="fill:#578CAD;" d="M181.409,41.35c3.076,38.514,35.281,68.817,74.587,68.817c39.305,0,71.512-30.302,74.586-68.817
		H181.409z"/>
</g>
<rect x="238.567" y="431.837" style="fill:#3A5D74;" width="34.848" height="39.603"/>
<path style="fill:#90C8EC;" d="M255.996,153.033c-34.293,0-62.098,27.801-62.098,62.094v197.701c0,10.499,8.51,19.01,19.01,19.01
	h86.177c10.498,0,19.01-8.511,19.01-19.01V215.127C318.093,180.834,290.29,153.033,255.996,153.033z"/>
<path style="fill:#3A5D74;" d="M255.996,110.167c-6.001,0-11.834-0.715-17.425-2.048v47.41c5.53-1.617,11.374-2.496,17.425-2.496
	c6.051,0,11.893,0.88,17.425,2.496v-47.41C267.829,109.453,261.995,110.167,255.996,110.167z"/>
<path style="fill:#90C8EC;" d="M193.898,215.127c0-14.951,5.29-28.672,14.096-39.389H40.556c-10.499,0-19.01,8.511-19.01,19.011
	v152.076c0,10.498,8.511,19.01,19.01,19.01h153.342V215.127z"/>
<path style="fill:#B1DBF2;" d="M471.438,175.738h-167.44c8.806,10.717,14.096,24.438,14.096,39.389v150.706h153.345
	c10.498,0,19.01-8.511,19.01-19.01V194.749C490.447,184.249,481.935,175.738,471.438,175.738z"/>
<path style="fill:#90C8EC;" d="M471.438,175.738h-74.215v190.095h74.215c10.498,0,19.01-8.511,19.01-19.01V194.749
	C490.447,184.249,481.935,175.738,471.438,175.738z"/>
<g>
	<path style="fill:#B1DBF2;" d="M114.768,175.738H40.555c-10.499,0-19.01,8.511-19.01,19.011v152.076
		c0,10.498,8.511,19.01,19.01,19.01h74.213V175.738z"/>
	<path style="fill:#B1DBF2;" d="M265.186,390.651h-71.289v22.178c0,10.499,8.51,19.01,19.01,19.01h86.177
		c10.498,0,19.01-8.511,19.01-19.01v-22.178h-24.882"/>
</g>
<g style="opacity:0.2;">
	<path style="fill:#231F20;" d="M214.732,487.679c0-8.968,7.27-16.237,16.237-16.237H205.58c-8.966,0-16.237,7.269-16.237,16.237
		c0,8.967,7.27,16.237,16.237,16.237h25.389C222.002,503.916,214.732,496.646,214.732,487.679z"/>
</g>
<g style="opacity:0.2;">
	<path style="fill:#231F20;" d="M206.796,41.35h-25.389c3.076,38.514,35.281,68.817,74.587,68.817c4.33,0,8.566-0.387,12.693-1.094
		C235.343,103.371,209.533,75.622,206.796,41.35z"/>
</g>
<g style="opacity:0.2;">
	<path style="fill:#231F20;" d="M219.286,412.828V215.127c0-29.943,21.199-54.932,49.404-60.791
		c-4.099-0.852-8.344-1.303-12.694-1.303c-34.293,0-62.098,27.801-62.098,62.094v197.701c0,10.499,8.51,19.01,19.01,19.01h25.389
		C227.797,431.838,219.286,423.327,219.286,412.828z"/>
</g>
<g style="opacity:0.2;">
	<path style="fill:#231F20;" d="M46.935,346.824V194.749c0-10.5,8.511-19.011,19.01-19.011H40.556
		c-10.499,0-19.01,8.511-19.01,19.011v152.076c0,10.498,8.511,19.01,19.01,19.01h25.389
		C55.445,365.833,46.935,357.322,46.935,346.824z"/>
</g>
<g style="opacity:0.2;">
	<path style="fill:#231F20;" d="M189.082,24.718c0-9.187,7.448-16.634,16.634-16.634h-25.389c-9.185,0-16.634,7.447-16.634,16.634
		s7.448,16.633,16.634,16.633h25.389C196.53,41.35,189.082,33.904,189.082,24.718z"/>
</g>
<path style="fill:#231F20;" d="M471.438,167.654h-74.215h-89.596c-7.176-7.796-16.092-13.958-26.122-17.886v-35.539
	c11.379-3.675,21.917-9.792,30.87-18.101c13.63-12.65,22.506-29.313,25.445-47.468c10.661-2.742,18.563-12.437,18.563-23.941
	C356.383,11.088,345.295,0,331.665,0H180.327c-13.629,0-24.718,11.088-24.718,24.718c0,11.504,7.901,21.198,18.562,23.94
	c2.939,18.156,11.815,34.818,25.445,47.469c8.953,8.309,19.49,14.427,30.871,18.101v35.539
	c-10.031,3.929-18.947,10.089-26.122,17.886H114.77H40.557c-14.94,0-27.094,12.154-27.094,27.095v76.038v76.038
	c0,14.94,12.153,27.094,27.094,27.094h74.213h71.045v16.732v22.178c0,14.94,12.153,27.094,27.094,27.094h17.579v23.435h-24.906
	c-13.41,0-24.321,10.91-24.321,24.322c0,13.41,10.91,24.321,24.321,24.321h100.831c13.411,0,24.323-10.91,24.323-24.321
	c0-13.411-10.91-24.322-24.323-24.322h-24.905v-23.435h17.579c14.94,0,27.094-12.153,27.094-27.094v-22.178v-16.732h71.045h74.215
	c14.94,0,27.094-12.153,27.094-27.094v-76.038v-76.038C498.532,179.808,486.377,167.654,471.438,167.654z M471.438,183.822
	c6.024,0,10.926,4.901,10.926,10.927v67.954h-77.057v-78.88H471.438z M318.802,183.822h70.337v78.88h-62.961v-47.575
	c0-1.312-0.043-2.614-0.114-3.907c-0.016-0.292-0.046-0.582-0.067-0.874c-0.07-1.034-0.156-2.063-0.272-3.085
	c-0.031-0.274-0.07-0.547-0.105-0.819c-0.133-1.065-0.286-2.123-0.466-3.173c-0.037-0.213-0.075-0.427-0.114-0.639
	c-0.206-1.14-0.439-2.27-0.7-3.391c-0.03-0.13-0.059-0.261-0.091-0.392c-0.301-1.26-0.632-2.508-0.999-3.741
	c-0.001-0.003-0.002-0.006-0.003-0.01c-0.774-2.592-1.685-5.123-2.741-7.581c-0.019-0.045-0.041-0.088-0.06-0.134
	c-0.46-1.065-0.947-2.116-1.458-3.154C318.923,184.093,318.868,183.956,318.802,183.822z M180.327,16.168h151.338
	c4.714,0,8.55,3.836,8.55,8.55s-3.836,8.549-8.55,8.549h-1.083H181.409h-1.081c-4.715,0-8.55-3.835-8.55-8.549
	S175.613,16.168,180.327,16.168z M190.756,49.434h130.479c-5.516,25.421-25.673,45.412-50.796,51.049
	c-0.07,0.015-0.141,0.028-0.211,0.044c-1.205,0.266-2.423,0.489-3.65,0.688c-0.774,0.123-1.549,0.245-2.327,0.341
	c-0.349,0.044-0.701,0.079-1.051,0.117c-0.966,0.103-1.933,0.192-2.902,0.253c-0.196,0.013-0.391,0.028-0.589,0.039
	c-2.473,0.136-4.952,0.136-7.425,0c-0.2-0.011-0.401-0.027-0.601-0.04c-0.963-0.061-1.923-0.149-2.881-0.251
	c-0.357-0.039-0.716-0.074-1.071-0.12c-0.76-0.094-1.516-0.213-2.272-0.333c-1.29-0.209-2.573-0.442-3.839-0.724
	c-0.014-0.003-0.029-0.005-0.043-0.009C216.442,94.86,196.274,74.864,190.756,49.434z M246.655,145.574v-27.848
	c0.323,0.037,0.648,0.064,0.972,0.096c0.305,0.031,0.609,0.064,0.915,0.091c1.076,0.097,2.154,0.172,3.233,0.227
	c0.249,0.013,0.498,0.022,0.747,0.031c1.138,0.047,2.278,0.079,3.418,0.08c0.019,0,0.038,0.001,0.056,0.001
	c0.018,0,0.038-0.001,0.056-0.001c1.139-0.001,2.28-0.032,3.418-0.08c0.249-0.011,0.498-0.019,0.747-0.031
	c1.079-0.055,2.157-0.13,3.233-0.227c0.305-0.027,0.61-0.059,0.914-0.091c0.324-0.032,0.649-0.059,0.972-0.096v27.848
	c-0.503-0.068-1.008-0.121-1.512-0.178c-0.29-0.032-0.579-0.071-0.87-0.1c-0.974-0.097-1.951-0.167-2.929-0.223
	c-0.29-0.016-0.58-0.031-0.87-0.044c-1.052-0.047-2.106-0.08-3.16-0.08c-1.055,0-2.108,0.032-3.16,0.08
	c-0.291,0.013-0.581,0.027-0.87,0.044c-0.978,0.056-1.954,0.126-2.929,0.223c-0.291,0.029-0.58,0.068-0.87,0.1
	C247.662,145.452,247.158,145.506,246.655,145.574z M193.012,184.208c-0.523,1.062-1.022,2.136-1.493,3.227
	c-0.01,0.024-0.022,0.046-0.031,0.07c-1.057,2.46-1.97,4.995-2.745,7.589c-0.001,0.005-0.003,0.011-0.004,0.015
	c-0.366,1.23-0.696,2.475-0.997,3.732c-0.032,0.135-0.063,0.269-0.094,0.404c-0.26,1.117-0.492,2.242-0.696,3.378
	c-0.039,0.217-0.079,0.432-0.116,0.65c-0.179,1.047-0.332,2.101-0.463,3.163c-0.034,0.276-0.074,0.551-0.106,0.828
	c-0.114,1.021-0.201,2.048-0.271,3.081c-0.016,0.235-0.047,0.468-0.061,0.702c-0.003,0.057-0.002,0.115-0.005,0.174
	c-0.071,1.295-0.114,2.596-0.114,3.907v47.575h-62.961v-78.88h70.338C193.127,183.949,193.075,184.081,193.012,184.208z
	 M29.63,194.749c0-6.025,4.901-10.927,10.926-10.927h66.129v78.88H29.63V194.749z M40.556,357.749
	c-6.024,0-10.926-4.901-10.926-10.926V278.87h77.053v78.879H40.556z M122.852,357.749V278.87h62.961v78.879H122.852z
	 M314.564,487.679c0,4.496-3.658,8.152-8.154,8.152H205.579c-4.496,0-8.152-3.657-8.152-8.152c0-4.495,3.657-8.153,8.152-8.153
	h32.99h34.851h32.989C310.906,479.525,314.564,483.184,314.564,487.679z M265.337,463.357h-18.682v-23.435h18.682V463.357z
	 M310.009,412.828c0,6.024-4.901,10.926-10.926,10.926H273.42h-34.85h-25.664c-6.024,0-10.926-4.901-10.926-10.926v-14.093h63.205
	c4.466,0,8.084-3.618,8.084-8.084s-3.618-8.084-8.084-8.084H201.98v-16.732v-95.048v-55.659c0-0.853,0.025-1.7,0.065-2.543
	c0.017-0.358,0.045-0.714,0.07-1.07c0.031-0.468,0.064-0.935,0.107-1.398c0.043-0.461,0.095-0.922,0.15-1.381
	c0.04-0.334,0.082-0.668,0.127-1c0.074-0.535,0.154-1.068,0.245-1.601c0.038-0.223,0.079-0.445,0.12-0.667
	c0.112-0.612,0.227-1.223,0.36-1.83c0.014-0.063,0.029-0.123,0.043-0.185c0.622-2.804,1.471-5.551,2.528-8.217
	c0.083-0.209,0.162-0.419,0.247-0.626c0.182-0.445,0.377-0.885,0.572-1.325c0.16-0.358,0.318-0.717,0.485-1.07
	c0.153-0.327,0.312-0.651,0.471-0.975c0.247-0.498,0.498-0.993,0.76-1.482c0.102-0.192,0.204-0.384,0.308-0.573
	c0.376-0.683,0.762-1.36,1.166-2.025c0.003-0.006,0.008-0.012,0.011-0.018c7.054-11.593,18.354-20.32,31.719-24.039
	c0.791-0.22,1.588-0.421,2.388-0.605c0.235-0.054,0.468-0.112,0.704-0.163c0.477-0.102,0.956-0.194,1.436-0.283
	c0.254-0.047,0.509-0.093,0.764-0.137c0.497-0.085,0.994-0.168,1.493-0.239c0.098-0.014,0.197-0.024,0.295-0.038
	c1.01-0.138,2.023-0.246,3.04-0.328c0.257-0.02,0.512-0.042,0.77-0.058c0.489-0.032,0.979-0.058,1.468-0.078
	c0.28-0.011,0.562-0.015,0.843-0.022c0.839-0.019,1.676-0.019,2.515,0c0.282,0.006,0.566,0.011,0.847,0.022
	c0.488,0.019,0.977,0.045,1.464,0.078c0.26,0.017,0.518,0.039,0.777,0.059c1.013,0.081,2.025,0.189,3.034,0.327
	c0.098,0.013,0.197,0.024,0.295,0.038c0.502,0.072,1.002,0.155,1.503,0.241c0.249,0.043,0.497,0.087,0.744,0.134
	c0.487,0.091,0.974,0.183,1.459,0.288c0.183,0.04,0.364,0.085,0.548,0.126c0.875,0.197,1.746,0.418,2.612,0.661
	c13.331,3.731,24.602,12.445,31.642,24.017c0.004,0.008,0.009,0.015,0.013,0.022c0.404,0.665,0.79,1.342,1.166,2.025
	c0.102,0.188,0.204,0.377,0.304,0.566c0.263,0.493,0.517,0.991,0.765,1.492c0.157,0.32,0.315,0.641,0.466,0.965
	c0.169,0.359,0.33,0.721,0.492,1.084c0.193,0.435,0.386,0.871,0.566,1.312c0.088,0.213,0.169,0.43,0.254,0.646
	c1.052,2.657,1.897,5.394,2.518,8.189c0.015,0.068,0.032,0.136,0.047,0.204c0.132,0.604,0.247,1.212,0.358,1.82
	c0.041,0.225,0.083,0.451,0.121,0.677c0.089,0.529,0.169,1.062,0.244,1.594c0.046,0.334,0.088,0.669,0.128,1.006
	c0.055,0.458,0.107,0.917,0.15,1.378c0.043,0.465,0.075,0.932,0.107,1.401c0.024,0.356,0.053,0.711,0.07,1.068
	c0.039,0.843,0.065,1.69,0.065,2.544v55.659v95.048v16.732h-16.798c-4.466,0-8.084,3.618-8.084,8.084s3.618,8.084,8.084,8.084
	h16.798v14.091H310.009z M326.177,278.871h62.961v78.879h-62.961V278.871z M471.438,357.749h-66.131V278.87h77.055v67.954
	C482.363,352.849,477.462,357.749,471.438,357.749z"/>
<g>
</g>
<g>
</g>
<g>
</g>
<g>
</g>
<g>
</g>
<g>
</g>
<g>
</g>
<g>
</g>
<g>
</g>
<g>
</g>
<g>
</g>
<g>
</g>
<g>
</g>
<g>
</g>
<g>
</g>
</svg>
