<?xml version="1.0" encoding="iso-8859-1"?>
<!-- Generator: Adobe Illustrator 19.0.0, SVG Export Plug-In . SVG Version: 6.00 Build 0)  -->
<svg version="1.1" id="Layer_1" xmlns="http://www.w3.org/2000/svg" xmlns:xlink="http://www.w3.org/1999/xlink" x="0px" y="0px"
	 viewBox="0 0 512 512" style="enable-background:new 0 0 512 512;" xml:space="preserve">
<path style="fill:#90C8EC;" d="M295.269,292.508c-9.789,10.527-23.761,17.111-39.27,17.111c-29.614,0-53.619-24.006-53.619-53.619
	c0-29.612,24.005-53.619,53.619-53.619s53.619,24.008,53.619,53.619c0,4.578-0.573,9.022-1.653,13.264"/>
<g style="opacity:0.2;">
	<path style="fill:#231F20;" d="M228.378,256c0-25.128,17.289-46.213,40.62-52.024c-4.163-1.037-8.514-1.595-12.999-1.595
		c-29.614,0-53.619,24.008-53.619,53.619c0,29.613,24.005,53.619,53.619,53.619c4.479,0,8.823-0.565,12.98-1.6
		C245.658,302.202,228.378,281.122,228.378,256z"/>
</g>
<g>
	<path style="fill:#231F20;" d="M255.999,194.297c-34.023,0-61.703,27.68-61.703,61.703s27.68,61.703,61.703,61.703
		c17.081,0,33.552-7.177,45.19-19.69c3.04-3.269,2.854-8.385-0.415-11.426c-3.269-3.041-8.385-2.854-11.426,0.415
		c-8.715,9.371-20.559,14.532-33.35,14.532c-25.108,0-45.535-20.427-45.535-45.535s20.426-45.535,45.535-45.535
		s45.535,20.427,45.535,45.535c0,3.819-0.472,7.611-1.405,11.268c-1.101,4.327,1.513,8.728,5.84,9.829
		c4.322,1.101,8.728-1.512,9.829-5.839c1.263-4.962,1.904-10.094,1.904-15.258C317.702,221.977,290.022,194.297,255.999,194.297z"/>
	<path style="fill:#231F20;" d="M512,256c0-29.67-23.79-57.176-67.272-78.174c15.898-45.594,13.27-81.865-7.708-102.844
		c-11.913-11.913-28.633-17.952-49.695-17.952c-15.979,0-33.961,3.579-53.134,10.277C313.19,23.802,285.677,0,255.999,0
		s-57.189,23.802-78.189,67.306c-19.174-6.698-37.156-10.277-53.136-10.277c-21.062,0-37.782,6.041-49.695,17.952
		c-20.979,20.98-23.606,57.25-7.707,102.845C23.789,198.825,0,226.331,0,256.001c0,29.669,23.789,57.174,67.27,78.172
		c-15.899,45.595-13.271,81.867,7.708,102.847c11.912,11.911,28.63,17.951,49.693,17.951c0.004,0,0,0,0.003,0
		c15.979,0,33.962-3.58,53.135-10.278C198.81,488.198,226.321,512,255.999,512s57.19-23.802,78.192-67.305
		c19.174,6.698,37.156,10.278,53.135,10.278c21.062,0,37.781-6.041,49.694-17.952c20.98-20.98,23.608-57.251,7.709-102.846
		C488.211,313.175,512,285.669,512,256z M354.577,256c0,13.668-0.504,27.108-1.461,40.225c-8.601,9.952-17.749,19.814-27.415,29.48
		c-9.632,9.632-19.465,18.786-29.4,27.407c-13.142,0.958-26.608,1.466-40.301,1.466c-13.696,0-27.163-0.507-40.307-1.466
		c-9.935-8.621-19.768-17.774-29.398-27.407c-9.664-9.664-18.813-19.526-27.412-29.477c-0.955-13.118-1.461-26.559-1.461-40.228
		c0-13.669,0.506-27.11,1.461-40.229c8.599-9.95,17.746-19.811,27.41-29.475c9.632-9.632,19.465-18.786,29.4-27.408
		c13.144-0.959,26.611-1.466,40.308-1.466c13.695,0,27.161,0.507,40.303,1.466c9.935,8.621,19.767,17.776,29.401,27.408
		c9.617,9.617,18.767,19.446,27.407,29.398C354.07,228.838,354.577,242.304,354.577,256z M337.137,174.864
		c-4.538-4.537-9.122-8.972-13.745-13.3c8.015,1.002,15.87,2.174,23.534,3.51c1.334,7.662,2.507,15.512,3.509,23.524
		C346.104,183.977,341.67,179.396,337.137,174.864z M302.713,143.119c-10.763-9.135-21.648-17.667-32.544-25.54
		c18.943-12.345,37.61-22.407,55.332-29.81c7.232,17.681,13.376,37.997,18.124,60.222
		C330.375,145.875,316.699,144.244,302.713,143.119z M275.298,141.57c-6.39-0.208-12.824-0.315-19.296-0.315
		c-6.474,0-12.91,0.107-19.301,0.315c6.427-5.028,12.869-9.826,19.299-14.37C262.429,131.744,268.869,136.541,275.298,141.57z
		 M209.285,143.119c-13.986,1.126-27.661,2.756-40.909,4.871c4.749-22.224,10.892-42.541,18.124-60.221
		c17.722,7.404,36.389,17.466,55.33,29.81C230.935,125.451,220.048,133.983,209.285,143.119z M188.605,161.563
		c-4.623,4.329-9.207,8.762-13.745,13.3c-4.531,4.531-8.965,9.111-13.295,13.73c1.001-8.011,2.173-15.86,3.509-23.521
		C172.737,163.738,180.59,162.566,188.605,161.563z M143.122,209.242c-9.083,10.677-17.592,21.488-25.458,32.341
		c-12.304-18.992-22.292-37.624-29.671-55.174c17.628-7.192,37.865-13.304,59.997-18.033
		C145.877,181.611,144.248,195.271,143.122,209.242z M141.563,236.884c-0.204,6.33-0.308,12.705-0.308,19.116
		c0,6.411,0.105,12.786,0.308,19.115c-4.957-6.374-9.679-12.755-14.154-19.115C131.883,249.637,136.606,243.257,141.563,236.884z
		 M143.122,302.757c1.125,13.972,2.755,27.632,4.867,40.868c-22.131-4.729-42.369-10.841-59.998-18.033
		c7.379-17.551,17.367-36.183,29.672-55.176C125.531,281.268,134.038,292.08,143.122,302.757z M161.565,323.404
		c4.331,4.62,8.764,9.201,13.297,13.733c4.537,4.537,9.122,8.971,13.744,13.299c-8.015-1.001-15.869-2.174-23.533-3.51
		C163.739,339.266,162.566,331.416,161.565,323.404z M209.286,368.883c10.763,9.135,21.648,17.667,32.544,25.54
		c-18.943,12.345-37.609,22.407-55.33,29.811c-7.232-17.681-13.375-37.997-18.124-60.222
		C181.625,366.125,195.299,367.756,209.286,368.883z M236.701,370.43c6.391,0.208,12.827,0.315,19.3,0.315
		c6.472,0,12.906-0.107,19.295-0.315c-6.427,5.028-12.869,9.826-19.298,14.37C249.569,380.256,243.129,375.46,236.701,370.43z
		 M302.711,368.883c13.987-1.125,27.663-2.756,40.914-4.871c-4.749,22.225-10.892,42.541-18.125,60.222
		c-17.722-7.404-36.389-17.466-55.332-29.811C281.063,386.549,291.949,378.018,302.711,368.883z M323.391,350.438
		c4.623-4.328,9.207-8.762,13.745-13.3c4.534-4.534,8.968-9.116,13.3-13.736c-1.001,8.012-2.174,15.863-3.509,23.525
		C339.261,348.263,331.406,349.435,323.391,350.438z M368.878,302.754c9.127-10.726,17.671-21.589,25.568-32.494
		c12.148,18.706,22.166,37.315,29.669,55.288c-17.653,7.211-37.929,13.338-60.104,18.076
		C366.123,330.388,367.753,316.726,368.878,302.754z M370.437,275.112c0.204-6.329,0.308-12.703,0.308-19.112
		c0-6.474-0.107-12.911-0.315-19.303c4.981,6.369,9.737,12.764,14.256,19.165C380.184,262.268,375.43,268.693,370.437,275.112z
		 M368.878,209.244c-1.125-13.972-2.755-27.633-4.868-40.869c22.13,4.729,42.367,10.84,59.995,18.032
		c-7.379,17.55-17.367,36.183-29.671,55.175C386.468,230.731,377.962,219.92,368.878,209.244z M425.585,86.414
		c16.748,16.749,17.073,47.611,4.249,84.784c-20.56-8.415-43.824-15.17-68.908-20.125c-4.969-25.157-11.749-48.485-20.199-69.09
		c16.853-5.733,32.601-8.786,46.596-8.786C403.942,73.198,416.815,77.644,425.585,86.414z M255.999,16.168
		c23.699,0,45.762,21.615,62.984,57c-20.255,8.511-41.54,20.188-62.984,34.548c-21.444-14.359-42.729-26.035-62.982-34.547
		C210.238,37.783,232.3,16.168,255.999,16.168z M86.411,86.415c8.772-8.771,21.644-13.217,38.263-13.217
		c13.995,0,29.743,3.053,46.597,8.787c-8.449,20.604-15.23,43.932-20.199,69.089c-25.085,4.955-48.35,11.711-68.911,20.126
		C69.339,134.025,69.663,103.163,86.411,86.415z M16.168,256.001c0-23.687,21.593-45.739,56.946-62.958
		c8.588,20.489,20.261,41.716,34.496,62.956c-14.235,21.241-25.908,42.469-34.496,62.958
		C37.762,301.739,16.168,279.687,16.168,256.001z M124.673,438.804c-16.619,0-29.491-4.447-38.261-13.216
		c-16.749-16.749-17.074-47.613-4.249-84.787c20.561,8.415,43.826,15.171,68.911,20.126c4.969,25.157,11.749,48.486,20.199,69.09
		C154.417,435.752,138.669,438.804,124.673,438.804z M255.999,495.832c-23.698,0-45.761-21.615-62.982-56.999
		c20.254-8.512,41.538-20.188,62.982-34.548c21.445,14.36,42.729,26.035,62.984,34.548
		C301.761,474.217,279.697,495.832,255.999,495.832z M425.585,425.588c-8.77,8.77-21.642,13.216-38.26,13.216
		c-13.995,0-29.743-3.053-46.597-8.787c8.45-20.604,15.23-43.933,20.199-69.09c25.111-4.959,48.399-11.724,68.973-20.151
		C442.965,379.097,441.529,409.645,425.585,425.588z M438.885,318.958c-8.588-20.489-20.262-41.718-34.497-62.959
		c14.234-21.241,25.908-42.469,34.496-62.957c35.354,17.217,56.947,39.271,56.947,62.958S474.238,301.74,438.885,318.958z"/>
</g>
<g>
</g>
<g>
</g>
<g>
</g>
<g>
</g>
<g>
</g>
<g>
</g>
<g>
</g>
<g>
</g>
<g>
</g>
<g>
</g>
<g>
</g>
<g>
</g>
<g>
</g>
<g>
</g>
<g>
</g>
</svg>
