<?xml version="1.0" encoding="iso-8859-1"?>
<!-- Generator: Adobe Illustrator 19.0.0, SVG Export Plug-In . SVG Version: 6.00 Build 0)  -->
<svg version="1.1" id="Layer_1" xmlns="http://www.w3.org/2000/svg" xmlns:xlink="http://www.w3.org/1999/xlink" x="0px" y="0px"
	 viewBox="0 0 512 512" style="enable-background:new 0 0 512 512;" xml:space="preserve">
<path style="fill:#FF4D30;" d="M256,50.536C142.708,50.536,50.535,142.707,50.535,256S142.708,461.464,256,461.464
	c113.294,0,205.464-92.171,205.464-205.464S369.294,50.536,256,50.536z"/>
<g style="opacity:0.2;">
	<path style="fill:#231F20;" d="M76.023,256c0-109.013,85.342-198.452,192.721-205.057c-4.217-0.26-8.464-0.407-12.744-0.407
		C142.708,50.536,50.535,142.707,50.535,256S142.708,461.464,256,461.464c4.281,0,8.527-0.148,12.744-0.407
		C161.365,454.452,76.023,365.013,76.023,256z"/>
</g>
<path style="fill:#90C8EC;" d="M468.884,382.946c-43.336,72.4-122.545,120.97-212.884,120.97C119.3,503.916,8.084,392.701,8.084,256
	S119.3,8.084,256,8.084c136.702,0,247.916,111.215,247.916,247.916c0,36.942-8.122,72.022-22.674,103.549 M256,50.536
	C142.708,50.536,50.535,142.707,50.535,256S142.708,461.464,256,461.464c113.294,0,205.464-92.171,205.464-205.464
	S369.294,50.536,256,50.536z"/>
<g style="opacity:0.2;">
	<path style="fill:#231F20;" d="M33.266,256c0-132.479,104.452-241.019,235.325-247.598c-4.17-0.21-8.369-0.318-12.591-0.318
		C119.3,8.084,8.084,119.299,8.084,256S119.3,503.916,256,503.916c4.229,0,8.432-0.107,12.61-0.317
		C137.729,497.029,33.266,388.485,33.266,256z"/>
</g>
<g>
	<path style="fill:#231F20;" d="M256,469.548c117.75,0,213.548-95.798,213.548-213.548c0-28.3-5.547-55.325-15.59-80.064
		c-0.014-0.033-0.027-0.067-0.041-0.1c-12.439-30.598-31.772-57.679-56.066-79.313c-0.026-0.022-0.05-0.046-0.077-0.068
		C360.038,62.882,310.364,42.452,256,42.452c-117.456,0-213.059,95.319-213.538,212.663c-0.002,0.074-0.011,0.148-0.011,0.223
		c0,0.045,0.006,0.088,0.006,0.133c0,0.177-0.006,0.352-0.006,0.529C42.451,373.75,138.249,469.548,256,469.548z M140.64,416.059
		H371.36c-32.47,23.468-72.325,37.321-115.36,37.321S173.111,439.527,140.64,416.059z M369.511,94.617H142.488
		C174.617,71.952,213.779,58.619,256,58.619S337.382,71.952,369.511,94.617z M122.465,110.785h267.07
		c18.416,16.949,33.614,37.34,44.554,60.151H296.057c-4.466,0-8.084,3.618-8.084,8.084c0,4.466,3.618,8.084,8.084,8.084h144.908
		c7.048,18.863,11.288,39.082,12.211,60.15h-76.058c-4.466,0-8.084,3.618-8.084,8.084c0,4.466,3.618,8.084,8.084,8.084h76.108
		c-0.783,21.05-4.863,41.27-11.763,60.15H173.797c-4.466,0-8.084,3.618-8.084,8.084s3.618,8.084,8.084,8.084h260.911
		c-10.703,22.751-25.623,43.138-43.751,60.151H121.042c-18.128-17.012-33.047-37.4-43.752-60.151h64.375
		c4.466,0,8.084-3.618,8.084-8.084s-3.618-8.084-8.084-8.084H72.609c-0.686,0-1.347,0.095-1.982,0.255
		c-6.956-18.952-11.069-39.26-11.855-60.404h290.056c4.466,0,8.084-3.618,8.084-8.084s-3.618-8.084-8.084-8.084H58.823
		c0.926-21.122,5.186-41.392,12.268-60.296c0.493,0.094,0.999,0.148,1.519,0.148h194.713c4.466,0,8.084-3.618,8.084-8.084
		c0-4.466-3.618-8.084-8.084-8.084H77.91C88.85,148.125,104.048,127.734,122.465,110.785z"/>
	<path style="fill:#231F20;" d="M256,0C114.841,0,0,114.841,0,256s114.841,256,256,256c45.018,0,89.323-11.905,128.127-34.427
		c37.633-21.844,69.34-53.128,91.693-90.475c2.293-3.831,1.047-8.795-2.785-11.088c-3.828-2.289-8.795-1.048-11.088,2.785
		C418.736,450.986,339.822,495.832,256,495.832C123.756,495.832,16.168,388.244,16.168,256S123.756,16.168,256,16.168
		S495.832,123.756,495.832,256c0,34.936-7.378,68.635-21.93,100.162c-1.871,4.054-0.102,8.857,3.953,10.727
		c4.054,1.871,8.857,0.101,10.727-3.953C504.121,329.271,512,293.292,512,256C512,114.841,397.159,0,256,0z"/>
</g>
<g>
</g>
<g>
</g>
<g>
</g>
<g>
</g>
<g>
</g>
<g>
</g>
<g>
</g>
<g>
</g>
<g>
</g>
<g>
</g>
<g>
</g>
<g>
</g>
<g>
</g>
<g>
</g>
<g>
</g>
</svg>
