<?xml version="1.0" encoding="iso-8859-1"?>
<!-- Generator: Adobe Illustrator 19.0.0, SVG Export Plug-In . SVG Version: 6.00 Build 0)  -->
<svg version="1.1" id="Layer_1" xmlns="http://www.w3.org/2000/svg" xmlns:xlink="http://www.w3.org/1999/xlink" x="0px" y="0px"
	 viewBox="0 0 512 512" style="enable-background:new 0 0 512 512;" xml:space="preserve">
<path style="fill:#3A5D74;" d="M287.435,349.757c-86.906-39.332-147.37-126.806-147.37-228.402
	c0-40.761,9.743-79.246,27.009-113.264C73.74,46.835,8.09,138.843,8.09,246.198c0,142.33,115.383,257.711,257.711,257.711
	c107.357,0,199.366-65.649,238.11-158.986c-34.02,17.268-72.504,27.009-113.267,27.009c-27.185,0-53.361-4.33-77.871-12.336"/>
<g style="opacity:0.2;">
	<path style="fill:#231F20;" d="M285.754,487.19c-142.328,0-257.711-115.379-257.711-257.71c0-74.703,31.796-141.968,82.581-189.033
		C48.345,87.485,8.09,162.135,8.09,246.198c0,142.33,115.383,257.711,257.711,257.711c67.636,0,129.174-26.063,175.144-68.684
		C397.777,467.839,344.029,487.19,285.754,487.19z"/>
</g>
<path style="fill:#231F20;" d="M265.8,511.997c-70.997,0-137.745-27.648-187.949-77.85S0,317.195,0,246.198
	c0-53.573,15.869-105.211,45.893-149.334c29.302-43.061,70.133-76.341,118.081-96.244c3.125-1.299,6.733-0.511,9.035,1.974
	c2.302,2.484,2.812,6.139,1.279,9.159c-17.341,34.165-26.133,71.04-26.133,109.602c0,95.063,55.98,181.822,142.616,221.032
	c4.07,1.842,5.876,6.636,4.034,10.705c-1.841,4.07-6.63,5.877-10.706,4.035c-44.715-20.238-82.647-52.665-109.696-93.776
	c-27.756-42.184-42.427-91.287-42.427-141.996c0-33.63,6.27-66.059,18.673-96.696C68.298,67.381,16.179,152.157,16.179,246.198
	c0,137.642,111.98,249.621,249.621,249.621c94.043,0,178.819-52.12,221.542-134.471c-30.634,12.4-63.069,18.672-96.699,18.672
	c-27.467,0-54.512-4.285-80.383-12.736c-4.248-1.387-6.564-5.955-5.177-10.201c1.386-4.246,5.944-6.567,10.201-5.178
	c24.247,7.92,49.602,11.936,75.359,11.936c38.565,0,75.442-8.793,109.606-26.133c3.019-1.533,6.674-1.022,9.159,1.279
	c2.484,2.302,3.271,5.908,1.973,9.035c-19.902,47.947-53.185,88.779-96.245,118.081C371.013,496.128,319.374,511.997,265.8,511.997z
	"/>
<g>
</g>
<g>
</g>
<g>
</g>
<g>
</g>
<g>
</g>
<g>
</g>
<g>
</g>
<g>
</g>
<g>
</g>
<g>
</g>
<g>
</g>
<g>
</g>
<g>
</g>
<g>
</g>
<g>
</g>
</svg>
