<?xml version="1.0" encoding="iso-8859-1"?>
<!-- Generator: Adobe Illustrator 19.0.0, SVG Export Plug-In . SVG Version: 6.00 Build 0)  -->
<svg version="1.1" id="Layer_1" xmlns="http://www.w3.org/2000/svg" xmlns:xlink="http://www.w3.org/1999/xlink" x="0px" y="0px"
	 viewBox="0 0 512 512" style="enable-background:new 0 0 512 512;" xml:space="preserve">
<path style="fill:#90C8EC;" d="M499.158,483.46c0,11.347-9.201,20.547-20.548,20.547H33.392c-11.348,0-20.549-9.201-20.549-20.547
	V70.778c0-11.348,9.2-20.547,20.549-20.547h445.217c11.347,0,20.547,9.2,20.547,20.547V483.46H499.158z"/>
<path style="fill:#3A5D74;" d="M322.116,380.301c-56.408,0-102.135-45.726-102.135-102.137c0-28.937,12.053-55.045,31.391-73.631
	c-54.691,10.301-96.076,58.291-96.076,115.973c0,65.197,52.851,118.048,118.045,118.048c51.879,0,95.912-33.483,111.745-80.007
	C367.732,372.158,345.884,380.301,322.116,380.301z"/>
<g style="opacity:0.2;">
	<path style="fill:#231F20;" d="M294.654,423.636c-65.195,0-118.045-52.852-118.045-118.048c0-35.344,15.541-67.046,40.159-88.672
		c-36.626,20.034-61.472,58.901-61.472,103.591c0,65.197,52.851,118.048,118.045,118.048c29.823,0,57.039-11.079,77.811-29.326
		C334.372,418.404,315.13,423.636,294.654,423.636z"/>
</g>
<path style="fill:#578CAD;" d="M449.073,147.835h50.085V70.778c0-11.348-9.201-20.547-20.548-20.547H33.392
	c-11.348,0-20.549,9.2-20.549,20.547v77.057h410.653"/>
<g>
	<path style="fill:#231F20;" d="M478.609,42.238H449.5V7.992c0-4.415-3.577-7.992-7.992-7.992c-4.415,0-7.992,3.577-7.992,7.992
		v34.246h-30.393V7.992c0-4.415-3.577-7.992-7.992-7.992s-7.992,3.577-7.992,7.992v34.246h-30.393V7.992
		c0-4.415-3.577-7.992-7.992-7.992c-4.415,0-7.992,3.577-7.992,7.992v34.246H171.24V7.992c0-4.415-3.578-7.992-7.992-7.992
		c-4.414,0-7.992,3.577-7.992,7.992v34.246h-30.393V7.992c0-4.415-3.578-7.992-7.992-7.992c-4.414,0-7.992,3.577-7.992,7.992v34.246
		H78.485V7.992C78.485,3.577,74.907,0,70.493,0s-7.992,3.577-7.992,7.992v34.246H33.392c-15.737,0-28.541,12.804-28.541,28.54
		v77.057V483.46c0,15.737,12.804,28.54,28.541,28.54h445.217c15.737,0,28.54-12.804,28.54-28.54V147.834V70.778
		C507.15,55.041,494.346,42.238,478.609,42.238z M478.609,496.016H33.392c-6.923,0-12.556-5.632-12.556-12.555V155.826h402.661
		c4.415,0,7.992-3.577,7.992-7.992c0-4.415-3.577-7.992-7.992-7.992H20.836V70.778c0-6.923,5.633-12.555,12.556-12.555h29.109v40.81
		c0,4.415,3.578,7.992,7.992,7.992s7.992-3.577,7.992-7.992v-40.81h30.393v40.81c0,4.415,3.578,7.992,7.992,7.992
		c4.414,0,7.992-3.577,7.992-7.992v-40.81h30.393v40.81c0,4.415,3.578,7.992,7.992,7.992c4.414,0,7.992-3.577,7.992-7.992v-40.81
		h169.521v40.81c0,4.415,3.577,7.992,7.992,7.992c4.415,0,7.992-3.577,7.992-7.992v-40.81h30.393v40.81
		c0,4.415,3.577,7.992,7.992,7.992s7.992-3.577,7.992-7.992v-40.81h30.393v40.81c0,4.415,3.577,7.992,7.992,7.992
		c4.415,0,7.992-3.577,7.992-7.992v-40.81h29.109c6.923,0,12.555,5.632,12.555,12.555v69.065h-42.092
		c-4.415,0-7.992,3.577-7.992,7.992s3.577,7.992,7.992,7.992h42.092V483.46C491.165,490.384,485.532,496.016,478.609,496.016z"/>
	<path style="fill:#231F20;" d="M389.71,352.028c-2.889-2.046-6.773-1.951-9.557,0.231c-16.723,13.118-36.792,20.05-58.038,20.05
		c-51.911,0-94.143-42.233-94.143-94.145c0-25.831,10.276-49.933,28.936-67.868c2.549-2.449,3.185-6.282,1.566-9.423
		c-1.62-3.143-5.111-4.849-8.584-4.193c-59.444,11.197-102.589,63.273-102.589,123.826c0,69.499,56.54,126.041,126.037,126.041
		c53.974,0,101.923-34.329,119.311-85.425C393.793,357.773,392.596,354.075,389.71,352.028z M273.341,430.562
		c-60.683,0-110.053-49.371-110.053-110.056c0-44.211,26.335-83.246,65.306-100.565c-10.825,17.279-16.606,37.263-16.606,58.223
		c0,60.725,49.403,110.13,110.128,110.13c15.578,0,30.616-3.185,44.488-9.342C346.801,410.577,311.827,430.562,273.341,430.562z"/>
</g>
<g style="opacity:0.2;">
	<path style="fill:#231F20;" d="M38.947,483.46V70.778c0-11.348,9.2-20.547,20.549-20.547H33.392
		c-11.348,0-20.549,9.2-20.549,20.547V483.46c0,11.347,9.2,20.547,20.549,20.547h26.104
		C48.148,504.008,38.947,494.807,38.947,483.46z"/>
</g>
<g>
</g>
<g>
</g>
<g>
</g>
<g>
</g>
<g>
</g>
<g>
</g>
<g>
</g>
<g>
</g>
<g>
</g>
<g>
</g>
<g>
</g>
<g>
</g>
<g>
</g>
<g>
</g>
<g>
</g>
</svg>
