<?xml version="1.0" encoding="iso-8859-1"?>
<!-- Generator: Adobe Illustrator 19.0.0, SVG Export Plug-In . SVG Version: 6.00 Build 0)  -->
<svg version="1.1" id="Layer_1" xmlns="http://www.w3.org/2000/svg" xmlns:xlink="http://www.w3.org/1999/xlink" x="0px" y="0px"
	 viewBox="0 0 512 512" style="enable-background:new 0 0 512 512;" xml:space="preserve">
<path style="fill:#90C8EC;" d="M400.838,279.186c54.685-45.992,103.056-30.969,103.056-30.969
	c-89.86-62.774-120.094,16.391-176.911-4.358c-56.819-20.749-15.712-75.604-15.712-75.604
	c-49.141-22.871-95.743-13.086-128.174,0.705c26.304,19.93,43.302,51.495,43.302,87.04c0,36.559-17.991,68.894-45.584,88.703
	c46.619,31.258,135.796,28.851,196.323-41.848c1.452-1.696,2.903-3.342,4.353-4.942"/>
<circle style="fill:#578CAD;" cx="117.253" cy="256.001" r="109.148"/>
<g style="opacity:0.2;">
	<path style="fill:#231F20;" d="M33.787,256.001c0-55.937,42.077-102.035,96.307-108.391c-4.211-0.494-8.495-0.755-12.841-0.755
		c-60.282,0-109.149,48.866-109.149,109.147s48.867,109.147,109.149,109.147c4.345,0,8.628-0.262,12.841-0.755
		C75.864,358.035,33.787,311.937,33.787,256.001z"/>
</g>
<circle style="fill:#3A5D74;" cx="117.253" cy="256.001" r="43.928"/>
<g style="opacity:0.2;">
	<path style="fill:#231F20;" d="M98.627,256.001c0-19.861,13.186-36.635,31.278-42.069c-4.007-1.204-8.252-1.859-12.651-1.859
		c-24.26,0-43.929,19.667-43.929,43.927c0,24.261,19.669,43.927,43.929,43.927c4.399,0,8.644-0.654,12.651-1.859
		C111.814,292.636,98.627,275.862,98.627,256.001z"/>
</g>
<g style="opacity:0.2;">
	<path style="fill:#231F20;" d="M210.957,159.554c-10.101,2.537-19.459,5.833-27.86,9.406c26.304,19.93,43.302,51.495,43.302,87.04
		c0,36.559-17.991,68.894-45.584,88.703c7.438,4.986,15.963,9.113,25.278,12.245c28.002-24.674,45.702-60.78,45.702-100.948
		C251.795,218.211,236.129,184.017,210.957,159.554z"/>
</g>
<g>
	<path style="fill:#231F20;" d="M117.254,203.968c-28.692,0-52.034,23.342-52.034,52.032c0,28.69,23.344,52.032,52.034,52.032
		s52.031-23.342,52.031-52.032C169.285,227.311,145.945,203.968,117.254,203.968z M117.254,291.823
		c-19.754,0-35.824-16.07-35.824-35.822c0-19.753,16.071-35.822,35.824-35.822c19.751,0,35.821,16.07,35.821,35.822
		C153.075,275.753,137.005,291.823,117.254,291.823z"/>
	<path style="fill:#231F20;" d="M508.535,241.573c-57.595-40.236-94.294-24.998-123.779-12.757
		c-18.919,7.856-35.257,14.637-54.994,7.43c-12.986-4.743-20.939-11.722-23.637-20.745c-5.639-18.857,11.467-42.163,11.632-42.385
		c1.464-1.956,1.969-4.466,1.375-6.835c-0.595-2.368-2.227-4.343-4.44-5.374c-50.397-23.457-98.103-14.087-130.537-1.141
		c-18.986-13.239-42.05-21.017-66.9-21.017C52.599,138.749,0,191.348,0,256.001s52.599,117.252,117.254,117.252
		c23.481,0,45.368-6.943,63.726-18.877c19.316,11.524,43.333,17.611,68.772,17.611c8.305,0,16.761-0.647,25.251-1.962
		c29.089-4.51,71.489-18.907,108.293-61.895c1.379-1.611,2.794-3.217,4.203-4.77c3.005-3.317,2.754-8.443-0.563-11.45
		c-3.317-3.003-8.443-2.755-11.45,0.563c-1.51,1.667-3.026,3.388-4.504,5.114c-51.685,60.373-128.382,70.191-175.913,46.081
		c4.263-3.792,8.215-7.878,11.851-12.205c0.308-0.365,0.618-0.728,0.922-1.098c0.149-0.183,0.295-0.367,0.444-0.551
		c0.535-0.659,1.064-1.323,1.585-1.993c0.001-0.002,0.003-0.004,0.004-0.005c14.788-19.031,23.851-42.718,24.579-68.456
		c0.002-0.078,0.006-0.156,0.009-0.232c0.027-1.037,0.042-2.078,0.042-3.121c0-32.289-12.893-62.337-35.799-84.353
		c26.877-9.201,62.756-14.37,100.63,0.324c-6.021,10.739-14.169,29.899-8.761,48.102c4.228,14.229,15.542,24.793,33.629,31.399
		c25.673,9.378,46.565,0.702,66.768-7.685c22.518-9.348,45.641-18.947,79.165-5.238c-20.049,2.427-46.536,10.903-74.514,34.433
		c-3.426,2.881-3.868,7.994-0.987,11.419c2.883,3.428,7.994,3.868,11.419,0.987c50.302-42.306,93.654-29.965,95.436-29.432
		c3.816,1.187,7.926-0.588,9.683-4.175C512.93,248.194,511.811,243.861,508.535,241.573z M16.21,256.001
		c0-55.715,45.328-101.042,101.044-101.042c52.174,0,95.236,39.75,100.498,90.556c0.013,0.123,0.025,0.246,0.037,0.37
		c0.068,0.679,0.128,1.361,0.182,2.042c0.025,0.319,0.046,0.639,0.069,0.957c0.038,0.544,0.075,1.088,0.104,1.634
		c0.027,0.501,0.045,1.004,0.065,1.508c0.015,0.398,0.035,0.795,0.045,1.194c0.025,0.925,0.04,1.851,0.04,2.781
		c0,0.963-0.016,1.925-0.044,2.884c-0.005,0.21-0.016,0.419-0.024,0.629c-0.028,0.789-0.062,1.577-0.107,2.363
		c-0.009,0.153-0.019,0.306-0.029,0.459c-1.331,21-9.238,40.976-22.299,57.157c-0.027,0.034-0.055,0.068-0.082,0.102
		c-0.548,0.676-1.107,1.344-1.672,2.007c-0.093,0.108-0.183,0.218-0.276,0.326c-0.575,0.669-1.162,1.33-1.755,1.985
		c-0.394,0.434-0.798,0.861-1.201,1.289c-0.178,0.19-0.356,0.381-0.535,0.571c-0.479,0.5-0.963,0.996-1.451,1.487
		c-0.088,0.088-0.174,0.175-0.262,0.263c-18.287,18.232-43.501,29.521-71.303,29.521C61.538,357.042,16.21,311.716,16.21,256.001z"
		/>
</g>
<g>
</g>
<g>
</g>
<g>
</g>
<g>
</g>
<g>
</g>
<g>
</g>
<g>
</g>
<g>
</g>
<g>
</g>
<g>
</g>
<g>
</g>
<g>
</g>
<g>
</g>
<g>
</g>
<g>
</g>
</svg>
