<?xml version="1.0" encoding="iso-8859-1"?>
<!-- Generator: Adobe Illustrator 19.0.0, SVG Export Plug-In . SVG Version: 6.00 Build 0)  -->
<svg version="1.1" id="Layer_1" xmlns="http://www.w3.org/2000/svg" xmlns:xlink="http://www.w3.org/1999/xlink" x="0px" y="0px"
	 viewBox="0 0 512 512" style="enable-background:new 0 0 512 512;" xml:space="preserve">
<path style="fill:#90C8EC;" d="M256,503.916C119.299,503.916,8.084,392.701,8.084,256C8.084,119.298,119.299,8.084,256,8.084
	c136.7,0,247.916,111.214,247.916,247.916C503.916,392.701,392.7,503.916,256,503.916z M256,44.329
	c-116.716,0-211.67,94.955-211.67,211.67S139.284,467.67,256,467.67S467.67,372.716,467.67,256S372.716,44.329,256,44.329z"/>
<g>
	<path style="fill:#578CAD;" d="M256,351.94c27.927,0,53.107-11.995,70.655-31.104l15.742-23.138
		c6.114-12.616,9.543-26.764,9.543-41.698H256V351.94z"/>
	<path style="fill:#578CAD;" d="M160.06,256H256v-95.94C203.099,160.06,160.06,203.099,160.06,256z"/>
</g>
<g style="opacity:0.2;">
	<path style="fill:#231F20;" d="M256,185.216V160.06c-52.901,0-95.94,43.039-95.94,95.94h25.334
		C185.394,217.029,217.051,185.315,256,185.216z"/>
</g>
<g>
	<path style="fill:#578CAD;" d="M395.098,150.072c0,11.916-9.664,21.578-21.579,21.578c-11.919,0-21.579-9.662-21.579-21.578
		c0-11.918,9.66-21.579,21.579-21.579C385.434,128.493,395.098,138.154,395.098,150.072z"/>
	<circle style="fill:#578CAD;" cx="142.293" cy="365.697" r="21.579"/>
</g>
<g style="opacity:0.2;">
	<path style="fill:#231F20;" d="M377.099,150.072c0-7.218,3.556-13.591,8.998-17.509c-3.543-2.551-7.879-4.07-12.578-4.07
		c-11.919,0-21.579,9.661-21.579,21.579c0,11.916,9.66,21.578,21.579,21.578c4.699,0,9.035-1.52,12.578-4.07
		C380.654,163.662,377.099,157.289,377.099,150.072z"/>
</g>
<g style="opacity:0.2;">
	<path style="fill:#231F20;" d="M145.871,365.699c0-7.218,3.557-13.59,8.999-17.508c-3.544-2.55-7.879-4.07-12.579-4.07
		c-11.918,0-21.578,9.661-21.578,21.578s9.661,21.577,21.578,21.577c4.7,0,9.035-1.519,12.579-4.07
		C149.427,379.29,145.871,372.916,145.871,365.699z"/>
</g>
<g>
	<path style="fill:#231F20;" d="M256,36.245C134.826,36.245,36.245,134.827,36.245,256S134.826,475.755,256,475.755
		S475.755,377.173,475.755,256S377.174,36.245,256,36.245z M459.412,247.916h-36.941c-1.374-28.472-9.987-55.998-25.14-80.179
		c3.673-4.938,5.85-11.052,5.85-17.665c0-16.356-13.308-29.664-29.664-29.664c-5.518,0-10.686,1.519-15.116,4.154
		c-27.023-21.087-60.156-33.367-94.317-35.048V52.588C369.925,56.745,455.256,142.075,459.412,247.916z M142.292,352.204
		c7.441,0,13.494,6.053,13.494,13.494c0,7.441-6.053,13.494-13.494,13.494c-7.441,0-13.494-6.053-13.494-13.494
		C128.798,358.258,134.85,352.204,142.292,352.204z M142.292,336.036c-4.287,0-8.36,0.922-12.043,2.564
		c-14.713-22.32-23.113-47.894-24.531-74.517h46.569c3.933,50.927,44.7,91.694,95.629,95.628v46.591
		c-28.553-1.5-55.624-10.947-78.977-27.588c1.928-3.932,3.016-8.349,3.016-13.017C171.954,349.344,158.648,336.036,142.292,336.036z
		 M247.916,343.469c-42.003-3.852-75.533-37.382-79.385-79.385h79.385V343.469z M168.531,247.916
		c3.852-42.003,37.382-75.533,79.385-79.385v79.385H168.531z M264.084,168.531c42.002,3.852,75.532,37.382,79.385,79.385h-79.385
		V168.531z M247.916,152.287c-50.928,3.933-91.695,44.7-95.629,95.629h-46.591c4.073-76.577,65.643-138.147,142.22-142.221V152.287z
		 M264.084,359.705c26.06-2.054,50.682-13.971,68.525-33.402c3.02-3.289,2.803-8.402-0.486-11.422s-8.402-2.803-11.424,0.486
		c-14.785,16.102-35.078,26.074-56.615,28.089v-79.372h79.401c-0.95,10.47-3.747,20.56-8.363,30.088
		c-1.948,4.017-0.268,8.853,3.75,10.801c4.019,1.948,8.854,0.268,10.799-3.75c5.692-11.745,9.051-24.206,10.038-37.139h46.594
		c-4.073,76.576-65.644,138.146-142.22,142.22V359.705z M359.712,247.916c-3.933-50.928-44.7-91.695-95.628-95.629v-46.581
		c30.05,1.637,59.182,12.353,83.144,30.653c-2.149,4.105-3.373,8.768-3.373,13.713c0,16.356,13.308,29.663,29.664,29.663
		c3.859,0,7.543-0.748,10.928-2.094c13.033,21.284,20.504,45.368,21.835,70.277h-46.57V247.916z M373.519,163.565
		c-7.441,0-13.495-6.053-13.495-13.494c0-7.441,6.053-13.495,13.495-13.495c7.441,0,13.495,6.053,13.495,13.495
		C387.014,157.512,380.96,163.565,373.519,163.565z M247.916,52.588v36.919c-85.494,4.104-154.304,72.914-158.407,158.408h-36.92
		C56.744,142.075,142.075,56.745,247.916,52.588z M52.588,264.084h36.938c1.461,30.416,11.13,59.636,28.23,84.963
		c-3.235,4.75-5.129,10.484-5.129,16.651c0,16.356,13.307,29.663,29.663,29.663c5.789,0,11.192-1.673,15.762-4.552
		c26.443,19.28,57.298,30.139,89.862,31.683v36.92C142.075,455.255,56.744,369.925,52.588,264.084z M264.084,459.412v-36.92
		c85.494-4.104,154.304-72.913,158.407-158.407h36.92C455.256,369.925,369.925,455.255,264.084,459.412z"/>
	<path style="fill:#231F20;" d="M256,0C114.841,0,0,114.841,0,256s114.841,256,256,256s256-114.841,256-256S397.159,0,256,0z
		 M256,495.832C123.756,495.832,16.168,388.244,16.168,256S123.756,16.168,256,16.168c132.243,0,239.832,107.588,239.832,239.832
		S388.243,495.832,256,495.832z"/>
</g>
<g>
</g>
<g>
</g>
<g>
</g>
<g>
</g>
<g>
</g>
<g>
</g>
<g>
</g>
<g>
</g>
<g>
</g>
<g>
</g>
<g>
</g>
<g>
</g>
<g>
</g>
<g>
</g>
<g>
</g>
</svg>
