<?xml version="1.0" encoding="iso-8859-1"?>
<!-- Generator: Adobe Illustrator 19.0.0, SVG Export Plug-In . SVG Version: 6.00 Build 0)  -->
<svg version="1.1" id="Layer_1" xmlns="http://www.w3.org/2000/svg" xmlns:xlink="http://www.w3.org/1999/xlink" x="0px" y="0px"
	 viewBox="0 0 511.999 511.999" style="enable-background:new 0 0 511.999 511.999;" xml:space="preserve">
<g>
	<circle style="fill:#FFD960;" cx="365.936" cy="56.987" r="48.871"/>
	<circle style="fill:#FFD960;" cx="142.815" cy="56.987" r="48.871"/>
</g>
<path style="fill:#90C8EC;" d="M414.809,254.504v65.294c0,10.796-8.753,19.549-19.549,19.549H105.273
	c-10.796,0-19.549-8.753-19.549-19.549V191.096c0-10.796,8.753-19.549,19.549-19.549H395.26c10.796,0,19.549,8.753,19.549,19.549
	v36.367"/>
<path style="fill:#3A5D74;" d="M250.267,297.409c26.992,0,48.874-21.883,48.874-48.874h-97.747
	C201.392,275.528,223.274,297.409,250.267,297.409z"/>
<g style="opacity:0.2;">
	<path style="fill:#231F20;" d="M343.254,56.987c0-22.454,15.148-41.357,35.777-47.085c-4.17-1.157-8.558-1.789-13.097-1.789
		c-26.991,0-48.874,21.883-48.874,48.874s21.882,48.874,48.874,48.874c4.539,0,8.927-0.632,13.097-1.789
		C358.402,98.344,343.254,79.44,343.254,56.987z"/>
</g>
<g style="opacity:0.2;">
	<path style="fill:#231F20;" d="M120.138,56.987c0-22.454,15.148-41.357,35.777-47.085c-4.17-1.157-8.557-1.789-13.096-1.789
		c-26.993,0-48.875,21.883-48.875,48.874s21.882,48.874,48.875,48.874c4.539,0,8.927-0.632,13.096-1.789
		C135.286,98.344,120.138,79.44,120.138,56.987z"/>
</g>
<g style="opacity:0.2;">
	<path style="fill:#231F20;" d="M111.917,319.798V191.096c0-10.796,8.753-19.549,19.549-19.549h-26.193
		c-10.796,0-19.549,8.753-19.549,19.549v128.702c0,10.796,8.753,19.549,19.549,19.549h26.194
		C120.67,339.348,111.917,330.595,111.917,319.798z"/>
</g>
<g style="opacity:0.2;">
	<path style="fill:#231F20;" d="M227.587,248.535h-26.194c0,26.993,21.882,48.874,48.874,48.874c4.538,0,8.927-0.632,13.096-1.789
		C242.735,289.894,227.587,270.989,227.587,248.535z"/>
</g>
<g>
	<path style="fill:#578CAD;" d="M425.074,450.564c-6.606-9.101-19.341-11.124-28.442-4.517
		c-20.858,15.143-47.23,20.582-72.352,14.926c-48.201-10.852-78.586-58.893-67.733-107.095l3.275-14.556h-41.747l-1.263,5.612
		c-15.784,70.111,28.414,139.991,98.523,155.774c36.54,8.225,74.89,0.317,105.224-21.7
		C429.658,472.402,431.683,459.667,425.074,450.564z"/>
	<path style="fill:#578CAD;" d="M216.812,344.934l1.263-5.612h-21.612c-14.253,22.682-39.917,36.573-67.705,35.167
		c-13.328-0.673-26.236-4.852-37.332-12.086c-9.42-6.143-22.038-3.484-28.18,5.937c-6.142,9.423-3.484,22.037,5.94,28.18
		c17.118,11.161,37.007,17.609,57.514,18.645c33.312,1.685,64.629-10.926,87.23-33.081
		C213.123,369.91,213.998,357.428,216.812,344.934z"/>
	<path style="fill:#578CAD;" d="M444.188,335.46c-8.885-6.899-21.676-5.291-28.574,3.592
		c-18.047,23.235-48.209,33.921-76.842,27.224c-16.946-3.962-31.744-13.587-42.216-26.954h-36.733l-3.104,13.792
		c16.067,26.434,42.124,45.652,72.781,52.822c44.077,10.307,90.506-6.14,118.282-41.9
		C454.678,355.152,453.069,342.358,444.188,335.46z"/>
</g>
<g>
	<circle style="fill:#231F20;" cx="365.936" cy="56.987" r="17.92"/>
	<circle style="fill:#231F20;" cx="142.815" cy="56.987" r="17.92"/>
	<path style="fill:#231F20;" d="M201.392,240.423c-4.481,0-8.113,3.632-8.113,8.113c0,31.423,25.565,56.987,56.987,56.987
		s56.987-25.564,56.987-56.987c0-4.48-3.631-8.113-8.113-8.113H201.392z M250.267,289.297c-19.699,0-36.178-14.046-39.95-32.649
		h79.899C286.445,275.251,269.965,289.297,250.267,289.297z"/>
	<path style="fill:#231F20;" d="M449.164,329.052c-5.044-3.917-11.079-5.987-17.453-5.987c-3.19,0-6.291,0.528-9.212,1.519
		c0.273-1.555,0.423-3.153,0.423-4.785v-65.294c0-4.48-3.631-8.113-8.113-8.113c-4.481,0-8.113,3.632-8.113,8.113v65.294
		c0,6.306-5.13,11.437-11.437,11.437h-98.263c-0.147-0.008-0.293-0.025-0.441-0.025h-36.733h-41.747h-21.611
		c-0.133,0-0.263,0.018-0.395,0.025h-90.796c-6.306,0-11.437-5.13-11.437-11.437V191.096c0-6.306,5.13-11.437,11.437-11.437H395.26
		c6.306,0,11.437,5.13,11.437,11.437v36.367c0,4.48,3.631,8.113,8.113,8.113c4.481,0,8.113-3.632,8.113-8.113v-36.367
		c0-15.253-12.409-27.662-27.662-27.662H268.646l61.861-61.861c9.735,7.751,22.045,12.401,35.428,12.401
		c31.423,0,56.988-25.564,56.988-56.987C422.922,25.565,397.357,0,365.934,0c-31.422,0-56.987,25.565-56.987,56.987
		c0,12.197,3.865,23.502,10.416,32.782l-69.097,69.099l-64.494-64.495c8.728-10.015,14.033-23.089,14.033-37.385
		C199.804,25.565,174.24,0,142.819,0c-31.423,0-56.988,25.565-56.988,56.987s25.565,56.987,56.988,56.987
		c11.272,0,21.78-3.303,30.635-8.973l58.433,58.433H105.273c-15.254,0-27.662,12.409-27.662,27.662v128.702
		c0,15.253,12.409,27.662,27.662,27.662h74.266c-12.393,12.098-29.071,19.013-46.925,19.014c-1.142,0-2.301-0.029-3.447-0.088
		c-11.895-0.601-23.414-4.328-33.31-10.779c-4.64-3.026-10.011-4.625-15.533-4.625c-9.673,0-18.598,4.833-23.874,12.928
		c-8.575,13.154-4.848,30.831,8.306,39.406c18.32,11.944,39.598,18.843,61.534,19.952c2.102,0.107,4.234,0.16,6.334,0.16
		c0.002,0-0.001,0,0.001,0c27.426,0,53.577-8.885,75.095-25.272c9.651,53.043,50.008,97.898,105.831,110.465
		c9.955,2.241,20.177,3.377,30.38,3.377c0.002,0,0.002,0,0.004,0c29.424,0,57.569-9.138,81.388-26.427
		c6.154-4.468,10.201-11.067,11.395-18.578c1.193-7.513-0.611-15.041-5.081-21.196c-5.34-7.358-13.96-11.75-23.061-11.75
		c-6.037,0-11.816,1.879-16.712,5.433c-14.026,10.183-30.598,15.564-47.927,15.564c-6.004,0-12.019-0.668-17.877-1.987
		c-21.199-4.772-39.288-17.544-50.938-35.963c-8.191-12.95-12.476-27.583-12.65-42.498c17.023,19.4,39.914,33.328,65.177,39.237
		c9.212,2.155,18.684,3.246,28.153,3.247c0.003,0,0.002,0,0.004,0c38.222,0,75-17.971,98.379-48.072
		C463.818,356.61,461.564,338.686,449.164,329.052z M365.934,16.225c22.475,0,40.763,18.286,40.763,40.761
		s-18.286,40.761-40.763,40.761s-40.761-18.285-40.761-40.761C325.174,34.511,343.459,16.225,365.934,16.225z M102.056,56.987
		c0-22.475,18.286-40.761,40.763-40.761s40.761,18.286,40.761,40.761s-18.285,40.761-40.761,40.761S102.056,79.462,102.056,56.987z
		 M395.23,347.46c-11.371,8.108-25.185,12.674-39.369,12.674c-5.125,0-10.253-0.592-15.241-1.758
		c-8.65-2.023-16.79-5.772-23.95-10.916H395.23z M132.625,407.203c-1.828,0-3.684-0.048-5.516-0.14
		c-19.076-0.964-37.573-6.96-53.493-17.34c-5.659-3.689-7.262-11.294-3.574-16.953c2.27-3.484,6.114-5.563,10.281-5.563
		c2.367,0,4.673,0.688,6.672,1.991c12.297,8.016,26.597,12.647,41.352,13.392c1.417,0.071,2.851,0.108,4.266,0.108
		c27.373,0,52.526-13.089,68.169-35.239h7.215c-0.055,0.287-0.1,0.575-0.153,0.862c-0.163,0.879-0.321,1.758-0.467,2.636
		c-0.05,0.303-0.096,0.606-0.145,0.909c-0.165,1.041-0.32,2.081-0.462,3.122c-0.019,0.143-0.039,0.287-0.057,0.429
		c-1.044,7.853-1.401,15.667-1.107,23.378C185.619,397.142,159.844,407.203,132.625,407.203z M322.498,468.889
		c7.027,1.581,14.24,2.384,21.441,2.384c20.775,0,40.644-6.452,57.458-18.659c2.107-1.531,4.59-2.339,7.18-2.339
		c3.92,0,7.632,1.89,9.932,5.057c1.922,2.648,2.699,5.887,2.186,9.119c-0.514,3.232-2.254,6.07-4.901,7.993
		c-21.031,15.265-45.88,23.333-71.86,23.332c-9.007,0-18.031-1.004-26.817-2.981c-53.885-12.131-91.438-58.342-95.088-110.816
		c-0.002-0.143,0.004-0.284-0.005-0.428c-0.575-8.708-0.217-17.423,1.059-26.011c0.025-0.168,0.052-0.336,0.078-0.504
		c0.185-1.213,0.39-2.422,0.613-3.629c0.034-0.184,0.064-0.367,0.098-0.551c0.214-1.135,0.453-2.264,0.7-3.392h25.102l-0.872,3.872
		c-0.003,0.013-0.004,0.025-0.006,0.038l-0.163,0.727c-5.725,25.426-1.187,51.59,12.779,73.672
		C275.377,447.851,297.071,463.165,322.498,468.889z M441.373,359.059c-20.329,26.174-52.317,41.8-85.567,41.799
		c-8.227-0.001-16.458-0.95-24.459-2.82c-26.98-6.311-50.854-23.146-65.978-46.405l0.939-4.172h26.446
		c11.502,13.283,27.041,22.71,44.171,26.716c6.197,1.449,12.569,2.185,18.937,2.185c25.704-0.002,50.437-12.088,66.161-32.333
		c2.338-3.01,5.869-4.737,9.689-4.737c2.737,0,5.332,0.891,7.502,2.576C444.546,346.011,445.517,353.724,441.373,359.059z"/>
</g>
<g>
</g>
<g>
</g>
<g>
</g>
<g>
</g>
<g>
</g>
<g>
</g>
<g>
</g>
<g>
</g>
<g>
</g>
<g>
</g>
<g>
</g>
<g>
</g>
<g>
</g>
<g>
</g>
<g>
</g>
</svg>
