<?xml version="1.0" encoding="iso-8859-1"?>
<!-- Generator: Adobe Illustrator 19.0.0, SVG Export Plug-In . SVG Version: 6.00 Build 0)  -->
<svg version="1.1" id="Layer_1" xmlns="http://www.w3.org/2000/svg" xmlns:xlink="http://www.w3.org/1999/xlink" x="0px" y="0px"
	 viewBox="0 0 512 512" style="enable-background:new 0 0 512 512;" xml:space="preserve">
<path style="fill:#FF9737;" d="M220.268,183.38l-86.453-49.913c-8.112-4.684-18.108-4.684-26.219,0L21.143,183.38
	c-8.112,4.685-13.11,13.339-13.11,22.707v99.825c0,9.37,4.997,18.025,13.11,22.708l86.452,49.912
	c4.056,2.344,8.584,3.514,13.11,3.514c4.526,0,9.054-1.171,13.109-3.514l86.453-49.912c8.111-4.683,13.109-13.338,13.109-22.708
	v-99.825C233.377,196.719,228.379,188.065,220.268,183.38z"/>
<g style="opacity:0.2;">
	<path style="fill:#231F20;" d="M47.129,336.066c-8.945-5.163-14.453-14.706-14.453-25.036V200.97
		c0-10.328,5.51-19.87,14.453-25.034l78.747-45.463c-6.164-1.239-12.672-0.244-18.28,2.995L21.143,183.38
		c-8.112,4.685-13.11,13.339-13.11,22.707v99.825c0,9.37,4.997,18.025,13.11,22.708l86.452,49.912
		c4.056,2.344,8.584,3.514,13.11,3.514c1.733,0,3.465-0.175,5.172-0.517L47.129,336.066z"/>
</g>
<path style="fill:#90C8EC;" d="M398.213,282.826c54.8-53.513,105.753-37.689,105.753-37.689
	c-83.735-58.495-111.904,15.273-164.852-4.062c-52.943-19.336-14.64-70.451-14.64-70.451c-47.463-22.09-92.392-11.489-122.701,2.081
	l18.493,10.675c8.111,4.685,13.109,13.339,13.109,22.707v99.825c0,9.37-4.997,18.025-13.109,22.708l-13.994,8.077
	c42.221,28.48,118.837,25.515,174.979-35.464"/>
<path style="fill:#FF4D30;" d="M167.776,221.667l-40.873-23.598c-3.836-2.214-8.561-2.214-12.397,0l-40.872,23.598
	c-3.836,2.215-6.198,6.307-6.198,10.734v47.196c0,4.428,2.363,8.52,6.198,10.734l40.872,23.598c1.917,1.106,4.057,1.661,6.198,1.661
	c2.139,0,4.28-0.555,6.198-1.661l40.873-23.598c3.836-2.214,6.198-6.308,6.198-10.734v-47.196
	C173.975,227.973,171.612,223.883,167.776,221.667z"/>
<g style="opacity:0.2;">
	<path style="fill:#231F20;" d="M99.623,298.555c-4.753-2.745-7.682-7.818-7.682-13.306V226.75c0-5.489,2.928-10.56,7.682-13.306
		l26.93-15.549c-3.771-2.021-8.324-1.976-12.046,0.172l-40.872,23.598c-3.836,2.215-6.198,6.307-6.198,10.734v47.196
		c0,4.428,2.363,8.52,6.198,10.734l40.872,23.598c1.917,1.106,4.057,1.661,6.198,1.661c2.013,0,4.019-0.51,5.848-1.489
		L99.623,298.555z"/>
</g>
<g style="opacity:0.2;">
	<path style="fill:#231F20;" d="M220.268,183.38c8.111,4.685,13.109,13.339,13.109,22.707v99.825c0,9.37-4.997,18.025-13.109,22.708
		l-13.994,8.077c8.183,5.519,17.663,9.852,28.03,12.817c14.984-9.336,24.242-25.871,24.242-43.602v-99.825
		c0-18.08-9.623-34.93-25.138-44.16c-11.684,2.745-22.348,6.62-31.634,10.778L220.268,183.38z"/>
</g>
<g>
	<path style="fill:#231F20;" d="M171.793,214.71l-40.874-23.598c-3.102-1.791-6.633-2.738-10.215-2.738s-7.114,0.947-10.215,2.738
		l-40.875,23.599c-6.299,3.638-10.213,10.418-10.213,17.691v47.196c0,7.275,3.914,14.054,10.215,17.692l40.875,23.599
		c3.103,1.79,6.634,2.737,10.214,2.737c3.578,0,7.11-0.946,10.215-2.738l40.874-23.598c6.3-3.637,10.215-10.417,10.215-17.692
		v-47.196C182.008,225.13,178.094,218.351,171.793,214.71z M165.941,279.598c0,1.553-0.835,3.001-2.182,3.778l-40.871,23.597
		c-1.33,0.766-3.041,0.765-4.366,0.001L77.65,283.376c-1.345-0.778-2.182-2.225-2.182-3.778v-47.196
		c0-1.553,0.837-3.001,2.182-3.778l40.872-23.598c0.662-0.382,1.417-0.585,2.182-0.585c0.765,0,1.52,0.202,2.182,0.585
		l40.872,23.597c1.346,0.779,2.183,2.226,2.183,3.779V279.598z"/>
	<path style="fill:#231F20;" d="M508.566,238.551c-53.885-37.644-88.216-23.391-115.8-11.938
		c-17.536,7.28-32.681,13.567-50.896,6.916c-11.949-4.364-19.26-10.761-21.729-19.015c-5.186-17.337,10.611-38.871,10.762-39.074
		c1.451-1.938,1.952-4.426,1.362-6.774c-0.59-2.347-2.207-4.305-4.401-5.326c-48.578-22.609-94.468-12.761-125.573,0.386
		l-64.461-37.216c-5.199-3.002-11.122-4.59-17.127-4.59c-6.004,0-11.926,1.587-17.126,4.59l-86.453,49.913
		C6.561,182.523,0,193.891,0,206.087v99.825c0,12.201,6.563,23.567,17.127,29.665l86.449,49.91
		c5.199,3.005,11.122,4.593,17.13,4.593s11.931-1.587,17.125-4.591l68.26-39.409c17.489,10.489,39.115,16.038,61.899,16.038
		c7.172,0,14.462-0.549,21.767-1.666c25.424-3.883,62.961-16.365,97.406-53.779c3.005-3.265,2.794-8.346-0.469-11.351
		c-3.266-3.007-8.347-2.793-11.351,0.469c-31.288,33.984-65.131,45.284-88.013,48.779c-23.326,3.566-46.251,0.664-64.851-7.953
		l1.805-1.042c7.923-4.573,13.594-12.111,15.934-20.74c0.78-2.877,1.19-5.875,1.19-8.924v-99.825c0-3.811-0.641-7.541-1.844-11.056
		c-2.648-7.731-8.018-14.414-15.281-18.609l-4.067-2.348c25.167-8.543,57.919-12.976,92.449,0.261
		c-5.619,10.163-12.944,27.862-7.939,44.711c3.986,13.412,14.627,23.363,31.631,29.573c24.1,8.802,43.655,0.682,62.568-7.169
		c20.482-8.504,41.505-17.236,71.64-5.573c-20.996,2.902-49.023,12.935-77.967,41.199c-3.174,3.101-3.235,8.186-0.135,11.36
		c3.099,3.173,8.184,3.235,11.36,0.135c21.195-20.698,44.084-33.003,68.033-36.574c17.823-2.66,29.647,0.787,29.726,0.81
		c3.781,1.177,7.855-0.583,9.597-4.138C512.922,245.114,511.814,240.819,508.566,238.551z M129.795,371.577
		c-5.515,3.189-12.661,3.191-18.183-0.002l-86.453-49.912c-5.608-3.238-9.092-9.273-9.092-15.75v-99.825
		c0-6.476,3.484-12.511,9.093-15.75l86.453-49.913c2.76-1.594,5.905-2.437,9.092-2.437c3.189,0,6.332,0.843,9.093,2.437
		l67.941,39.225c0.006,0.004,0.013,0.009,0.019,0.013l18.492,10.674c5.609,3.24,9.093,9.276,9.093,15.751v99.825
		c0,1.215-0.122,2.413-0.359,3.582c-0.157,0.779-0.365,1.543-0.62,2.29c-0.383,1.119-0.874,2.198-1.464,3.22
		c-1.572,2.724-3.845,5.042-6.649,6.661l-1.923,1.11l-12.07,6.967c-0.005,0.003-0.011,0.007-0.016,0.011L129.795,371.577z"/>
</g>
<g>
</g>
<g>
</g>
<g>
</g>
<g>
</g>
<g>
</g>
<g>
</g>
<g>
</g>
<g>
</g>
<g>
</g>
<g>
</g>
<g>
</g>
<g>
</g>
<g>
</g>
<g>
</g>
<g>
</g>
</svg>
