<?xml version="1.0" encoding="iso-8859-1"?>
<!-- Generator: Adobe Illustrator 19.0.0, SVG Export Plug-In . SVG Version: 6.00 Build 0)  -->
<svg version="1.1" id="Layer_1" xmlns="http://www.w3.org/2000/svg" xmlns:xlink="http://www.w3.org/1999/xlink" x="0px" y="0px"
	 viewBox="0 0 512.001 512.001" style="enable-background:new 0 0 512.001 512.001;" xml:space="preserve">
<polygon style="fill:#FFD960;" points="259.937,460.098 156.495,460.098 163.24,415.126 253.192,415.126 "/>
<path style="fill:#3A5D74;" d="M478.622,481.997c0-12.095-9.802-21.9-21.895-21.9H55.273c-12.094,0-21.896,9.804-21.896,21.9
	c0,12.092,9.802,21.896,21.896,21.896h401.455C468.82,503.893,478.622,494.089,478.622,481.997z"/>
<path style="fill:#578CAD;" d="M433.461,370.345v-34.321c0-10.339-8.38-18.718-18.718-18.718h-36.397
	c-10.339,0-18.719,8.38-18.719,18.718v124.073h66.714c2.509,0,4.904,0.479,7.12,1.313v-65.123"/>
<path style="fill:#90C8EC;" d="M378.347,317.306h36.397c4.387,0,8.409,1.518,11.599,4.041v-28.778
	c0-11.179-9.061-20.239-20.24-20.239h-19.116c-11.176,0-20.24,9.059-20.24,20.239v28.778
	C369.94,318.824,373.962,317.306,378.347,317.306z"/>
<g>
	<polygon style="fill:#578CAD;" points="270.056,295.942 323.461,356.657 323.461,403.88 270.056,403.88 	"/>
	<polygon style="fill:#578CAD;" points="146.375,295.942 92.968,356.657 92.968,403.88 146.375,403.88 	"/>
</g>
<path style="fill:#90C8EC;" d="M270.056,394.886c0,11.177-9.062,20.241-20.239,20.241h-83.204c-11.177,0-20.239-9.064-20.239-20.241
	V220.61c0-11.177,9.062-20.239,20.239-20.239h83.204c11.177,0,20.239,9.062,20.239,20.239V394.886z"/>
<path style="fill:#76B9DD;" d="M249.817,200.371h-83.204c-11.177,0-20.239,9.062-20.239,20.239v28.672h123.681V220.61
	C270.056,209.433,260.994,200.371,249.817,200.371z"/>
<path style="fill:#90C8EC;" d="M238.174,200.371V38.066c0-16.546-13.414-29.959-29.96-29.959c-16.545,0-29.959,13.412-29.959,29.959
	v162.305L238.174,200.371L238.174,200.371z"/>
<g style="opacity:0.1;">
	<polygon style="fill:#231F20;" points="163.24,415.126 156.495,460.098 182.212,460.098 188.958,415.126 	"/>
</g>
<g style="opacity:0.2;">
	<path style="fill:#231F20;" d="M59.096,481.997c0-12.095,9.802-21.9,21.896-21.9H55.273c-12.094,0-21.896,9.804-21.896,21.9
		c0,12.092,9.802,21.896,21.896,21.896h25.718C68.898,503.893,59.096,494.089,59.096,481.997z"/>
</g>
<g>
	<g style="opacity:0.2;">
		<path style="fill:#231F20;" d="M404.064,317.306h-25.717c-10.339,0-18.719,8.38-18.719,18.718v124.073h25.718V336.024
			C385.345,325.686,393.724,317.306,404.064,317.306z"/>
		<path style="fill:#231F20;" d="M426.341,460.098c2.509,0,4.904,0.479,7.12,1.313v-1.313H426.341z"/>
	</g>
	<g style="opacity:0.2;">
		<path style="fill:#231F20;" d="M392.464,292.569c0-10.052,7.336-18.366,16.939-19.946c-1.077-0.177-2.175-0.292-3.301-0.292
			h-19.116c-11.176,0-20.24,9.059-20.24,20.239v28.778c3.193-2.523,7.215-4.041,11.599-4.041h14.118v-24.739H392.464z"/>
		<path style="fill:#231F20;" d="M414.743,317.306c4.387,0,8.409,1.518,11.599,4.041v-4.041H414.743z"/>
	</g>
</g>
<g style="opacity:0.2;">
	<polygon style="fill:#231F20;" points="118.685,363.143 146.375,331.665 146.375,295.942 92.968,356.657 92.968,403.88 
		118.685,403.88 	"/>
</g>
<g style="opacity:0.2;">
	<path style="fill:#231F20;" d="M172.093,394.886V220.61c0-11.177,9.062-20.239,20.239-20.239h-25.718
		c-11.177,0-20.239,9.062-20.239,20.239v174.277c0,11.177,9.062,20.241,20.239,20.241h25.718
		C181.155,415.126,172.093,406.062,172.093,394.886z"/>
</g>
<g style="opacity:0.2;">
	<path style="fill:#231F20;" d="M221.074,11.003c-3.897-1.855-8.257-2.896-12.859-2.896c-16.545,0-29.959,13.412-29.959,29.959
		v162.305h25.717V38.066C203.973,26.123,210.963,15.815,221.074,11.003z"/>
</g>
<g>
	<path style="fill:#231F20;" d="M456.728,451.991h-15.159v-55.703c0-4.478-3.629-8.107-8.107-8.107s-8.107,3.629-8.107,8.107v55.703
		h-57.62V336.024c0-3.402,1.616-6.426,4.113-8.37c0.59-0.458,1.217-0.843,1.871-1.164c0.133-0.065,0.264-0.134,0.4-0.192
		c0.128-0.056,0.258-0.103,0.387-0.153c0.179-0.07,0.359-0.138,0.543-0.199c0.118-0.039,0.238-0.074,0.357-0.108
		c0.202-0.058,0.405-0.111,0.612-0.158c0.114-0.026,0.228-0.051,0.344-0.072c0.225-0.043,0.453-0.076,0.682-0.105
		c0.1-0.012,0.2-0.028,0.302-0.038c0.331-0.031,0.665-0.051,1.003-0.051h36.397c0.339,0,0.673,0.019,1.004,0.051
		c0.098,0.01,0.196,0.025,0.293,0.037c0.235,0.029,0.467,0.063,0.696,0.107c0.109,0.021,0.216,0.044,0.324,0.069
		c0.216,0.049,0.429,0.104,0.64,0.165c0.109,0.031,0.218,0.064,0.326,0.098c0.199,0.065,0.395,0.139,0.588,0.215
		c0.115,0.045,0.23,0.086,0.343,0.136c0.161,0.07,0.317,0.151,0.475,0.229c0.636,0.317,1.246,0.695,1.821,1.144
		c2.489,1.944,4.099,4.964,4.099,8.36v34.321c0,4.478,3.629,8.107,8.107,8.107c4.478,0,8.107-3.629,8.107-8.107v-34.321
		c0-7.008-2.705-13.394-7.12-18.177V292.57c0-15.629-12.716-28.346-28.347-28.346h-1.448V144.153
		c0-15.628-12.716-28.344-28.347-28.344H246.281V38.066C246.281,17.076,229.204,0,208.214,0s-38.066,17.076-38.066,38.066v154.198
		h-3.536c-15.63,0-28.346,12.716-28.346,28.346v28.672v43.602l-51.387,58.419c-1.301,1.48-2.019,3.383-2.019,5.354v47.223
		c0,4.478,3.629,8.107,8.107,8.107h51.058c2.689,3.544,6.191,6.44,10.227,8.404l-4.739,31.599h-94.24
		c-16.544,0-30.003,13.461-30.003,30.007c0,16.544,13.459,30.003,30.003,30.003h401.455c16.543,0,30.002-13.459,30.002-30.003
		C486.729,465.452,473.271,451.991,456.728,451.991z M418.234,292.569v16.862c-0.04-0.005-0.081-0.007-0.121-0.012
		c-0.462-0.058-0.926-0.105-1.394-0.138c-0.116-0.009-0.23-0.019-0.346-0.026c-0.539-0.032-1.082-0.054-1.63-0.054h-36.397
		c-0.532,0-1.058,0.019-1.581,0.051c-0.186,0.011-0.371,0.028-0.556,0.042c-0.335,0.027-0.669,0.058-1.001,0.097
		c-0.118,0.014-0.237,0.019-0.353,0.035v-16.854c0-6.689,5.443-12.132,12.133-12.132h19.116
		C412.791,280.437,418.234,285.88,418.234,292.569z M376.307,132.024c6.689,0,12.133,5.44,12.133,12.129v120.07h-1.453
		c-15.631,0-28.347,12.716-28.347,28.346v25.278c-4.416,4.783-7.12,11.17-7.12,18.177v115.966h-84.602l-4.739-31.6
		c4.036-1.964,7.538-4.86,10.227-8.404h51.057c4.478,0,8.107-3.629,8.107-8.107v-47.223c0-1.971-0.718-3.874-2.019-5.354
		l-51.386-58.419v-43.602V220.61c0-15.63-12.716-28.346-28.346-28.346h-3.536v-60.24h130.025V132.024z M154.482,394.886v-98.943
		V257.39h107.466v38.553v98.943c0,6.69-5.441,12.134-12.132,12.134h-83.204C159.924,407.019,154.482,401.576,154.482,394.886z
		 M278.163,394.886v-77.451l37.191,42.281v36.057h-37.191V394.886z M186.363,38.066c0-12.048,9.802-21.851,21.851-21.851
		s21.853,9.802,21.853,21.851v154.198h-43.704V38.066z M154.482,220.61c0-6.689,5.442-12.132,12.132-12.132h11.643h59.918h11.643
		c6.689,0,12.132,5.442,12.132,12.132v20.565H154.483V220.61H154.482z M138.268,395.773h-37.192v-36.057l37.192-42.281v77.451
		C138.268,394.885,138.268,395.773,138.268,395.773z M170.222,423.233h75.988l4.313,28.758H165.91L170.222,423.233z
		 M456.728,495.786H55.273c-7.602,0-13.789-6.186-13.789-13.789c0-7.606,6.186-13.793,13.789-13.793h101.223h103.441
		c0.008,0,0.015,0,0.022,0h99.669h66.714c1.43,0,2.865,0.267,4.264,0.793c0.925,0.348,1.893,0.519,2.855,0.519
		c1.544,0,3.07-0.455,4.396-1.313h18.871c7.602,0,13.788,6.187,13.788,13.793C470.515,489.6,464.331,495.786,456.728,495.786z"/>
	<path style="fill:#231F20;" d="M208.214,293.456c-4.478,0-8.107,3.629-8.107,8.107v74.207c0,4.478,3.629,8.107,8.107,8.107
		s8.107-3.629,8.107-8.107v-74.207C216.321,297.085,212.693,293.456,208.214,293.456z"/>
</g>
<g>
</g>
<g>
</g>
<g>
</g>
<g>
</g>
<g>
</g>
<g>
</g>
<g>
</g>
<g>
</g>
<g>
</g>
<g>
</g>
<g>
</g>
<g>
</g>
<g>
</g>
<g>
</g>
<g>
</g>
</svg>
