<?xml version="1.0" encoding="iso-8859-1"?>
<!-- Generator: Adobe Illustrator 19.0.0, SVG Export Plug-In . SVG Version: 6.00 Build 0)  -->
<svg version="1.1" id="Layer_1" xmlns="http://www.w3.org/2000/svg" xmlns:xlink="http://www.w3.org/1999/xlink" x="0px" y="0px"
	 viewBox="0 0 512.002 512.002" style="enable-background:new 0 0 512.002 512.002;" xml:space="preserve">
<path style="fill:#90C8EC;" d="M255.999,97.124c-114.405,0-211.706,66.31-247.914,158.878
	c36.208,92.566,133.509,158.876,247.914,158.876c114.409,0,211.71-66.31,247.918-158.876
	C467.709,163.434,370.408,97.124,255.999,97.124z"/>
<path style="fill:#578CAD;" d="M385.07,316.028c-22.64,48.6-71.92,82.286-129.068,82.286c-78.599,0-142.313-63.717-142.313-142.313
	s63.714-142.312,142.313-142.312c78.596,0,142.31,63.715,142.31,142.312c0,12.03-1.492,23.712-4.302,34.87"/>
<g style="opacity:0.2;">
	<path style="fill:#231F20;" d="M138.932,256.001c0-74.342,57.007-135.36,129.691-141.75c-4.159-0.365-8.368-0.563-12.621-0.563
		c-78.599,0-142.313,63.715-142.313,142.312s63.714,142.313,142.313,142.313c4.234,0,8.418-0.207,12.557-0.569
		C195.905,391.326,138.932,330.322,138.932,256.001z"/>
</g>
<path style="fill:#FFD960;" d="M298.036,305.819c-42.397,0-76.767-34.369-76.767-76.768c0-15.504,4.611-29.927,12.517-41.997
	c-34.653,7.408-60.648,38.192-60.648,75.058c0,42.397,34.372,76.767,76.769,76.767c26.89,0,50.537-13.837,64.248-34.771
	C308.957,305.222,303.567,305.819,298.036,305.819z"/>
<g style="opacity:0.2;">
	<path style="fill:#231F20;" d="M270.747,322.88c-42.397,0-76.769-34.37-76.769-76.767c0-20.069,7.713-38.323,20.324-51.998
		c-24.463,12.832-41.163,38.455-41.163,67.997c0,42.397,34.372,76.767,76.769,76.767c22.314,0,42.387-9.534,56.411-24.738
		C295.685,319.719,283.588,322.88,270.747,322.88z"/>
</g>
<g>
	<path style="fill:#231F20;" d="M256.002,406.399c-82.93,0-150.398-67.468-150.398-150.398c0-82.929,67.469-150.396,150.398-150.396
		s150.394,67.468,150.394,150.396c0,12.469-1.53,24.866-4.548,36.845c-1.09,4.33-5.48,6.955-9.814,5.865
		c-4.33-1.091-6.955-5.484-5.864-9.814c2.691-10.688,4.057-21.756,4.057-32.895c0-74.014-60.213-134.228-134.226-134.228
		c-74.015,0-134.229,60.214-134.229,134.228S181.987,390.23,256.002,390.23c51.989,0,99.775-30.467,121.74-77.616
		c1.886-4.046,6.697-5.801,10.742-3.914c4.048,1.885,5.8,6.695,3.915,10.741c-11.928,25.605-30.779,47.297-54.515,62.732
		C313.512,398.021,285.198,406.399,256.002,406.399z"/>
	<path style="fill:#231F20;" d="M255.999,422.963c-56.994,0-111.524-15.921-157.698-46.039
		c-45.319-29.562-79.117-70.357-97.745-117.977c-0.742-1.893-0.742-3.996,0-5.89c18.626-47.62,52.426-88.416,97.745-117.979
		c46.174-30.12,100.704-46.039,157.698-46.039c56.996,0,111.528,15.921,157.701,46.039c45.32,29.561,79.119,70.357,97.746,117.979
		c0.742,1.893,0.742,3.997,0,5.89c-18.626,47.619-52.427,88.415-97.746,117.977C367.527,407.043,312.995,422.963,255.999,422.963z
		 M16.79,256.002c36.865,90.322,132.554,150.792,239.209,150.792c106.658,0,202.348-60.47,239.213-150.792
		c-36.865-90.323-132.555-150.794-239.213-150.794C149.343,105.208,53.655,165.679,16.79,256.002z"/>
	<path style="fill:#231F20;" d="M249.908,346.964c-46.787,0-84.853-38.064-84.853-84.851c0-39.769,28.194-74.66,67.042-82.964
		c3.201-0.681,6.506,0.633,8.358,3.336c1.853,2.703,1.89,6.258,0.095,8.999c-7.324,11.184-11.196,24.174-11.196,37.569
		c0,37.872,30.811,68.683,68.682,68.683c4.829,0,9.683-0.515,14.428-1.531c3.202-0.684,6.507,0.631,8.361,3.334
		c1.853,2.703,1.891,6.258,0.095,9C305.16,332.599,278.613,346.964,249.908,346.964z M217.804,201.412
		c-21.958,11.694-36.579,34.932-36.579,60.701c0,37.872,30.812,68.682,68.685,68.682c16.866,0,32.812-6.129,45.169-16.943
		c-45.421-1.565-81.892-39.005-81.892-84.8C213.185,219.567,214.757,210.244,217.804,201.412z"/>
	<circle style="fill:#231F20;" cx="307.32" cy="253.393" r="14.788"/>
	<circle style="fill:#231F20;" cx="276.88" cy="213.155" r="7.829"/>
</g>
<g>
</g>
<g>
</g>
<g>
</g>
<g>
</g>
<g>
</g>
<g>
</g>
<g>
</g>
<g>
</g>
<g>
</g>
<g>
</g>
<g>
</g>
<g>
</g>
<g>
</g>
<g>
</g>
<g>
</g>
</svg>
