<?xml version="1.0" encoding="iso-8859-1"?>
<!-- Generator: Adobe Illustrator 19.0.0, SVG Export Plug-In . SVG Version: 6.00 Build 0)  -->
<svg version="1.1" id="Layer_1" xmlns="http://www.w3.org/2000/svg" xmlns:xlink="http://www.w3.org/1999/xlink" x="0px" y="0px"
	 viewBox="0 0 512 512" style="enable-background:new 0 0 512 512;" xml:space="preserve">
<path style="fill:#FF4D30;" d="M278.886,70.121c0,12.64-10.245,22.885-22.884,22.885c-12.642,0-22.886-10.245-22.886-22.885
	c0-12.639,10.244-22.886,22.886-22.886C268.64,47.234,278.886,57.482,278.886,70.121z"/>
<g style="opacity:0.2;">
	<path style="fill:#231F20;" d="M258.584,70.121c0-7.924,4.029-14.908,10.151-19.015c-3.641-2.444-8.02-3.872-12.734-3.872
		c-12.642,0-22.886,10.247-22.886,22.886c0,12.64,10.244,22.885,22.886,22.885c4.714,0,9.093-1.429,12.734-3.871
		C262.613,85.028,258.584,78.046,258.584,70.121z"/>
</g>
<path style="fill:#578CAD;" d="M356.531,375.454h127.212c11.097,0,20.096-8.996,20.096-20.094v-30.741
	c0-25.464-20.645-46.109-46.11-46.109H54.27c-25.465,0-46.109,20.645-46.109,46.109v30.741c0,11.098,8.997,20.094,20.096,20.094
	h302.163"/>
<path style="fill:#90C8EC;" d="M107.269,277.771h297.46c-11.677-71.611-73.817-126.275-148.728-126.275
	C181.086,151.496,118.948,206.158,107.269,277.771z"/>
<g>
	<path style="fill:#3A5D74;" d="M379.919,375.454c11.097,0,20.096,8.996,20.096,20.096v4.465c0,11.097-8.998,20.096-20.096,20.096
		H132.082c-11.1,0-20.096-8.998-20.096-20.096v-4.465c0-11.099,8.995-20.096,20.096-20.096"/>
	<path style="fill:#3A5D74;" d="M310.145,237.02H201.854c-11.096,0-20.094,8.997-20.094,20.096v20.654H330.24v-20.654
		C330.24,246.018,321.243,237.02,310.145,237.02z"/>
</g>
<g style="opacity:0.2;">
	<path style="fill:#231F20;" d="M33.73,355.36v-30.741c0-25.464,20.644-46.109,46.109-46.109H54.27
		c-25.465,0-46.109,20.645-46.109,46.109v30.741c0,11.098,8.997,20.094,20.096,20.094h25.57
		C42.727,375.454,33.73,366.458,33.73,355.36z"/>
</g>
<g style="opacity:0.2;">
	<path style="fill:#231F20;" d="M268.785,152.039c-4.216-0.354-8.478-0.543-12.785-0.543c-74.916,0-137.053,54.662-148.731,126.275
		h25.57C143.846,210.276,199.68,157.846,268.785,152.039z"/>
</g>
<g style="opacity:0.2;">
	<path style="fill:#231F20;" d="M137.556,400.015v-4.465c0-11.099,8.995-20.096,20.096-20.096h-25.57
		c-11.1,0-20.096,8.996-20.096,20.096v4.465c0,11.097,8.995,20.096,20.096,20.096h25.57
		C146.55,420.111,137.556,411.112,137.556,400.015z"/>
</g>
<g style="opacity:0.2;">
	<path style="fill:#231F20;" d="M227.424,237.02h-25.57c-11.096,0-20.094,8.997-20.094,20.096v20.654h25.57v-20.654
		C207.329,246.018,216.326,237.02,227.424,237.02z"/>
</g>
<g>
	<path style="fill:#231F20;" d="M457.729,270.349h-46.073c-7.017-34.394-25.414-65.725-52.264-88.763
		c-26.678-22.893-60.226-36.23-95.23-38.032v-43.482c13.171-3.593,22.884-15.655,22.884-29.95c0-17.119-13.927-31.047-31.045-31.047
		c-17.119,0-31.047,13.928-31.047,31.047c0,14.295,9.714,26.357,22.886,29.95v43.484c-35.006,1.802-68.554,15.139-95.232,38.032
		c-26.85,23.039-45.248,54.37-52.265,88.763H54.27C24.346,270.349,0,294.694,0,324.618v30.741c0,15.579,12.675,28.255,28.256,28.255
		h78.222c-1.698,3.628-2.653,7.671-2.653,11.935v4.465c0,11.08,6.414,20.685,15.72,25.313l-23.142,34.929
		c-2.49,3.757-1.462,8.821,2.295,11.31c1.387,0.919,2.952,1.359,4.5,1.359c2.645,0,5.239-1.285,6.81-3.654l27.166-41.002H247.84
		v36.494c0,4.508,3.653,8.161,8.161,8.161c4.508,0,8.161-3.653,8.161-8.161v-36.494h110.663l27.163,41.002
		c1.569,2.37,4.164,3.654,6.81,3.654c1.548,0,3.112-0.44,4.5-1.359c3.757-2.488,4.784-7.552,2.295-11.31l-23.139-34.928
		c9.308-4.628,15.723-14.233,15.723-25.314v-4.465c0-4.263-0.954-8.306-2.653-11.935h78.221c15.58,0,28.256-12.675,28.256-28.255
		v-30.741C512,294.694,487.655,270.349,457.729,270.349z M322.08,269.61H189.92v-12.493c0-6.581,5.353-11.935,11.934-11.935h108.291
		c6.581,0,11.935,5.354,11.935,11.935V269.61z M241.275,70.121c0-8.12,6.606-14.726,14.726-14.726
		c8.119,0,14.724,6.606,14.724,14.726c0,8.119-6.605,14.725-14.724,14.725C247.88,84.845,241.275,78.24,241.275,70.121z
		 M256.001,159.657c66.979,0,123.893,45.692,138.806,109.954H338.4v-12.493c0-15.58-12.675-28.256-28.256-28.256H201.853
		c-15.579,0-28.255,12.675-28.255,28.256v12.493h-56.407C132.106,205.349,189.021,159.657,256.001,159.657z M495.679,355.36
		c0,6.581-5.354,11.934-11.935,11.934H356.531c-4.508,0-8.161,3.653-8.161,8.16s3.653,8.161,8.161,8.161h23.388
		c6.581,0,11.935,5.354,11.935,11.935v4.465c0,6.581-5.354,11.935-11.935,11.935h-0.634c-0.011,0-0.021,0-0.032,0H132.739
		c-0.008,0-0.015,0-0.023,0h-0.635c-6.581,0-11.935-5.354-11.935-11.935v-4.465c0-6.581,5.354-11.935,11.935-11.935h198.337
		c4.508,0,8.16-3.653,8.16-8.161s-3.653-8.16-8.16-8.16H28.256c-6.581,0-11.935-5.353-11.935-11.934v-30.741
		c0-20.925,17.024-37.949,37.949-37.949h403.46c20.925,0,37.95,17.024,37.95,37.949L495.679,355.36L495.679,355.36z"/>
	<path style="fill:#231F20;" d="M455.276,318.821H56.724c-4.508,0-8.161,3.653-8.161,8.161c0,4.508,3.653,8.16,8.161,8.16h398.552
		c4.508,0,8.161-3.653,8.161-8.16C463.436,322.474,459.783,318.821,455.276,318.821z"/>
</g>
<g>
</g>
<g>
</g>
<g>
</g>
<g>
</g>
<g>
</g>
<g>
</g>
<g>
</g>
<g>
</g>
<g>
</g>
<g>
</g>
<g>
</g>
<g>
</g>
<g>
</g>
<g>
</g>
<g>
</g>
</svg>
