<?xml version="1.0" encoding="iso-8859-1"?>
<!-- Generator: Adobe Illustrator 19.0.0, SVG Export Plug-In . SVG Version: 6.00 Build 0)  -->
<svg version="1.1" id="Layer_1" xmlns="http://www.w3.org/2000/svg" xmlns:xlink="http://www.w3.org/1999/xlink" x="0px" y="0px"
	 viewBox="0 0 512 512" style="enable-background:new 0 0 512 512;" xml:space="preserve">
<path style="fill:#90C8EC;" d="M256,332.742c-109.447,0-198.172-33.911-198.172-75.74c0,109.444,88.725,198.172,198.172,198.172
	s198.172-88.727,198.172-198.172C454.172,298.832,365.447,332.742,256,332.742z"/>
<path style="fill:#578CAD;" d="M408.912,208.82c28.273,13.094,45.259,29.88,45.259,48.182c0,41.83-88.725,75.74-198.172,75.74
	s-198.172-33.911-198.172-75.74c0-41.832,88.725-75.744,198.172-75.744c48.621,0,93.152,6.693,127.63,17.799"/>
<ellipse style="fill:#3A5D74;" cx="256" cy="254.501" rx="118.795" ry="25.72"/>
<g style="opacity:0.2;">
	<path style="fill:#231F20;" d="M86.818,296.46c-18.388-11.492-28.99-25.002-28.99-39.457c0,109.444,88.725,198.172,198.172,198.172
		c4.209,0,8.384-0.148,12.527-0.405C178.222,449.133,104.309,383.028,86.818,296.46z"/>
</g>
<g style="opacity:0.2;">
	<path style="fill:#231F20;" d="M82.884,257.003c0-40.19,81.906-73.065,185.399-75.582c-4.067-0.095-8.153-0.161-12.283-0.161
		c-109.447,0-198.172,33.912-198.172,75.744c0,41.83,88.725,75.74,198.172,75.74c4.209,0,8.384-0.057,12.527-0.155
		C164.919,330.117,82.884,297.224,82.884,257.003z"/>
</g>
<g style="opacity:0.2;">
	<path style="fill:#231F20;" d="M172.497,254.503c0-12.907,43.91-23.592,101.151-25.437c-5.758-0.185-11.651-0.283-17.647-0.283
		c-65.61,0-118.799,11.516-118.799,25.72c0,14.202,53.189,25.72,118.799,25.72c5.996,0,11.889-0.098,17.647-0.284
		C216.408,278.094,172.497,267.408,172.497,254.503z"/>
</g>
<g>
	<path style="fill:#231F20;" d="M412.31,201.485c-4.053-1.876-8.856-0.112-10.733,3.939c-1.876,4.051-0.112,8.857,3.939,10.733
		c26.163,12.116,40.572,26.622,40.572,40.847c0,16.401-19.261,33.169-52.845,46.005c-36.531,13.962-85.27,21.652-137.242,21.652
		s-100.712-7.69-137.242-21.652c-33.584-12.835-52.845-29.603-52.845-46.005c0-16.402,19.261-33.17,52.845-46.008
		c36.531-13.962,85.27-21.652,137.242-21.652c45.853,0,90.298,6.183,125.151,17.409c4.246,1.367,8.805-0.966,10.173-5.216
		c1.37-4.25-0.966-8.805-5.216-10.173c-36.411-11.73-82.618-18.188-130.109-18.188c-53.896,0-104.686,8.068-143.015,22.718
		c-40.782,15.586-63.241,37.29-63.241,61.109c0,113.73,92.526,206.256,206.256,206.256s206.256-92.526,206.256-206.256
		C462.256,235.814,444.985,216.616,412.31,201.485z M256,447.09c-92.243,0-169.353-66.051-186.522-153.338
		c0.15,0.129,0.309,0.258,0.46,0.386c0.303,0.259,0.612,0.516,0.922,0.773c0.418,0.347,0.841,0.692,1.271,1.036
		c0.316,0.253,0.635,0.506,0.957,0.758c0.446,0.348,0.9,0.693,1.358,1.038c0.321,0.243,0.642,0.484,0.97,0.725
		c0.488,0.359,0.987,0.715,1.487,1.069c0.315,0.223,0.625,0.447,0.944,0.668c0.562,0.389,1.138,0.776,1.716,1.162
		c0.274,0.183,0.541,0.368,0.819,0.55c0.825,0.54,1.664,1.078,2.521,1.609c0.04,0.025,0.079,0.051,0.119,0.075
		c0.904,0.562,1.828,1.117,2.767,1.67c0.265,0.156,0.539,0.308,0.806,0.464c0.674,0.39,1.351,0.779,2.043,1.165
		c0.358,0.199,0.725,0.397,1.089,0.595c0.619,0.338,1.241,0.676,1.873,1.011c0.4,0.212,0.807,0.421,1.213,0.632
		c0.611,0.317,1.226,0.633,1.849,0.945c0.428,0.216,0.861,0.429,1.296,0.642c0.622,0.306,1.25,0.61,1.884,0.913
		c0.443,0.211,0.888,0.423,1.338,0.633c0.647,0.302,1.301,0.601,1.96,0.9c0.449,0.204,0.897,0.407,1.352,0.609
		c0.69,0.306,1.39,0.61,2.093,0.912c0.437,0.188,0.869,0.377,1.311,0.564c0.778,0.329,1.57,0.653,2.364,0.978
		c0.379,0.155,0.753,0.313,1.136,0.467c1.182,0.475,2.378,0.945,3.593,1.41c38.329,14.65,89.119,22.717,143.015,22.717
		s104.686-8.067,143.015-22.717c1.215-0.465,2.41-0.935,3.593-1.41c0.385-0.154,0.759-0.313,1.139-0.468
		c0.792-0.323,1.582-0.648,2.358-0.975c0.444-0.188,0.879-0.377,1.317-0.567c0.701-0.302,1.399-0.604,2.087-0.91
		c0.455-0.203,0.904-0.406,1.354-0.611c0.658-0.299,1.312-0.598,1.959-0.9c0.449-0.21,0.895-0.421,1.338-0.633
		c0.634-0.303,1.262-0.607,1.884-0.913c0.434-0.213,0.867-0.428,1.296-0.642c0.622-0.313,1.235-0.627,1.844-0.943
		c0.407-0.211,0.817-0.423,1.219-0.635c0.628-0.333,1.246-0.668,1.863-1.006c0.366-0.2,0.736-0.399,1.097-0.6
		c0.687-0.383,1.358-0.769,2.026-1.157c0.273-0.157,0.553-0.315,0.824-0.473c0.938-0.551,1.86-1.107,2.764-1.666
		c0.047-0.029,0.092-0.059,0.139-0.088c0.848-0.528,1.682-1.06,2.499-1.595c0.283-0.185,0.556-0.374,0.835-0.56
		c0.572-0.382,1.143-0.764,1.699-1.15c0.323-0.224,0.638-0.451,0.956-0.676c0.497-0.352,0.993-0.706,1.477-1.062
		c0.33-0.243,0.653-0.486,0.977-0.73c0.456-0.344,0.909-0.688,1.353-1.034c0.324-0.252,0.643-0.506,0.961-0.76
		c0.429-0.343,0.85-0.688,1.268-1.033c0.31-0.258,0.621-0.516,0.925-0.775c0.151-0.128,0.309-0.257,0.459-0.385
		C425.353,381.038,348.243,447.09,256,447.09z"/>
	<path style="fill:#231F20;" d="M341.715,228.416c-22.983-4.977-53.424-7.717-85.715-7.717c-32.289,0-62.73,2.74-85.714,7.717
		c-28.088,6.081-41.169,14.37-41.169,26.087c0,11.716,13.082,20.006,41.169,26.087c22.984,4.976,53.425,7.717,85.714,7.717
		s62.73-2.741,85.715-7.717c28.088-6.083,41.169-14.371,41.169-26.087S369.802,234.498,341.715,228.416z M333.645,265.74
		c-21.302,4.126-48.878,6.399-77.645,6.399s-56.343-2.272-77.644-6.399c-21.396-4.145-30.066-8.935-32.536-11.237
		c2.471-2.303,11.14-7.093,32.535-11.237c21.301-4.126,48.877-6.399,77.645-6.399c28.769,0,56.344,2.272,77.646,6.399
		c21.395,4.145,30.065,8.934,32.535,11.237C363.711,256.806,355.04,261.596,333.645,265.74z"/>
	<path style="fill:#231F20;" d="M437.019,74.981C388.667,26.629,324.379,0.001,256,0.001S123.333,26.629,74.982,74.981
		C26.628,123.333,0,187.621,0,256.001s26.628,132.666,74.982,181.018c48.351,48.351,112.639,74.981,181.019,74.981
		s132.667-26.628,181.02-74.981C485.372,388.667,512,324.38,512,256.001S485.372,123.333,437.019,74.981z M256,495.83
		c-132.244,0-239.832-107.588-239.832-239.829C16.168,123.757,123.756,16.169,256,16.169s239.832,107.588,239.832,239.832
		C495.832,388.243,388.244,495.83,256,495.83z"/>
</g>
<g>
</g>
<g>
</g>
<g>
</g>
<g>
</g>
<g>
</g>
<g>
</g>
<g>
</g>
<g>
</g>
<g>
</g>
<g>
</g>
<g>
</g>
<g>
</g>
<g>
</g>
<g>
</g>
<g>
</g>
</svg>
