<?xml version="1.0" encoding="iso-8859-1"?>
<!-- Generator: Adobe Illustrator 19.0.0, SVG Export Plug-In . SVG Version: 6.00 Build 0)  -->
<svg version="1.1" id="Layer_1" xmlns="http://www.w3.org/2000/svg" xmlns:xlink="http://www.w3.org/1999/xlink" x="0px" y="0px"
	 viewBox="0 0 512 512" style="enable-background:new 0 0 512 512;" xml:space="preserve">
<path style="fill:#578CAD;" d="M255.999,220.346c-19.658,0-35.654,15.994-35.654,35.655c0,19.659,15.996,35.651,35.654,35.651
	c19.658,0,35.654-15.993,35.654-35.651C291.652,236.34,275.656,220.346,255.999,220.346z"/>
<path style="fill:#90C8EC;" d="M316.038,304.337c-14.147,17.537-35.807,28.773-60.039,28.773c-42.518,0-77.112-34.591-77.112-77.109
	c0-42.52,34.594-77.112,77.112-77.112s77.111,34.592,77.111,77.112c0,8.654-1.433,16.981-4.074,24.754 M255.999,220.346
	c-19.658,0-35.654,15.994-35.654,35.655c0,19.659,15.996,35.651,35.654,35.651c19.658,0,35.654-15.993,35.654-35.651
	C291.652,236.34,275.656,220.346,255.999,220.346z"/>
<g style="opacity:0.2;">
	<path style="fill:#231F20;" d="M245.591,256.001c0-15.217,9.586-28.23,23.03-33.339c-3.927-1.492-8.179-2.315-12.622-2.315
		c-19.658,0-35.654,15.994-35.654,35.655c0,19.659,15.996,35.651,35.654,35.651c4.443,0,8.695-0.825,12.622-2.315
		C255.175,284.228,245.591,271.216,245.591,256.001z"/>
</g>
<g style="opacity:0.2;">
	<path style="fill:#231F20;" d="M204.133,256.001c0-38.22,27.956-70.017,64.488-76.061c-4.11-0.68-8.322-1.051-12.622-1.051
		c-42.518,0-77.112,34.592-77.112,77.112c0,42.519,34.594,77.109,77.112,77.109c4.309,0,8.536-0.362,12.653-1.044
		C232.105,326.035,204.133,294.231,204.133,256.001z"/>
</g>
<g>
	<path style="fill:#231F20;" d="M255.999,414.989c-4.466,0-8.084,3.618-8.084,8.084v26.947c0,4.466,3.618,8.084,8.084,8.084
		c4.466,0,8.084-3.618,8.084-8.084v-26.947C264.083,418.608,260.465,414.989,255.999,414.989z"/>
	<path style="fill:#231F20;" d="M255.999,468.884c-4.466,0-8.084,3.618-8.084,8.084v26.947c0,4.466,3.618,8.084,8.084,8.084
		c4.466,0,8.084-3.618,8.084-8.084v-26.947C264.083,472.503,260.465,468.884,255.999,468.884z"/>
	<path style="fill:#231F20;" d="M255.999,32.753c4.466,0,8.084-3.618,8.084-8.084V8.084c0-4.466-3.618-8.084-8.084-8.084
		c-4.466,0-8.084,3.618-8.084,8.084v16.584C247.915,29.133,251.533,32.753,255.999,32.753z"/>
	<path style="fill:#231F20;" d="M255.999,86.648c4.466,0,8.084-3.618,8.084-8.084V51.616c0-4.466-3.618-8.084-8.084-8.084
		c-4.466,0-8.084,3.618-8.084,8.084v26.947C247.915,83.028,251.533,86.648,255.999,86.648z"/>
	<path style="fill:#231F20;" d="M415.989,169.83c-41.182-20.797-95.237-32.611-152.885-33.51c0.625-1.147,0.981-2.463,0.981-3.862
		v-26.947c0-4.466-3.618-8.084-8.084-8.084s-8.084,3.618-8.084,8.084v26.947c0,1.399,0.356,2.715,0.981,3.862
		c-57.648,0.898-111.704,12.713-152.885,33.51c-44.625,22.534-69.201,53.138-69.201,86.171s24.576,63.636,69.201,86.17
		c41.182,20.797,95.238,32.612,152.885,33.511c-0.625,1.147-0.981,2.463-0.981,3.862v16.582c0,4.466,3.618,8.084,8.084,8.084
		s8.084-3.618,8.084-8.084v-16.582c0-1.399-0.356-2.715-0.981-3.862c57.647-0.898,111.704-12.713,152.885-33.511
		c44.625-22.534,69.201-53.138,69.201-86.17C485.189,222.967,460.613,192.364,415.989,169.83z M408.7,327.74
		c-40.653,20.53-94.883,31.836-152.7,31.836c-57.818,0-112.048-11.306-152.702-31.836c-38.899-19.645-60.321-45.121-60.321-71.739
		s21.422-52.096,60.321-71.739c40.653-20.53,94.883-31.836,152.702-31.836c57.818,0,112.047,11.306,152.7,31.836
		c38.899,19.644,60.321,45.121,60.321,71.739S447.599,308.096,408.7,327.74z"/>
	<path style="fill:#231F20;" d="M212.261,256.001c0,24.116,19.621,43.736,43.738,43.736s43.738-19.62,43.738-43.736
		c0-24.118-19.621-43.739-43.738-43.739S212.261,231.883,212.261,256.001z M283.568,256.001c0,15.202-12.368,27.567-27.569,27.567
		s-27.569-12.367-27.569-27.567c0-15.203,12.368-27.57,27.569-27.57S283.568,240.798,283.568,256.001z"/>
	<path style="fill:#231F20;" d="M255.999,170.805c-46.977,0-85.196,38.219-85.196,85.196c0,46.976,38.219,85.194,85.196,85.194
		c25.86,0,50.037-11.584,66.33-31.782c2.805-3.475,2.259-8.564-1.216-11.367c-3.475-2.805-8.565-2.26-11.367,1.216
		c-13.21,16.373-32.8,25.765-53.747,25.765c-38.063,0-69.027-30.965-69.027-69.025c0-38.063,30.966-69.027,69.027-69.027
		s69.027,30.966,69.027,69.027c0,7.584-1.227,15.038-3.644,22.152c-1.437,4.227,0.825,8.819,5.052,10.256
		c4.229,1.439,8.819-0.825,10.256-5.052c2.989-8.793,4.506-17.998,4.506-27.356C341.195,209.024,302.976,170.805,255.999,170.805z"
		/>
</g>
<g>
</g>
<g>
</g>
<g>
</g>
<g>
</g>
<g>
</g>
<g>
</g>
<g>
</g>
<g>
</g>
<g>
</g>
<g>
</g>
<g>
</g>
<g>
</g>
<g>
</g>
<g>
</g>
<g>
</g>
</svg>
