<?xml version="1.0" encoding="iso-8859-1"?>
<!-- Generator: Adobe Illustrator 19.0.0, SVG Export Plug-In . SVG Version: 6.00 Build 0)  -->
<svg version="1.1" id="Layer_1" xmlns="http://www.w3.org/2000/svg" xmlns:xlink="http://www.w3.org/1999/xlink" x="0px" y="0px"
	 viewBox="0 0 511.999 511.999" style="enable-background:new 0 0 511.999 511.999;" xml:space="preserve">
<g>
	<path style="fill:#578CAD;" d="M89.452,423.386v39.244c0,10.004,8.109,18.113,18.113,18.113h13.085
		c10.002,0,18.111-8.11,18.111-18.113v-39.244H89.452z"/>
	<path style="fill:#578CAD;" d="M202.245,462.63c0,10.004,8.11,18.113,18.112,18.113h13.084c10.002,0,18.113-8.11,18.113-18.113
		v-39.244h-49.309V462.63z"/>
	<path style="fill:#578CAD;" d="M26.96,383.218c-10.419,0-18.867-8.447-18.867-18.867c0-31.904,29.13-60.004,77.924-75.166
		c9.946-3.091,20.52,2.468,23.614,12.419c3.091,9.952-2.468,20.525-12.419,23.617c-30.735,9.55-51.384,25.276-51.384,39.131
		C45.829,374.771,37.381,383.218,26.96,383.218z"/>
	<path style="fill:#578CAD;" d="M350.082,322.353c-5.407-8.909-17.01-11.748-25.92-6.342c-11.064,6.714-32.87-1.035-55.555-19.741
		c-8.038-6.63-19.929-5.486-26.559,2.554c-6.629,8.039-5.488,19.928,2.554,26.559c36.867,30.402,73.003,38.744,99.136,22.888
		C352.646,342.866,355.486,331.263,350.082,322.353z"/>
</g>
<circle style="fill:#90C8EC;" cx="170.502" cy="156.031" r="124.771"/>
<path style="fill:#CAE9F7;" d="M252.514,179.873c0,10.004-8.11,18.112-18.113,18.112H106.606c-10.004,0-18.113-8.108-18.113-18.112
	v-47.294c0-10.003,8.11-18.112,18.113-18.112H234.4c10.004,0,18.113,8.11,18.113,18.112L252.514,179.873L252.514,179.873z"/>
<path style="fill:#90C8EC;" d="M244.602,325.383c-8.042-6.632-9.184-18.52-2.554-26.559c0.645-0.784,1.355-1.48,2.092-2.133
	c-1.755-2.508-3.134-3.906-3.134-3.906c-6.996-7.371-16.88-11.976-27.844-11.976h-85.316c-10.158,0-19.391,3.954-26.258,10.397
	c3.71,2.309,6.645,5.899,8.043,10.398c3.091,9.952-2.468,20.525-12.419,23.617c-2.667,0.829-5.253,1.706-7.76,2.623v95.543h162.101
	v-88.297v-4.227C249.241,329.123,246.922,327.297,244.602,325.383z"/>
<path style="fill:#FF4D30;" d="M377.866,233.707h-27.16c-10.005,0-18.113-8.111-18.113-18.113v-68.677
	c0-10.003,8.109-18.113,18.113-18.113h135.088c10.004,0,18.113,8.11,18.113,18.113v68.677c0,10.003-8.109,18.113-18.113,18.113
	H404.3"/>
<g style="opacity:0.2;">
	<path style="fill:#231F20;" d="M114.63,462.63v-39.244H89.452v39.244c0,10.004,8.109,18.113,18.113,18.113h13.085
		c2.124,0,4.153-0.385,6.047-1.056C119.67,477.196,114.63,470.51,114.63,462.63z"/>
</g>
<g style="opacity:0.2;">
	<path style="fill:#231F20;" d="M227.422,462.63v-39.244h-25.178v39.244c0,10.004,8.11,18.113,18.112,18.113h13.084
		c2.124,0,4.153-0.385,6.047-1.056C232.464,477.194,227.422,470.51,227.422,462.63z"/>
</g>
<g style="opacity:0.2;">
	<path style="fill:#231F20;" d="M70.904,156.033c0-64.664,49.188-117.836,112.189-124.149c-4.14-0.414-8.34-0.629-12.589-0.629
		c-68.912,0-124.777,55.865-124.777,124.778c0,68.911,55.864,124.776,124.777,124.776c4.249,0,8.449-0.215,12.589-0.629
		C120.092,273.868,70.904,220.695,70.904,156.033z"/>
</g>
<g style="opacity:0.2;">
	<path style="fill:#231F20;" d="M113.67,179.873v-47.294c0-10.003,8.11-18.112,18.114-18.112h-25.179
		c-10.004,0-18.113,8.11-18.113,18.112v47.294c0,10.004,8.11,18.112,18.113,18.112h25.179
		C121.779,197.985,113.67,189.877,113.67,179.873z"/>
</g>
<g style="opacity:0.2;">
	<path style="fill:#231F20;" d="M114.63,327.843v-44.685c-4.889,1.797-9.318,4.551-13.044,8.048
		c3.71,2.309,6.645,5.899,8.043,10.398c3.091,9.952-2.468,20.525-12.419,23.617c-2.667,0.829-5.253,1.706-7.76,2.623v95.543h25.179
		v-68.751V327.843z"/>
</g>
<g style="opacity:0.2;">
	<path style="fill:#231F20;" d="M357.771,215.594v-68.677c0-10.003,8.108-18.113,18.112-18.113h-25.178
		c-10.005,0-18.113,8.11-18.113,18.113v68.677c0,10.003,8.109,18.113,18.113,18.113h25.178
		C365.878,233.707,357.771,225.597,357.771,215.594z"/>
</g>
<g>
	<path style="fill:#231F20;" d="M260.606,179.873v-47.294c0-14.45-11.756-26.205-26.206-26.205H106.606
		c-14.451,0-26.206,11.755-26.206,26.205v47.294c0,14.45,11.756,26.205,26.206,26.205H234.4
		C248.85,206.078,260.606,194.323,260.606,179.873z M96.585,179.873v-47.294c0-5.525,4.495-10.019,10.02-10.019H234.4
		c5.525,0,10.02,4.495,10.02,10.019v47.294c0,5.525-4.495,10.019-10.02,10.019H106.606
		C101.081,189.892,96.585,185.397,96.585,179.873z"/>
	<path style="fill:#231F20;" d="M190.607,326.646h-45.282c-4.471,0-8.093,3.623-8.093,8.093s3.622,8.093,8.093,8.093h45.282
		c4.471,0,8.093-3.623,8.093-8.093S195.076,326.646,190.607,326.646z"/>
	<path style="fill:#231F20;" d="M190.607,361.363h-45.282c-4.471,0-8.093,3.623-8.093,8.093s3.622,8.093,8.093,8.093h45.282
		c4.471,0,8.093-3.623,8.093-8.093S195.076,361.363,190.607,361.363z"/>
	<path style="fill:#231F20;" d="M485.794,120.713H350.706c-3.548,0-6.932,0.712-10.02,1.995v-8.241c0-4.469-3.622-8.093-8.093-8.093
		c-4.471,0-8.093,3.623-8.093,8.093v32.452v68.677v91.308c-1.568,0.588-3.089,1.312-4.535,2.19
		c-1.323,0.802-3.153,1.209-5.443,1.209c-10.13,0-25.37-7.579-40.766-20.276c-4.817-3.973-10.903-6.16-17.14-6.16
		c-3.784,0-7.455,0.792-10.822,2.265c-4.906-4.851-10.68-8.477-16.988-10.725c44.117-21.635,74.565-67.012,74.565-119.373
		c0-73.265-59.604-132.871-132.869-132.871S37.633,82.769,37.633,156.033c0,52.372,30.461,97.757,74.594,119.387
		c-4.204,1.501-8.182,3.611-11.821,6.28c-2.768-0.947-5.725-1.463-8.787-1.463c-2.708,0-5.402,0.41-8.003,1.219
		C31.258,297.726,0,328.713,0,364.351c0,14.866,12.094,26.96,26.96,26.96s26.96-12.094,26.96-26.96
		c0-6.46,9.981-16.186,27.438-24.381v83.417v39.244c0,14.451,11.756,26.206,26.206,26.206h13.085
		c14.45,0,26.204-11.756,26.204-26.206v-31.151h47.297v31.151c0,14.451,11.756,26.206,26.205,26.206h13.084
		c14.451,0,26.206-11.756,26.206-26.206v-39.244v-77.166c19.046,11.839,37.775,18.013,55.046,18.013
		c3.347,0,6.616-0.238,9.808-0.697v117.207c0,4.469,3.622,8.093,8.093,8.093c4.471,0,8.093-3.623,8.093-8.093V358.952
		c2.486-1.089,4.906-2.339,7.252-3.763c12.707-7.712,16.773-24.325,9.062-37.036c-3.729-6.145-9.573-10.413-16.314-12.13v-66.219
		c3.089,1.283,6.472,1.995,10.02,1.995h27.16c4.471,0,8.093-3.623,8.093-8.093s-3.622-8.093-8.093-8.093h-27.16
		c-5.525,0-10.02-4.495-10.02-10.02v-68.677c0-5.526,4.495-10.02,10.02-10.02h135.088c5.525,0,10.02,4.495,10.02,10.02v68.677
		c0,5.526-4.495,10.02-10.02,10.02h-81.494c-4.471,0-8.093,3.623-8.093,8.093s3.622,8.093,8.093,8.093h81.494
		c14.451,0,26.206-11.756,26.206-26.206v-68.677C512,132.468,500.245,120.713,485.794,120.713z M53.819,156.033
		c0-64.34,52.344-116.685,116.684-116.685c64.339,0,116.683,52.344,116.683,116.685c0,64.339-52.344,116.683-116.683,116.683
		C106.163,272.716,53.819,220.372,53.819,156.033z M37.736,364.351c0,5.941-4.833,10.774-10.774,10.774s-10.775-4.833-10.775-10.774
		c0-28.173,27.002-53.384,72.233-67.438c1.046-0.325,2.123-0.49,3.199-0.49c1.965,0,3.821,0.53,5.427,1.465
		c0.09,0.062,0.174,0.131,0.267,0.188c0.97,0.604,2.138,1.539,3.115,2.921c0.005,0.009,0.011,0.017,0.016,0.025
		c0.166,0.237,0.326,0.492,0.479,0.755c0.056,0.096,0.108,0.195,0.161,0.294c0.107,0.199,0.209,0.405,0.306,0.617
		c0.049,0.107,0.098,0.213,0.145,0.322c0.134,0.317,0.26,0.644,0.368,0.994c0.33,1.064,0.488,2.141,0.487,3.201
		c0,0.399-0.029,0.794-0.073,1.187c-0.386,3.428-2.407,6.542-5.499,8.247c-0.626,0.345-1.296,0.632-2.005,0.852
		c-0.024,0.008-0.046,0.015-0.07,0.023c-1.314,0.409-2.603,0.831-3.879,1.258c-0.114,0.039-0.227,0.078-0.341,0.117
		C57.843,329.919,37.736,347.128,37.736,364.351z M130.669,462.63c0,5.526-4.494,10.02-10.018,10.02h-13.085
		c-5.525,0-10.02-4.495-10.02-10.02v-31.151h33.123C130.669,431.479,130.669,462.63,130.669,462.63z M243.46,462.63
		c0,5.526-4.495,10.02-10.02,10.02h-13.084c-5.525,0-10.019-4.495-10.019-10.02v-31.151h33.123V462.63z M243.46,334.851v80.443
		h-41.216h-63.483H97.545v-81.681c0.685-0.223,1.371-0.446,2.07-0.663c4.436-1.379,8.262-3.805,11.293-6.923
		c4.849-4.988,7.661-11.747,7.668-18.817c0.002-2.651-0.39-5.347-1.216-8.009c-0.004-0.015-0.011-0.029-0.016-0.044
		c-0.2-0.64-0.425-1.269-0.67-1.887c-0.139-0.353-0.298-0.692-0.451-1.036c-0.113-0.255-0.221-0.514-0.343-0.764
		c-0.226-0.469-0.47-0.925-0.721-1.378c-0.054-0.097-0.106-0.196-0.161-0.293c-0.304-0.535-0.628-1.055-0.967-1.565
		c4.236-2.176,8.952-3.331,13.814-3.331h85.316c7.621,0,14.764,2.775,20.401,7.917c-0.011,0.017-0.018,0.036-0.029,0.053
		c-0.329,0.541-0.632,1.094-0.922,1.653c-0.063,0.122-0.125,0.244-0.186,0.366c-0.278,0.561-0.541,1.129-0.778,1.706
		c-0.035,0.084-0.066,0.17-0.099,0.256c-0.217,0.544-0.415,1.094-0.597,1.65c-0.03,0.093-0.064,0.186-0.093,0.279
		c-0.186,0.595-0.347,1.197-0.492,1.804c-0.03,0.129-0.059,0.259-0.088,0.388c-0.137,0.617-0.258,1.239-0.35,1.866
		c-0.008,0.055-0.013,0.11-0.02,0.165c-0.084,0.598-0.146,1.2-0.19,1.804c-0.009,0.117-0.019,0.233-0.026,0.35
		c-0.038,0.627-0.052,1.256-0.045,1.888c0.001,0.129,0.005,0.259,0.009,0.387c0.016,0.655,0.047,1.311,0.11,1.969
		c0.69,7.168,4.128,13.639,9.687,18.221c1.202,0.991,2.404,1.953,3.606,2.9C243.194,334.634,243.326,334.745,243.46,334.851z
		 M343.163,326.549c3.081,5.08,1.457,11.72-3.622,14.803c-7.323,4.442-15.682,6.696-24.847,6.696
		c-18.059,0-38.599-8.547-59.701-24.753c-0.464-0.356-0.927-0.708-1.392-1.072c-1.282-1.004-2.564-2.024-3.849-3.084
		c-2.222-1.831-3.596-4.418-3.872-7.283c-0.035-0.358-0.051-0.715-0.051-1.069c0-0.01,0.001-0.018,0.001-0.028
		c0.011-2.473,0.865-4.849,2.466-6.792c0.181-0.219,0.379-0.42,0.574-0.623c0.188-0.188,0.394-0.382,0.636-0.596
		c0.025-0.023,0.047-0.047,0.072-0.07c1.942-1.678,4.42-2.629,7.039-2.629c2.523,0,4.889,0.851,6.842,2.462
		c18.749,15.46,36.884,23.973,51.064,23.973c5.293,0,9.949-1.197,13.838-3.557c1.215-0.737,2.554-1.214,3.937-1.429
		c0.098,0.003,0.195,0.015,0.295,0.015c0.509,0,1.007-0.053,1.49-0.142C337.83,321.424,341.219,323.346,343.163,326.549z"/>
</g>
<g>
</g>
<g>
</g>
<g>
</g>
<g>
</g>
<g>
</g>
<g>
</g>
<g>
</g>
<g>
</g>
<g>
</g>
<g>
</g>
<g>
</g>
<g>
</g>
<g>
</g>
<g>
</g>
<g>
</g>
</svg>
