<?xml version="1.0" encoding="iso-8859-1"?>
<!-- Generator: Adobe Illustrator 19.0.0, SVG Export Plug-In . SVG Version: 6.00 Build 0)  -->
<svg version="1.1" id="Layer_1" xmlns="http://www.w3.org/2000/svg" xmlns:xlink="http://www.w3.org/1999/xlink" x="0px" y="0px"
	 viewBox="0 0 512 512" style="enable-background:new 0 0 512 512;" xml:space="preserve">
<path style="fill:#3A5D74;" d="M197.703,174.84h116.594c-11.343-20.517-33.195-34.413-58.297-34.413
	C230.897,140.427,209.048,154.323,197.703,174.84z"/>
<g>
	<path style="fill:#90C8EC;" d="M281.706,33.822c0,14.201-11.511,25.71-25.706,25.71c-14.196,0-25.706-11.51-25.706-25.71
		c0-14.194,11.51-25.704,25.706-25.704C270.195,8.118,281.706,19.628,281.706,33.822z"/>
	<path style="fill:#90C8EC;" d="M104.581,208.628H72.385c0,87.689,61.476,161.008,143.674,179.247v-0.154
		c0-22.06,17.883-39.941,39.94-39.941c22.059,0,39.941,17.882,39.941,39.941v0.154c82.2-18.238,143.673-91.557,143.673-179.247
		h-44.934"/>
</g>
<path style="fill:#3A5D74;" d="M348.909,486.989c0-9.329-7.562-16.893-16.894-16.893H179.984c-9.331,0-16.895,7.564-16.895,16.893
	c0,9.33,7.564,16.893,16.895,16.893h152.032C341.347,503.882,348.909,496.319,348.909,486.989z"/>
<g>
	<path style="fill:#578CAD;" d="M353.548,208.628H61.365c-9.329,0-16.89-7.563-16.89-16.894l0,0c0-9.329,7.561-16.894,16.89-16.894
		h389.266c9.33,0,16.894,7.564,16.894,16.894l0,0c0,9.331-7.564,16.894-16.894,16.894H379.52"/>
	<path style="fill:#578CAD;" d="M256,347.779c-22.057,0-39.94,17.882-39.94,39.941v82.375h79.883V387.72
		C295.941,365.661,278.059,347.779,256,347.779z"/>
</g>
<g style="opacity:0.2;">
	<path style="fill:#231F20;" d="M268.852,141.677c-4.159-0.814-8.455-1.249-12.852-1.249c-25.103,0-46.952,13.897-58.297,34.413
		h25.705C232.765,157.918,249.27,145.509,268.852,141.677z"/>
</g>
<g style="opacity:0.2;">
	<path style="fill:#231F20;" d="M255.999,33.822c0-9.512,5.172-17.812,12.853-22.256c-3.782-2.19-8.169-3.449-12.852-3.449
		c-14.196,0-25.706,11.51-25.706,25.704c0,14.201,11.51,25.71,25.706,25.71c4.683,0,9.07-1.259,12.852-3.449
		C261.171,51.639,255.999,43.338,255.999,33.822z"/>
</g>
<g style="opacity:0.2;">
	<path style="fill:#231F20;" d="M98.09,208.628H72.385c0,87.689,61.476,161.008,143.674,179.247v-0.154
		c0-2.504,0.241-4.948,0.682-7.324C147.4,354.159,98.09,287.159,98.09,208.628z"/>
</g>
<g style="opacity:0.2;">
	<path style="fill:#231F20;" d="M188.794,486.989c0-9.329,7.564-16.893,16.895-16.893h-25.705c-9.331,0-16.895,7.564-16.895,16.893
		c0,9.33,7.564,16.893,16.895,16.893h25.705C196.358,503.882,188.794,496.319,188.794,486.989z"/>
</g>
<g style="opacity:0.2;">
	<path style="fill:#231F20;" d="M70.181,191.734c0-9.329,7.561-16.894,16.891-16.894H61.365c-9.329,0-16.89,7.564-16.89,16.894
		c0,9.331,7.561,16.894,16.89,16.894H87.07C77.742,208.628,70.181,201.064,70.181,191.734z"/>
</g>
<g style="opacity:0.2;">
	<path style="fill:#231F20;" d="M268.853,349.905c-4.034-1.371-8.354-2.126-12.853-2.126c-22.057,0-39.94,17.882-39.94,39.941
		v82.375h25.705V387.72C241.765,370.16,253.102,355.257,268.853,349.905z"/>
</g>
<g>
	<path style="fill:#231F20;" d="M450.633,166.721H318.9c-12.221-19.061-32.409-31.517-54.782-33.964V66.66
		c14.742-3.647,25.706-16.983,25.706-32.837C289.824,15.173,274.651,0,256,0s-33.824,15.173-33.824,33.822
		c0,15.855,10.964,29.19,25.706,32.837v66.098c-22.372,2.447-42.56,14.903-54.782,33.964H61.365
		c-13.789,0-25.009,11.22-25.009,25.011s11.219,25.012,25.009,25.012h3.075c1.752,41.034,16.742,80.765,42.655,112.667
		c25.835,31.807,61.451,54.654,100.845,64.849v67.715h-27.956c-13.793,0-25.013,11.22-25.013,25.011
		c0,13.792,11.221,25.013,25.013,25.013h152.032c13.792,0,25.011-11.22,25.011-25.011s-11.22-25.011-25.011-25.011H304.06v-67.716
		c39.395-10.193,75.011-33.042,100.846-64.849c25.912-31.902,40.9-71.633,42.653-112.667h3.073
		c13.792,0,25.012-11.221,25.012-25.012C475.644,177.942,464.424,166.721,450.633,166.721z M238.412,33.822
		c0-9.697,7.89-17.586,17.588-17.586c9.698,0,17.588,7.889,17.588,17.586c0,9.7-7.89,17.592-17.588,17.592
		C246.302,51.414,238.412,43.522,238.412,33.822z M256,148.545c16.21,0,31.457,6.725,42.357,18.177h-84.714
		C224.544,155.27,239.791,148.545,256,148.545z M340.791,486.989c0,4.839-3.937,8.774-8.774,8.774H179.984
		c-4.84,0-8.777-3.937-8.777-8.774s3.938-8.774,8.777-8.774h36.075h79.883h36.074C336.854,478.213,340.791,482.15,340.791,486.989z
		 M224.178,461.977v-74.103v-0.154c0-17.548,14.275-31.823,31.822-31.823c17.548,0,31.823,14.275,31.823,31.823v0.154v74.103
		H224.178z M450.633,200.509h-11.017h-44.934H379.52c-4.485,0-8.118,3.634-8.118,8.118c0,4.485,3.634,8.118,8.118,8.118h15.162
		h36.625c-3.534,75.21-55.911,140.866-128.289,160.995c-0.135-0.64-0.286-1.274-0.447-1.903c-0.016-0.063-0.031-0.126-0.047-0.187
		c-0.181-0.696-0.378-1.384-0.588-2.066c-0.075-0.241-0.158-0.478-0.236-0.718c-0.152-0.465-0.305-0.93-0.471-1.389
		c-0.099-0.273-0.203-0.542-0.306-0.813c-0.16-0.422-0.325-0.841-0.497-1.258c-0.114-0.276-0.232-0.551-0.352-0.824
		c-0.178-0.407-0.36-0.812-0.549-1.213c-0.126-0.267-0.251-0.534-0.381-0.798c-0.202-0.41-0.412-0.816-0.626-1.219
		c-0.129-0.244-0.254-0.489-0.388-0.73c-0.248-0.451-0.508-0.895-0.77-1.338c-0.109-0.184-0.213-0.371-0.325-0.554
		c-0.379-0.62-0.771-1.233-1.177-1.834c-0.065-0.096-0.135-0.189-0.2-0.285c-0.345-0.503-0.698-1.001-1.061-1.491
		c-0.149-0.2-0.304-0.395-0.457-0.594c-0.29-0.379-0.583-0.756-0.884-1.125c-0.178-0.218-0.36-0.432-0.541-0.646
		c-0.289-0.343-0.582-0.682-0.881-1.016c-0.192-0.215-0.386-0.429-0.582-0.64c-0.303-0.328-0.612-0.651-0.924-0.97
		c-0.198-0.202-0.396-0.406-0.599-0.605c-0.332-0.328-0.672-0.648-1.014-0.967c-0.189-0.176-0.376-0.355-0.568-0.528
		c-0.411-0.371-0.832-0.732-1.256-1.089c-0.131-0.11-0.258-0.224-0.39-0.332c-0.561-0.461-1.131-0.91-1.711-1.345
		c-0.137-0.103-0.279-0.2-0.418-0.301c-0.447-0.328-0.896-0.652-1.354-0.964c-0.215-0.146-0.435-0.287-0.653-0.43
		c-0.391-0.258-0.784-0.513-1.182-0.759c-0.244-0.15-0.489-0.296-0.735-0.442c-0.385-0.228-0.774-0.452-1.166-0.671
		c-0.255-0.142-0.511-0.281-0.769-0.419c-0.398-0.212-0.801-0.417-1.207-0.619c-0.254-0.127-0.508-0.253-0.764-0.376
		c-0.434-0.207-0.875-0.403-1.316-0.596c-0.233-0.102-0.462-0.208-0.697-0.306c-0.568-0.238-1.143-0.463-1.722-0.68
		c-0.111-0.042-0.22-0.089-0.332-0.13c-0.693-0.253-1.394-0.49-2.101-0.712c-0.203-0.064-0.411-0.119-0.617-0.181
		c-0.507-0.152-1.014-0.3-1.527-0.435c-0.27-0.07-0.541-0.134-0.812-0.2c-0.458-0.113-0.916-0.221-1.379-0.319
		c-0.292-0.062-0.586-0.12-0.88-0.176c-0.45-0.088-0.903-0.169-1.358-0.244c-0.3-0.05-0.601-0.097-0.903-0.141
		c-0.464-0.067-0.932-0.124-1.4-0.179c-0.291-0.034-0.582-0.068-0.876-0.097c-0.513-0.049-1.029-0.086-1.548-0.118
		c-0.251-0.016-0.501-0.038-0.753-0.05c-0.771-0.037-1.545-0.058-2.323-0.058c-0.778,0-1.553,0.022-2.323,0.058
		c-0.252,0.012-0.502,0.034-0.753,0.05c-0.517,0.032-1.035,0.069-1.548,0.118c-0.293,0.028-0.583,0.064-0.875,0.097
		c-0.469,0.054-0.936,0.112-1.401,0.179c-0.302,0.043-0.602,0.091-0.902,0.141c-0.455,0.075-0.908,0.156-1.358,0.244
		c-0.293,0.057-0.587,0.115-0.879,0.176c-0.462,0.099-0.921,0.207-1.378,0.319c-0.271,0.066-0.542,0.13-0.812,0.2
		c-0.512,0.135-1.019,0.283-1.524,0.434c-0.206,0.062-0.415,0.117-0.619,0.182c-0.707,0.222-1.407,0.459-2.1,0.712
		c-0.114,0.041-0.224,0.089-0.338,0.131c-0.577,0.216-1.151,0.441-1.716,0.678c-0.236,0.099-0.467,0.206-0.7,0.307
		c-0.441,0.193-0.879,0.389-1.313,0.594c-0.258,0.122-0.511,0.25-0.766,0.377c-0.405,0.201-0.806,0.406-1.205,0.618
		c-0.258,0.137-0.514,0.277-0.77,0.419c-0.392,0.218-0.779,0.442-1.164,0.67c-0.247,0.146-0.493,0.292-0.736,0.443
		c-0.397,0.246-0.788,0.499-1.178,0.756c-0.22,0.145-0.441,0.286-0.658,0.434c-0.455,0.311-0.901,0.631-1.343,0.956
		c-0.142,0.104-0.288,0.203-0.429,0.31c-0.58,0.435-1.15,0.883-1.708,1.343c-0.136,0.113-0.268,0.231-0.404,0.345
		c-0.419,0.353-0.835,0.709-1.24,1.075c-0.196,0.176-0.385,0.358-0.578,0.538c-0.339,0.315-0.675,0.632-1.005,0.958
		c-0.205,0.201-0.405,0.407-0.606,0.612c-0.309,0.316-0.615,0.635-0.915,0.96c-0.199,0.215-0.396,0.431-0.592,0.651
		c-0.296,0.33-0.585,0.666-0.87,1.003c-0.184,0.219-0.37,0.436-0.551,0.657c-0.298,0.365-0.587,0.737-0.874,1.111
		c-0.156,0.202-0.315,0.403-0.468,0.608c-0.357,0.482-0.704,0.972-1.045,1.467c-0.07,0.103-0.146,0.203-0.216,0.307
		c-0.405,0.6-0.796,1.21-1.173,1.828c-0.116,0.191-0.224,0.384-0.338,0.576c-0.258,0.435-0.512,0.871-0.757,1.314
		c-0.135,0.247-0.264,0.497-0.396,0.747c-0.21,0.397-0.417,0.797-0.616,1.202c-0.133,0.268-0.26,0.54-0.388,0.812
		c-0.186,0.397-0.368,0.797-0.543,1.2c-0.121,0.277-0.24,0.554-0.356,0.833c-0.17,0.412-0.332,0.828-0.493,1.246
		c-0.104,0.274-0.211,0.548-0.311,0.824c-0.163,0.452-0.315,0.911-0.464,1.369c-0.08,0.247-0.166,0.49-0.242,0.738
		c-0.206,0.668-0.398,1.342-0.576,2.023c-0.023,0.088-0.044,0.176-0.067,0.264c-0.157,0.618-0.305,1.239-0.438,1.866
		c-72.378-20.131-124.756-85.785-128.29-160.995h23.888h248.967c4.485,0,8.118-3.634,8.118-8.118c0-4.485-3.634-8.118-8.118-8.118
		H104.581H72.385H61.365c-4.837,0-8.772-3.937-8.772-8.775c0-4.839,3.935-8.774,8.772-8.774h136.337h116.594h136.335
		c4.84,0,8.775,3.937,8.775,8.774C459.408,196.573,455.471,200.509,450.633,200.509z"/>
	<path style="fill:#231F20;" d="M349.137,313.555c-3.352,2.978-3.657,8.109-0.679,11.461c1.603,1.807,3.833,2.728,6.073,2.728
		c1.917,0,3.842-0.675,5.388-2.049c22.439-19.931,38.597-45.645,46.724-74.361c1.221-4.314-1.286-8.801-5.602-10.022
		c-4.308-1.221-8.8,1.287-10.022,5.602C383.739,272.641,369.256,295.685,349.137,313.555z"/>
	<path style="fill:#231F20;" d="M331.56,326.862c-1.145,0.734-2.301,1.45-3.469,2.151c-3.844,2.31-5.088,7.297-2.779,11.141
		c1.523,2.535,4.212,3.939,6.968,3.939c1.422,0,2.864-0.375,4.173-1.159c1.299-0.782,2.587-1.58,3.862-2.397
		c3.776-2.417,4.878-7.438,2.459-11.214C340.358,325.545,335.336,324.443,331.56,326.862z"/>
	<circle style="fill:#231F20;" cx="256.001" cy="388.406" r="13.386"/>
</g>
<g>
</g>
<g>
</g>
<g>
</g>
<g>
</g>
<g>
</g>
<g>
</g>
<g>
</g>
<g>
</g>
<g>
</g>
<g>
</g>
<g>
</g>
<g>
</g>
<g>
</g>
<g>
</g>
<g>
</g>
</svg>
