<?xml version="1.0" encoding="iso-8859-1"?>
<!-- Generator: Adobe Illustrator 19.0.0, SVG Export Plug-In . SVG Version: 6.00 Build 0)  -->
<svg version="1.1" id="Layer_1" xmlns="http://www.w3.org/2000/svg" xmlns:xlink="http://www.w3.org/1999/xlink" x="0px" y="0px"
	 viewBox="0 0 512.002 512.002" style="enable-background:new 0 0 512.002 512.002;" xml:space="preserve">
<circle style="fill:#90C8EC;" cx="444.671" cy="230.385" r="17.284"/>
<rect x="87.677" y="294.329" style="fill:#578CAD;" width="209.62" height="93.266"/>
<g>
	<circle style="fill:#3A5D74;" cx="87.677" cy="340.957" r="46.628"/>
	<circle style="fill:#3A5D74;" cx="291.331" cy="340.957" r="46.628"/>
</g>
<path style="fill:#90C8EC;" d="M370.941,192.393c0-15.091-12.235-27.325-27.325-27.325h-7.623h-7.625H50.634H43.01h-7.623
	c-15.092,0-27.326,12.234-27.326,27.325v69.832c0,1.289,0.12,2.548,0.293,3.791c-0.173,1.243-0.293,2.502-0.293,3.793v69.83
	c0,15.093,12.234,27.325,27.326,27.325h7.623h5.96c-5.005-7.429-7.924-16.373-7.924-26.007c0-25.752,20.877-46.631,46.631-46.631
	h46.631h68.764h88.255c25.754,0,46.629,20.879,46.629,46.631c0,9.634-2.918,18.578-7.92,26.007h5.959h7.623
	c15.09,0,27.325-12.232,27.325-27.325v-69.83c0-1.291-0.121-2.551-0.293-3.793c0.172-1.243,0.293-2.502,0.293-3.791v-69.832H370.941
	z"/>
<g>
	<path style="fill:#578CAD;" d="M232.246,124.41h9.605c10.105,0,18.295,8.19,18.295,18.296v4.065
		c0,10.103-8.19,18.295-18.295,18.295H137.154c-10.105,0-18.296-8.193-18.296-18.295v-4.065c0-10.106,8.192-18.296,18.296-18.296
		h68.223"/>
	<path style="fill:#578CAD;" d="M167.14,230.38c0,9.545-7.738,17.282-17.279,17.282H87.677c-9.544,0-17.282-7.737-17.282-17.282l0,0
		c0-9.542,7.738-17.277,17.282-17.277h62.184C159.402,213.103,167.14,220.839,167.14,230.38L167.14,230.38z"/>
</g>
<g>
	<path style="fill:#90C8EC;" d="M104.957,340.959c0,9.542-7.736,17.277-17.281,17.277c-9.544,0-17.282-7.736-17.282-17.277
		c0-9.546,7.738-17.282,17.282-17.282C97.221,323.677,104.957,331.413,104.957,340.959z"/>
	<path style="fill:#90C8EC;" d="M308.606,340.959c0,9.542-7.736,17.277-17.279,17.277s-17.281-7.736-17.281-17.277
		c0-9.546,7.737-17.282,17.281-17.282S308.606,331.413,308.606,340.959z"/>
</g>
<path style="fill:#578CAD;" d="M308.518,230.38c0,9.545-7.736,17.282-17.281,17.282h-62.183c-9.543,0-17.279-7.737-17.279-17.282
	l0,0c0-9.542,7.737-17.277,17.279-17.277h62.183C300.782,213.103,308.518,220.839,308.518,230.38L308.518,230.38z"/>
<g style="opacity:0.2;">
	<path style="fill:#231F20;" d="M65.769,340.957c0-21.47,14.518-39.543,34.27-44.961c-3.938-1.08-8.08-1.669-12.361-1.669
		c-25.754,0-46.631,20.879-46.631,46.631c0,25.755,20.877,46.632,46.631,46.632c4.281,0,8.423-0.589,12.361-1.669
		C80.286,380.501,65.769,362.429,65.769,340.957z"/>
</g>
<g style="opacity:0.2;">
	<path style="fill:#231F20;" d="M269.416,340.957c0-21.47,14.519-39.543,34.271-44.961c-3.938-1.08-8.08-1.669-12.361-1.669
		c-25.753,0-46.632,20.879-46.632,46.631c0,25.755,20.879,46.632,46.632,46.632c4.281,0,8.423-0.589,12.361-1.669
		C283.936,380.501,269.416,362.429,269.416,340.957z"/>
</g>
<g style="opacity:0.2;">
	<path style="fill:#231F20;" d="M32.783,339.639v-69.83c0-1.291,0.12-2.551,0.293-3.793c-0.173-1.243-0.293-2.502-0.293-3.791
		v-69.832c0-15.091,12.234-27.325,27.326-27.325h-9.475h-7.624h-7.623c-15.092,0-27.326,12.234-27.326,27.325v69.832
		c0,1.289,0.12,2.548,0.293,3.791c-0.173,1.243-0.293,2.502-0.293,3.793v69.83c0,15.093,12.234,27.325,27.326,27.325h7.623h5.96
		c-0.743-1.103-1.434-2.243-2.083-3.411C38.479,358.895,32.783,349.935,32.783,339.639z"/>
</g>
<g style="opacity:0.2;">
	<path style="fill:#231F20;" d="M143.578,146.773v-4.065c0-10.106,8.192-18.296,18.297-18.296h-24.722
		c-10.105,0-18.296,8.19-18.296,18.296v4.065c0,10.103,8.192,18.295,18.296,18.295h24.722
		C151.77,165.068,143.578,156.876,143.578,146.773z"/>
</g>
<g style="opacity:0.2;">
	<path style="fill:#231F20;" d="M95.117,230.38c0-9.542,7.738-17.277,17.282-17.277H87.677c-9.544,0-17.282,7.736-17.282,17.277
		c0,9.545,7.738,17.282,17.282,17.282h24.722C102.855,247.662,95.117,239.925,95.117,230.38z"/>
</g>
<g style="opacity:0.2;">
	<path style="fill:#231F20;" d="M236.497,230.38c0-9.542,7.737-17.277,17.279-17.277h-24.722c-9.543,0-17.279,7.736-17.279,17.277
		c0,9.545,7.737,17.282,17.279,17.282h24.722C244.235,247.662,236.497,239.925,236.497,230.38z"/>
</g>
<g>
	<path style="fill:#231F20;" d="M167.14,349.02h44.724c4.453,0,8.061-3.608,8.061-8.061s-3.608-8.061-8.061-8.061H167.14
		c-4.453,0-8.061,3.608-8.061,8.061S162.687,349.02,167.14,349.02z"/>
	<path style="fill:#231F20;" d="M113.019,340.959c0-13.974-11.368-25.343-25.342-25.343s-25.343,11.369-25.343,25.343
		c0,13.972,11.369,25.339,25.343,25.339S113.019,354.931,113.019,340.959z M78.456,340.959c0-5.084,4.136-9.22,9.22-9.22
		c5.083,0,9.219,4.136,9.219,9.22c0,5.082-4.136,9.216-9.219,9.216C82.592,350.175,78.456,346.04,78.456,340.959z"/>
	<path style="fill:#231F20;" d="M291.326,315.616c-13.974,0-25.342,11.369-25.342,25.343c0,13.972,11.368,25.339,25.342,25.339
		c13.973,0,25.341-11.367,25.341-25.339C316.667,326.984,305.3,315.616,291.326,315.616z M291.326,350.175
		c-5.083,0-9.219-4.135-9.219-9.216c0-5.084,4.136-9.22,9.219-9.22c5.083,0,9.218,4.136,9.218,9.22
		C300.544,346.04,296.409,350.175,291.326,350.175z"/>
	<path style="fill:#231F20;" d="M149.861,205.041H87.677c-13.974,0-25.343,11.367-25.343,25.339
		c0,13.974,11.369,25.343,25.343,25.343h62.184c13.973,0,25.341-11.369,25.341-25.343
		C175.202,216.408,163.834,205.041,149.861,205.041z M149.861,239.6H87.677c-5.084,0-9.22-4.136-9.22-9.22
		c0-5.082,4.136-9.216,9.22-9.216h62.184c5.083,0,9.218,4.135,9.218,9.216C159.079,235.464,154.943,239.6,149.861,239.6z"/>
	<path style="fill:#231F20;" d="M291.237,205.041h-62.183c-13.973,0-25.341,11.367-25.341,25.339
		c0,13.974,11.368,25.343,25.341,25.343h62.183c13.973,0,25.342-11.369,25.342-25.343
		C316.579,216.408,305.21,205.041,291.237,205.041z M291.237,239.6h-62.183c-5.083,0-9.218-4.136-9.218-9.22
		c0-5.082,4.136-9.216,9.218-9.216h62.183c5.083,0,9.219,4.135,9.219,9.216C300.456,235.464,296.321,239.6,291.237,239.6z"/>
	<path style="fill:#231F20;" d="M503.939,261.648h-19.944c-9.345,0-18.031-4.106-23.938-11.151
		c6.045-4.636,9.953-11.926,9.953-20.115c0-8.187-3.906-15.475-9.949-20.111c5.895-7.053,14.532-11.156,23.933-11.156h19.944
		c4.453,0,8.061-3.608,8.061-8.061c0-4.453-3.608-8.061-8.061-8.061h-19.944c-16.41,0-31.288,8.238-40.035,22.067
		c-10.845,0.3-20.005,7.442-23.311,17.26h-41.646v-29.925c0-19.512-15.875-35.387-35.387-35.387h-77.478
		c1.332-3.148,2.068-6.606,2.068-10.234v-4.065c0-14.533-11.823-26.358-26.357-26.358h-9.605c-4.453,0-8.061,3.608-8.061,8.061
		s3.608,8.061,8.061,8.061h9.605c5.643,0,10.234,4.591,10.234,10.235v4.065c0,5.643-4.591,10.234-10.234,10.234H137.151
		c-5.644,0-10.235-4.591-10.235-10.234v-4.065c0-5.644,4.591-10.235,10.235-10.235h68.223c4.453,0,8.061-3.608,8.061-8.061
		s-3.608-8.061-8.061-8.061h-68.223c-14.533,0-26.358,11.825-26.358,26.358v4.065c0,3.628,0.737,7.087,2.069,10.234H35.387
		C15.876,157.007,0,172.881,0,192.393v69.832c0,1.208,0.073,2.435,0.229,3.791C0.073,267.374,0,268.601,0,269.81v69.829
		c0,19.512,15.876,35.387,35.388,35.387h9.551c10.03,12.557,25.455,20.624,42.739,20.624h209.621c1.295,0,2.515-0.313,3.6-0.856
		c13.348-2.367,25.033-9.585,33.167-19.769h9.553c19.512,0,35.387-15.875,35.387-35.387v-69.83c0-1.203-0.073-2.43-0.23-3.793
		c0.157-1.364,0.23-2.589,0.23-3.791v-23.783h41.644c3.303,9.817,12.459,16.959,23.302,17.263c0.044,0.074,0.081,0.15,0.128,0.224
		c8.764,13.678,23.688,21.842,39.917,21.842h19.944c4.453,0,8.061-3.608,8.061-8.061S508.391,261.648,503.939,261.648z
		 M54.944,361.322c-0.177-0.285-0.35-0.572-0.52-0.86c-0.296-0.501-0.58-1.009-0.853-1.524c-0.236-0.447-0.47-0.895-0.688-1.35
		c-0.181-0.376-0.348-0.76-0.517-1.143c-0.159-0.361-0.312-0.724-0.459-1.09c-0.144-0.358-0.291-0.714-0.426-1.076
		c-0.242-0.658-0.468-1.321-0.673-1.992c-0.094-0.304-0.176-0.613-0.262-0.92c-0.142-0.507-0.275-1.017-0.396-1.531
		c-0.067-0.281-0.134-0.56-0.195-0.843c-0.161-0.761-0.304-1.526-0.419-2.298c-0.028-0.183-0.045-0.369-0.071-0.554
		c-0.088-0.657-0.16-1.317-0.215-1.98c-0.019-0.234-0.039-0.469-0.054-0.704c-0.054-0.831-0.09-1.665-0.09-2.503
		c0-21.267,17.302-38.569,38.569-38.569s38.569,17.302,38.569,38.569s-17.302,38.57-38.569,38.57
		C73.882,379.527,61.763,372.242,54.944,361.322z M126.414,302.387h126.175c-9.854,9.897-15.955,23.533-15.955,38.569
		c0,15.036,6.101,28.673,15.955,38.57H126.414c9.854-9.897,15.955-23.534,15.955-38.57
		C142.369,325.92,136.268,312.285,126.414,302.387z M291.326,379.527c-21.267,0-38.57-17.303-38.57-38.57
		s17.303-38.569,38.57-38.569c21.266,0,38.567,17.302,38.567,38.569c0,0.855-0.039,1.704-0.094,2.551
		c-0.015,0.233-0.033,0.466-0.054,0.699c-0.059,0.709-0.137,1.416-0.235,2.119c-0.02,0.149-0.034,0.3-0.057,0.448
		c-0.118,0.78-0.268,1.553-0.433,2.323c-0.064,0.298-0.134,0.593-0.205,0.889c-0.127,0.528-0.268,1.051-0.416,1.573
		c-0.101,0.352-0.2,0.704-0.311,1.052c-0.191,0.605-0.4,1.206-0.621,1.8c-0.145,0.388-0.299,0.772-0.456,1.153
		c-0.142,0.347-0.293,0.691-0.446,1.034c-0.3,0.673-0.619,1.336-0.956,1.988c-0.149,0.29-0.297,0.583-0.454,0.868
		c-0.232,0.422-0.473,0.839-0.72,1.252c-0.148,0.248-0.304,0.493-0.459,0.74C317.146,372.296,305.069,379.527,291.326,379.527z
		 M362.88,262.225c0,0.76-0.069,1.613-0.217,2.685c-0.102,0.734-0.102,1.479,0,2.213c0.148,1.072,0.217,1.925,0.217,2.687v69.83
		c0,10.622-8.642,19.264-19.264,19.264h-0.612c0.781-2.25,1.407-4.551,1.887-6.89c0.016-0.078,0.029-0.157,0.045-0.235
		c0.148-0.742,0.283-1.488,0.4-2.237c0.038-0.236,0.07-0.474,0.104-0.712c0.087-0.606,0.166-1.215,0.233-1.825
		c0.031-0.282,0.061-0.562,0.088-0.845c0.057-0.605,0.102-1.212,0.139-1.821c0.016-0.262,0.037-0.523,0.049-0.786
		c0.041-0.863,0.066-1.728,0.066-2.597c0-30.157-24.534-54.692-54.69-54.692H87.677c-30.157,0-54.692,24.535-54.692,54.692
		c0,0.867,0.026,1.732,0.066,2.595c0.013,0.267,0.033,0.531,0.049,0.798c0.037,0.603,0.081,1.205,0.138,1.804
		c0.028,0.29,0.058,0.578,0.09,0.865c0.066,0.599,0.142,1.194,0.228,1.789c0.037,0.25,0.071,0.502,0.111,0.752
		c0.114,0.718,0.242,1.433,0.384,2.144c0.023,0.111,0.04,0.223,0.063,0.332c0.479,2.331,1.106,4.626,1.884,6.869h-0.611
		c-10.623,0-19.265-8.642-19.265-19.264v-69.83c0-0.769,0.069-1.62,0.216-2.681c0.103-0.738,0.103-1.488,0-2.225
		c-0.147-1.061-0.216-1.912-0.216-2.679v-69.832c0-10.622,8.642-19.264,19.265-19.264h101.766h104.697h101.767
		c10.622,0,19.264,8.642,19.264,19.264L362.88,262.225L362.88,262.225z M435.449,230.382c0-5.083,4.136-9.218,9.218-9.218
		c5.083,0,9.219,4.136,9.219,9.218c0,5.082-4.136,9.218-9.219,9.218C439.585,239.6,435.449,235.464,435.449,230.382z"/>
</g>
<g>
</g>
<g>
</g>
<g>
</g>
<g>
</g>
<g>
</g>
<g>
</g>
<g>
</g>
<g>
</g>
<g>
</g>
<g>
</g>
<g>
</g>
<g>
</g>
<g>
</g>
<g>
</g>
<g>
</g>
</svg>
