<?xml version="1.0" encoding="iso-8859-1"?>
<!-- Generator: Adobe Illustrator 19.0.0, SVG Export Plug-In . SVG Version: 6.00 Build 0)  -->
<svg version="1.1" id="Layer_1" xmlns="http://www.w3.org/2000/svg" xmlns:xlink="http://www.w3.org/1999/xlink" x="0px" y="0px"
	 viewBox="0 0 512 512" style="enable-background:new 0 0 512 512;" xml:space="preserve">
<path style="fill:#3A5D74;" d="M234.195,362.93c23.44,53.723,66.402,96.974,119.922,120.793
	C442.232,445.709,503.916,358.064,503.916,256c0-90.085-48.053-168.941-119.919-212.353
	c-97.792,28.348-169.284,118.571-169.284,225.5c0,23.043,3.32,45.313,9.508,66.352"/>
<g style="opacity:0.2;">
	<path style="fill:#231F20;" d="M258.042,364.838l-10.166-27.958c-6.308-21.445-9.691-44.141-9.691-67.627
		c0-100.943,62.514-187.268,150.932-222.417c-1.694-1.081-3.398-2.148-5.121-3.188c-97.792,28.348-169.284,118.571-169.284,225.5
		c0,23.043,3.32,45.313,9.508,66.352l9.974,27.431c23.44,53.723,66.402,96.974,119.922,120.793c3.085-1.331,6.133-2.729,9.152-4.18
		C316.651,454.177,279.395,413.778,258.042,364.838z"/>
</g>
<path style="fill:#231F20;" d="M408.943,461.342c18.548-13.812,35.002-29.976,49.019-47.971c0.078-0.099,0.155-0.199,0.233-0.299
	c0.991-1.275,1.969-2.56,2.935-3.853c29.774-39.687,47.205-86.891,50.338-136.847c0.055-0.863,0.112-1.726,0.158-2.59
	c0.044-0.844,0.081-1.688,0.117-2.533c0.052-1.188,0.095-2.378,0.13-3.569c0.019-0.666,0.041-1.331,0.056-1.998
	c0.042-1.891,0.069-3.783,0.069-5.681c0-1.852-0.028-3.703-0.068-5.552c-0.012-0.576-0.027-1.151-0.042-1.726
	c-0.04-1.392-0.091-2.782-0.152-4.173c-0.054-1.225-0.121-2.446-0.192-3.667c-0.042-0.719-0.083-1.437-0.132-2.155
	c-4.095-61.878-30.137-119.49-74.395-163.747C388.668,26.628,324.381,0,256.002,0S123.333,26.628,74.982,74.981
	C26.629,123.333,0.001,187.62,0.001,256s26.628,132.667,74.982,181.019C123.333,485.371,187.622,512,256.002,512
	c54.355,0,106.116-16.843,149.351-48.032c0.641-0.46,1.282-0.923,1.919-1.388C407.83,462.169,408.388,461.757,408.943,461.342z
	 M16.169,256c0-132.244,107.588-239.832,239.833-239.832c38.782,0,75.436,9.263,107.885,25.678
	c-42.308,16.005-80.04,44.001-107.632,80.181c-32.466,42.571-49.626,93.445-49.626,147.121c0,23.349,3.309,46.441,9.837,68.633
	c1.26,4.282,5.751,6.733,10.037,5.475c4.284-1.26,6.735-5.754,5.475-10.036c-6.091-20.71-9.18-42.266-9.18-64.071
	c0-99.068,65.576-187.634,159.92-216.678c66.12,41.315,110.768,113.921,113.02,196.934c0.009,0.322,0.015,0.646,0.023,0.968
	c0.043,1.872,0.071,3.748,0.071,5.63c0,1.838-0.028,3.669-0.07,5.496c-0.012,0.543-0.029,1.086-0.045,1.63
	c-0.04,1.378-0.094,2.751-0.157,4.123c-0.024,0.512-0.043,1.025-0.07,1.536c-0.092,1.729-0.2,3.453-0.329,5.171
	c-0.045,0.601-0.099,1.201-0.149,1.8c-0.096,1.177-0.201,2.351-0.314,3.523c-0.072,0.743-0.146,1.484-0.224,2.225
	c-0.123,1.152-0.257,2.3-0.396,3.447c-0.119,0.98-0.241,1.959-0.372,2.935c-0.162,1.215-0.33,2.428-0.511,3.638
	c-0.123,0.824-0.253,1.644-0.385,2.465c-0.149,0.935-0.305,1.866-0.465,2.797c-0.139,0.807-0.276,1.615-0.423,2.42
	c-0.282,1.544-0.576,3.084-0.887,4.618c-0.135,0.662-0.28,1.32-0.42,1.98c-0.231,1.088-0.466,2.174-0.71,3.257
	c-0.154,0.68-0.312,1.359-0.471,2.038c-0.303,1.286-0.617,2.568-0.94,3.845c-0.099,0.391-0.193,0.784-0.293,1.174
	c-0.454,1.75-0.926,3.493-1.417,5.228c-0.065,0.23-0.134,0.459-0.198,0.689c-0.489,1.705-0.993,3.404-1.519,5.094
	c-0.019,0.061-0.038,0.122-0.056,0.183c-20.537,65.817-68.729,119.543-130.908,147.527
	c-50.381-23.386-90.249-64.151-112.496-115.137c-1.786-4.092-6.553-5.966-10.642-4.177c-4.093,1.785-5.962,6.55-4.177,10.642
	c21.835,50.046,59.522,90.884,107.193,116.644c-24.461,8.428-50.692,13.02-77.979,13.02C123.757,495.832,16.169,388.244,16.169,256z
	"/>
<g>
</g>
<g>
</g>
<g>
</g>
<g>
</g>
<g>
</g>
<g>
</g>
<g>
</g>
<g>
</g>
<g>
</g>
<g>
</g>
<g>
</g>
<g>
</g>
<g>
</g>
<g>
</g>
<g>
</g>
</svg>
