<?xml version="1.0" encoding="iso-8859-1"?>
<!-- Generator: Adobe Illustrator 19.0.0, SVG Export Plug-In . SVG Version: 6.00 Build 0)  -->
<svg version="1.1" id="Layer_1" xmlns="http://www.w3.org/2000/svg" xmlns:xlink="http://www.w3.org/1999/xlink" x="0px" y="0px"
	 viewBox="0 0 512 512" style="enable-background:new 0 0 512 512;" xml:space="preserve">
<circle style="fill:#8C6E51;" cx="472.775" cy="255.999" r="31.145"/>
<circle style="fill:#90C8EC;" cx="335.753" cy="255.999" r="69.675"/>
<path style="fill:#FF4D30;" d="M185.331,255.999c0-102.829-77.558-187.876-177.247-199.748v398.494h7.19
	C111.475,439.741,185.331,356.346,185.331,255.999z"/>
<path style="fill:#FF9737;" d="M213.344,337.587c9.11-25.515,14.073-52.982,14.073-81.587c0-126.061-96.387-230.027-219.333-242.089
	v42.341c99.689,11.871,177.247,96.918,177.247,199.747c0,102.833-77.558,187.878-177.247,199.749v42.339
	c86.469-8.485,159.801-62.427,195.704-137.545"/>
<g style="opacity:0.2;">
	<path style="fill:#231F20;" d="M467.625,255.999c0-12.557,7.436-23.373,18.144-28.299c-3.958-1.821-8.358-2.845-12.998-2.845
		c-17.202,0-31.144,13.946-31.144,31.144c0,17.202,13.941,31.147,31.144,31.147c4.641,0,9.041-1.023,12.998-2.845
		C475.062,279.377,467.625,268.56,467.625,255.999z"/>
</g>
<g style="opacity:0.2;">
	<path style="fill:#231F20;" d="M292.079,255.999c0-34.036,24.411-62.353,56.677-68.444c-4.214-0.795-8.554-1.23-12.999-1.23
		c-38.48,0-69.676,31.193-69.676,69.674c0,38.48,31.195,69.676,69.676,69.676c4.444,0,8.785-0.433,12.999-1.23
		C316.49,318.354,292.079,290.035,292.079,255.999z"/>
</g>
<g>
	<path style="fill:#231F20;" d="M61.675,276.166h-4.208c-4.465,0-8.084,3.618-8.084,8.084c0,4.466,3.62,8.084,8.084,8.084h4.208
		c4.465,0,8.084-3.618,8.084-8.084C69.759,279.784,66.14,276.166,61.675,276.166z"/>
	<path style="fill:#231F20;" d="M8.873,5.866C6.604,5.64,4.344,6.39,2.654,7.922C0.965,9.455,0,11.63,0,13.912v17.829v24.511
		v399.497v14.876v27.464c0,2.281,0.965,4.457,2.654,5.99c1.494,1.354,3.432,2.094,5.429,2.094c0.263,0,0.526-0.013,0.79-0.039
		c43.363-4.254,85.105-19.9,120.712-45.245c34.902-24.842,63.083-58.336,81.495-96.86c1.925-4.028,0.22-8.855-3.808-10.78
		c-4.03-1.926-8.855-0.22-10.78,3.807c-34.098,71.347-102.637,121.255-180.324,131.94v-18.373v-7.82
		c101.55-15.611,177.247-103.276,177.247-206.805S117.719,64.808,16.168,49.197V31.741v-8.747
		c116.446,15.785,203.165,114.428,203.165,233.005c0,27.055-4.577,53.59-13.603,78.87c-1.502,4.204,0.691,8.83,4.896,10.332
		c4.202,1.502,8.83-0.691,10.332-4.896c9.65-27.028,14.544-55.393,14.544-84.305c0-62.718-23.323-122.823-65.674-169.243
		C127.761,40.649,70.6,11.921,8.873,5.866z M16.168,397.288h99.594c-26.96,25.147-61.221,42.735-99.594,49.142V397.288z
		 M176.187,276.166H89.353c-4.465,0-8.084,3.618-8.084,8.084c0,4.466,3.62,8.084,8.084,8.084h84.461
		c-6.364,33.321-21.318,63.769-42.596,88.785H16.168V187.374h147.358c0.374,0,0.738-0.035,1.099-0.083
		c8.162,21.416,12.621,44.594,12.621,68.708C177.247,262.803,176.879,269.529,176.187,276.166z M157.641,171.206H16.168V65.572
		C79.047,76.07,130.9,116.578,157.641,171.206z"/>
	<path style="fill:#231F20;" d="M335.757,178.242c-42.876,0-77.76,34.882-77.76,77.758c0,42.876,34.883,77.76,77.76,77.76
		c42.876,0,77.759-34.883,77.759-77.76C413.516,213.124,378.633,178.242,335.757,178.242z M335.757,317.591
		c-33.962,0-61.592-27.63-61.592-61.592c0-33.96,27.63-61.59,61.592-61.59c33.961,0,61.591,27.63,61.591,61.59
		C397.348,289.962,369.718,317.591,335.757,317.591z"/>
	<path style="fill:#231F20;" d="M472.77,216.773c-21.63,0-39.228,17.597-39.228,39.228c0,21.632,17.597,39.231,39.228,39.231
		c21.631,0,39.23-17.599,39.23-39.231C512,234.369,494.402,216.773,472.77,216.773z M472.77,279.063
		c-12.715,0-23.059-10.347-23.059-23.063c0-12.715,10.345-23.059,23.059-23.059c12.716,0,23.062,10.345,23.062,23.059
		C495.832,268.716,485.486,279.063,472.77,279.063z"/>
</g>
<g style="opacity:0.2;">
	<path style="fill:#231F20;" d="M34.082,455.749c2.407-0.287,4.796-0.631,7.176-1.002h-7.176V56.253V17.912
		c-8.514-1.784-17.185-3.137-25.998-4v42.341v398.494h7.176c-2.38,0.372-4.769,0.716-7.176,1.002v42.339
		c8.812-0.866,17.485-2.21,25.998-3.993V455.749z"/>
</g>
<g>
</g>
<g>
</g>
<g>
</g>
<g>
</g>
<g>
</g>
<g>
</g>
<g>
</g>
<g>
</g>
<g>
</g>
<g>
</g>
<g>
</g>
<g>
</g>
<g>
</g>
<g>
</g>
<g>
</g>
</svg>
